<?xml version="1.0" encoding="UTF-8" standalone="no"?>
<svg
   xmlns:dc="http://purl.org/dc/elements/1.1/"
   xmlns:cc="http://creativecommons.org/ns#"
   xmlns:rdf="http://www.w3.org/1999/02/22-rdf-syntax-ns#"
   xmlns:svg="http://www.w3.org/2000/svg"
   xmlns="http://www.w3.org/2000/svg"
   xmlns:sodipodi="http://sodipodi.sourceforge.net/DTD/sodipodi-0.dtd"
   xmlns:inkscape="http://www.inkscape.org/namespaces/inkscape"
   width="400"
   height="400"
   id="svg2"
   version="1.1"
   inkscape:version="0.91 r13725"
   sodipodi:docname="hacs-logo.dark.svg">
  <metadata
     id="metadata44">
    <rdf:RDF>
      <cc:Work
         rdf:about="">
        <dc:format>image/svg+xml</dc:format>
        <dc:type
           rdf:resource="http://purl.org/dc/dcmitype/StillImage" />
        <dc:title></dc:title>
      </cc:Work>
    </rdf:RDF>
  </metadata>
  <defs
     id="defs42" />
  <sodipodi:namedview
     pagecolor="#ffffff"
     bordercolor="#666666"
     borderopacity="1"
     objecttolerance="10"
     gridtolerance="10"
     guidetolerance="10"
     inkscape:pageopacity="0"
     inkscape:pageshadow="2"
     inkscape:window-width="1431"
     inkscape:window-height="729"
     id="namedview40"
     showgrid="false"
     inkscape:zoom="0.66709487"
     inkscape:cx="-188.52337"
     inkscape:cy="157.69621"
     inkscape:window-x="217"
     inkscape:window-y="71"
     inkscape:window-maximized="0"
     inkscape:current-layer="svg2"
     fit-margin-top="5"
     fit-margin-left="5"
     fit-margin-right="5"
     fit-margin-bottom="5" />
  <desc
     id="desc4">C:\Documents and Settings\ktt\Desktop\Main.dxf - scale = 1.000000</desc>
  <path
     style="stroke:#ffffff;stroke-width:1.48500001;fill:#ffffff"
     inkscape:connector-curvature="0"
     id="path12"
     d="m 365.67753,260.82997 c 6.44453,4.41867 15.31264,3.87485 21.1727,-1.74682 6.70931,-6.43794 6.93233,-17.1023 0.49219,-23.8138 -6.44014,-6.7126 -17.1034,-6.93232 -23.816,-0.49438 -5.86117,5.61947 -6.76753,14.45791 -2.62242,21.08042 l -59.13021,56.72642 -211.342546,0 -51.836437,-55.34325 c 4.493377,-6.3885 4.056124,-15.2632 -1.494131,-21.19028 -6.355547,-6.78731 -17.015508,-7.13667 -23.802815,-0.78003 -6.7895042,6.35665 -7.1366698,17.01771 -0.780024,23.80502 5.550255,5.92708 14.378808,6.94331 21.04966,2.8762 l 53.876585,57.52731 217.098248,0 61.133,-58.64681" />
  <path
     style="stroke:#ffffff;stroke-width:1.4849999;fill:#ffffff"
     inkscape:connector-curvature="0"
     id="path16"
     d="m 204.70853,89.381229 c 0,6.654137 5.4082,12.060761 12.06155,12.060761 5.80909,0 10.6529,-4.107248 11.79113,-9.57991 l 53.06012,0 71.67991,65.2443 c -2.84008,4.81236 -2.03359,11.12298 2.26075,15.03293 4.92085,4.47826 12.54184,4.1096 17.02327,-0.81123 4.4775,-4.92085 4.11275,-12.54342 -0.80966,-17.02328 a 12.030106,12.030106 0 0 0 -15.15713,-0.85917 l -73.10505,-66.521672 -54.95221,0 c -1.13981,-5.473447 -5.98204,-9.580689 -11.79113,-9.580689 -6.65335,7.82e-4 -12.06155,5.383042 -12.06155,12.03796 z" />
  <path
     style="fill:#ffffff;fill-opacity:1;stroke:#ffffff;stroke-width:1.48500001;stroke-opacity:1"
     inkscape:connector-curvature="0"
     id="path8-3"
     d="m 64.348649,122.39117 c 0,0 -1.217156,6.1325 -4.796642,5.99577 -3.054244,-0.12114 -2.754462,-5.73375 -2.754462,-5.73375 l -3.87806,0.33756 c 0,0 0.552818,5.04665 -2.810228,6.07073 -3.358827,1.02528 -4.79662,-3.59747 -4.79662,-3.59747 l -3.165777,1.47975 c 0,0 1.961826,4.55681 -0.825023,6.40831 -2.794035,1.85749 -6.034156,-1.93065 -6.034156,-1.93065 l -2.510425,2.83002 c 0,0 3.593878,4.16885 1.834716,6.27756 -1.760361,2.10033 -7.362822,0.69252 -7.362822,0.69252 l -0.881373,2.79104 c 0,0 4.608953,2.80603 4.085524,5.20913 -0.75369,3.46256 -6.651132,2.21124 -6.651132,2.21124 l -0.299782,3.24131 c 0,0 5.2481,0.66674 5.808102,4.60957 0.323765,2.23043 -5.583257,3.7096 -5.583257,3.7096 l 1.555301,3.29767 2.398299,-0.52404 c 2.046366,0.21406 3.19756,1.55291 3.597471,2.11651 0.175692,0.66253 0.47487,2.4187 -0.675116,4.14189 l -1.930637,1.51692 1.536714,3.29768 c 0,0 4.916524,-3.58548 6.427474,-1.91085 2.66454,2.95591 -0.20686,7.40119 -0.20686,7.40119 l 2.698114,1.85569 c 0,0 2.818018,-5.32846 5.958603,-3.691 2.18845,1.13621 1.386234,6.46344 1.386234,6.46344 l 2.698103,1.12423 c 0,0 2.525421,-5.20435 5.26548,-5.20914 2.744861,0 3.634648,5.43398 3.634648,5.43398 l 3.785138,-0.13187 c 0,0 -0.833406,-4.90814 2.378513,-5.86387 3.210161,-0.95334 5.452565,3.48535 5.452565,3.48535 l 3.147792,-1.48096 c 0,0 -2.618947,-4.07534 0.318975,-5.99578 2.937933,-1.92466 6.464663,1.72438 6.464663,1.72438 l 2.753847,-2.73647 c 0,0 -4.505221,-3.39062 -2.641743,-5.80812 2.188461,-2.83957 7.663812,0.14997 7.663812,0.14997 l 1.648839,-3.50453 c 0,0 -5.866868,-2.1285 -4.983683,-4.79662 1.067238,-3.20175 6.745252,-3.16578 6.745252,-3.16578 l 0.01802,-3.1118 c 0.0033,0 -5.529304,-0.88559 -5.82668,-3.85889 -0.329785,-3.39961 6.108488,-4.51664 6.108488,-4.51664 l -1.087034,-3.87807 c 0,0 -4.768452,2.39834 -6.763248,-1.23752 -1.531318,-3.87147 3.372044,-6.01376 3.372044,-6.01376 l -2.284404,-3.31688 c 0,0 -4.971697,4.25281 -7.364613,1.81674 -2.093727,-2.1285 0.768653,-6.95091 0.768653,-6.95091 l -2.39831,-1.98461 c 0,0 -3.611852,4.38112 -6.745263,3.14778 -2.615958,-1.02768 -0.488042,-6.89515 -0.488042,-6.89515 l -3.765341,-0.9935 z m -10.174863,10.66051 12.217021,9.34981 -5.507716,7.19492 -2.361144,-1.81671 -1.780751,2.39832 3.673023,2.81022 2.810811,2.15488 1.855095,-2.34255 -2.380326,-1.81673 5.508914,-7.19493 12.216406,9.34982 -5.564076,7.30707 -1.836528,-1.31069 -8.188428,10.69888 1.199172,0.89934 -5.883655,7.6806 -11.823702,-9.05001 6.014984,-8.05653 2.660915,2.04157 1.311286,-1.49896 -2.791651,-2.11651 -0.581568,-0.43169 -0.617581,-0.46767 0,-0.0192 -2.754441,-2.13629 -1.124223,1.64884 2.660914,2.04217 -6.202003,7.90723 -11.822505,-9.04944 5.883677,-7.68237 1.181154,0.91854 8.186648,-10.69947 -1.742375,-1.424 5.583268,-7.28847 z" />
  <g
     id="g5201"
     transform="matrix(1.0986253,0,0,1.0986253,-412.07991,61.501711)"
     style="fill:#ffffff;stroke:#ffffff">
    <path
       inkscape:connector-curvature="0"
       id="path4197"
       d="m 525.36755,110.42231 -22.30182,-49.999991 -11.16649,0 -22.30237,49.999991 11.20147,0 16.6847,-37.433231 16.71637,37.433231 11.16869,0"
       style="fill:#ffffff;fill-opacity:1;stroke:#ffffff;stroke-width:1.35168159;stroke-opacity:1" />
    <path
       id="path250"
       d="m 548.73707,60.422429 c -11.11172,0 -16.66663,5.5578 -16.66663,16.66663 l 0,16.66662 c 0,11.108831 5.55777,16.666631 16.66663,16.666631 l 33.33326,0 0,-9.99998 -31.93932,0 c -5.37441,0 -8.0606,-2.648811 -8.0606,-7.999981 l 0,-13.99997 c 0,-5.33119 2.70634,-7.99998 8.0606,-7.99998 l 31.93932,0 0,-9.99997 -33.33326,0 z"
       style="fill:#ffffff;fill-opacity:1;stroke:#ffffff;stroke-width:1.35177565;stroke-opacity:1"
       inkscape:connector-curvature="0" />
    <path
       sodipodi:nodetypes="cccccccccccccccccc"
       inkscape:connector-curvature="0"
       id="path280"
       d="m 644.36655,95.425379 c 0,10.001781 -5.55677,14.996931 -16.66748,14.996931 l -33.33219,0 0,-10.00156 31.66716,0 c 5.55679,0 8.33374,-1.662151 8.33374,-4.995371 0,-3.333 -2.77695,-5.00348 -8.33374,-5.00348 l -15.00253,0 0,0 c -11.11072,0 -16.66749,-4.99516 -16.66749,-14.99692 0,-9.99848 5.55392,-15.00255 16.66749,-15.00255 l 33.33504,0 0,9.99885 -31.66711,0 c -5.5568,0 -8.33378,1.67086 -8.33378,5.0037 0,3.33301 2.77698,4.99515 8.33378,4.99515 l 14.99963,0 c 11.11071,0 16.66748,5.0037 16.66748,15.00525"
       style="fill:#ffffff;fill-opacity:1;stroke:#ffffff;stroke-width:1.35177553;stroke-opacity:1" />
  </g>
  <path
     style="stroke:#ffffff;stroke-width:1.48500001;fill:#ffffff"
     inkscape:connector-curvature="0"
     id="path24-6"
     d="m 86.670254,113.50618 c -8.204303,-6.13935 -18.381429,-9.7796 -29.39729,-9.7796 -23.444587,0 -43.094753,16.48539 -48.0061129,38.46986 l 7.6195479,0 c 4.748929,-17.85927 21.051221,-31.05999 40.387158,-31.05999 19.334169,0 35.638823,13.20131 40.385983,31.06059 l 7.61955,0 C 102.95542,131.79133 97.324635,122.6207 89.553871,115.84343 l 21.220159,-23.321726 51.19274,0 c 0.85646,4.111012 4.49908,7.201357 8.86349,7.201357 5.00054,0 9.05485,-4.054894 9.05485,-9.054859 0,-4.999942 -4.05431,-9.054847 -9.05485,-9.054847 -4.36501,0 -8.00762,3.089169 -8.8629,7.201357 l -52.83006,0 -22.466452,24.690878" />
  <g
     id="g5231"
     transform="matrix(1.0986253,0,0,1.0986253,-380.62371,60.486801)"
     style="fill:#ffffff;stroke:#ffffff">
    <g
       transform="translate(264.25854,-533.6996)"
       id="g4276"
       style="fill:#ffffff;stroke:#ffffff">
      <path
         style="fill:#ffffff;fill-opacity:1;stroke:#ffffff;stroke-width:1.35177553"
         d="m 191.1013,664.65885 0,-7.1847 3.59805,-0.0119 0,17.99239 -3.59805,0 0,-7.19713 -10.79621,0 0,7.19713 -3.59909,0 0,-17.99239 3.59909,0 0,7.19614 10.79621,0 0,0"
         id="path242"
         inkscape:connector-curvature="0" />
      <path
         inkscape:connector-curvature="0"
         style="fill:#ffffff;fill-opacity:1;stroke:#ffffff;stroke-width:1.35177553"
         d="m 205.39426,657.45607 -7.80892,17.99542 3.92628,0 1.54869,-3.59909 8.59418,0 1.5487,3.59909 3.90446,0 -7.80892,-17.99542 -3.90447,0 z m 1.96314,4.53702 2.72659,6.26023 -5.45317,0 2.72658,-6.26023 z"
         id="path244" />
      <path
         inkscape:connector-curvature="0"
         style="fill:#ffffff;fill-opacity:1;stroke:#ffffff;stroke-width:1.35177553"
         d="m 225.17832,657.45607 c -3.99921,0 -5.99847,2.0003 -5.99847,5.99847 l 0,5.99848 c 0,3.99817 2.00029,5.99847 5.99847,5.99847 l 11.99696,0 0,-3.59909 -11.49526,0 c -1.9343,0 -2.90108,-0.95333 -2.90108,-2.87926 l 0,-5.03872 c 0,-1.91875 0.97403,-2.87926 2.90108,-2.87926 l 11.49526,0 0,-3.59909 -11.99696,0 z"
         id="path250-3" />
      <path
         style="fill:#ffffff;fill-opacity:1;stroke:#ffffff;stroke-width:1.35177553"
         d="m 244.33914,667.33647 0,8.11863 -3.59805,0 0,-17.9924 3.59805,0 0,8.1208 9.02053,-8.1208 5.37374,0 -9.98041,8.99777 9.98041,8.9956 -5.37374,0 -9.02053,-8.1196 0,0"
         id="path270"
         inkscape:connector-curvature="0" />
      <path
         style="fill:#ffffff;fill-opacity:1;stroke:#ffffff;stroke-width:1.35177553"
         d="m 280.29061,670.05847 c 0,3.59912 -1.99961,5.39663 -5.99778,5.39663 l -11.99454,0 0,-3.59905 11.39538,0 c 1.9996,0 2.99889,-0.59813 2.99889,-1.79758 0,-1.19938 -0.99929,-1.8005 -2.99889,-1.8005 l -5.39863,0 0,0 c -3.99818,0 -5.99778,-1.7975 -5.99778,-5.39663 0,-3.59793 1.99858,-5.39864 5.99778,-5.39864 l 11.99557,0 0,3.59808 -11.39537,0 c -1.99961,0 -2.9989,0.60126 -2.9989,1.80056 0,1.19939 0.99929,1.79751 2.9989,1.79751 l 5.39759,0 c 3.99817,0 5.99778,1.80057 5.99778,5.39962"
         id="path280-5"
         inkscape:connector-curvature="0"
         sodipodi:nodetypes="cccccccccccccccccc" />
      <path
         inkscape:connector-curvature="0"
         style="fill:#ffffff;fill-opacity:1;stroke:#ffffff;stroke-width:1.35177553"
         d="m 283.85432,657.45607 0,17.99542 3.59908,0 0,-7.19817 8.39786,0 c 3.99714,0 5.99848,-1.7886 5.99848,-5.38772 0,-3.59793 -2.00134,-5.40953 -5.99848,-5.40953 l -11.99694,0 z m 3.59908,3.59909 7.78711,0 c 1.9996,0 3.01014,0.61113 3.01014,1.81044 0,1.19938 -1.01054,1.78863 -3.01014,1.78863 l -7.78711,0 0,-3.59907 z"
         id="path296" />
      <path
         inkscape:connector-curvature="0"
         style="fill:#ffffff;fill-opacity:1;stroke:#ffffff;stroke-width:1.35177553"
         d="m 310.24761,657.45607 -7.80893,17.99542 3.92627,0 1.54871,-3.59909 8.59418,0 1.54869,3.59909 3.90446,0 -7.80892,-17.99542 -3.90446,0 z m 1.96314,4.53702 2.70476,6.26023 -5.43135,0 2.72659,-6.26023 z"
         id="path306" />
      <path
         inkscape:connector-curvature="0"
         style="fill:#ffffff;fill-opacity:1;stroke:#ffffff;stroke-width:1.35177553"
         d="m 330.03167,657.45607 c -3.99715,0 -5.99847,2.0003 -5.99847,5.99847 l 0,5.99848 c 0,3.99817 2.00132,5.99847 5.99847,5.99847 l 11.99695,0 0,-3.59909 -11.49526,0 c -1.93533,0 -2.90109,-0.95333 -2.90109,-2.87926 l 0,-5.03872 c 0,-1.91875 0.97612,-2.87926 2.90109,-2.87926 l 11.49526,0 0,-3.59909 -11.99695,0 z"
         id="path310" />
      <path
         style="fill:#ffffff;fill-opacity:1;stroke:#ffffff;stroke-width:1.35177553"
         d="m 349.19153,671.85605 14.39529,0 0,3.59905 -17.99334,0 0,-17.9924 17.99334,0 0,3.59808 -14.39529,0 0,3.59912 14.39529,0 0,3.59912 -14.39529,0 0,3.59703 0,0"
         id="path328"
         inkscape:connector-curvature="0" />
    </g>
    <g
       transform="translate(0.35443,-0.49259378)"
       id="g5223"
       style="fill:#ffffff;stroke:#ffffff">
      <path
         id="path244-6"
         d="m 448.41903,148.4828 -7.80892,17.99542 3.92628,0 1.54869,-3.59909 8.59418,0 1.5487,3.59909 3.90446,0 -7.80892,-17.99542 -3.90447,0 z m 1.96314,4.53702 2.72659,6.26023 -5.45317,0 2.72658,-6.26023 z"
         style="fill:#ffffff;fill-opacity:1;stroke:#ffffff;stroke-width:1.35177553"
         inkscape:connector-curvature="0" />
      <path
         id="path250-3-2"
         d="m 470.82135,148.4828 c -3.99921,0 -5.99847,2.0003 -5.99847,5.99847 l 0,5.99848 c 0,3.99817 2.00029,5.99847 5.99847,5.99847 l 11.99696,0 0,-3.59909 -11.49526,0 c -1.9343,0 -2.90108,-0.95333 -2.90108,-2.87926 l 0,-5.03872 c 0,-1.91875 0.97403,-2.87926 2.90108,-2.87926 l 11.49526,0 0,-3.59909 -11.99696,0 z"
         style="fill:#ffffff;fill-opacity:1;stroke:#ffffff;stroke-width:1.35177553"
         inkscape:connector-curvature="0" />
      <path
         id="path250-3-2-9"
         d="m 493.50723,148.4828 c -3.99921,0 -5.99847,2.0003 -5.99847,5.99847 l 0,5.99848 c 0,3.99817 2.00029,5.99847 5.99847,5.99847 l 11.99696,0 0,-3.59909 -11.49526,0 c -1.9343,0 -2.90108,-0.95333 -2.90108,-2.87926 l 0,-5.03872 c 0,-1.91875 0.97403,-2.87926 2.90108,-2.87926 l 11.49526,0 0,-3.59909 -11.99696,0 z"
         style="fill:#ffffff;fill-opacity:1;stroke:#ffffff;stroke-width:1.35177553"
         inkscape:connector-curvature="0" />
      <path
         inkscape:connector-curvature="0"
         id="path328-1"
         d="m 513.79269,162.87917 14.39529,0 0,3.59905 -17.99334,0 0,-17.9924 17.99334,0 0,3.59808 -14.39529,0 0,3.59912 14.39529,0 0,3.59912 -14.39529,0 0,3.59703 0,0"
         style="fill:#ffffff;fill-opacity:1;stroke:#ffffff;stroke-width:1.35177553" />
      <path
         sodipodi:nodetypes="cccccccccccccccccc"
         inkscape:connector-curvature="0"
         id="path280-5-2"
         d="m 550.87183,161.08159 c 0,3.59912 -1.99961,5.39663 -5.99778,5.39663 l -11.99454,0 0,-3.59905 11.39538,0 c 1.9996,0 2.99889,-0.59813 2.99889,-1.79758 0,-1.19938 -0.99929,-1.8005 -2.99889,-1.8005 l -5.39863,0 0,0 c -3.99818,0 -5.99778,-1.7975 -5.99778,-5.39663 0,-3.59793 1.99858,-5.39864 5.99778,-5.39864 l 11.99557,0 0,3.59808 -11.39537,0 c -1.99961,0 -2.9989,0.60126 -2.9989,1.80056 0,1.19939 0.99929,1.79751 2.9989,1.79751 l 5.39759,0 c 3.99817,0 5.99778,1.80057 5.99778,5.39962"
         style="fill:#ffffff;fill-opacity:1;stroke:#ffffff;stroke-width:1.35177553" />
      <path
         sodipodi:nodetypes="cccccccccccccccccc"
         inkscape:connector-curvature="0"
         id="path280-5-7"
         d="m 573.55567,161.08159 c 0,3.59912 -1.99961,5.39663 -5.99778,5.39663 l -11.99454,0 0,-3.59905 11.39538,0 c 1.9996,0 2.99889,-0.59813 2.99889,-1.79758 0,-1.19938 -0.99929,-1.8005 -2.99889,-1.8005 l -5.39863,0 0,0 c -3.99818,0 -5.99778,-1.7975 -5.99778,-5.39663 0,-3.59793 1.99858,-5.39864 5.99778,-5.39864 l 11.99557,0 0,3.59808 -11.39537,0 c -1.99961,0 -2.9989,0.60126 -2.9989,1.80056 0,1.19939 0.99929,1.79751 2.9989,1.79751 l 5.39759,0 c 3.99817,0 5.99778,1.80057 5.99778,5.39962"
         style="fill:#ffffff;fill-opacity:1;stroke:#ffffff;stroke-width:1.35177553" />
    </g>
    <g
       transform="translate(0.26602,0.06052797)"
       id="g5214"
       style="fill:#ffffff;stroke:#ffffff">
      <path
         inkscape:connector-curvature="0"
         style="fill:#ffffff;fill-opacity:1;stroke:#ffffff;stroke-width:1.35177565"
         d="m 469.76858,172.15932 c -3.99325,0 -5.99108,1.99784 -5.99108,5.99108 l 0,5.99109 c 0,3.99324 1.99783,5.99108 5.99108,5.99108 l 0,0.0217 5.99109,-0.0217 c 3.99324,-0.007 5.99108,-2.00509 5.99108,-5.99108 l 0,-5.99109 c 0,-3.99324 -1.99784,-5.99108 -5.99108,-5.99108 l -5.99109,0 z m 0,3.59465 5.40287,0 c 1.99714,0 2.98465,1.00933 2.98465,3.00644 l 0,4.79286 c 0,1.99711 -0.98751,2.98465 -2.98465,2.98465 l -4.79287,0 c -1.99714,0 -3.00643,-0.98754 -3.00643,-2.98465 l 0,-4.79286 c 0,-1.99711 0.79892,-3.00644 2.39643,-3.00644 z"
         id="path342" />
      <path
         id="path250-3-2-0"
         d="m 446.69699,172.15885 c -3.99921,0 -5.99847,2.0003 -5.99847,5.99847 l 0,5.99848 c 0,3.99817 2.00029,5.99847 5.99847,5.99847 l 11.99696,0 0,-3.59909 -11.49526,0 c -1.9343,0 -2.90108,-0.95333 -2.90108,-2.87926 l 0,-5.03872 c 0,-1.91875 0.97403,-2.87926 2.90108,-2.87926 l 11.49526,0 0,-3.59909 -11.99696,0 z"
         style="fill:#ffffff;fill-opacity:1;stroke:#ffffff;stroke-width:1.35177553"
         inkscape:connector-curvature="0" />
      <path
         style="fill:#ffffff;fill-opacity:1;stroke:#ffffff;stroke-width:1.35177565"
         d="m 490.4339,177.61895 0,12.53532 -3.59961,0 0,-17.995 3.67114,0 10.72521,12.53756 0,-12.53756 3.59961,0 0,17.995 -3.65974,0 -10.73661,-12.53532 0,0"
         id="path394"
         inkscape:connector-curvature="0" />
      <path
         inkscape:connector-curvature="0"
         style="fill:#ffffff;fill-opacity:1;stroke:#ffffff;stroke-width:1.35177565"
         d="m 532.99237,172.15927 0,17.995 3.599,0 0,-7.198 1.74497,0 8.44129,7.198 5.54028,0 -8.4631,-7.198 1.13423,0 c 3.99808,0 5.99833,-1.78856 5.99833,-5.3876 0,-3.59785 -2.00025,-5.4094 -5.99833,-5.4094 l -11.99667,0 z m 3.599,3.599 7.78693,0 c 1.99955,0 3.01007,0.61112 3.01007,1.8104 0,1.19935 -1.01052,1.7886 -3.01007,1.7886 l -7.78693,0 0,-3.599 z"
         id="path438" />
      <path
         inkscape:connector-curvature="0"
         style="fill:#ffffff;fill-opacity:1;stroke:#ffffff;stroke-width:1.35177565"
         d="m 563.39257,172.15932 c -3.99325,0 -5.99108,1.99784 -5.99108,5.99108 l 0,5.99109 c 0,3.99324 1.99783,5.99108 5.99108,5.99108 l 0,0.0217 5.99109,-0.0217 c 3.99324,-0.007 5.99108,-2.00509 5.99108,-5.99108 l 0,-5.99109 c 0,-3.99324 -1.99784,-5.99108 -5.99108,-5.99108 l -5.99109,0 z m 0,3.59465 5.40287,0 c 1.99714,0 2.98465,1.00933 2.98465,3.00644 l 0,4.79286 c 0,1.99711 -0.98751,2.98465 -2.98465,2.98465 l -4.79287,0 c -1.99714,0 -3.00643,-0.98754 -3.00643,-2.98465 l 0,-4.79286 c 0,-1.99711 0.79892,-3.00644 2.39643,-3.00644 z"
         id="path342-9" />
      <path
         inkscape:connector-curvature="0"
         style="fill:#ffffff;fill-opacity:1;stroke:#ffffff;stroke-width:1.35177565"
         d="m 580.45831,172.15927 0,17.995 17.995,0 0,-3.599 -14.396,0 0,-14.396 -3.599,0 z"
         id="path366" />
      <path
         inkscape:connector-curvature="0"
         style="fill:#ffffff;fill-opacity:1;stroke:#ffffff;stroke-width:1.35177565"
         d="m 520.71082,190.15427 0,-14.396 7.198,0 0,-3.59899 -17.995,0 0,3.59899 7.198,0 0,14.396 z"
         id="path366-6"
         sodipodi:nodetypes="ccccccccc" />
    </g>
    <g
       transform="translate(0,2.9980469e-6)"
       id="g5206"
       style="fill:#ffffff;stroke:#ffffff">
      <path
         sodipodi:nodetypes="cccccccccccccccccc"
         inkscape:connector-curvature="0"
         id="path280-5-7-3"
         d="m 458.95789,209.04694 c 0,3.59912 -1.99961,5.39663 -5.99778,5.39663 l -11.99454,0 0,-3.59905 11.39538,0 c 1.9996,0 2.99889,-0.59813 2.99889,-1.79758 0,-1.19938 -0.99929,-1.8005 -2.99889,-1.8005 l -5.39863,0 0,0 c -3.99818,0 -5.99778,-1.7975 -5.99778,-5.39663 0,-3.59793 1.99858,-5.39864 5.99778,-5.39864 l 11.99557,0 0,3.59808 -11.39537,0 c -1.99961,0 -2.9989,0.60126 -2.9989,1.80056 0,1.19939 0.99929,1.79751 2.9989,1.79751 l 5.39759,0 c 3.99817,0 5.99778,1.80057 5.99778,5.39962"
         style="fill:#ffffff;fill-opacity:1;stroke:#ffffff;stroke-width:1.35177553" />
      <path
         sodipodi:nodetypes="cccccccccccccccccc"
         inkscape:connector-curvature="0"
         id="path280-5-7-3-6"
         d="m 505.00238,209.04694 c 0,3.59912 -1.99961,5.39663 -5.99778,5.39663 l -11.99454,0 0,-3.59905 11.39538,0 c 1.9996,0 2.99889,-0.59813 2.99889,-1.79758 0,-1.19938 -0.99929,-1.8005 -2.99889,-1.8005 l -5.39863,0 0,0 c -3.99818,0 -5.99778,-1.7975 -5.99778,-5.39663 0,-3.59793 1.99858,-5.39864 5.99778,-5.39864 l 11.99557,0 0,3.59808 -11.39537,0 c -1.99961,0 -2.9989,0.60126 -2.9989,1.80056 0,1.19939 0.99929,1.79751 2.9989,1.79751 l 5.39759,0 c 3.99817,0 5.99778,1.80057 5.99778,5.39962"
         style="fill:#ffffff;fill-opacity:1;stroke:#ffffff;stroke-width:1.35177553" />
      <path
         inkscape:connector-curvature="0"
         style="fill:#ffffff;fill-opacity:1;stroke:#ffffff;stroke-width:1.35168159"
         d="m 464.55424,196.45157 6.42031,8.23362 0,9.75838 4.01804,0 0,-9.75834 6.42011,-8.23366 -4.03088,0 -4.39835,5.71794 -4.39836,-5.71794 -4.03088,0"
         id="path4267-5-9"
         sodipodi:nodetypes="cccccccccc" />
      <path
         inkscape:connector-curvature="0"
         id="path328-0"
         d="m 537.78817,210.84452 14.39529,0 0,3.59905 -17.99334,0 0,-17.9924 17.99334,0 0,3.59808 -14.39529,0 0,3.59912 14.39529,0 0,3.59912 -14.39529,0 0,3.59703 0,0"
         style="fill:#ffffff;fill-opacity:1;stroke:#ffffff;stroke-width:1.35177553" />
      <path
         style="fill:#ffffff;fill-opacity:1;stroke:#ffffff;stroke-width:1.35168147;stroke-opacity:1"
         d="m 566.79269,214.44357 4.16712,0 0,-0.0119 5.31358,-10.18532 0,10.19719 3.69926,0 0,-17.995 -3.78543,0 -7.31077,14.00009 -7.31116,-14.00009 -3.78544,0 0,17.995 3.69926,0 0,-10.18532 5.31358,10.18532"
         id="path30"
         inkscape:connector-curvature="0" />
      <path
         inkscape:connector-curvature="0"
         style="fill:#ffffff;fill-opacity:1;stroke:#ffffff;stroke-width:1.35177565"
         d="m 521.39572,214.44357 0,-14.396 7.198,0 0,-3.59899 -17.995,0 0,3.59899 7.198,0 0,14.396 z"
         id="path366-6-2"
         sodipodi:nodetypes="ccccccccc" />
    </g>
  </g>
</svg>
