<?xml version="1.0" encoding="utf-8"?>
<!-- Generator: Adobe Illustrator 16.0.0, SVG Export Plug-In . SVG Version: 6.00 Build 0)  -->
<!DOCTYPE svg PUBLIC "-//W3C//DTD SVG 1.1//EN" "http://www.w3.org/Graphics/SVG/1.1/DTD/svg11.dtd">
<svg version="1.1" xmlns="http://www.w3.org/2000/svg" xmlns:xlink="http://www.w3.org/1999/xlink" x="0px" y="0px"
	 width="841.89px" height="595.28px" viewBox="0 0 841.89 595.28" enable-background="new 0 0 841.89 595.28" xml:space="preserve">
<g id="Ebene_1">
	<rect stroke="#000000" stroke-miterlimit="10" width="846" height="595.28"/>
</g>
<g id="Ebene_2">
	<g>
		<defs>
			<rect id="SVGID_1_" x="39.368" y="0.015" width="767.265" height="595.25"/>
		</defs>
		<clipPath id="SVGID_2_">
			<use xlink:href="#SVGID_1_"  overflow="visible"/>
		</clipPath>
		<path clip-path="url(#SVGID_2_)" fill="#FFFFFF" d="M235.606,414.108l-8.572-0.3l-8.885-31.693l-0.13-0.003l-11.073,30.995
			l-8.891-0.311l-11.661-45.754l10.106,0.353l6.573,30.077l0.127,0.004l10.446-29.48l9.275,0.323l8.452,29.374l0.131,0.003
			l8.243-28.79l10.876,0.379L235.606,414.108z M289.6,387.492c-0.6-1.815-1.492-3.394-2.685-4.737
			c-1.193-1.343-2.638-2.408-4.339-3.193c-1.705-0.786-3.62-1.217-5.753-1.289c-2.13-0.076-4.076,0.218-5.829,0.884
			c-1.75,0.666-3.27,1.626-4.553,2.885c-1.279,1.257-2.282,2.77-3.006,4.536c-0.724,1.77-1.123,3.697-1.194,5.789
			c-0.076,2.132,0.186,4.095,0.786,5.887c0.601,1.794,1.496,3.362,2.685,4.705c1.193,1.345,2.641,2.409,4.342,3.194
			c1.701,0.785,3.62,1.215,5.749,1.291c2.134,0.073,4.077-0.223,5.829-0.887c1.754-0.664,3.27-1.625,4.553-2.884
			c1.283-1.255,2.284-2.759,3.006-4.507c0.724-1.746,1.121-3.686,1.197-5.816C290.46,391.26,290.2,389.306,289.6,387.492
			 M298.585,403.497c-1.319,2.901-3.102,5.349-5.349,7.339c-2.246,1.993-4.884,3.492-7.907,4.495
			c-3.023,1.007-6.307,1.444-9.848,1.322c-3.539-0.125-6.782-0.792-9.729-2.005c-2.946-1.212-5.471-2.891-7.574-5.037
			c-2.104-2.145-3.71-4.707-4.824-7.693c-1.114-2.984-1.607-6.289-1.479-9.914c0.128-3.625,0.85-6.89,2.167-9.789
			s3.101-5.347,5.347-7.34c2.25-1.989,4.884-3.489,7.909-4.495c3.024-1.004,6.307-1.445,9.846-1.321
			c3.54,0.124,6.782,0.792,9.73,2.006c2.946,1.213,5.471,2.891,7.573,5.035c2.104,2.144,3.71,4.708,4.824,7.696
			c1.114,2.983,1.607,6.288,1.479,9.913C300.627,397.334,299.905,400.598,298.585,403.497 M330.291,380.522l-6.527-0.229
			c-0.896-0.029-1.813,0-2.754,0.096c-0.945,0.095-1.784,0.312-2.523,0.648c-0.735,0.338-1.351,0.84-1.846,1.506
			c-0.491,0.665-0.76,1.574-0.799,2.728c-0.043,1.235,0.19,2.204,0.698,2.903c0.512,0.702,1.164,1.227,1.964,1.575
			c0.799,0.349,1.699,0.571,2.698,0.669c1,0.102,1.949,0.166,2.844,0.198l5.885,0.206L330.291,380.522z M338.982,417.719
			l-9.979-0.348l0.632-18.105l-4.923-0.172l-10.104,17.774l-11.961-0.419l12.183-18.726c-3.179-0.708-5.56-2.211-7.145-4.508
			c-1.584-2.298-2.321-5.046-2.208-8.245c0.092-2.643,0.628-4.834,1.607-6.572c0.979-1.737,2.263-3.101,3.856-4.093
			c1.592-0.988,3.432-1.673,5.516-2.049s4.278-0.522,6.582-0.443l17.526,0.612L338.982,417.719z M384.786,419.317l-9.981-0.347
			l0.753-21.496l-19.175,20.853l-13.946-0.488l22.724-23.481l-19.415-21.751l13.049,0.457l16.937,19.422l0.655-18.809l9.981,0.349
			L384.786,419.317z M394.11,377.882c1.978-1.637,4.175-2.778,6.588-3.42c2.414-0.642,4.899-0.916,7.459-0.827
			c2.217,0.076,4.361,0.462,6.429,1.15c2.067,0.695,3.882,1.684,5.438,2.977c1.555,1.296,2.783,2.875,3.675,4.742
			c0.895,1.867,1.303,4.015,1.22,6.447c-0.091,2.516-0.684,4.522-1.78,6.022c-1.1,1.496-2.453,2.688-4.066,3.571
			c-1.608,0.885-3.34,1.571-5.196,2.062c-1.851,0.489-3.577,0.984-5.175,1.482c-1.596,0.501-2.932,1.127-4.004,1.88
			c-1.072,0.752-1.633,1.81-1.68,3.174c-0.028,0.812,0.151,1.521,0.533,2.133c0.388,0.613,0.903,1.122,1.551,1.528
			c0.646,0.406,1.382,0.721,2.208,0.943c0.824,0.219,1.643,0.343,2.452,0.372c1.664,0.058,3.286-0.259,4.871-0.951
			s2.908-1.703,3.979-3.031l6.829,8.051c-2.244,1.931-4.642,3.3-7.188,4.105c-2.547,0.808-5.293,1.161-8.236,1.057
			c-2.345-0.081-4.563-0.456-6.653-1.128c-2.09-0.67-3.913-1.651-5.469-2.944c-1.556-1.292-2.771-2.894-3.644-4.804
			c-0.872-1.909-1.264-4.12-1.178-6.639c0.092-2.644,0.677-4.737,1.757-6.278c1.08-1.541,2.414-2.754,4-3.639
			c1.592-0.884,3.289-1.552,5.099-2c1.812-0.449,3.503-0.904,5.076-1.36c1.576-0.459,2.887-1.031,3.936-1.721
			c1.05-0.688,1.6-1.715,1.644-3.08c0.03-0.854-0.157-1.587-0.562-2.198c-0.406-0.611-0.945-1.109-1.614-1.498
			c-0.668-0.385-1.387-0.678-2.147-0.875c-0.76-0.197-1.504-0.31-2.231-0.333c-1.234-0.044-2.555,0.155-3.958,0.597
			c-1.403,0.443-2.528,1.161-3.373,2.157L394.11,377.882z M478.375,422.585l-9.979-0.348l0.615-17.655l-18.872-0.66l0.321-9.21
			l18.872,0.658l0.322-9.213l-20.406-0.712l0.32-9.214l30.387,1.063L478.375,422.585z M524.052,395.681
			c-0.596-1.815-1.493-3.395-2.684-4.738c-1.192-1.344-2.638-2.408-4.34-3.194s-3.619-1.215-5.751-1.289
			c-2.133-0.074-4.076,0.22-5.83,0.885c-1.75,0.664-3.269,1.625-4.549,2.884c-1.282,1.257-2.285,2.77-3.01,4.539
			c-0.725,1.766-1.121,3.696-1.195,5.784c-0.074,2.136,0.188,4.095,0.785,5.891c0.603,1.791,1.497,3.361,2.687,4.703
			c1.193,1.346,2.64,2.408,4.34,3.195c1.703,0.786,3.622,1.216,5.755,1.289c2.131,0.074,4.072-0.221,5.825-0.885
			c1.755-0.664,3.271-1.626,4.552-2.885c1.283-1.255,2.285-2.758,3.008-4.505s1.122-3.687,1.196-5.818
			C524.913,399.446,524.651,397.494,524.052,395.681 M533.036,411.685c-1.318,2.899-3.1,5.348-5.347,7.34
			c-2.248,1.991-4.884,3.491-7.908,4.495c-3.023,1.004-6.306,1.444-9.845,1.321c-3.54-0.123-6.784-0.792-9.729-2.005
			c-2.946-1.212-5.473-2.89-7.574-5.036c-2.104-2.146-3.711-4.708-4.824-7.695c-1.11-2.984-1.604-6.29-1.479-9.915
			c0.128-3.624,0.851-6.888,2.168-9.787c1.318-2.901,3.101-5.347,5.347-7.341c2.251-1.99,4.883-3.488,7.909-4.494
			c3.025-1.003,6.307-1.445,9.843-1.322c3.542,0.126,6.785,0.793,9.733,2.007c2.944,1.214,5.471,2.892,7.573,5.036
			c2.102,2.144,3.708,4.707,4.823,7.695c1.111,2.982,1.604,6.289,1.479,9.912C535.078,405.521,534.355,408.785,533.036,411.685
			 M564.741,388.71l-6.524-0.229c-0.896-0.029-1.813,0-2.757,0.097c-0.941,0.095-1.781,0.312-2.519,0.646
			c-0.737,0.337-1.353,0.842-1.847,1.505c-0.493,0.666-0.761,1.577-0.803,2.727c-0.04,1.239,0.192,2.207,0.7,2.907
			c0.512,0.702,1.165,1.225,1.965,1.574c0.8,0.348,1.698,0.572,2.697,0.67c1.001,0.1,1.949,0.163,2.844,0.197l5.886,0.203
			L564.741,388.71z M573.435,425.906l-9.979-0.349l0.635-18.105l-4.927-0.172l-10.101,17.775l-11.963-0.42l12.183-18.725
			c-3.177-0.709-5.558-2.211-7.144-4.508c-1.584-2.3-2.322-5.045-2.209-8.243c0.091-2.647,0.629-4.836,1.606-6.574
			c0.979-1.736,2.263-3.101,3.856-4.093c1.592-0.989,3.433-1.672,5.518-2.049c2.082-0.376,4.277-0.524,6.58-0.444l17.527,0.614
			L573.435,425.906z M652.76,428.676l-9.979-0.349l1.211-34.735l-0.127-0.006l-12.663,34.337l-7.615-0.265L612.9,392.504
			l-0.126-0.004l-1.213,34.738l-9.979-0.35l1.58-45.292l15.036,0.525l9.46,29.921l0.125,0.005l11.46-29.191l15.098,0.527
			L652.76,428.676z M692.679,430.069l-31.923-1.115l0.319-9.212l21.944,0.767l0.321-9.212l-19.64-0.685l0.324-9.212l19.639,0.685
			l0.294-8.444l-20.791-0.727l0.322-9.21l30.77,1.074L692.679,430.069z"/>
		<path clip-path="url(#SVGID_2_)" fill="#009A93" d="M200.551,299.515c0.139,0.086,0.277,0.17,0.415,0.253
			c0.059-0.103,0.193-0.251,0.166-0.294c-0.083-0.127-0.232-0.214-0.355-0.318C200.714,299.256,200.653,299.354,200.551,299.515
			 M268.489,344.278c-0.109,0.236-0.207,0.367-0.226,0.51c-0.007,0.082,0.109,0.182,0.167,0.271c0.122-0.097,0.32-0.18,0.341-0.296
			C268.791,344.652,268.631,344.507,268.489,344.278 M212.235,358.435c-0.056,0.131-0.124,0.26-0.148,0.396
			c-0.005,0.026,0.237,0.141,0.26,0.116c0.101-0.107,0.162-0.249,0.235-0.379C212.488,358.531,212.392,358.494,212.235,358.435
			 M191.232,333.067c0.099,0.04,0.197,0.076,0.294,0.115c0.079-0.229,0.161-0.455,0.221-0.688c0.004-0.012-0.191-0.072-0.292-0.109
			C191.379,332.612,191.306,332.842,191.232,333.067 M167.546,344.191c-0.144,0.067-0.286,0.131-0.429,0.193
			c0.125,0.287,0.251,0.575,0.376,0.861c0.098-0.036,0.196-0.068,0.294-0.104C167.708,344.825,167.626,344.508,167.546,344.191
			 M180.388,336.663c0.056,0.059,0.112,0.116,0.169,0.173c0.241-0.212,0.481-0.427,0.722-0.639c-0.074-0.078-0.146-0.155-0.221-0.23
			C180.835,336.198,180.612,336.432,180.388,336.663 M231.881,361.028c-0.284-0.226-0.459-0.469-0.621-0.458
			c-0.152,0.007-0.414,0.285-0.406,0.433c0.009,0.17,0.245,0.427,0.416,0.457C231.411,361.485,231.601,361.237,231.881,361.028
			 M212.594,283.413c0.113-0.687,0.185-1.046,0.214-1.411c0-0.022-0.362-0.16-0.461-0.096
			C211.831,282.242,211.896,282.644,212.594,283.413 M197.782,302.271c-0.783,0.651-0.783,0.651-0.134,1.602
			C197.7,303.248,197.736,302.821,197.782,302.271 M184.064,333.018c-1.521,1.288-1.521,1.288-0.327,2.295
			C183.833,334.648,183.927,333.986,184.064,333.018 M208.208,365.089c0.945,1.18,0.945,1.18,2.21,0.435
			C209.579,365.358,208.981,365.242,208.208,365.089 M222.004,300.254c0.133-0.128,0.263-0.249,0.395-0.375
			c-0.462-0.531-0.924-1.06-1.554-1.781C220.356,299.733,221.292,299.903,222.004,300.254 M231.806,365.044
			c0.019,0.15,0.037,0.303,0.061,0.453c1.072-0.145,2.148-0.287,3.225-0.435c-0.02-0.142-0.038-0.279-0.055-0.422
			C233.958,364.772,232.882,364.909,231.806,365.044 M224.988,341.299c0.727-0.489,1.885-0.089,2.401-1.276
			C225.513,339.85,225.513,339.85,224.988,341.299 M209.28,331.572h-1.461c1.524,1.367-0.115,2.723,0.463,4.447
			C209.052,334.381,209.119,333.03,209.28,331.572 M216.985,339.825c0.873,0.052,1.457,0.086,2.009,0.117
			c0.125,0.43,0.219,0.77,0.365,1.273c0.512-0.364,0.926-0.658,1.322-0.944c-0.765-1.388-0.765-1.388-2.878-2.43
			C217.572,338.398,217.346,338.95,216.985,339.825 M267.108,342.791c1.482,0.538,2.88,0.158,3.655-0.946
			c0.465-0.662,0.07-1.106-0.393-1.47C268.798,340.547,267.951,341.521,267.108,342.791 M220.401,335.17
			c0.342,0.537,0.895,1.053,0.966,1.625c0.068,0.57-0.346,1.202-0.592,1.938c0.273,0.322,0.621,0.733,0.812,0.959
			c1.455-0.495,2.587-0.881,3.771-1.284c-0.46-2.176-2.504-0.872-3.454-1.69c-0.16-1.062,0.747-0.95,1.307-1.181
			C222.166,334.337,222.094,334.328,220.401,335.17 M199.269,286.685c-1.733,0.969-1.685,2.545-1.631,4.222
			c0.046,1.439-0.191,2.885-0.303,4.327h-1.291v3.931c0.646-1.564,0.796-3.009,2.008-3.963c0.495-0.388,0.732-1.271,0.827-1.967
			c0.283-2.044,0.443-4.106,0.628-6.164C199.519,286.933,199.33,286.775,199.269,286.685 M214.185,364.409
			c-0.207,1.244,0.015,1.511,0.911,1.265c0.819-0.226,1.649-0.43,2.479-0.607c0.847-0.18,1.863-0.081,2.514-0.524
			c1.422-0.97,2.995-1.193,4.58-1.313c1.153-0.087,1.84-0.506,2.25-1.703c-1.407,0.21-3.036-0.002-3.986,0.706
			c-1.183,0.88-2.835,0.167-3.686,1.489c-1.313-0.741-2.062-0.583-2.95,0.521c-0.199,0.245-0.593,0.446-0.903,0.46
			C214.998,364.717,214.593,364.517,214.185,364.409 M220.962,359.113c0.302-0.234,0.387-0.344,0.496-0.378
			c0.538-0.159,1.197-0.29,1.084-1.008c-0.128-0.823-0.89-0.773-1.49-0.717c-1.104,0.102-2.198,0.391-3.3,0.429
			c-1.539,0.052-2.137,1.07-2.574,2.271c-0.196,0.542-0.226,1.146-0.354,1.85h2.671c0.008-0.094,0.019-0.187,0.026-0.278
			c-0.374-0.1-0.749-0.202-1.347-0.363c0.728-0.471,1.264-0.822,1.793-1.164c0.936,1.234,0.924,1.202,2.406,0.803
			c0.472-0.128,1.009-0.019,1.618-0.019C221.631,360.035,221.323,359.612,220.962,359.113 M220.156,311.344
			c0.766,2.257,1.411,4.159,2.057,6.06c0.107-2.172-0.205-4.309-0.071-6.418c0.118-1.899-0.521-3.449-1.323-5.297
			c-0.185,0.756-0.303,1.244-0.414,1.712c-1.772-0.079-0.873-1.821-1.654-2.553c-0.876,1.938-0.489,5.544,0.911,7.742
			C219.825,312.181,219.956,311.852,220.156,311.344 M241.98,291.021c-1.016-0.638-1.016-0.681-2.922-0.596
			c-2.079,0.09-4.193-0.314-6.225,0.544c-0.433,0.18-1.054-0.076-1.584-0.147c-1.396-0.19-2.784-0.44-4.184-0.561
			c-0.489-0.042-1.006,0.225-2.107,0.499c1.934,0.927,1.415,1.953,0.946,3.021c-1.184,2.694-2.323,5.403-3.518,8.191
			c-0.513-0.033-1.1,0.078-1.125,1.014c-0.024,1.067,0.123,2.044,0.604,3.046c1.524,3.15,3.868,5.964,4.079,9.661
			c0.107,1.85,0.194,3.702,0.263,5.555c0.064,1.73,0.075,3.459,0.154,5.188c0.053,1.106,0.275,2.207,0.271,3.313
			c-0.01,2.378,0.156,4.694,1.604,6.66c-0.107,0.794-1.627,1.186-0.461,2.233c1.449-0.621,2.934-1.223,4.386-1.896
			c0.766-0.353,1.457-0.866,2.214-1.231c0.705-0.336,1.434-0.668,2.188-0.831c0.586-0.128,1.041,0.591,0.727,1.12
			c-0.198,0.339-0.593,0.603-0.952,0.798c-0.542,0.296-1.338,0.349-1.657,0.778c-0.896,1.203-2.216,1.185-3.436,1.479
			c-0.659,0.159-1.363,0.148-2.005,0.345c-0.296,0.089-0.501,0.483-0.751,0.736c0.079,0.113,0.156,0.225,0.233,0.336
			c0.367-0.123,0.728-0.285,1.106-0.365c0.403-0.089,0.982-0.301,1.204-0.119c1.003,0.833,1.948,0.339,2.755-0.139
			c1.187-0.702,2.714-1.001,3.365-2.527c1.14,0.701,2.147,0.479,3.232-0.271c1.769-1.225,3.65-2.289,5.472-3.435
			c1.448-0.915,2.886-1.849,4.32-2.791c0.248-0.164,0.572-0.387,0.632-0.638c0.395-1.552,1.759-2.13,2.871-2.959
			c1.383-1.03,2.982-1.865,4.098-3.13c0.873-0.985,1.738-1.893,2.856-2.543c2.91-1.697,5.171-4.189,7.762-6.276
			c1.475-1.188,1.445-1.477,0.549-3.212c1.115-0.924,3.121-1.083,3.121-3.215c-1.373-1.03-2.188,1.146-3.558,0.63
			c-0.572-0.701-0.011-1.057,0.542-1.537c1.944-1.686,4.207-3.151,4.56-6.108c-0.632,0.231-1.24,0.455-1.803,0.66
			c-0.937-1.316,0.661-2.067,0.506-3.319c-2.493-0.037-3.109,2.121-4.318,3.955c0.226-2.44,0.388-4.486,0.625-6.523
			c0.045-0.399,0.437-0.75,0.564-1.154c0.095-0.297,0.02-0.648,0.02-1.373c-0.418,0.515-0.684,0.707-0.759,0.957
			c-0.352,1.154-0.611,2.335-0.974,3.486c-0.162,0.508-0.464,0.979-0.747,1.439c-0.067,0.105-0.323,0.092-0.478,0.132
			c-0.197-0.463-0.378-0.883-0.632-1.479c-2.047,1.593-2.272,4.518-4.771,5.454c0.667-1.157,1.483-2.198,2.285-3.252
			c1.422-1.866,2.176-4.008,2.417-6.314c0.051-0.503-0.081-1.286-0.416-1.513c-0.791-0.53-1.768-1.142-2.652-1.117
			c-3.401,0.096-6.814,0.29-10.189,0.716c-3.631,0.458-7.108,1.643-10.556,2.872c-0.63,0.225-1.294,0.627-1.891-0.014
			c-0.608-0.648-0.403-1.363-0.047-2.068c0.071-0.143,0.051-0.333,0.067-0.479c-0.406-0.151-0.739-0.275-1.225-0.458
			C239.776,291.46,241.266,292.312,241.98,291.021 M190.402,331.286c0.607-0.246,1.216-0.493,1.823-0.741
			c-1.098-0.941-1.438-0.792-1.776,0.794c-0.295-0.172-0.589-0.343-1.21-0.703c0.356,0.65,0.553,1.01,0.916,1.672
			C190.296,331.72,190.348,331.505,190.402,331.286 M215.935,318.102c0.239,0.518,0.474,1.039,0.836,1.822
			c0.666-3.244,1.177-6.192,0.835-9.281c-0.134-1.197,0.143-2.333-0.691-3.472c-0.4-0.55-0.069-1.633-0.069-2.587
			c0.331,0.053,0.63,0.102,1.053,0.173c0-1.593,0.008-3.124-0.003-4.656c-0.007-1.43,1.155-2.581,0.708-4.384
			c-0.639-0.686-1.591-1.637-1.271-3.202c0.07-0.337-0.339-0.77-0.529-1.159c-0.154,0.022-0.307,0.047-0.46,0.071
			c-0.123,0.698-0.22,1.401-0.375,2.096c-0.207,0.925-0.021,1.985-1.032,2.656c-0.263,0.176-0.178,0.818-0.355,1.198
			c-0.269,0.574-0.257,1.406-1.172,1.481l0.063,0.053c0.235-1.406,0.39-2.828,0.724-4.207c0.467-1.933-0.342-3.759-0.323-5.652
			c0.004-0.412-0.583-0.83-0.92-1.277c-1.325,0.66-1.097,1.874-1.492,3.11c-0.251-0.493-0.52-0.768-0.496-1.014
			c0.099-1.099,0.384-2.192,0.41-3.292c0.035-1.525-0.106-3.055-0.166-4.583c-0.012-0.298,0-0.596,0-1.03
			c0.558,0.036,0.996,0.06,1.448,0.084c-0.774-1.543-1.533-3.057-2.398-4.786c1.086-0.303,1.89-0.527,2.623-0.728
			c0.376-0.868,0.805-1.682,1.083-2.547c0.181-0.572,0.35-1.285,0.169-1.812c-0.423-1.217-0.019-2.145,0.625-3.1
			c0.239-0.356,0.386-0.779,0.535-1.186c0.667-1.829,1.497-3.506,3.758-3.996c0.143,0.291,0.316,0.654,0.582,1.194
			c0.201-0.383,0.547-0.788,0.465-0.927c-0.615-1.018,0.013-1.616,0.647-2.227c1.73-1.677,3.377-3.505,5.843-4.087
			c0.935-0.22,1.968-0.301,2.911-0.15c0.849,0.137,1.39-0.053,2.005-0.575c0.694-0.589,1.496-1.052,2.259-1.562
			c1.283-0.856,2.616-1.646,3.846-2.573c1.473-1.107,2.859-2.271,4.592-3.058c1.364-0.615,2.451-1.847,3.656-2.812
			c0.094-0.076,0.191-0.188,0.214-0.298c0.519-2.615,2.884-4.032,4.033-6.234c0.166-0.316,0.403-0.615,0.49-0.95
			c0.293-1.174,0.907-1.874,2.03-2.543c1.432-0.849,2.696-2.113,3.22-3.928c0.318-1.104,0.835-2.115,0.638-3.337
			c-0.068-0.422,0.227-0.943,0.46-1.36c0.36-0.647,0.858-1.221,1.205-1.874c0.395-0.746,1.151-1.592,0.541-2.385
			c-0.66-0.863-1.61-1.486-2.893-1.321c-3.202,0.417-6.352,1.049-9.409,2.112c-1.697,0.589-3.401,1.158-5.084,1.782
			c-2.306,0.856-4.729,0.947-7.13,1.18c-3.084,0.301-6.171,0.535-9.253,0.813c-2.632,0.236-5.198-0.067-7.706-0.875
			c-1.078-0.349-2.14-0.396-3.287-0.277c-1.265,0.13-2.607,0.025-3.846-0.272c-1.435-0.342-2.788-1.02-4.184-1.524
			c-1.744-0.63-3.465-1.358-5.251-1.823c-3.46-0.901-6.037-2.98-7.693-6c-0.869-1.585-1.739-3.503-0.233-5.405
			c0.345-0.438,0.356-1.18,0.43-1.79c0.327-2.788,1.947-4.747,4.05-6.404c0.291-0.23,0.723-0.35,0.902-0.64
			c0.879-1.408,2.1-2.158,3.752-2.386c0.414-0.057,0.745-0.708,1.269-1.245c0.549,0.162,1.242,0.39,1.948,0.569
			c1.136,0.293,2.272,0.612,3.425,0.808c0.919,0.156,1.831,0.119,2.634-0.561c0.353-0.3,0.892-0.5,1.358-0.523
			c3.614-0.184,6.609-2.284,9.995-3.173c3.951-1.037,7.868-2.217,11.819-3.259c3.285-0.867,6.6-1.631,9.904-2.429
			c0.417-0.101,0.851-0.177,1.279-0.193c1.852-0.077,3.703-0.113,5.552-0.199c0.424-0.019,0.874-0.117,1.248-0.3
			c1.381-0.674,2.846-0.788,4.346-0.855c0.982-0.045,1.96-0.412,2.931-0.38c2.524,0.084,5.04,0.305,7.446,1.204
			c1.324,0.495,2.615,0.478,3.919-0.271c1.337-0.77,2.715-1.648,4.184-1.97c3.598-0.787,7.227-0.886,10.763,0.538
			c0.709,0.286,1.547,0.404,2.314,0.369c2.059-0.098,3.872,0.596,5.595,1.576c0.719,0.411,0.934,1.178,0.716,1.958
			c-0.27,0.977,0.067,1.627,0.786,2.282c1.078,0.986,1.704,2.489,3.324,2.843l-0.002-0.004c0.229,1.219,1.131,1.74,2.203,1.978
			c1.078,0.236,1.759,0.89,2.184,1.835c0.431,0.956,0.92,1.912,1.159,2.92c0.707,3.003,1.595,5.985,1.308,9.138
			c-0.185,2.032-0.043,4.126-0.472,6.1c-1.142,5.249-2.5,10.453-5.01,15.267c-1.43,2.738-2.711,5.558-4.226,8.245
			c-2.814,4.991-6.401,9.409-10.48,13.423c-1.584,1.565-3.232,3.067-4.843,4.605c-0.214,0.205-0.376,0.461-0.666,0.818
			c1.612,1.215,3.262,2.137,5.083,2.755c0.35,0.122,0.77,0.126,1.058,0.325c2.84,1.974,6.246,2.651,9.331,4.063
			c1.675,0.764,2.657,1.946,3.195,3.609c0.094,0.282,0.18,0.628,0.105,0.901c-0.828,3.001,0.011,5.513,2.122,7.723
			c0.493,0.52,0.828,1.24,1.089,1.923c0.788,2.075,1.5,4.181,2.248,6.269c0.235,0.66,0.322,1.265-0.007,1.962
			c-0.525,1.11-0.422,2.114,0.225,3.311c0.569,1.05,0.591,2.506,0.508,3.761c-0.058,0.888-0.03,1.677,0.192,2.528
			c0.26,1.008,0.314,2.064,0.478,3.227c-1.464,0.167-1.555,1.177-1.688,2.283c-0.416,3.523-1.248,6.955-2.884,10.123
			c-1.678,3.241-3.403,6.461-5.211,9.634c-0.605,1.06-1.505,1.961-2.318,2.896c-0.459,0.532-1.035,0.706-1.596,0.098
			c-0.708-0.774-1.349-0.653-2.056,0.037c-0.792,0.773-2.105,1.055-2.121,2.548c-0.003,0.312-0.704,0.617-1.137,0.973
			c-0.519-0.246-0.997-0.472-1.542-0.733c-0.564,0.775-0.733,2.024-2.145,1.635c-0.173-0.051-0.621,0.512-0.777,0.863
			c-0.344,0.773-0.597,1.59-0.866,2.395c-0.513,1.547-0.506,1.549-2.12,1.489c-1.313,1.442-2.213,3.834-5.061,2.366v1.969
			c-0.809,0.09-1.87-0.54-2.197,0.872c-0.083,0.357-1.088,0.503-1.707,0.761c0.723,1.019,1.593,0.865,2.671,0.457
			c-0.449,0.968-1.132,1.229-1.755,1.173c-1.813-0.173-2.901,0.677-3.59,2.235l0.013,0.039c-0.491-2.882-0.735-3.098-3.651-3.219
			c-0.244-0.01-0.493-0.035-0.74-0.054c-1.819-0.147-2.011-0.496-1.269-2.31c1.36-0.39,0.91,1.004,1.563,1.6
			c1.601-1.267,3.208-2.541,4.816-3.815c-0.056-0.118-0.114-0.234-0.171-0.354c-0.434,0.057-0.869,0.109-1.432,0.182
			c-0.07-0.337-0.141-0.667-0.237-1.119c-0.7,0.426-1.364,0.83-2.15,1.311c0.136,0.455,0.278,0.94,0.408,1.391
			c-0.626,0.559-1.025,0.304-1.533-0.055c-1.603-1.136-2.784-0.527-2.95,1.439c-0.048,0.582-0.214,1.158-0.357,1.903
			c-2.1-0.995-3.627-0.041-5.204,0.929c-1.46,0.896-3.035,1.604-4.519,2.469c-0.5,0.291-0.879,0.806-1.313,1.217l0.05-0.054
			c-0.288,0.106-0.6,0.181-0.865,0.329c-1.891,1.054-3.81,2.015-5.981,2.392c-0.529,0.091-1.004,0.464-1.515,0.677
			c-0.451,0.19-0.94,0.518-1.379,0.47c-1.855-0.204-3.5,0.601-5.233,0.963c-1.024,0.214-2.058,0.555-2.856-0.463
			c-1.298,1.779-1.791,1.9-3.941,1.01c-0.458,1.482-2.071,0.925-3.191,1.826c0.055,0.579,0.119,1.282,0.198,2.107
			c-0.267,0.185-0.628,0.437-0.988,0.687c0.036,0.111,0.074,0.225,0.111,0.338c1.366-0.16,2.732-0.318,4.147-0.484
			c0.102-0.487,0.166-0.839,0.251-1.184c0.339-1.357,1.501-2.164,2.87-1.949c0.205,0.03,0.517,0.252,0.538,0.412
			c0.032,0.251-0.074,0.694-0.243,0.769c-0.659,0.276-1.363,0.44-2.084,0.767c1.121-0.062,2.009,0.295,2.515,1.257
			c0.499-0.106,0.902-0.189,1.496-0.316c0.064,0.7,0.121,1.286,0.194,2.109c0.791-0.101,1.733,0.008,2.414-0.362
			c1.028-0.563,1.898-0.573,2.988-0.258c1.404,0.406,2.807,0.315,3.92-0.905c0.366-0.401,0.892-0.649,1.431-1.027
			c-0.332-0.746-0.693-1.562-1.116-2.511c-0.346,0.567-0.518,1.188-0.911,1.396c-0.423,0.226-1.051,0.051-1.59,0.073
			c-0.741,0.034-1.482,0.124-2.224,0.118c-0.305-0.002-0.609-0.187-0.922-0.594c0.835-0.283,1.671-0.564,2.619-0.883
			c-0.068-0.578-0.13-1.146-0.196-1.731c0.93-0.098,1.766-0.226,2.607-0.262c0.685-0.031,1.383,0.825,1.603,1.765
			c0.162,0.686,0.403,1.353,0.677,2.251c1.2-0.916,2.224-1.542,3.622-1.191c0.213,1.069-0.129,1.965-0.935,2.711
			c-0.403,0.374-0.801,0.773-1.264,1.076c-0.933,0.616-1.358,1.344-0.941,2.489c0.088,0.248-0.244,0.647-0.444,1.122
			c-0.777-1.098-1.389-1.955-2.054-2.894c-0.166,0.054-0.468,0.059-0.599,0.209c-0.779,0.919-1.847,1.179-2.938,1.438
			c-0.414,0.1-0.864,0.222-1.174,0.479c-0.225,0.192-0.408,0.668-0.329,0.931c0.079,0.259,0.495,0.543,0.796,0.584
			c1.2,0.171,1.971-0.44,2.342-1.959c0.747,0.477,1.43,0.907,2.397,1.525c-1.857,0.739-3.461,1.422-5.101,2.021
			c-2.531,0.93-5.223,1.34-7.717,2.437c-1.138,0.5-2.484,0.509-3.716,0.808c-1.424,0.349-2.83,0.769-4.242,1.164
			c-0.177,0.052-0.347,0.179-0.524,0.185c-2.761,0.089-5.285,1.522-8.09,1.42c-0.58-0.021-1.225,0.181-1.748,0.457
			c-2.193,1.159-4.41,0.855-6.666,0.278c-0.567-0.146-1.175-0.133-1.765-0.198c-0.424-0.05-0.861-0.066-1.27-0.181
			c-1.222-0.332-2.428-0.727-3.652-1.039c-0.237-0.061-0.542,0.134-0.812,0.222c-1.092,0.359-2.119,0.443-3.063-0.433
			c-0.343-0.316-0.857-0.438-1.277-0.677c-0.792-0.448-1.587-0.891-1.843-1.888c-0.06-0.236-0.32-0.597-0.492-0.599
			c-1.035-0.007-0.952-0.783-1.077-1.431l-0.044,0.053c0.097-0.407,0.195-0.813,0.312-1.312c-0.89-0.044-1.659-0.078-2.565-0.12
			c0.307-1.05,0.413-2.008,1.714-1.943c0.017-1.541,0.463-2.899-0.134-4.335c-0.246-0.593,0.115-1.441,0.211-2.287
			c-0.856-0.306-1.611-0.802-2.789-0.779c-1.047,0.016-2.35-0.55-3.17-1.597c-0.44-0.564-0.844-1.249-1.785-1.117
			c-0.257,0.038-0.651-0.152-0.815-0.363c-1.3-1.671-3.085-1.71-4.95-1.583c-1.283,0.087-2.384-0.362-3.575-0.891
			c-0.936-0.415-2.011-0.669-2.942-1.2c-0.415-0.239-0.836-0.496-1.166-0.835c-0.593-0.611-0.823-1.283,0.196-1.881
			c-1.845-0.991-1.919-2.775-2.484-4.257c0.778-0.87,1.315-0.041,2.092,0.078c-0.43-1.067-1.309-1.85-0.48-3.197
			c0.69-1.123,1.722-1.237,2.423-1.641c0.072-1.07-0.017-1.981,0.225-2.798c0.33-1.127-0.355-1.783-0.907-2.474
			c-0.497-0.617-0.971-1.132-0.356-2.11c0.517,0.122,1.081,0.257,1.692,0.402c0.117,1.027,0.488,1.684,1.348,2.293
			c0.683,0.483,0.84,1.711,1.372,2.937c-0.484,0.232-0.986,0.471-1.824,0.871c1.388,0.529,2.227,0.849,3.272,1.248
			c-0.254-1.1-0.569-1.96-0.625-2.841c-0.053-0.853,0.163-1.721,0.263-2.599c-0.307-0.269-0.616-0.538-1.123-0.98
			c1.41-0.542,2.033-1.656,2.782-2.679c0,1.098-0.085,2.199,0.024,3.285c0.106,1.047-0.233,2.245,0.923,3.259
			c0.105-0.939-0.063-1.958,1.32-2.051c0.048,0.629,0.099,1.261,0.149,1.904c0.564,0.486,1.055,0.229,1.44-0.221
			c0.683-0.795,1.401-1.411,2.799-0.588c-0.514-1.729-0.133-2.578,1.172-3.206c0.743-0.357,1.192-1.327,1.886-2.155
			c0.562,1.214-0.48,1.562-0.803,2.369c1.017,0.854,0.151,1.962,0.004,3.029c0.13,0.022,0.263,0.047,0.394,0.069
			c0.514-1.066,1.224-2.088,1.492-3.213c0.262-1.102,1.782-1.688,1.195-3.193c-0.412,0.036-0.805,0.065-1.195,0.098
			c0.005-0.135-0.031-0.311,0.024-0.35c0.748-0.533,1.443-1.22,2.278-1.525c1.647-0.604,2.055-1.92,2.35-3.387
			c0.102-0.514,0.212-1.022,0.318-1.525c1.753,0.32,1.832,0.313,2.004,1.994c0.095,0.917-0.138,1.871-0.256,3.151
			c0.098,0.218,0.515,0.791,0.595,1.406c0.078,0.576-0.581,1.269,0.47,1.814c0.196-0.568,0.304-1.089,0.552-1.532
			c0.239-0.429,0.623-0.778,1.099-1.345c-0.085-0.177-0.287-0.603-0.544-1.14c1.068-0.785,1.079-1.899,1.204-3.169
			c0.281-2.878,0.985-5.722,1.521-8.577c0.102-0.546,0.398-1.115,0.308-1.623c-0.305-1.715,0.264-3.309,0.53-4.943
			c0.181-1.115,0.292-2.183-0.542-3.384c-0.166,0.438-0.264,0.687-0.354,0.939c-0.28,0.781-0.099,1.651-1.189,2.2
			c-1,0.504-0.906,1.859-0.644,2.886c0.285,1.117-0.007,1.813-0.854,2.591c-1.268,1.168-1.595,2.846-1.967,4.652
			c0.445-0.018,0.813-0.034,1.31-0.059c-0.041,0.403-0.079,0.795-0.13,1.301c-0.497-0.031-0.903-0.059-1.375-0.091
			c-0.194,0.405-0.399,0.833-0.74,1.542c-0.522-0.771-1.275-1.374-1.225-1.9c0.162-1.717-0.293-3.528,0.732-5.148
			c0.38-0.6,0.673-1.312,0.327-2.12c-0.105-0.241,0.139-0.636,0.307-1.281c0.348,0.588,0.52,0.879,0.701,1.188
			c0.424-0.644,0.651-1.2,0.02-1.935c-0.283-0.332-0.34-1.099-0.166-1.533c0.293-0.737,0.793-1.359,0.502-2.25
			c-0.051-0.162,0.381-0.557,0.658-0.727c0.265-0.165,0.624-0.18,0.976-0.579c-0.39-0.155-0.778-0.313-1.178-0.476
			c-0.033-0.106-0.132-0.25-0.095-0.333c0.445-0.949,0.586-1.923,0.669-2.985c0.146-1.898,0.641-3.772,0.976-5.658
			c0.076-0.412,0.153-0.845,0.124-1.258c-0.129-1.784-0.3-3.562-0.449-5.342c-0.125-1.473-0.239-2.945-0.377-4.673
			c0.697,0.042,1.324,0.077,2.074,0.124c-0.373-1.627,0.844-2.64,1.801-3.97c0.349,0.389,0.595,0.715,0.888,0.992
			c0.869,0.807,2.085,0.91,2.845,0.269c0.823-0.692,0.823-0.692,2.153-0.367c0.5,1.998,1.136,4.022-0.083,6.111
			c1.644,1.237,1.289,2.935,1.135,4.581c-0.122,1.29-0.264,2.578-0.379,3.695c0.502,0.343,1.151,0.687,1.119,0.775
			c-0.615,1.614,0.204,3.743-1.84,4.868c0.809,1.107,2.124,1.954,1.331,3.713c-0.146-0.499-0.262-0.892-0.386-1.312
			c-1.811,0.827-1.709,2.523-1.939,4.024c-0.136,0.907-0.103,1.838-0.162,3.107c-0.451-0.416-0.638-0.717-0.89-0.79
			c-0.229-0.067-0.529,0.11-0.794,0.179c0.059-1.328,0.116-2.577,0.186-4.1c-0.03,0.012,0.226-0.099,0.485-0.212
			c-0.007-0.109,0.032-0.274-0.023-0.32c-0.877-0.713-0.683-1.503-0.188-2.316c0.336-0.553,0.644-1.092-0.402-1.6
			c0.224,1.275-1.139,1.89-0.765,3.355c0.27,1.06-0.445,2.361-0.693,3.563c-0.249,1.208-0.553,2.413-0.669,3.636
			c-0.116,1.22-0.024,2.459-0.024,3.765c0.322,0.126,0.689,0.271,1.118,0.438c-0.976,2.752-1.719,5.452-1.132,8.252
			c-2.263,2.341-1.86,5.141-1.402,8.107c-0.283-0.042-0.546-0.074-0.811-0.118c-1.529-0.247-1.789,0.104-1.225,1.66
			c-1.047,0.645-1.047,0.645-2.183-0.613c-0.201,0.695-0.379,1.312-0.583,2.015c0.745,0.075,1.39-0.032,1.807,0.229
			c0.43,0.268,0.638,0.895,0.938,1.357c0.935-0.752,2.387-0.941,3.566-2.012c-0.201-1.522,1.129-2.491,1.965-4.052
			c0.903,1.955,0.713,3.726,0.568,5.503c0.836-2.119,2.017-4.221,0.065-6.525c0.353-0.147,0.655-0.275,0.98-0.406
			c0.392-1.19-0.903-1.095-1.471-1.884c0.167-0.356,0.358-1.207,0.607-1.223c1.136-0.073,1.011-1.068,1.509-1.987
			c0.521,2.051-0.693,4.13,0.904,5.464c-0.176,1.565-0.333,2.977-0.499,4.453c1.018-0.19,1.256-0.933,1.496-1.614
			c0.73-2.076,1.017-2.289,3.197-2.143c0.182,0.014,0.36,0.05,0.609,0.084c0.243,0.466,0.492,0.945,0.869,1.67
			c0.326-0.439,0.674-0.711,0.75-1.041c0.482-2.073,1.503-3.868,2.674-5.608c0.301-0.445,0.482-1.021,0.55-1.558
			c0.259-2.009,0.884-4.004,0.13-6.053c-0.153-0.415,0.021-0.952,0.043-1.438c0.467,0.659,0.89,1.257,1.312,1.854L215.935,318.102z"
			/>
		<path clip-path="url(#SVGID_2_)" fill="#009A93" d="M415.654,262.652c-0.181-0.059-0.331-0.134-0.485-0.146
			c-0.067-0.004-0.146,0.121-0.217,0.187c0.146,0.083,0.28,0.188,0.438,0.231C415.438,262.938,415.535,262.778,415.654,262.652
			 M405.995,276.293c-0.028-0.097-0.029-0.241-0.094-0.28c-0.073-0.042-0.203,0.009-0.305,0.021
			c0.037,0.128,0.076,0.256,0.115,0.382C405.805,276.377,405.901,276.333,405.995,276.293 M328.306,333.904
			c-0.144,0.051-0.286,0.104-0.429,0.153c0.117,0.277,0.235,0.549,0.354,0.823c0.1-0.046,0.29-0.11,0.286-0.137
			C328.463,334.461,328.381,334.183,328.306,333.904 M417.881,271.145c0.072-0.121,0.144-0.241,0.217-0.361
			c-0.445-0.222-0.891-0.448-1.334-0.67c-0.057,0.104-0.113,0.209-0.169,0.314C417.024,270.667,417.45,270.905,417.881,271.145
			 M325.464,356.368c-0.113-0.013-0.222-0.027-0.334-0.04c-0.055,0.353-0.109,0.707-0.166,1.062
			c0.121,0.016,0.245,0.029,0.366,0.042C325.375,357.08,325.419,356.726,325.464,356.368 M405.028,259.563
			c0.559,0.647,1.179,1.055,2.009,0.572C406.368,259.944,405.698,259.754,405.028,259.563 M423.726,266.913
			c0.015-1.725-0.937-1.563-1.604-1.795c-0.087,0.117-0.174,0.229-0.261,0.345C422.378,265.867,422.9,266.27,423.726,266.913
			 M422.482,293.768c0.182-1.678,0.172-1.674-1.355-2.197C421.639,292.398,421.982,292.955,422.482,293.768 M396.396,259.9
			c-0.047,0.131-0.094,0.265-0.143,0.394c0.677,0.441,1.354,0.877,2.16,1.398c0.204-0.489,0.343-0.837,0.566-1.383
			C397.999,260.155,397.198,260.027,396.396,259.9 M320.383,337.223c-0.145,2.088-2.112,3.865-0.175,6.016
			c0.179-0.875,0.479-1.6,0.425-2.297c-0.064-0.825-0.101-1.553,0.388-2.276C321.377,338.132,321.267,337.63,320.383,337.223
			 M398.756,278.828c-0.467-0.481-0.977-1-1.637-1.682c-0.373,0.47-0.8,1.014-1.23,1.554c-0.588,0.06-1.176,0.121-1.52,0.154
			c0.371,0.704,0.741,1.405,1.11,2.105c0.796,0.175,0.414-1.258,1.494-1.016C397.46,280.053,398.161,279.225,398.756,278.828
			 M315.479,341.344c0.028,0.52,0.056,1.043,0.086,1.562c0.502-0.595,1.289-1.255-0.149-1.512c0.578-0.557,1.071-1.397,2.03-0.778
			c0.137,1.018-1.453,1.706-0.214,2.795c0.183-0.272,0.387-0.453,0.431-0.669c0.378-1.86,0.632-3.753,1.123-5.582
			c0.451-1.677-0.21-2.676-1.529-3.471c-1.031,0.822-2.098,2.548-2.429,3.989c-0.043,0.183,0.139,0.411,0.249,0.707
			c0.628-0.271,1.136-0.493,2.021-0.876c-0.781,1.041-1.283,1.742-1.817,2.416C314.835,340.484,314.944,340.936,315.479,341.344
			 M408.564,287.671l0.054,0.056c-1.117-0.566-2.245-1.069-3.587-0.963c-0.122,0.337-0.337,0.636-0.3,0.897
			c0.103,0.752,1.402,0.666,1.246,1.676c-0.008,0.052,0.305,0.157,0.472,0.228c0.051,0.021,0.142,0.034,0.177,0.006
			c0.95-0.7,1.887-0.098,2.839-0.012c0.411,0.036,0.85-0.21,1.502-0.389C410.136,288.302,409.76,287.335,408.564,287.671
			 M402.148,332.622c-0.089-0.065-0.208-0.205-0.268-0.185c-2.76,0.997-5.7,1.537-8.288,3.321c-0.081,1.823-1.33,2.713-3.089,3.104
			c-1.122,0.248-1.122,0.248-1.964-0.879c-1.385-0.49-2.265,0.84-3.627,0.732c-1.271-0.1-2.592,0.365-3.849,0.985
			c-1.12,0.555-2.496,0.591-3.88,0.878c-0.335-0.559-0.668-1.113-1.05-1.756c-0.952,0.543-1.885,0.828-2.992,0.634
			c-0.508-0.089-1.138,0.352-1.676,0.629c-0.593,0.305-1.116,0.748-1.713,1.043c-2.457,1.203-4.686,2.854-7.338,3.677
			c-0.32,0.102-0.578,0.411-1.054,0.764c0.442,0.225,0.704,0.433,0.993,0.487c0.267,0.05,0.708-0.207,0.828-0.085
			c0.632,0.626,1.271,0.492,2.047,0.322c1.298-0.287,1.606,0.16,1.287,1.769c-1.299-0.285-2.593-0.664-3.955-0.146
			c-0.431,0.164-1.044-0.153-1.674-0.274c0.237,0.594,0.429,1.074,0.662,1.655c-0.465,0.286-0.959,0.821-1.262,0.73
			c-1.089-0.322-1.864,0.249-2.578,0.788c-0.942,0.71-1.786,0.255-2.538-0.119c-0.883-0.439-1.605-0.487-2.483,0.072
			c0.354,0.565,0.666,1.062,1.116,1.783c-2.248,0.489-4.646-0.753-6.474,1.335c-0.297-0.678-0.478-1.093-0.664-1.514
			c-1.567-0.022-2.621,0.472-2.822,1.674c-0.243,1.453-1.082,1.796-2.324,1.769c-0.357-0.007-0.718-0.002-1.411-0.002
			c0.399-0.71,0.678-1.208,1.036-1.849c0.334,0.238,0.579,0.498,0.876,0.6c0.798,0.269,1.402-0.247,0.978-0.881
			c-0.624-0.933-0.083-1.248,0.535-1.55c0.885-0.427,1.795-0.835,2.739-1.103c2.075-0.598,4.177-1.112,6.276-1.631
			c0.41-0.1,0.869-0.142,1.275-0.061c0.841,0.163,1.517-0.022,2.282-0.437c0.709-0.38,1.626-0.369,2.588-0.559
			c-0.079-1.449,0.585-2.625,2.286-3.146c-1.336-0.55-3.808,0.292-4.646,1.26c-1.295,0.311-2.265,0.595-3.253,0.767
			c-1.658,0.288-3.14,0.938-4.651,1.676c-2.214,1.079-4.562,1.883-6.883,2.73c-1.385,0.505-2.836,0.833-4.233,1.318
			c-0.433,0.15-0.781,0.546-1.17,0.832l0.038-0.021c-0.857-0.111-1.494-0.17-2.186,0.783c-0.456,0.621-1.75,1.358-2.78,0.967
			c-1.118-0.42-2.06,0.1-3.071,0.173c-0.367,0.026-0.79,0.509-1.031,0.884c-0.687,1.076-1.31,2.189-2.69,3.028
			c-0.392-0.939-0.729-1.754-1.16-2.789c-1.606,0.365-3.367,0.825-5.151,1.154c-1.576,0.295-3.174,0.529-4.771,0.637
			c-1.49,0.1-2.828,0.271-4.095,1.277c-0.875,0.695-2.164,0.857-3.246,1.309c-0.733,0.302-1.448,0.657-2.131,1.054
			c-0.585,0.338-1.15,0.733-1.662,1.176c-2.656,2.287-5.955,2.545-9.196,2.856c-1.893,0.184-3.356-1.03-4.882-1.958
			c-1.556-0.942-2.154-2.434-2.472-4.108c-0.164-0.855,0.077-1.517,0.683-2.189c0.68-0.751,1.516-1.406,1.761-2.538
			c0.075-0.342,0.837-0.579,1.319-0.779c0.371-0.152,0.798-0.167,1.544-0.312c-1.497-0.983-1.693-2.276-1.814-3.718
			c1.118-0.199,1.912,0.646,2.875,0.887c0.384-0.438,1.192-0.534,0.884-1.528c-0.09-0.298,0.826-0.906,1.129-1.219
			c-0.075-0.985-0.245-1.859-0.166-2.71c0.036-0.413,0.493-1.079,0.822-1.122c1.112-0.14,1.503-1.156,2.267-1.603
			c2.414-1.406,3.599-3.842,5.281-5.855c0.378-0.45,0.705-0.688,1.277-0.887c1.452-0.498,2.844-1.176,4.244-1.82
			c0.99-0.457,1.753-1.18,2.152-2.216c0.312-0.818,0.922-1.282,1.672-1.647c0.938-0.452,1.841-0.982,2.777-1.438
			c1.271-0.619,2.412-1.212,3.196-2.614c0.474-0.846,1.908-1.414,2.995-1.6c2.111-0.357,4.188-0.796,6.235-1.41
			c0.092-0.023,0.223,0.077,0.424,0.152c0.446,1.403-0.394,2.244-1.449,3.007c-0.284-0.13-0.607-0.275-1.038-0.465
			c-0.218,0.485-0.41,0.917-0.568,1.269c0.051,0.171,0.047,0.263,0.084,0.284c2.363,1.331,1.091,3.598,1.368,5.448
			c0.147,0.966,0.028,1.974,0.028,3.399c1.111-1.771,0.051-3.962,2.021-4.912c0.478,0.479,0.989,0.99,1.799,1.794
			c-0.121,0.71-0.373,1.784-0.464,2.872c-0.091,1.063-0.02,2.145-0.02,3.255c0.947-0.04,1.033-0.759,1.244-1.28
			c0.549-1.377,1.054-2.779,1.528-4.184c0.134-0.396,0.271-0.914,0.127-1.264c-0.828-2.024,0.268-3.875,0.448-5.799
			c0.022-0.227,0.154-0.557,0.323-0.635c1.246-0.554,1.172-1.633,1.091-2.685c-0.056-0.745,0.173-1.272,0.979-1.858
			c0.038,0.551,0.119,0.88,0.072,1.19c-0.081,0.544-0.309,1.072-0.347,1.619c-0.038,0.553,0.03,1.163,0.722,1.345
			c0.599,0.161,1.193,0.325,1.656-0.357c0.395-0.581,0.884-1.102,1.535-1.893c0.169,1.074,0.15,1.824-0.181,2.521
			c-0.572,1.205-1.565,2.33-0.478,3.735c-0.525,1.632,0.177,3.696-1.848,4.743c0.406,1.029,0.711,1.886,1.784,2.271
			c1.105,0.395,0.907,1.471,0.937,2.228c0.741,0.628,1.385,1.173,2.182,1.846c1.532-0.853,3.127-1.74,4.812-2.677
			c-0.177-0.674-0.417-1.424,0.876-1.527c0.834-0.07,1.635-0.525,2.456-0.791c0.288-0.094,0.691-0.301,0.866-0.187
			c0.982,0.633,1.767,0.006,2.613-0.297c0.967-0.345,2.243-0.386,1.968-2.017c0.184,0.285,0.369,0.57,0.587,0.908
			c1.039-0.33,1.889-0.83,2.625-1.846c-0.826-0.044-1.443-0.082-2.452-0.141c0.538-0.554,0.773-0.88,1.082-1.099
			c0.903-0.646,1.819-1.282,2.767-1.851c0.32-0.193,0.763-0.18,1.148-0.261c0.056,0.373,0.116,0.746,0.189,1.209
			c0.469-0.199,0.958-0.406,1.485-0.628c0.669,0.497,1.302,0.968,2.054,1.522c-0.768,0.688-1.464,1.358-0.879,2.698
			c1.509-1.857,3.863-2.043,5.586-3.361c0.545-0.416,0.888-1.095,1.38-1.728c0.211,0.111,0.516,0.271,0.87,0.462
			c0.086-0.181,0.254-0.365,0.214-0.469c-0.229-0.614-0.132-1.071,0.455-1.428c2.431-1.469,4.847-2.959,7.277-4.428
			c0.198-0.119,0.459-0.132,0.855-0.234c0.21,0.602,0.406,1.156,0.605,1.703c0.587,0.365,0.587,0.365,0.88-0.259
			c-0.365,0.119-0.646,0.215-0.925,0.311c0.191-0.312,0.31-0.748,0.586-0.911c1.577-0.941,3.184-1.829,4.794-2.704
			c0.252-0.138,0.655-0.242,0.884-0.14c1.184,0.544,2.024-0.133,2.886-0.723c1.369-0.945,2.739-1.893,3.529-3.447
			c0.185-0.365,0.511-0.7,0.85-0.946c0.886-0.648,1.817-1.237,2.724-1.858c1.549-1.058,2.702-2.505,3.82-3.977
			c0.414-0.55,0.925-1.097,0.489-2.009c-0.196-0.408,0.244-1.119,0.407-1.73c1.279,0.06,1.649,0.767,1.52,2.045
			c1.749-1.487,3.529-2.602,2.825-5.209c-0.302,0.068-0.526,0.117-0.744,0.178c-0.177,0.049-0.347,0.116-0.576,0.197
			c-0.079-0.167-0.175-0.309-0.215-0.465c-0.342-1.345-1.23-2.53-1.072-4.04c0.058-0.547-0.478-0.813-1.061-0.75
			c-0.719,0.079-1.438,0.152-2.105,0.221c-0.833-2.1-2.267-2.666-4.337-1.821c-0.457,0.185-0.871,0.479-1.333,0.65
			c-0.478,0.175-0.988,0.267-1.223-0.427c0.845-1,1.699-2.013,2.62-3.109c-0.395-0.353-0.602-0.703-0.828-0.715
			c-2.479-0.113-4.632-1.233-6.882-2.098c-2.649-1.018-5.413-1.746-8.041-2.805c-2.164-0.873-4.213-2.039-6.307-3.087
			c-0.271-0.136-0.5-0.45-0.771-0.486c-2.92-0.363-4.75-2.549-6.907-4.146c-2.421-1.795-4.713-3.769-7.155-5.741
			c-1.249,1.086-2.438,0.424-3.476-0.568c-2.702-2.572-5.144-5.345-6.857-8.715c-1.705-3.353-2.086-6.821-1.199-10.458
			c0.417-1.725,0.733-3.484,1.272-5.174c0.346-1.078,1.012-2.054,1.622-3.251c1.05,1.417-0.692,2.053-0.471,3.054
			c0.715-0.342,1.449-0.692,2.318-1.106c-0.086-0.307-0.248-0.626-0.255-0.948c-0.012-0.577,0.068-1.198,0.895-1.04
			c0.907,0.171,1.197-0.437,1.498-1.069c0.677-1.443,1.296-2.916,2.054-4.317c1.332-2.471,3.155-4.578,5.117-6.568
			c0.67-0.683,1.449-1.311,1.654-2.491c-0.463-0.052-0.812-0.154-1.146-0.123c-2.466,0.243-4.935,0.459-7.386,0.783
			c-4.278,0.565-8.53,0.549-12.778-0.223c-1.464-0.266-2.922-0.551-4.389-0.795c-1.315-0.214-2.44-0.673-3.428-1.67
			c-0.561-0.57-1.521-0.781-2.333-1.058c-0.604-0.205-1.026-0.412-1.375-1.057c-0.35-0.639-1.11-1.085-1.753-1.528
			c-0.93-0.635-1.379-1.307-1.364-2.583c0.016-1.43-0.431-2.924-0.954-4.284c-0.51-1.322-0.647-2.6-0.583-3.989
			c0.135-2.936,0.64-5.751,1.734-8.511c0.85-2.15,2.171-3.898,3.798-5.424c1.441-1.349,3.005-2.593,4.63-3.717
			c0.934-0.647,2.096-0.964,3.156-1.43c0.392-0.174,0.788-0.345,1.174-0.535c0.388-0.196,0.742-0.474,1.15-0.604
			c3.713-1.186,7.429-2.37,11.16-3.494c0.698-0.213,1.468-0.199,2.207-0.229c3.397-0.146,6.799-0.264,10.201-0.408
			c1.362-0.06,2.724-0.14,4.079-0.269c4.306-0.41,8.612-0.82,12.911-1.289c4.188-0.453,8.357-1.114,12.555-1.422
			c2.521-0.187,5.093-0.019,7.616,0.253c2.634,0.282,5.298,0.668,7.845,1.381c7.451,2.087,12.293,6.88,14.257,14.439
			c0.363,1.398,0.285,2.792-0.04,4.224c-0.918,4.049-1.73,8.122-2.568,12.186c-0.532,2.596-1.63,4.937-3.291,6.978
			c-1.354,1.667-2.252,3.505-2.882,5.56c-0.775,2.54-2.566,4.53-4.421,6.309c-3.695,3.539-7.936,6.28-12.874,7.86
			c-0.858,0.274-1.609,0.911-2.373,1.432c-0.816,0.559-1.591,1.174-2.408,1.782c0.053,0.538,0.105,1.102,0.166,1.723
			c1.145,0.468,2.144,1.1,3.62,0.928c0.959-0.111,2.055,0.94,3.088,1.475c0.758,0.392,1.524,0.764,2.26,1.189
			c0.645,0.376,1.253,0.816,1.806,1.36c3.085,0.058,5.979,0.999,8.827,2.276c1.338,0.601,2.847,0.803,4.271,1.213
			c0.463,0.13,1.078,0.204,1.319,0.531c0.679,0.918,1.584,1.126,2.602,1.135c1.306,0.009,2.367,0.651,3.4,1.322
			c0.298,0.192,0.411,0.678,0.654,1.112c1.604-0.441,3.127-0.177,4.615,0.83c1.374,0.93,3.141,1.404,3.013,3.643
			c-0.163,0.13-0.423,0.338-0.854,0.678c5.147,3.994,8.041,9.226,9.073,15.521c-0.452-0.982-0.904-1.966-1.394-3.041
			c-0.506,0.239-0.862,0.403-1.158,0.544c-0.65-1.544-1.264-3.023-1.899-4.491c-0.24-0.555-0.509-0.924-1.258-1.131
			c-1.006-0.276-1.868-1.078-2.803-1.639c-1.103-0.657-2.202-1.317-3.323-1.936c-0.808-0.44-1.012-1.172-1.166-1.989
			c-0.162-0.865-0.414-1.715-0.715-2.921c0.175-0.115,0.628-0.416,1.151-0.758c-1.096-0.758-2.028-1.401-2.806-1.938
			c-0.904,0.517-1.61,0.92-2.235,1.277c-0.524-0.487-0.919-0.854-1.428-1.33c-0.395,0.787-0.663,1.325-0.884,1.771
			c-1.58,0.541-3.004-0.076-4.447-0.249c-1.464-0.178-2.942-0.455-4.153-1.446c-0.196-0.388-0.607-0.832-0.533-1.174
			c0.234-1.061-0.107-2.136-0.955-2.303c-1.026-0.204-1.283-1.447-2.47-1.306c-1.366,0.166-2.768,0.039-4.281,0.039
			c-0.542,2.322-2.377,0.537-3.64,1.169c-0.111,0.647-0.232,1.352-0.357,2.071c0.45,0.308,1.093,0.506,1.191,0.856
			c0.466,1.672,1.889,1.371,3.295,1.887c-0.207-0.61-0.311-0.922-0.417-1.235l-0.037,0.036c1.029-0.38,2.126-0.445,3.014,0.158
			c1.851,1.264,3.533,0.939,5.219-0.247c0.304,0.498,0.613,0.995,0.949,1.536c-0.83,0.989-1.802,1.151-3.037,0.66
			c-0.881-0.352-1.859-0.456-3.15-0.752c0.945,1.142,1.906,1.279,2.878,1.324c1.354,0.064,2.717,0.139,4.068,0.065
			c0.421-0.024,0.82-0.508,1.103-0.696c1.234,0.352,2.366,0.738,3.529,0.993c1.481,0.324,2.16,1.139,1.904,2.664
			c-0.29,0.076-0.578,0.147-1.057,0.268c0.3,0.307,0.479,0.659,0.68,0.669c0.783,0.049,1.427,0.119,1.021,1.167l0.037-0.028
			c-1.298-0.325-2.592-0.651-4.038-1.012c-0.435-0.653-0.725-1.744-2.005-1.623c-0.117,1.638-0.104,1.612,1.342,2.207
			c0.731,0.301,1.409,0.729,2.033,1.336c-1.806-0.459-3.662-0.779-5.392-1.436c-0.895-0.341-1.486-0.33-2.231,0.256
			c0.162,0.324,0.32,0.646,0.354,0.713c0.955,0.074,1.734-0.01,2.416,0.211c1.554,0.504,3.058,1.157,4.673,1.787
			c-0.185,0.318-0.319,0.55-0.419,0.72c0.49,0.35,0.978,0.689,1.456,1.044c0.197,0.147,0.363,0.45,0.559,0.463
			c2.031,0.12,1.975,1.59,2.002,3.201c-1.458-0.856-3.07-1.315-3.744-3.035c-0.096-0.239-0.392-0.487-0.639-0.563
			c-2.003-0.605-4.016-1.174-6.033-1.736c-0.146-0.043-0.337,0.066-0.783,0.164c0.407,0.203,0.593,0.375,0.779,0.373
			c1.921-0.012,3.209,1.164,4.463,2.383c0.129,0.124,0.146,0.493,0.061,0.668c-0.082,0.167-0.389,0.347-0.571,0.323
			c-0.791-0.115-1.572-0.297-2.356-0.458l0.015-0.003c0.178-0.335,0.354-0.672,0.584-1.108c-1.272-0.446-2.285-0.95-3.534-0.789
			c-0.522,0.066-1.208-0.257-1.655-0.614c-1.024-0.816-1.979-1.188-3.183-0.351c-0.29,0.203-0.794,0.092-1.422,0.145
			c0.274-0.676,0.466-1.141,0.772-1.89c-0.965,0.115-1.714,0.206-2.785,0.333c0.518,0.873,0.941,1.593,1.489,2.519
			c-0.533,0.056-0.98,0.188-1.399,0.128c-2.027-0.297-2.122-0.264-3.199,1.996c1.432,0.297,2.814,0.589,4.528,0.949
			c-0.963,0.912-1.791,0.816-2.967,0.708c2.188,1.193,4.071,2.233,5.969,3.242c0.478,0.252,1.011,0.399,1.517,0.593
			c1.711,0.657,3.427,1.308,5.132,1.987c0.138,0.052,0.21,0.278,0.26,0.35c-0.576,0.704-1.117,1.368-1.811,2.222
			c-0.322-0.075-0.89-0.209-1.572-0.367c0.204,0.613,0.369,1.117,0.402,1.217c1.178,0.904,2.07,1.584,2.965,2.266l-0.063-0.065
			c0.197,0.489,0.394,0.979,0.592,1.468c-0.111,0.097-0.224,0.195-0.334,0.291c-1.039-0.869-2.077-1.734-3.116-2.604
			c-0.085,0.078-0.167,0.156-0.25,0.233c0.181,0.28,0.339,0.581,0.553,0.833c0.196,0.23,0.65,0.402,0.656,0.606
			c0.065,2.229,1.81,2.112,3.499,2.461c0-0.739-0.139-1.472,0.04-2.108c0.187-0.654,0.687-1.215,1.133-1.957
			c-0.118-0.223-0.314-0.593-0.514-0.965l-0.054,0.052c0.637,0.188,1.273,0.378,1.902,0.567c-0.128-0.448-0.253-0.881-0.462-1.609
			c0.683,0.355,1.084,0.566,1.706,0.891c-0.146-0.586-0.244-0.991-0.357-1.437c1.475,0.359,1.604,0.692,0.948,2.488
			c0.564,0.134,1.113,0.265,1.517,0.36c0.197-1.037,0.388-2.044,0.623-3.305c-0.512-0.623-2.257-0.899-1.476-2.702
			c1.758,1.245,2.471,3.324,3.956,4.795c-0.135-2.067-0.135-2.067,1.284-2.611c-0.369-0.357-0.671-0.647-1.035-0.999
			c0.135-0.122,0.299-0.275,0.469-0.433c1.511,0.95,1.597,3.554,4.189,3.27c0.228,1.24,0.455,2.488,0.685,3.736
			c2.402-0.742,0.419-2.24,0.728-3.49c0.401,0.207,0.714,0.37,1.255,0.654c-0.515-1.917-0.981-3.661-1.523-5.668
			c1.735,0.787,2.038,2.237,2.362,3.514c0.279,1.093,0.427,2.169,1.243,3.023c0.149,0.16,0.271,0.454,0.243,0.662
			c-0.3,2.047,0.558,4.19-0.52,6.167c0.571,1.306-0.604,2.151-0.856,3.24c-0.274,1.193-0.381,2.461-0.877,3.556
			c-0.547,1.205-1.067,2.526-2.35,3.25c-0.196,0.111-0.411,0.287-0.501,0.485c-0.86,1.898-1.639,3.835-2.562,5.702
			c-1.287,2.598-3.379,4.55-5.481,6.479c-1.475,1.358-3.325,2.059-5.043,3.009c-2.591,1.433-5.042,3.115-7.591,4.625
			c-1.238,0.732-2.454,1.738-4.03,0.972c-0.25,0.63-0.448,1.129-0.649,1.626c-0.322-0.147-0.645-0.293-0.966-0.44L402.148,332.622z"
			/>
		<path clip-path="url(#SVGID_2_)" fill="#009A93" d="M671.295,293.098c-0.187-0.158-0.302-0.323-0.444-0.354
			c-0.082-0.017-0.316,0.22-0.294,0.287c0.043,0.146,0.189,0.317,0.326,0.351C670.978,293.404,671.124,293.222,671.295,293.098
			 M576.561,332.137c-0.14-0.004-0.278-0.01-0.418-0.015c0.021,0.252,0.028,0.505,0.071,0.756c0.008,0.024,0.197,0.021,0.306,0.032
			C576.534,332.652,576.547,332.395,576.561,332.137 M662.663,288.801c-0.154,0.025-0.309,0.051-0.465,0.077
			c0.062,0.296,0.126,0.591,0.191,0.885c0.168-0.034,0.338-0.074,0.504-0.109C662.816,289.367,662.742,289.085,662.663,288.801
			 M680.401,291.187c0.131-0.069,0.263-0.137,0.394-0.205c-0.217-0.423-0.434-0.847-0.755-1.479
			C679.556,290.466,679.889,290.861,680.401,291.187 M654.464,283.417c-0.363-0.698-0.609-1.168-0.992-1.91
			C653.144,282.617,653.289,283.14,654.464,283.417 M660.069,285.336c-0.119,0.095-0.242,0.193-0.361,0.291
			c0.689,0.636,0.813,1.78,2.035,1.957C661.187,286.833,660.628,286.083,660.069,285.336 M652.301,281.345
			c-0.414-1.776-0.414-1.776-1.829-1.178C651.175,280.621,651.736,280.984,652.301,281.345 M655.947,283.176
			c-0.215,0.594-0.334,0.927-0.454,1.258c0.856,0.297,0.473,1.81,1.725,1.857c-0.104-0.702-0.194-1.287-0.283-1.87
			c0.104-0.037,0.214-0.075,0.315-0.112C656.887,283.994,656.526,283.68,655.947,283.176 M567.639,344.35
			c0.396,1.019,0.396,1.019,2.04,1.883c1.655,0.867,1.655,0.867,2.723,0.914C570.794,346.202,569.223,345.278,567.639,344.35
			 M581.271,350.796c-0.04,0.681,0.475,0.774,0.956,0.927c0.554,0.174,1.098,0.377,1.649,0.567c-0.022,0.15-0.047,0.301-0.071,0.451
			c-0.364,0.019-0.754,0.132-1.086,0.038c-4.202-1.192-8.581-1.907-12.238-4.581c-0.604-0.443-1.389-0.638-2.067-0.991
			c-1.931-1.012-3.296-2.621-4.64-4.292c-0.557-0.689-1.509-1.06-2.288-1.562c-0.882-0.572-1.759-1.153-2.658-1.691
			c-0.909-0.542-1.409-1.19-0.679-2.189c-1.107-0.907-2.503-1.324-2.998-2.763c-0.097-0.283-0.56-0.575-0.886-0.62
			c-2.217-0.288-3.626-1.968-5.373-3.056c-0.467-0.287-0.893-0.646-1.3-0.945c0.427-1.577,0.292-1.996-0.938-2.851
			c-0.643-0.448-1.249-0.796-1.66-1.615c-0.316-0.636-1.369-0.969-2.154-1.288c-1.092-0.449-2.161-0.732-2.64-2.078
			c-0.206-0.587-1.084-0.938-1.865-1.567c0.489-0.131,0.789-0.212,1.309-0.354c-0.409-1.131-0.812-2.253-1.252-3.464
			c0.564-0.481,1.192-1.021,1.975-1.689c0.343,1.292-0.173,2.076-0.929,2.853c0.374,0.195,0.635,0.327,0.967,0.5
			c0.439-0.461,0.526-1.166,1.434-1.198c0.78-0.03,1.175-0.86,1.456-1.702c0.442-1.316,0.936-2.714,1.794-3.764
			c0.978-1.198,2.486-1.57,4.065-0.951c2.807,1.095,5.685,1.945,8.424,3.292c2.092,1.025,4.386,2.075,6.923,1.679
			c0.068-0.012,0.163,0.16,0.329,0.338c-0.466,0.284-0.907,0.555-1.347,0.822c0.664,2.255,0.936,2.517,2.459,2.376
			c2.123-0.195,2.574-0.311,3.846-1.076c-0.291,0.583-0.444,0.939-0.636,1.268c-0.406,0.696-0.902,1.348-1.241,2.074
			c-0.642,1.374-0.333,2.186,0.958,3.014c0.297,0.191,0.524,0.499,0.758,0.775c0.237,0.282,0.442,0.589,0.697,0.937
			c0.487,0,0.991-0.068,1.467,0.023c0.395,0.077,0.966,0.258,1.079,0.543c0.476,1.218,1.562,1.292,2.561,1.553
			c0.536,0.141,1.097,0.207,1.629,0.361c0.846,0.242,1.412,0.491,1.006,1.694c-0.231,0.696,0.483,1.682-0.771,2.546
			c1.343,0.403,2.359,0.709,3.372,1.015c0.218-0.537,0.433-1.064,0.648-1.597c1.181,0.754,2.149,1.372,3.23,2.062
			c-0.029,0.136-0.105,0.473-0.187,0.832c0.189,0.083,0.348,0.205,0.518,0.214c2.9,0.159,5.804,0.44,8.706,0.423
			c3.839-0.024,7.677-0.282,11.519-0.446c0.308-0.014,0.64,0.001,0.916-0.107c1.765-0.7,3.48-1.542,5.281-2.123
			c2.114-0.681,4.293-1.155,6.453-1.685c0.282-0.072,0.654-0.038,0.911,0.096c1.729,0.906,3.461,0.979,5.369,0.498
			c1.267-0.32,2.668-0.26,3.989-0.142c0.741,0.068,1.543,0.479,2.133,0.962c0.561,0.459,1.017,0.569,1.674,0.369
			c1.355-0.411,2.682-0.779,3.789-1.801c0.988-0.91,2.126-1.7,3.538-1.915c0.305-0.05,0.628-0.12,0.885-0.275
			c1.37-0.826,2.745-1.648,4.07-2.546c0.348-0.236,0.475-0.771,0.779-1.102c1.283-1.404,1.437-3.703,3.694-4.438
			c-0.503-1.57,0.99-2.31,1.424-3.524c0.142-0.397,0.67-0.815,0.587-1.102c-0.622-2.206,0.743-4.401-0.037-6.596
			c-0.136-0.38-0.028-0.842-0.035-1.266c-0.018-0.794,0.025-1.594-0.068-2.378c-0.146-1.195-0.527-1.521-1.645-1.323
			c-0.775,0.133-1.515,0.457-2.577,0.794c0.36-0.464,0.522-0.735,0.741-0.95c0.718-0.687,1.441-1.362,2.182-2.02
			c1.932-1.703,2.168-3.811,1.402-6.104c-0.522-1.564-0.969-3.129-2.195-4.415c-1.1-1.15-1.795-2.665-2.777-3.935
			c-1.481-1.911-3.707-2.845-5.698-4.071c-2.21-1.36-4.536-2.564-6.279-4.752c0.222-0.254,0.467-0.535,0.813-0.93
			c-0.338-0.118-0.636-0.325-0.745-0.251c-1.034,0.713-1.835,0.218-2.678-0.404c-3.228-2.386-6.603-4.591-9.672-7.165
			c-2.116-1.776-3.932-3.955-5.675-6.118c-2.782-3.455-4.943-7.292-6.075-11.618c-0.5-1.904-0.883-3.853-1.143-5.805
			c-0.415-3.111,0.856-5.683,2.909-7.913c0.312-0.335,0.791-0.583,1.24-0.714c1.278-0.378,1.82-1.255,2.194-2.491
			c0.496-1.644,1.24-3.217,1.91-4.807c0.08-0.196,0.344-0.318,0.549-0.494c1.157,0.506,0.448,1.597,0.932,2.425
			c4.479-3.676,8.749-7.649,14.235-10.406c-0.594-0.246-0.947-0.442-1.327-0.536c-0.223-0.059-0.63,0.162-0.711,0.061
			c-1.404-1.705-2.661-0.13-3.963,0.159c-0.293,0.064-0.566,0.252-0.827,0.416c-0.695,0.44-1.366,0.61-2.255,0.489
			c-2.36-0.316-4.16,0.956-5.742,2.508c-1.568,1.545-2.531,3.511-3.433,5.486c-0.718,1.567-1.312,3.19-2.096,4.749
			c-0.32-3.292,1.793-5.885,2.896-8.897c-2.306-0.77-4.358-1.665-6.508-2.1c-1.596-0.322-3.316,0.017-4.975-0.064
			c-1.021-0.049-2.117-0.146-3.031-0.551c-1.399-0.624-2.629-1.613-4.01-2.296c-1.66-0.822-3.452-1.383-5.088-2.245
			c-2.023-1.063-3.945-2.31-5.9-3.5c-0.123-0.075-0.147-0.319-0.287-0.654c1.266-0.476,2.51-0.945,3.919-1.473
			c-0.364-0.504-0.655-0.909-0.951-1.322c0.417-0.392,0.853-0.732,1.209-1.146c0.562-0.655,0.425-1.328-0.353-1.761
			c-0.595-0.332-1.29-0.502-1.824-0.898c-0.725-0.54-1.596-1.076-1.469-2.197c0.091-0.781,1.295-1.584,2.437-1.688
			c0.672-0.064,1.358-0.076,2.02-0.215c1.327-0.278,1.562-0.739,1.527-2.067c-0.042-1.594-0.721-2.647-2.186-3.253
			c-0.774-0.318-1.512-0.724-2.416-1.163c2.413-0.235,4.166-1.095,5.038-3.322c0.359-0.918,1.015-1.436,2.163-1.36
			c1.357,0.086,2.849,0.561,4.012-0.678c0.032-0.036,0.122-0.044,0.172-0.028c3.128,1.018,4.446-1.96,6.62-3.036
			c1.173-0.583,2.205-1.447,3.308-2.179c0.101-0.068,0.266-0.061,0.339-0.144c1.74-2.037,3.382-1.315,5.105,0.382
			c1.312-0.585,2.618-1.236,3.978-1.742c0.528-0.198,1.247-0.256,1.754-0.059c1.011,0.396,1.952,0.332,2.893-0.051
			c1.945-0.787,3.933-1.505,5.795-2.46c3.298-1.692,6.766-2.685,10.427-3.186c4.052-0.559,8.078-1.3,12.127-1.889
			c1.53-0.222,3.091-0.354,4.635-0.328c4.964,0.081,9.894,0.587,14.741,1.68c1.927,0.437,3.803,1.072,5.808,1.095
			c0.475,0.006,0.999,0.162,1.405,0.407c0.878,0.531,1.812,0.553,2.783,0.718c2.509,0.43,5.129,0.794,6.557,3.522
			c0.703,1.341,1.923,2.408,2.869,3.627c1.016,1.315,2.137,2.583,2.941,4.022c0.774,1.391,1.474,2.933,1.69,4.481
			c0.166,1.185-0.177,2.679-0.832,3.68c-0.972,1.479-1.501,3.088-2.122,4.679c-1.53,3.927-3.002,7.855-5.558,11.298
			c-1.015,1.37-1.672,3.029-2.348,4.616c-1.242,2.92-3.154,5.138-6.124,6.375c-4.004,1.671-8.037,3.276-11.984,5.063
			c-2.479,1.122-4.896,2.423-7.209,3.853c-0.999,0.619-1.752,1.705-2.475,2.685c-0.522,0.709-0.564,1.591-0.27,2.494
			c0.395,1.206,0.684,2.446,1.335,3.624c0.091-0.363,0.177-0.722,0.323-1.332c0.481,0.533,0.77,0.92,1.125,1.229
			c1.156,1.016,2.329,2.011,3.507,3.001c0.576,0.479,1.126,0.922,1.242,1.766c0.049,0.361,0.416,0.766,0.746,0.986
			c2.004,1.341,4.039,2.633,6.194,4.026c0.262-0.419,0.469-0.75,0.78-1.251c0.806,0.647,1.592,1.277,2.382,1.908
			c-0.845,0.002-1.765-0.666-2.113,0.538c3.212,1.802,6.434,3.606,9.726,5.454c0.079-0.224,0.207-0.593,0.385-1.101
			c1.798,2.843,3.529,5.573,5.406,8.538c-0.843-0.205-1.48-0.315-2.081-0.525c-0.259-0.09-0.658-0.404-0.64-0.576
			c0.192-1.753-1.463-2.098-2.284-3.061c-0.379-0.448-0.937-0.612-1.603,0.158c0.658,0.813,1.332,1.646,2.005,2.481
			c-0.057,0.09-0.113,0.181-0.169,0.271c-0.489-0.293-1.02-0.541-1.463-0.89c-0.535-0.417-0.998-0.928-1.494-1.393
			c-1.435-1.351-3.135-2.117-5.246-2.363c-0.021,0.312-0.041,0.585-0.069,0.972c-1.741,0.593-2.246-1.157-3.629-1.743
			c0.82-0.57,1.689-0.621,1.976-1.481c0.082-0.24,0.823-0.49,1.145-0.381c1.357,0.461,3.007,0.256,3.987,1.648
			c0.09,0.134,0.3,0.184,0.698,0.151c-0.197-0.375-0.314-0.845-0.611-1.103c-1.354-1.182-2.77-2.288-4.626-2.576
			c-0.98-0.152-1.729-0.651-2.271-1.465c-1.15-1.719-2.808-2.559-4.916-2.919c0.2,1.247,1.664,0.878,2.001,1.904
			c-0.464-0.068-0.885-0.132-1.42-0.213c0.106,0.436,0.173,0.707,0.236,0.98c-1.718-0.928-3.86-0.821-5.061,0.336
			c0.315,0.348,0.571,0.802,0.96,1.037c0.938,0.568,1.648,1.236,1.934,2.361c0.082,0.327,0.561,0.642,0.928,0.795
			c1.148,0.49,1.941,1.281,2.357,2.456l0.053-0.055c-0.261,0.042-0.524,0.079-0.785,0.119c-0.107,0.156-0.217,0.311-0.323,0.466
			c0.368,0.198,0.735,0.395,1.102,0.595l-0.051-0.051c0.129,0.275,0.257,0.555,0.486,1.049c-1.717-0.554-3.397-0.411-4.812-1.477
			c-0.881-0.668-1.915-1.186-3.12-0.802c-0.059,0.017-0.127,0.02-0.185,0.004c-1.497-0.409-2.992-0.822-4.623-1.272
			c-0.177,0.542-0.606,1.159-0.479,1.621c0.222,0.789,0.723,1.534,1.239,2.192c0.45,0.572,1.164,0.934,1.624,1.498
			c0.867,1.078,0.763,1.77-0.265,2.868c0.098-0.946,0.098-0.946-0.964-0.746c0.337,0.233,0.675,0.468,1.01,0.704
			c0.348,0.235,0.665,0.555,1.047,0.683c0.79,0.265,1.61,0.459,2.428,0.623c0.439,0.087,0.9,0.053,1.422,0.081v2.297l0.043-0.038
			h-3.629c-0.241-2.115-0.241-2.115-4.368-3.153c0.104-0.307,0.204-0.611,0.303-0.908c-1.005-0.055-1.941-0.106-2.918-0.161
			c-0.531,1.211-0.493,1.622,0.296,2.224c0.683,0.514,1.441,0.948,2.05,1.537c0.604,0.582,1.062,1.317,1.589,1.995
			c-0.519,1.505-0.519,1.505,0.814,2.235c0.104-0.202,0.199-0.4,0.306-0.596c0.087-0.157,0.183-0.31,0.258-0.438
			c0.753-0.158,2.607,1.513,3.116,2.776c-1.289,0.391-1.521-1.602-2.909-1.233c0,1.263,1.272,1.158,1.813,1.758
			c0.612,0.679,1.161,1.422,1.775,2.184c0.227-0.203,0.458-0.414,0.785-0.711c0.103,0.743,0.187,1.332,0.272,1.971
			c0.83-0.419,1.453-0.737,2.074-1.053l-0.032,0.026c0.64,0.234,1.276,0.467,1.911,0.708c-0.148,0.398-0.291,0.792-0.438,1.193
			c-0.279-0.216-0.553-0.438-0.967-0.77c-0.079,0.406-0.136,0.699-0.207,1.063c0.513-0.142,0.865-0.239,1.217-0.335
			c0.01,0.853,0.585,0.845,1.484,0.967c-0.467-0.871-0.797-1.48-1.124-2.09c-0.369-0.382-0.562-0.781-0.068-1.417
			c0.335,0.363,0.667,0.617,0.862,0.95c1.237,2.138,2.446,4.292,3.666,6.44c0.181,0.319,0.315,0.69,0.57,0.938
			c0.534,0.521,0.816,0.124,1.079-0.557c0.403,0.722,0.744,1.337,1.084,1.951c0.091-0.012,0.185-0.022,0.275-0.033v-4.514
			c0.71,0.602,1.068,0.903,1.499,1.269c-0.336-1.227-0.656-2.401-1.033-3.772c1.103,0.542,2.679,2.977,3.369,4.656
			c0.692,1.676,1.515,3.298,2.365,5.131c-0.052-0.822-0.094-1.498-0.141-2.211c0.279-0.014,0.553-0.025,0.999-0.046
			c-0.646-2.744-1.282-5.439-1.919-8.137c0.049-0.036,0.098-0.072,0.149-0.105c0.556,0.818,1.112,1.635,1.671,2.453
			c0.088-0.028,0.182-0.052,0.271-0.079c-0.259-0.896-0.507-1.791-0.783-2.679c-0.207-0.647-0.495-1.274-0.668-1.931
			c-0.338-1.289,0-1.947,1.233-2.738c0.266-0.169,0.444-0.474,0.765-0.829c0.231,0.06,0.631,0.163,0.914,0.239
			c-0.046,0.442-0.244,0.905-0.098,1.186c1.18,2.261,2.218,4.556,2.472,7.144c0.039,0.401,0.363,0.773,0.603,1.249
			c-0.319,0.203-0.603,0.377-1.012,0.634c0.299,0.826,0.579,1.699,0.931,2.541c0.501,1.19,0.846,2.691,0.126,3.552
			c-0.88,1.053-0.416,1.525,0.034,2.35c0.271,0.502,0.214,1.185,0.309,1.787c-0.134,0.102-0.264,0.204-0.395,0.305
			c-0.163-0.455-0.328-0.907-0.53-1.469c-0.885,1.121,0.021,1.601,0.025,2.211c-1.632,0.846-0.443,2.569-1.223,3.877
			c-0.451-0.794-0.843-1.486-1.347-2.373c-0.934,1.546,0.381,3.251-0.992,4.71c-0.323-2.255-0.615-4.289-0.906-6.323
			c-0.108,0.002-0.217,0.005-0.326,0.007c0,2.412,0.019,4.826-0.019,7.238c-0.005,0.475-0.083,1.188-0.385,1.374
			c-1.455,0.907-1.388,2.519-1.989,3.817c-0.56,1.207-1.277,2.34-1.878,3.531c-0.27,0.539-0.534,1.124-0.604,1.711
			c-0.604,5.204-3.395,9.192-6.998,12.739c-2.217,2.18-4.585,4.148-7.516,5.316c-0.542,0.219-1.1,0.435-0.708,1.069
			c-0.718,0.086-1.458,0.257-2.191,0.233c-0.762-0.018-1.516-0.225-2.463-0.383c-0.128,0.215-0.366,0.615-0.609,1.019
			c-2.882-0.204-5.712-0.112-8.081,1.919l0.079-0.074c-1.789-0.532-3.241,0.549-4.789,1.063c-2.81,0.932-5.579,1.991-8.356,3.024
			c-0.956,0.356-2.156,0.46-2.072,1.904c-0.419,0.029-0.7,0.136-0.896,0.047c-1.686-0.754-3.227-0.066-4.835,0.35
			c-3.759,0.977-7.526,1.965-11.334,2.726c-1.845,0.367-3.803,0.377-5.69,0.255c-0.863-0.056-1.688,0.207-2.632-0.058
			c-1.717-0.478-3.578-0.418-5.37-0.644c-0.46-0.056-0.879-0.364-1.332-0.529c-0.547-0.202-1.118-0.569-1.651-0.526
			c-1.9,0.161-3.787,0.438-5.674,0.73c-0.655,0.102-1.275,0.415-1.931,0.55c-0.453,0.092-0.944,0.106-1.404,0.044
			c-1.271-0.179-2.517-0.22-3.751,0.5c0.761,0.241,1.52,0.481,2.593,0.821c-1.283,0.87-2.021-0.144-2.867-0.102
			c-0.835,0.037-1.685-0.115-2.538-0.174c-0.63-0.22-1.251-0.445-1.996-0.718C579.875,350.752,580.455,351.148,581.271,350.796"/>
		<path clip-path="url(#SVGID_2_)" fill="#009A93" d="M480.73,301.727c-1.102-0.317-2.12-0.347-2.738-0.857
			c-0.808-0.67-1.329-1.705-1.909-2.627c-0.127-0.205-0.088-0.657,0.059-0.869c0.28-0.406,0.783-0.779,0.388-1.277
			c-0.331-0.418-0.829-0.736-1.312-0.988c-0.312-0.16-0.732-0.088-1.092-0.174c-1.375-0.332-1.809-1.334-1.183-2.644
			c0.149-0.312,0.224-0.655,0.382-1.131h-1.358c-0.157-2.129-1.712-4.009-0.344-6.235c0.544-0.883,1.094-2.093,0.385-3.482
			c-0.219,0.448-0.372,0.754-0.524,1.056c-0.098-0.051-0.272-0.092-0.28-0.156c-0.059-0.428-0.186-0.881-0.098-1.284
			c0.284-1.296,0.659-2.572,0.982-3.86c0.244-0.969,0.374-1.817-0.463-2.735c-0.703-0.768-1.021-1.805-0.831-3.063
			c0.409-2.741,0.288-2.759,1.661-5.099c0.524-0.052,1.116-0.114,1.688-0.172v-5.033c-0.318-0.139-0.762-0.329-1.279-0.555
			c-0.323,0.425-0.573,0.847-0.908,1.182c-0.894,0.879-1.287,1.985-1.727,3.134c-0.564,1.462-1.453,2.8-2.225,4.233
			c-1.124-1.176-1.245-1.917-0.5-3.206c0.707-1.222,1.444-2.434,2.239-3.606c0.296-0.442,0.725-0.865,1.192-1.106
			c0.889-0.461,1.128-1.192,1.284-2.248c-0.5,0.312-0.845,0.524-1.259,0.782c-0.323-0.249-0.654-0.506-1.1-0.85
			c0.469-0.704-0.051-1.817,1.126-2.32c0.456,0.288,0.915,0.579,1.491,0.944c0.783-1.134,1.791-2.024,1.397-3.73
			c-0.352-1.526,1.27-2.852,3.07-2.77c0.483-1.964,1.58-3.52,3.166-4.781c1.784-1.42,3.511-2.908,5.27-4.359
			c0.937-0.773,1.837-1.603,2.852-2.256c0.47-0.303,1.177-0.333,1.769-0.314c0.589,0.017,0.993-0.075,1.489-0.47
			c0.989-0.786,2.114-1.411,3.217-2.043c0.21-0.122,0.71-0.096,0.847,0.061c1.565,1.807,3.643,1.096,5.554,1.194
			c0.117,0.006,0.234,0.024,0.491,0.054c-0.022,0.454-0.048,0.917-0.069,1.364c1.287,1.49,2.269-0.283,3.608-0.431
			c-0.192,0.455-0.312,0.741-0.478,1.13c1.286,0.311,1.945-0.457,2.605-1.294c-0.359-0.384-0.689-0.734-1.118-1.193
			c0.458-0.419,0.8-0.878,1.255-1.125c1.656-0.89,3.373-1.665,4.916-2.758c0.201-0.141,0.595-0.072,0.883-0.015
			c1.212,0.243,2.432,0.459,3.616,0.795c1.31,0.375,2.195-0.55,3.255-0.929c0.434-0.158,2.585-1.144,3.073-1.255
			c0.163-0.039,0.363-0.105,0.459-0.226c1.163-1.479,2.598-1.625,4.264-0.99c0.296,0.113,0.711-0.079,1.224-0.15
			c0.138-1.526,0.271-3.004,0.411-4.598c1.177,0.222,0.604,2.4,2.264,2.354c0.085-0.248,0.191-0.558,0.333-0.974
			c0.226,0.124,0.472,0.191,0.612,0.354c0.537,0.632,0.812,1.574,2.068,1.542c0.091-0.489,0.183-0.986,0.282-1.527
			c0.162,0.034,0.372,0.015,0.489,0.113c0.382,0.312,0.73,0.671,1.096,1.007c0.225,0.208,0.462,0.579,0.7,0.582
			c1.798,0.024,3.288,1.025,5.045,1.734v-1.576c0.771,0.208,1.441,0.389,2.057,0.557c1.085-1.056,0.313-2.321,0.558-3.635
			c0.577,0.38,1.006,0.663,1.552,1.021c0.357-0.207,0.947-0.344,1.154-0.7c0.518-0.905,1.186-1.202,2.155-0.944
			c1.061,0.284,2.019,0.673,2.172,1.968c0.029,0.235,0.173,0.454,0.31,0.798c0.351-0.04,0.691-0.136,1.018-0.1
			c0.9,0.104,1.329,0.636,1.595,1.528c0.567,1.889,1.308,3.725,1.944,5.591c0.552,1.604,2.117,1.979,3.35,2.67
			c1.222,0.684,1.78,1.571,1.518,2.856c-0.243,1.19-0.707,2.336-1.087,3.5c-0.319,0.986-1,1.992-0.929,2.946
			c0.26,3.506-2.25,5.536-4.748,6.582c-1.245,0.521-2.527,0.721-3.808,0.256c-1.089-0.392-1.926-0.104-2.711,0.644
			c-0.489,0.472-1.067,0.862-1.519,1.366c-1.6,1.801-3.659,2.465-5.98,2.482c-4.462,0.033-8.925,0.047-13.389,0.05
			c-3.174,0.002-6.104,0.943-8.928,2.288c-1.229,0.583-2.442,1.211-3.664,1.819c-1.114,0.555-2.041,1.279-2.905,2.229
			c-0.89,0.982-2.149,1.647-3.298,2.371c-1.058,0.664-1.726,1.387-1.816,2.78c-0.071,1.114,0.144,2.588-1.369,3.186
			c-0.083,0.032-0.161,0.222-0.146,0.326c0.192,1.554-0.869,2.85-0.938,4.287c-0.066,1.312,0.089,2.824,0.713,3.93
			c1.042,1.854,2.011,3.654,1.998,5.851c0.845,0.094,1.579,0.125,2.297,0.264c1.815,0.361,1.86,0.34,1.744-1.609
			c0.312,0.196,0.645,0.288,0.774,0.502c1.205,2.028,3.415,2.31,5.332,3.091c0.228,0.092,0.666,0.008,0.838-0.164
			c1.018-1.009,2.212-0.971,3.475-0.721c0.165,0.034,0.355-0.057,0.639-0.109v-1.576c0.069-0.061,0.144-0.192,0.246-0.218
			c1.979-0.458,3.957-0.903,5.938-1.355c4.164-0.952,8.315-1.989,12.503-2.826c2.487-0.497,5.008-0.164,7.815,0.284
			c-0.587,0.698-0.95,1.133-1.363,1.626c0.396,0.474,0.776,0.929,1.3,1.554c-1.013,0.256-1.83,0.518-2.666,0.659
			c-1.864,0.318-3.167,1.612-4.652,2.592c-0.095,0.062-0.188,0.188-0.207,0.299c-0.357,1.953-1.904,2.746-3.398,3.669
			c-0.815,0.508-1.443,1.332-2.122,2.041c-2.1,2.182-4.591,4.126-6.162,6.641c-1.439,2.294-3.61,3.6-5.333,5.46
			c-2.048,2.199-4.276,4.241-6.519,6.244c-0.706,0.632-1.674,1.123-2.598,1.322c-1.259,0.273-2.04,1.055-2.898,2.052
			c-0.309-0.398-0.553-0.712-0.915-1.177c-0.696,0.49-1.407,0.999-2.133,1.48c-0.152,0.101-0.38,0.109-0.576,0.126
			c-1.132,0.113-2.271,0.217-3.406,0.325c-1.283,0.115-2.543,0.525-3.861,0.085c-0.502-0.167-1.104-0.011-1.653-0.067
			c-0.657-0.065-1.304-0.199-2.228-0.348c1.06-1.062,2.242-0.372,3.266-1.007c-0.82-0.365-1.539-0.687-2.255-1.007
			c0.027-0.092,0.057-0.183,0.084-0.273c2.486,0.191,4.973,0.38,7.46,0.567c0.014-0.129,0.027-0.265,0.039-0.396
			c-0.797-0.073-1.6-0.122-2.396-0.22c-2.507-0.314-5.01-0.706-7.523-0.95c-1.745-0.168-3.023-1.31-4.545-1.937
			c-3.04-1.262-5.19-3.736-7.462-5.964c-1.236-1.213-1.973-2.944-2.893-4.472C480.959,302.529,480.829,301.979,480.73,301.727"/>
		<path clip-path="url(#SVGID_2_)" fill="#009A93" d="M468.855,281.569c-0.565-0.301-1.031-0.549-1.49-0.791
			c-0.034-1.908,0.218-2.183,2.145-2.094c-0.193-1.596-0.384-3.167-0.571-4.733c0.869-0.151,0.978,0.327,1.109,0.822
			c0.185,0.724,0.403,1.439,0.662,2.348C470.176,278.405,469.53,279.951,468.855,281.569"/>
		<path clip-path="url(#SVGID_2_)" fill="#009A93" d="M674.523,271.414c1.861-0.226,2.66,0.408,2.832,2.184
			c0.047,0.452,0.078,0.905,0.121,1.436c-1.208,0.164-1.003-1.116-1.512-1.655C675.424,272.792,675.012,272.091,674.523,271.414"/>
		<path clip-path="url(#SVGID_2_)" fill="#009A93" d="M471.843,265.26c-0.257,1.268-1.347,2.968-2.429,3.911
			C469.631,267.485,470.306,266.321,471.843,265.26"/>
		<path clip-path="url(#SVGID_2_)" fill="#009A93" d="M463.259,267.899c2.005,0.734,2.005,0.734,1.311,2.485
			C463.456,269.993,463.647,268.986,463.259,267.899"/>
		<path clip-path="url(#SVGID_2_)" fill="#009A93" d="M684.578,277.013c-0.485-1.088-0.858-1.931-1.396-3.134
			c1.407,0.494,1.877,1.299,2.208,2.174C685.446,276.198,684.995,276.535,684.578,277.013"/>
		<path clip-path="url(#SVGID_2_)" fill="#009A93" d="M666.979,265.41c1.418-0.285,1.749,1.155,2.646,1.732
			c-0.883-0.22-1.767-0.438-2.653-0.659l0.052,0.05c0.003-0.392,0.008-0.788,0.008-1.178L666.979,265.41z"/>
		<path clip-path="url(#SVGID_2_)" fill="#009A93" d="M512.541,232.242c1.121-0.962,1.794-0.569,2.597,0.005
			C514.25,232.926,513.546,232.64,512.541,232.242"/>
		<path clip-path="url(#SVGID_2_)" fill="#009A93" d="M467.249,269.741c-0.457,0.814-0.918,1.625-1.444,2.555
			C465.648,271.001,465.718,270.86,467.249,269.741"/>
		<path clip-path="url(#SVGID_2_)" fill="#009A93" d="M663.201,271.762c-0.726,0.574-1.272,0.938-1.733,0.189
			c-0.135-0.216-0.039-0.839,0.135-0.931C662.332,270.629,662.645,271.28,663.201,271.762"/>
		<path clip-path="url(#SVGID_2_)" fill="#009A93" d="M421.084,274.467c0.583-0.246,1.168-0.495,1.82-0.773
			c0.218,0.871-0.004,1.347-0.971,1.172c-0.286-0.052-0.534-0.288-0.807-0.433C421.119,274.438,421.084,274.467,421.084,274.467"/>
		<path clip-path="url(#SVGID_2_)" fill="#009A93" d="M667.021,258.881c0.678,0.107,1.067,0.168,1.592,0.249
			c-0.181,0.314-0.244,0.604-0.409,0.68C667.693,260.042,667.678,260.007,667.021,258.881"/>
		<path clip-path="url(#SVGID_2_)" fill="#009A93" d="M665.84,252.54c0.582,0.31,1.161,0.62,1.744,0.933
			c-0.051,0.113-0.103,0.228-0.155,0.344c-0.623-0.227-1.241-0.455-1.864-0.683C665.657,252.937,665.749,252.737,665.84,252.54"/>
		<path clip-path="url(#SVGID_2_)" fill="#009A93" d="M506.845,231.182c0.583-0.102,1.165-0.205,1.749-0.307
			c0.017,0.16,0.038,0.322,0.057,0.481c-0.594,0.028-1.186,0.055-1.777,0.082C506.863,231.354,506.854,231.267,506.845,231.182"/>
		<path clip-path="url(#SVGID_2_)" fill="#009A93" d="M248.986,236.14c-0.135,0.111-0.255,0.233-0.396,0.312
			c-0.032,0.015-0.147-0.126-0.224-0.198c0.116-0.12,0.224-0.25,0.354-0.353C248.731,235.892,248.866,236.032,248.986,236.14"/>
		<path clip-path="url(#SVGID_2_)" fill="#009A93" d="M687.952,273.863c0.167,0.216,0.332,0.433,0.498,0.645
			c-0.072,0.06-0.144,0.119-0.213,0.178c-0.175-0.212-0.35-0.423-0.524-0.63C687.791,273.993,687.873,273.927,687.952,273.863"/>
		<path clip-path="url(#SVGID_2_)" fill="#009A93" d="M525.059,229.481c0.099,0.115,0.233,0.219,0.219,0.266
			c-0.054,0.16-0.165,0.3-0.255,0.449c-0.099-0.107-0.29-0.237-0.271-0.316C524.785,229.733,524.947,229.619,525.059,229.481"/>
		<path clip-path="url(#SVGID_2_)" fill="#009A93" d="M519.589,232.706c-0.109,0.003-0.217,0.009-0.322,0.015
			c0.017-0.094,0.024-0.192,0.062-0.278c0.007-0.022,0.143-0.03,0.157-0.004C519.538,232.518,519.558,232.614,519.589,232.706"/>
		<path clip-path="url(#SVGID_2_)" fill="#009A93" d="M227.393,255.292c-0.139,0.083-0.282,0.169-0.427,0.255
			c-0.058-0.131-0.115-0.261-0.173-0.393c0.156-0.068,0.312-0.134,0.468-0.202C227.298,255.051,227.336,255.148,227.393,255.292"/>
		<path clip-path="url(#SVGID_2_)" fill="#009A93" d="M404,266.621c-0.421-0.461-0.842-0.923-1.283-1.405
			c2.416-1.761,2.764-1.75,4.809,0.158c-1.465-0.064-2.74,0.062-3.561,1.277C403.961,266.657,404,266.621,404,266.621"/>
		<path clip-path="url(#SVGID_2_)" fill="#009A93" d="M678.4,205.767c-0.175,0.126-0.479,0.226-0.506,0.376
			c-0.128,0.671-0.094,1.388-0.714,1.866c-0.982,0.754-0.741,1.836-0.769,2.852c-0.021,0.8,0.647,1.161,1.009,1.722
			c0.912,1.406,2.498,1.488,3.837,2c1.134,0.428,2.021-0.604,1.706-1.97c-0.091-0.398-0.036-0.613,0.175-0.871
			c0.216-0.267,0.535-0.489,0.646-0.792c0.096-0.26,0.025-0.63-0.092-0.899c-0.057-0.123-0.508-0.23-0.602-0.145
			c-0.704,0.644-1.238,0.342-1.68-0.286c-0.516-0.739-0.98-1.52-1.469-2.282c-0.303-0.469-0.579-0.958-0.928-1.393
			C678.91,205.81,678.612,205.825,678.4,205.767 M692.983,204.261c0,0.759-0.046,1.223,0.007,1.677
			c0.189,1.575-0.33,2.914-1.285,4.124c-0.144,0.181-0.335,0.329-0.453,0.523c-0.55,0.901-0.471,2.043,0.212,2.847
			c0.297,0.35,0.635,0.665,0.963,0.99c0.432,0.43,0.591,0.959,0.581,1.557c-0.009,0.461-0.024,0.922,0.016,1.377
			c0.113,1.23-0.241,2.251-1.244,3.016c-0.437,0.327-0.881,0.647-1.321,0.971c-0.594-0.714-1.919-0.051-2.275-1.209
			c-3.522-4.15-2.661-3.384-7.527-3.409c-0.438-0.002-0.933,0.081-1.312,0.284c-1.428,0.764-2.937,0.371-4.396,0.309
			c-0.422-0.019-0.922-0.644-1.183-1.108c-0.202-0.355-0.131-0.896-0.104-1.352c0.084-1.436-0.248-2.796-1.259-3.78
			c-1.113-1.082-1.07-2.446-0.642-3.501c0.561-1.373,0.502-2.694,0.474-4.04c-0.04-2.006,0.471-3.893,1.479-5.516
			c0.99-1.59,1.734-3.501,3.758-4.272c0.498-0.188,0.894-0.71,1.281-1.129c0.504-0.545,1.099-0.758,1.831-0.783
			c0.438-0.015,0.892-0.156,1.304-0.322c2.133-0.867,4.004-0.034,5.802,0.943c1.73,0.942,2.757,2.628,3.895,4.159
			c0.328,0.44,0.674,1.035,0.653,1.545C692.155,200.341,693.549,202.339,692.983,204.261"/>
		<path clip-path="url(#SVGID_2_)" fill="#009A93" d="M737.621,59.178c-0.1,2.102-0.151,3.558-0.654,5.082
			c-0.508,1.531-0.201,3.337-0.234,5.025c-0.023,1.24-0.102,1.356-1.486,1.847c-1.14,0.407-1.535,1-1.272,1.93
			c0.08,0.288,0.271,0.549,0.362,0.833c0.693,2.141,0.512,2.703-1.354,3.695c-1.043,0.553-1.986,1.343-3.326,0.239
			c-1.324-1.093-3.058-1.342-4.798-1.149c-2.056,0.229-3.077-1.114-3.845-2.671c-0.463-0.938-0.896-1.995-0.937-3.014
			c-0.07-1.701-0.448-3.283-0.956-4.88c-0.185-0.574,0.062-1.216,0.806-1.406c0.147-0.039,0.306-0.057,0.458-0.062
			c1.235-0.043,2.019-0.708,2.307-1.861c0.309-1.236-0.436-1.995-1.366-2.67c-1.603-1.165-1.689-1.371-0.907-2.831
			c1.224-2.282,2.508-4.544,4.438-6.32c2.907-2.67,6.188-2.894,9.5-0.264c2.198,1.745,2.954,4.131,3.252,6.749
			C737.693,58.21,737.621,58.989,737.621,59.178"/>
		<path clip-path="url(#SVGID_2_)" fill="#009A93" d="M91.004,491.135c-0.188,2.632-0.874,6.762-5.37,9.063
			c-0.676,0.342-1.288,1.107-1.593,1.822c-1.605,3.774-4.203,6.738-7.123,9.545c-2.03,1.957-2.62,5.066-5.133,6.753
			c-1.188,0.801-2.689,0.65-3.756-0.648c-1.632-1.979-1.839-5.21-0.354-7.126c0.702-0.901,1.553-1.709,2.406-2.473
			c1.37-1.23,1.942-2.672,1.98-4.549c0.069-3.274,1.446-6.105,3.9-8.276c2.464-2.175,3.688-4.996,4.625-8.01
			c0.318-1.032-0.562-2.632-1.52-2.682c-1.438-0.078-2.876-0.013-4.312-0.106c-2.167-0.128-2.636-0.961-2.77-3.409
			c-0.122-2.282,0.904-3.857,2.466-5.216c1.232-1.07,2.093-3.301,3.897-2.813c2.274,0.617,2.417,2.916,2.32,5.022
			c-0.042,0.863-0.003,1.729,0.019,2.592c0.036,1.422,0.955,1.949,2.208,2.063c0.573,0.055,1.151,0.022,1.725,0.048
			C90.07,482.988,91.029,483.991,91.004,491.135"/>
		<path clip-path="url(#SVGID_2_)" fill="#009A93" d="M665.485,111.293c0.264,0.181,1.547,0.619,1.87,1.43
			c0.354,0.895,0.169,2.378-0.39,3.183c-0.952,1.377-2.245,2.643-3.661,3.527c-0.806,0.493-2.423,0.525-3.16,0.025
			c-0.692-0.475-1.037-1.968-0.934-2.956c0.11-1.046,1.098-1.975,1.401-3.046C661.237,111.269,662.894,111.196,665.485,111.293"/>
		<path clip-path="url(#SVGID_2_)" fill="#009A93" d="M170.158,488.488c0.05-1.277-0.697-2.386-2.094-3.096
			c-0.811-0.409-2.046,0.125-2.32,1.015c-0.035,0.111-0.149,0.24-0.119,0.327c0.499,1.541-0.492,2.708-0.986,3.998
			c-0.167,0.437-0.378,0.889-0.395,1.342c-0.012,0.286,0.239,0.647,0.469,0.874c0.609,0.602,1.178,0.477,1.867-0.027
			c0.671-0.495,1.191-0.254,1.302,0.402c0.139,0.818,0.218,1.653,0.393,2.465c0.071,0.319,0.307,0.625,0.523,0.889
			c0.144,0.172,0.441,0.402,0.579,0.353c0.285-0.104,0.545-0.348,0.749-0.591c0.141-0.169,0.259-0.436,0.239-0.646"/>
		<path clip-path="url(#SVGID_2_)" fill="#009A93" d="M92.549,506.5c0.137-0.802,0.316-1.595,0.395-2.405
			c0.042-0.449-0.004-0.947-0.152-1.374c-0.143-0.405-0.707-0.721-0.304-1.217c0.443-0.546,0.884-1.331,1.463-1.479
			c1.265-0.325,2.476-0.69,3.674-1.238c0.704-0.317,1.661-0.312,2.447-0.157c0.716,0.14,1.387,0.227,2.107,0.138
			c1.771-0.229,3.259,0.443,4.58,1.55c0.389,0.328,0.535,0.735,0.29,1.263c-0.249,0.537-0.371,1.126-0.617,1.667
			c-0.436,0.958-0.233,1.945,0.112,2.788c0.384,0.935,0.89,1.895,2.1,2.208c0.889,0.231,1.283,0.984,1.327,1.919
			c0.028,0.595,0.151,1.186,0.208,1.781c0.065,0.706-0.709,1.305-1.454,1.087c-0.795-0.236-1.557-0.603-2.363-0.802
			c-0.434-0.109-1.052-0.166-1.371,0.062c-1.041,0.739-2.096,1.003-3.354,0.729c-1.609-0.362-3.283-0.467-4.64-1.588
			c-0.828-0.69-1.695-1.337-2.592-1.928C93.316,508.791,92.729,507.84,92.549,506.5"/>
		<path clip-path="url(#SVGID_2_)" fill="#009A93" d="M111.749,460.711c0.122,0.868,0.166,1.104,0.187,1.34
			c0.083,0.975-1.327,2.274-2.349,2.005c-0.708-0.189-1.375-0.338-2.092-0.237c-1.096,0.15-1.755-0.586-2.453-1.223
			c-0.156-0.144-0.334-0.473-0.274-0.606c0.484-1.016,0.164-2.1,0.331-3.124c0.111-0.7,0.653-1.259,1.464-1.38
			c1.925-0.281,3.522,0.423,4.741,1.835C111.723,459.805,111.73,460.644,111.749,460.711"/>
		<path clip-path="url(#SVGID_2_)" fill="#009A93" d="M128.501,321.441c0.128,1.198-0.733,2.659-1.862,3.096
			c-0.601,0.23-1.132,0.02-1.654-0.328c-1.072-0.715-1.12-0.851-0.558-2.128c0.139-0.314,0.26-0.64,0.351-0.972
			c0.118-0.43,0.057-1.105,0.322-1.264c0.463-0.278,1.119-0.346,1.688-0.322C127.757,319.562,128.379,320.33,128.501,321.441"/>
		<path clip-path="url(#SVGID_2_)" fill="#009A93" d="M141.888,390.552c0,0.197,0.044,0.669-0.01,1.126
			c-0.085,0.734-0.997,1.439-1.776,1.431c-0.651-0.008-1.478-0.52-1.627-1.116c-0.199-0.782-0.463-1.603,0.097-2.36
			c0.471-0.64,0.781-1.529,1.789-1.465C141.123,388.217,141.71,389.12,141.888,390.552"/>
		<path clip-path="url(#SVGID_2_)" fill="#009A93" d="M133.807,513.197c1.09-0.11,1.67,0.319,2.039,0.943
			c0.3,0.509,0.325,1.144-0.049,1.677c-0.337,0.479-0.678,0.982-1.113,1.365c-0.589,0.516-1.295,0.497-1.959,0.079
			c-0.195-0.123-0.526-0.408-0.503-0.447c0.536-0.931-0.152-2.152,0.682-2.981C133.218,513.521,133.638,513.315,133.807,513.197"/>
		<path clip-path="url(#SVGID_2_)" fill="#009A93" d="M106.794,342.628c0.167,1.46-0.634,2.493-1.879,2.413
			c-0.928-0.059-1.393-0.75-1.082-1.638c0.154-0.443,0.286-0.904,0.506-1.313c0.31-0.577,0.842-0.802,1.498-0.747
			C106.403,341.39,106.696,341.772,106.794,342.628"/>
		<path clip-path="url(#SVGID_2_)" fill="#009A93" d="M99.929,346.435c0.054,0.788-0.503,1.272-0.926,1.812
			c-0.202,0.261-0.489,0.598-0.844,0.263c-0.318-0.301-0.708-0.678-0.761-1.062c-0.058-0.414,0.294-0.865,0.368-1.316
			c0.093-0.568,0.422-0.842,0.929-0.812C99.201,345.35,99.902,346.062,99.929,346.435"/>
		<path clip-path="url(#SVGID_2_)" fill="#009A93" d="M110.583,427.591c0.287,0.669-0.432,1.712-1.189,1.717
			c-0.103-0.002-0.22-0.037-0.305-0.096c-0.411-0.286-0.541-1.084-0.26-1.535c0.263-0.421,1.048-0.589,1.52-0.314
			C110.441,427.417,110.505,427.515,110.583,427.591"/>
		<path clip-path="url(#SVGID_2_)" fill="#009A93" d="M134.733,350.569c0.104,0.736,0.188,0.978,0.152,1.199
			c-0.026,0.169-0.204,0.313-0.311,0.467c-0.088-0.079-0.235-0.143-0.253-0.236c-0.193-1.026-0.412-2.033-1.1-2.878
			c-0.077-0.097,0.105-0.404,0.167-0.614c0.108,0.05,0.231,0.074,0.318,0.15c0.262,0.224,0.626,0.422,0.74,0.713
			C134.66,349.904,134.719,350.499,134.733,350.569"/>
		<path clip-path="url(#SVGID_2_)" fill="#009A93" d="M122.549,341.559c-0.007,0.103-0.005,0.337-0.042,0.562
			c-0.015,0.094-0.117,0.176-0.178,0.262c-0.086-0.081-0.229-0.15-0.25-0.246c-0.128-0.571-0.237-1.151-0.325-1.73
			c-0.013-0.091,0.108-0.204,0.168-0.308c0.154,0.092,0.405,0.155,0.445,0.285C122.47,340.719,122.482,341.084,122.549,341.559"/>
		<path clip-path="url(#SVGID_2_)" fill="#009A93" d="M132.107,399.77c-0.318,0.327-0.608,0.629-0.911,0.916
			c-0.007,0.005-0.211-0.139-0.244-0.236c-0.165-0.496,0.185-0.988,0.688-0.967C131.745,399.488,131.844,399.603,132.107,399.77"/>
		<path clip-path="url(#SVGID_2_)" fill="#009A93" d="M117.299,490.743c-0.108-0.128-0.217-0.255-0.322-0.383
			c0.207-0.063,0.41-0.156,0.619-0.177c0.084-0.008,0.185,0.139,0.277,0.214C117.682,490.514,117.49,490.63,117.299,490.743"/>
		<path clip-path="url(#SVGID_2_)" fill="#009A93" d="M113.13,508.568c-0.197,0.098-0.377,0.246-0.563,0.256
			c-0.12,0.006-0.25-0.19-0.375-0.296c0.176-0.1,0.351-0.259,0.531-0.269C112.853,508.256,112.99,508.456,113.13,508.568"/>
		<path clip-path="url(#SVGID_2_)" fill="#009A93" d="M150.375,384.611c-0.061,0.096-0.1,0.23-0.184,0.28
			c-0.259,0.144-0.504-0.3-0.357-0.68c0.029-0.078,0.144-0.123,0.221-0.186C150.161,384.225,150.269,384.416,150.375,384.611"/>
		<path clip-path="url(#SVGID_2_)" fill="#009A93" d="M54.604,434.257c0.184,0.129,0.497,0.234,0.526,0.39
			c0.131,0.695,0.099,1.438,0.74,1.934c1.019,0.779,0.767,1.899,0.793,2.952c0.021,0.828-0.667,1.202-1.044,1.78
			c-0.943,1.459-2.586,1.542-3.974,2.072c-1.172,0.441-2.088-0.625-1.765-2.041c0.095-0.411,0.038-0.636-0.179-0.899
			c-0.224-0.277-0.556-0.508-0.671-0.821c-0.1-0.269-0.024-0.65,0.097-0.931c0.055-0.128,0.526-0.237,0.62-0.15
			c0.732,0.664,1.283,0.355,1.737-0.294c0.538-0.771,1.018-1.576,1.524-2.365c0.312-0.484,0.599-0.991,0.958-1.44
			C54.078,434.299,54.387,434.317,54.604,434.257 M39.508,432.697c0,0.785,0.046,1.267-0.007,1.736
			c-0.195,1.629,0.34,3.019,1.333,4.271c0.148,0.187,0.342,0.337,0.466,0.54c0.57,0.933,0.486,2.115-0.22,2.948
			c-0.308,0.361-0.656,0.687-0.996,1.023c-0.448,0.446-0.612,0.993-0.601,1.614c0.007,0.476,0.025,0.954-0.017,1.426
			c-0.118,1.272,0.25,2.332,1.289,3.12c0.451,0.341,0.912,0.672,1.366,1.009c0.614-0.744,1.988-0.054,2.358-1.255
			c3.647-4.295,2.754-3.504,7.792-3.528c0.457-0.002,0.965,0.082,1.36,0.293c1.478,0.793,3.038,0.385,4.548,0.32
			c0.435-0.02,0.956-0.668,1.226-1.146c0.208-0.37,0.133-0.929,0.105-1.401c-0.083-1.483,0.259-2.895,1.305-3.915
			c1.151-1.121,1.109-2.53,0.664-3.624c-0.579-1.422-0.519-2.789-0.489-4.182c0.042-2.077-0.485-4.031-1.532-5.712
			c-1.025-1.647-1.8-3.625-3.892-4.424c-0.516-0.196-0.924-0.733-1.325-1.17c-0.524-0.562-1.138-0.786-1.897-0.811
			c-0.456-0.016-0.923-0.16-1.349-0.331c-2.208-0.898-4.147-0.034-6.007,0.977c-1.791,0.974-2.853,2.72-4.033,4.307
			c-0.34,0.454-0.693,1.068-0.674,1.6C40.363,428.641,38.922,430.71,39.508,432.697"/>
		<path clip-path="url(#SVGID_2_)" fill="#009A93" d="M703.274,79.165c-1.488-0.785-1.956-2.431-3.028-3.57
			c-0.149-0.158-0.32-0.386-0.324-0.582c-0.023-1.929-0.011-3.853-0.011-5.781c1.05-1.825,0.948-4.183,2.615-5.731
			c0.447-1.27,1.42-1.989,2.607-2.487c0.308-0.132,0.632-0.271,0.885-0.482c2.851-2.336,5.929-1.456,8.951-0.547
			c0.69,0.207,1.205,0.984,1.824,1.475c1.758,1.384,2.719,3.235,3.255,5.369c0.355,1.417,0.383,4.621-0.068,6.003
			c-0.278,0.845-0.718,1.652-0.898,2.512c-0.405,1.96-1.502,3.185-3.446,3.697c-0.414,0.107-0.855,0.36-1.129,0.679
			c-1.58,1.846-2.829,3.923-2.313,6.423c0.283,1.377,1.034,2.741,1.877,3.893c0.674,0.918,0.765,1.806,0.846,2.828
			c0.109,1.306-0.485,2.158-1.463,2.849c-0.178,0.125-0.403,0.233-0.609,0.239c-1.291,0.036-2.779-1.258-2.743-2.472
			c0.027-0.995-0.099-1.987,0.35-2.994c0.663-1.483,0.343-3.121,0.252-4.686c-0.021-0.371-0.422-0.849-0.774-1.037
			c-0.78-0.417-1.488-1.072-2.465-1.005c-0.714,0.05-1.28-0.331-1.914-0.557c-1.129-0.398-1.653-1.068-1.624-2.257
			c0.014-0.44-0.131-0.889-0.202-1.328c0.318,0.009,0.642,0.054,0.952,0.009c0.147-0.02,0.267-0.22,0.401-0.34
			c-0.184-0.09-0.364-0.258-0.547-0.254C704.111,79.032,703.692,79.112,703.274,79.165"/>
		<path clip-path="url(#SVGID_2_)" fill="#009A93" d="M160.49,453.451c0.979-0.087,1.469-0.102,1.949-0.19
			c0.117-0.022,0.257-0.285,0.268-0.447c0.011-0.158-0.106-0.454-0.202-0.477c-1.008-0.169-1.835-0.451-2.209-1.597
			c-0.19-0.572-1.156-0.481-1.798,0.048c-0.555,0.463-0.555,0.936-0.082,1.505C159.095,453.102,159.889,453.573,160.49,453.451
			 M156.792,451.087c0-0.605-0.03-1.21,0.006-1.812c0.135-2.159,1.438-3.458,3.53-3.756c0.689-0.099,1.4-0.022,2.1-0.082
			c0.498-0.039,1.095-0.918,0.898-1.371c-0.84-1.942-0.52-3.811,0.023-5.792c0.863-3.138,3.104-4.823,5.874-5.852
			c1.476-0.546,3.219-0.472,4.618,0.485c1.401,0.956,2.625,2.139,3.519,3.631c1.192,1.981,1.63,4.005,0.759,6.255
			c-0.239,0.617-0.189,1.382-0.145,2.07c0.059,0.943-0.142,1.815-0.669,2.553c-0.869,1.215-1.721,2.407-2.002,3.936
			c-0.112,0.596-0.815,0.862-1.436,0.582c-0.472-0.21-0.958-0.491-1.422-0.292c-2.294,0.997-4.462,0.471-6.629-0.41
			c-0.776-0.316-1.37-0.142-1.669,0.654c-0.582,1.546-1.547,2.773-2.756,3.852c-1.061,0.949-2.117,0.935-3.167-0.059
			c-0.291-0.276-0.57-0.566-0.857-0.846c-0.376-0.369-0.59-0.79-0.579-1.333C156.806,452.695,156.792,451.892,156.792,451.087"/>
		<path clip-path="url(#SVGID_2_)" fill="#009A93" d="M143.614,586.122c-0.184-0.526-0.497-1.11-0.574-1.724
			c-0.091-0.711-0.413-0.924-1.068-0.956c-0.445-0.024-0.875-0.231-1.323-0.297c-0.679-0.1-0.502,0.797-1.113,0.964
			c-0.649,0.179-0.579,0.897-0.28,1.393c0.324,0.536,0.436,0.967,0.015,1.504c-0.127,0.16-0.135,0.578-0.011,0.736
			c0.335,0.436,0.715,0.89,1.179,1.155c0.572,0.323,1.314,0.368,1.844-0.046C143.108,588.208,143.466,587.259,143.614,586.122
			 M134.577,586.857c-0.098-1.92,0.584-3.614,1.557-5.211c0.618-1.016,1.294-2.005,1.954-2.995c0.601-0.906,1.37-1.522,2.542-1.381
			c0.682-0.46,1.339-0.162,2.053-0.038c0.74,0.128,1.113,0.619,1.594,1.039c0.698,0.606,1.34,1.307,2.117,1.789
			c1.017,0.632,1.669,1.405,1.822,2.615c0.058,0.44,0.241,0.885,0.434,1.294c0.288,0.61,0.374,1.191-0.042,1.764
			c-0.524,0.722-0.59,1.541-0.557,2.391c0.017,0.469-0.031,0.94,0.021,1.399c0.123,1.085-0.34,1.989-0.842,2.877
			c-0.269,0.478-0.59,0.937-0.947,1.356c-0.156,0.185-0.446,0.321-0.693,0.35c-0.461,0.058-0.933,0.043-1.399,0.014
			c-1.135-0.068-2.203,0.083-3.206,0.683c-0.381,0.228-0.846,0.379-1.288,0.428c-0.842,0.094-1.535,0.07-2.035-0.962
			c-0.434-0.888-1.133-1.66-1.399-2.667c-0.092-0.345-0.188-0.81-0.443-0.972C134.356,589.693,134.562,588.255,134.577,586.857"/>
		<path clip-path="url(#SVGID_2_)" fill="#009A93" d="M780.579,51.804c-0.03-0.042-0.033-0.079-0.06-0.118
			c-0.046,0.033-0.08,0.077-0.128,0.111L780.579,51.804z M784.391,33.104c-3.589,2.783-3.502,6.992-4.18,10.85
			c-0.204,1.151,0.322,2.479,0.691,3.672c0.444,1.43-1.248,2.64-0.383,4.06c2.246-1.658,2.205-4.905,4.481-6.544
			c0.139-3.667,1.425-6.868,3.537-9.871c0.653-0.926,0.376-2.465,0.722-3.659c0.583-2.002,0.99-4.047,2.089-5.902
			c1.061-1.78,1.907-3.71,2.633-5.649c0.769-2.027,2.991-2.967,3.481-5.196c0.481-2.194,2.506-3.331,3.898-4.891
			c1.125-1.267,2.329-2.47,3.532-3.665c1.935-1.907,2.001-4.936,1.407-6.294H795.01c-2.048,1.926-3.823,4.055-3.914,7.144
			c-0.074,2.626-1.287,4.865-1.907,7.296c-0.301,1.175-1.306,2.178-1.558,3.352c-0.264,1.208,0.008,2.531,0.038,3.803
			c0.026,1.062-0.087,2.142,0.082,3.179C788.316,28.271,787.101,31.002,784.391,33.104"/>
		<path clip-path="url(#SVGID_2_)" fill="#009A93" d="M780.392,51.797c0.798,1.872-0.674,3.561-0.388,5.467
			c0.241,1.614,0.063,3.296-0.406,4.996c-0.493,1.782-0.053,3.801-0.274,5.688c-0.117,0.972-0.621,2.001-1.22,2.795
			c-1.848,2.444-2.541,5.332-2.95,8.199c-0.417,2.93-0.142,5.973,1.81,8.453c0.881,1.114,1.31,2.385,0.944,3.535
			c-0.812,2.558,0.204,4.952,0.246,7.422c0.007,0.412,0.022,0.942-0.208,1.217c-0.534,0.63-1.017,0.079-1.482-0.247
			c-2.31-1.605-5.103-1.858-7.676-2.726c-0.949-0.32-1.404-0.841-1.223-1.816c0.153-0.819,0.582-1.635,0.549-2.438
			c-0.061-1.646,0.678-2.803,1.753-3.907c1.167-1.196,2.129-2.443,2.839-4.084c1.2-2.762,0.194-4.968-1.01-7.144
			c-0.414-0.75-1.727-1.021-2.648-1.467c-0.877-0.418-1.426-1.078-0.81-1.93c0.761-1.059,1.183-2.109,1.389-3.432
			c0.617-3.979,2.028-7.663,4.989-10.588c0.603-0.591,1.456-1.225,1.581-1.944c0.477-2.788,2.645-4.237,4.38-6.041L780.392,51.797z"
			/>
		<path clip-path="url(#SVGID_2_)" fill="#009A93" d="M697.42,98.047c-0.139,1.936-0.644,4.977-3.953,6.667
			c-0.496,0.254-0.946,0.818-1.172,1.343c-1.18,2.779-3.091,4.958-5.24,7.023c-1.496,1.437-1.93,3.729-3.777,4.97
			c-0.875,0.589-1.977,0.478-2.764-0.48c-1.201-1.456-1.353-3.83-0.26-5.241c0.517-0.665,1.141-1.258,1.769-1.823
			c1.008-0.903,1.43-1.963,1.46-3.343c0.049-2.41,1.062-4.495,2.867-6.092c1.813-1.601,2.717-3.674,3.403-5.894
			c0.235-0.758-0.411-1.936-1.117-1.972c-1.058-0.058-2.116-0.009-3.174-0.077c-1.591-0.097-1.94-0.708-2.037-2.51
			c-0.089-1.678,0.664-2.841,1.814-3.838c0.906-0.79,1.539-2.428,2.867-2.07c1.674,0.454,1.776,2.146,1.705,3.694
			c-0.03,0.636,0,1.272,0.016,1.908c0.025,1.047,0.702,1.436,1.624,1.52c0.422,0.038,0.848,0.015,1.271,0.034
			C696.732,92.055,697.438,92.79,697.42,98.047"/>
		<path clip-path="url(#SVGID_2_)" fill="#009A93" d="M680.758,18.979c-0.609,1.999-1.278,3.982-2.987,5.335
			c-0.372,0.297-1.271,0.325-1.705,0.077c-0.902-0.506-1.608-1.352-2.48-1.936c-3.738-2.492-3.774-2.553-1.892-6.316
			c1.248-2.499,1.204-2.314,4.196-1.624c1.816,0.414,2.993,1.443,4.104,2.695C680.379,17.641,680.487,18.32,680.758,18.979"/>
		<path clip-path="url(#SVGID_2_)" fill="#009A93" d="M725.202,18.864c-0.45,0.497-0.91,1.229-1.571,1.649
			c-0.425,0.268-1.324,0.326-1.696,0.052c-1.715-1.253-3.368-2.57-3.086-5.128c0.084-0.761-0.459-1.573-0.654-2.382
			c-0.217-0.888,0.423-0.959,1.054-0.988c0.21-0.01,0.425-0.02,0.632,0.014C722.704,12.546,724.404,16.235,725.202,18.864"/>
		<path clip-path="url(#SVGID_2_)" fill="#009A93" d="M751.517,5.274c-0.173,0.116-0.36,0.35-0.516,0.33
			c-0.814-0.104-1.76-0.052-2.393-0.468c-1.043-0.678-1.896-1.659-2.8-2.543c-1.076-1.061-1.602-2.643-1.09-2.576
			c0.944,0.119,2.038,0.268,2.736,0.823c1.469,1.171,2.726,2.608,4.05,3.95C751.589,4.873,751.517,5.107,751.517,5.274"/>
		<path clip-path="url(#SVGID_2_)" fill="#009A93" d="M684.683,61.798c0.554,0.058,1.026-0.004,1.374,0.179
			c0.315,0.167,0.771,0.709,0.695,0.888c-0.557,1.281-1.217,2.514-1.887,3.747c-0.053,0.096-0.407,0.072-0.607,0.034
			c-1.604-0.297-2.841-2.453-2.177-3.859c0.159-0.34,0.521-0.711,0.863-0.811C683.536,61.808,684.189,61.837,684.683,61.798"/>
		<path clip-path="url(#SVGID_2_)" fill="#009A93" d="M721.41,31.312c0,0.425,0.103,0.888-0.037,1.261
			c-0.098,0.26-0.508,0.446-0.819,0.564c-0.127,0.053-0.396-0.128-0.534-0.273c-0.29-0.301-0.742-0.63-0.765-0.969
			c-0.11-1.655-0.112-3.313-0.12-4.967c0-0.148,0.227-0.397,0.376-0.416c0.177-0.024,0.431,0.094,0.568,0.239
			c0.429,0.447,1.049,0.883,1.178,1.424c0.24,1.008,0.185,2.083,0.256,3.136H721.41z"/>
		<path clip-path="url(#SVGID_2_)" fill="#009A93" d="M165.649,430.972c0.075-0.421,0.091-1.053,0.32-1.598
			c0.12-0.29,0.582-0.502,0.933-0.609c0.803-0.26,1.148,0.396,1.287,0.935c0.336,1.312-0.123,2.414-1.199,3.242
			c-0.158,0.117-0.466,0.29-0.539,0.233c-0.272-0.215-0.566-0.488-0.677-0.799C165.642,432.004,165.69,431.568,165.649,430.972"/>
		<path clip-path="url(#SVGID_2_)" fill="#009A93" d="M697.94,18.014c-0.141-0.101-0.389-0.178-0.41-0.297
			c-0.114-0.594-0.246-1.205-0.204-1.798c0.02-0.29,0.441-0.812,0.613-0.787c0.367,0.057,0.727,0.368,1.023,0.64
			c0.529,0.493,0.494,1.058-0.012,1.544C698.656,17.594,698.282,17.785,697.94,18.014"/>
	</g>
</g>
</svg>
