<?xml version="1.0" encoding="UTF-8" standalone="no"?>
<svg
   xmlns:dc="http://purl.org/dc/elements/1.1/"
   xmlns:cc="http://creativecommons.org/ns#"
   xmlns:rdf="http://www.w3.org/1999/02/22-rdf-syntax-ns#"
   xmlns:svg="http://www.w3.org/2000/svg"
   xmlns="http://www.w3.org/2000/svg"
   xmlns:sodipodi="http://sodipodi.sourceforge.net/DTD/sodipodi-0.dtd"
   xmlns:inkscape="http://www.inkscape.org/namespaces/inkscape"
   height="300px"
   width="300px"
   fill="#000000"
   viewBox="0 0 72.97 70.79"
   x="0px"
   y="0px"
   version="1.1"
   id="svg8"
   sodipodi:docname="corona.dark.svg"
   inkscape:version="1.0.2 (e86c870879, 2021-01-15)">
  <metadata
     id="metadata14">
    <rdf:RDF>
      <cc:Work
         rdf:about="">
        <dc:format>image/svg+xml</dc:format>
        <dc:type
           rdf:resource="http://purl.org/dc/dcmitype/StillImage" />
        <dc:title></dc:title>
      </cc:Work>
    </rdf:RDF>
  </metadata>
  <defs
     id="defs12" />
  <sodipodi:namedview
     pagecolor="#ffffff"
     bordercolor="#666666"
     borderopacity="1"
     objecttolerance="10"
     gridtolerance="10"
     guidetolerance="10"
     inkscape:pageopacity="0"
     inkscape:pageshadow="2"
     inkscape:window-width="3836"
     inkscape:window-height="2116"
     id="namedview10"
     showgrid="false"
     inkscape:zoom="2.8284271"
     inkscape:cx="225.38531"
     inkscape:cy="138.05556"
     inkscape:window-x="0"
     inkscape:window-y="0"
     inkscape:window-maximized="1"
     inkscape:current-layer="svg8" />
  <path
     d="m 67.856475,11.715229 -0.05087,-0.05989 a 0.56031491,0.56031491 0 0 0 -0.501677,-0.124842 l -0.466645,-0.629539 a 2.6112789,2.6112789 0 0 0 0.214032,-0.212133 2.9231523,2.9231523 0 0 0 0.381245,-0.512337 l 0.45778,0.2643 a 0.3594473,0.3594473 0 0 0 0.604271,0.348875 0.35416131,0.35416131 0 0 0 -0.02467,-0.496439 0.34887532,0.34887532 0 0 0 -0.498375,0.01745 0.07928984,0.07928984 0 0 0 -0.0185,0.03204 l -0.457777,-0.264298 a 2.7328567,2.7328567 0 0 0 0.291348,-0.7900745 l 0.761952,0.128623 a 0.52859897,0.52859897 0 0 0 0.105946,0.207658 l 0.05087,0.05989 a 0.55187417,0.55187417 0 0 0 0.803269,-0.75698 l -0.06409,-0.037 a 0.52859897,0.52859897 0 0 0 -0.704043,-0.02805 0.60788881,0.60788881 0 0 0 -0.127199,0.146295 L 67.848753,8.8847415 A 3.0394441,3.0394441 0 0 0 67.509935,7.2303323 l 0.45142,-0.2215678 0.06409,0.037 a 0.35416131,0.35416131 0 1 0 -0.02203,-0.5010147 0.33830334,0.33830334 0 0 0 -0.07302,0.3484819 l -0.45406,0.2261455 A 3.3671754,3.3671754 0 0 0 66.903882,6.3982325 3.605045,3.605045 0 0 0 66.530817,6.1034947 L 66.937838,5.3985132 A 0.56031491,0.56031491 0 0 0 67.30945,5.2834619 0.52859897,0.52859897 0 0 0 67.39281,4.5258987 l -0.06409,-0.037 A 0.5367039,0.5367039 0 0 0 66.54131,5.2184121 L 66.5642,5.2316271 66.151893,5.945764 A 2.9918701,2.9918701 0 0 0 64.702322,5.633775 l -0.01268,-0.5383488 a 0.35416131,0.35416131 0 1 0 -0.302515,-0.089205 0.37530527,0.37530527 0 0 0 0.18769,0.108363 l 0.01726,0.5409901 A 3.0394441,3.0394441 0 0 0 63.269776,6.0640596 L 62.847873,5.3993163 a 0.52859897,0.52859897 0 0 0 0.0129,-0.6883784 l -0.06408,-0.037 a 0.52859897,0.52859897 0 0 0 -0.70669,-0.023472 0.52859897,0.52859897 0 0 0 -0.08336,0.7575638 l 0.06409,0.037 a 0.52859897,0.52859897 0 0 0 0.415732,0.1362597 l 0.449888,0.7114193 A 2.9390102,2.9390102 0 0 0 62.605182,6.6020134 3.0183001,3.0183001 0 0 0 62.136718,7.265417 L 61.678939,7.001118 a 0.34887532,0.34887532 0 0 0 -0.09075,-0.3819943 0.3594473,0.3594473 0 0 0 -0.502952,0.014808 0.3551956,0.3551956 0 0 0 0.520403,0.4835663 0.08986182,0.08986182 0 0 0 0.0185,-0.032045 l 0.45778,0.2642995 a 3.0183001,3.0183001 0 0 0 -0.25034,0.856479 l -0.813395,-0.06066 a 0.71360861,0.71360861 0 0 0 -0.07938,-0.137385 l -0.06409,-0.037 a 0.52859897,0.52859897 0 0 0 -0.706693,-0.02347 0.52859897,0.52859897 0 0 0 -0.08336,0.757564 l 0.06409,0.037 a 0.52859897,0.52859897 0 0 0 0.713392,-0.0093 0.56031491,0.56031491 0 0 0 0.159611,-0.213034 l 0.78522,0.0566 a 3.0394441,3.0394441 0 0 0 0.232075,1.183832 l -0.466571,0.237237 -0.05951,-0.03436 a 0.35416131,0.35416131 0 0 0 -0.498375,0.01745 0.3594473,0.3594473 0 0 0 0.02203,0.5010175 0.35416131,0.35416131 0 0 0 0.498374,-0.01745 0.34358933,0.34358933 0 0 0 0.07108,-0.355703 l 0.463926,-0.2326575 a 3.0605881,3.0605881 0 0 0 0.672405,0.9497565 3.4464652,3.4464652 0 0 0 0.30246,0.247879 l -0.400838,0.641412 a 0.52859897,0.52859897 0 0 0 -0.395209,0.113635 0.52859897,0.52859897 0 0 0 -0.08794,0.75492 l 0.06867,0.03965 a 0.53670411,0.53670411 0 0 0 0.787409,-0.729515 v 0 l 0.367376,-0.636313 a 3.0341581,3.0341581 0 0 0 1.480203,0.354081 l 0.11552,0.561097 a 0.40702121,0.40702121 0 0 0 -0.181419,0.102785 0.3594473,0.3594473 0 0 0 0.02203,0.501017 0.35416131,0.35416131 0 0 0 0.498374,-0.01745 0.34887532,0.34887532 0 0 0 -0.01745,-0.498373 0.36473329,0.36473329 0 0 0 -0.206002,-0.118935 l -0.04562,-0.502437 A 2.9707262,2.9707262 0 0 0 66.55492,11.14687 l 0.462067,0.626896 a 0.52859897,0.52859897 0 0 0 0.02868,0.626932 l 0.06867,0.03965 a 0.53670372,0.53670372 0 0 0 0.787406,-0.729516 z"
     id="path6"
     style="stroke-width:0.528599;fill:#ffffff" />
  <path
     d="m 62.330087,37.027135 -0.05087,-0.05989 A 0.56031491,0.56031491 0 0 0 61.77754,36.842403 l -0.466645,-0.629539 a 2.6112789,2.6112789 0 0 0 0.214032,-0.212133 2.9231523,2.9231523 0 0 0 0.381245,-0.512337 l 0.45778,0.2643 a 0.3594473,0.3594473 0 0 0 0.604271,0.348875 0.35416131,0.35416131 0 0 0 -0.02467,-0.496439 0.34887532,0.34887532 0 0 0 -0.498375,0.01745 0.07928984,0.07928984 0 0 0 -0.0185,0.03204 l -0.457777,-0.264298 a 2.7328567,2.7328567 0 0 0 0.291348,-0.790075 l 0.761952,0.128623 a 0.52859897,0.52859897 0 0 0 0.105946,0.207658 l 0.05087,0.05989 a 0.55187417,0.55187417 0 0 0 0.803269,-0.75698 l -0.06409,-0.037 a 0.52859897,0.52859897 0 0 0 -0.704043,-0.02805 0.60788881,0.60788881 0 0 0 -0.127199,0.146295 l -0.764589,-0.124036 a 3.0394441,3.0394441 0 0 0 -0.338818,-1.65441 l 0.45142,-0.221567 0.06409,0.037 a 0.35416131,0.35416131 0 1 0 -0.02203,-0.501015 0.33830334,0.33830334 0 0 0 -0.07302,0.348482 l -0.45406,0.226145 A 3.3671754,3.3671754 0 0 0 61.377494,31.710138 3.605045,3.605045 0 0 0 61.004429,31.4154 l 0.407021,-0.704982 a 0.56031491,0.56031491 0 0 0 0.371612,-0.115051 0.52859897,0.52859897 0 0 0 0.08336,-0.757563 l -0.06409,-0.037 a 0.5367039,0.5367039 0 0 0 -0.78741,0.729513 l 0.02289,0.01321 -0.412307,0.714137 a 2.9918701,2.9918701 0 0 0 -1.449571,-0.311989 l -0.01268,-0.538349 a 0.35416131,0.35416131 0 1 0 -0.302515,-0.0892 0.37530527,0.37530527 0 0 0 0.18769,0.108363 l 0.01726,0.54099 a 3.0394441,3.0394441 0 0 0 -1.322301,0.408486 l -0.421903,-0.664744 a 0.52859897,0.52859897 0 0 0 0.0129,-0.688378 l -0.06408,-0.037 a 0.52859897,0.52859897 0 0 0 -0.70669,-0.02347 0.52859897,0.52859897 0 0 0 -0.08336,0.757564 l 0.06409,0.037 a 0.52859897,0.52859897 0 0 0 0.415732,0.13626 l 0.449888,0.711419 a 2.9390102,2.9390102 0 0 0 -0.331171,0.309305 3.0183001,3.0183001 0 0 0 -0.468464,0.663403 l -0.457779,-0.264299 a 0.34887532,0.34887532 0 0 0 -0.09075,-0.381994 0.3594473,0.3594473 0 0 0 -0.502952,0.01481 0.3551956,0.3551956 0 0 0 0.520403,0.483566 0.08986182,0.08986182 0 0 0 0.0185,-0.03205 l 0.45778,0.2643 a 3.0183001,3.0183001 0 0 0 -0.25034,0.856479 l -0.813395,-0.06066 a 0.71360861,0.71360861 0 0 0 -0.07938,-0.137385 l -0.06409,-0.037 a 0.52859897,0.52859897 0 0 0 -0.706693,-0.02347 0.52859897,0.52859897 0 0 0 -0.08336,0.757564 l 0.06409,0.037 a 0.52859897,0.52859897 0 0 0 0.713392,-0.0093 0.56031491,0.56031491 0 0 0 0.159611,-0.213034 l 0.78522,0.0566 a 3.0394441,3.0394441 0 0 0 0.232075,1.183832 l -0.466571,0.237237 -0.05951,-0.03436 a 0.35416131,0.35416131 0 0 0 -0.498375,0.01745 0.3594473,0.3594473 0 0 0 0.02203,0.501018 0.35416131,0.35416131 0 0 0 0.498374,-0.01745 0.34358933,0.34358933 0 0 0 0.07108,-0.355703 l 0.463926,-0.232658 a 3.0605881,3.0605881 0 0 0 0.672405,0.949757 3.4464652,3.4464652 0 0 0 0.30246,0.247879 l -0.400838,0.641412 a 0.52859897,0.52859897 0 0 0 -0.395209,0.113635 0.52859897,0.52859897 0 0 0 -0.08794,0.75492 l 0.06867,0.03965 a 0.53670411,0.53670411 0 0 0 0.787409,-0.729515 v 0 l 0.367376,-0.636313 a 3.0341581,3.0341581 0 0 0 1.480203,0.354081 l 0.11552,0.561097 a 0.40702121,0.40702121 0 0 0 -0.181419,0.102785 0.3594473,0.3594473 0 0 0 0.02203,0.501017 0.35416131,0.35416131 0 0 0 0.498374,-0.01745 0.34887532,0.34887532 0 0 0 -0.01745,-0.498373 0.36473329,0.36473329 0 0 0 -0.206002,-0.118935 l -0.04562,-0.502437 a 2.9707262,2.9707262 0 0 0 1.504947,-0.492252 l 0.462067,0.626896 a 0.52859897,0.52859897 0 0 0 0.02868,0.626932 l 0.06867,0.03965 a 0.53670372,0.53670372 0 0 0 0.787406,-0.729516 z"
     id="path6-3"
     style="stroke-width:0.528599;fill:#ffffff" />
  <path
     d="m 24.650922,55.994385 -0.05087,-0.05989 A 0.56031491,0.56031491 0 0 0 24.098375,55.809653 L 23.63173,55.180114 a 2.6112789,2.6112789 0 0 0 0.214032,-0.212133 2.9231523,2.9231523 0 0 0 0.381245,-0.512337 l 0.45778,0.2643 a 0.3594473,0.3594473 0 0 0 0.604271,0.348875 0.35416131,0.35416131 0 0 0 -0.02467,-0.496439 0.34887532,0.34887532 0 0 0 -0.498375,0.01745 0.07928984,0.07928984 0 0 0 -0.0185,0.03204 l -0.457777,-0.264298 a 2.7328567,2.7328567 0 0 0 0.291348,-0.790075 l 0.761952,0.128623 a 0.52859897,0.52859897 0 0 0 0.105946,0.207658 l 0.05087,0.05989 a 0.55187417,0.55187417 0 0 0 0.803269,-0.75698 l -0.06409,-0.037 a 0.52859897,0.52859897 0 0 0 -0.704043,-0.02805 0.60788881,0.60788881 0 0 0 -0.127199,0.146295 L 24.6432,53.163897 a 3.0394441,3.0394441 0 0 0 -0.338818,-1.65441 l 0.45142,-0.221567 0.06409,0.037 a 0.35416131,0.35416131 0 1 0 -0.02203,-0.501015 0.33830334,0.33830334 0 0 0 -0.07302,0.348482 l -0.45406,0.226145 A 3.3671754,3.3671754 0 0 0 23.698329,50.677388 3.605045,3.605045 0 0 0 23.325264,50.38265 l 0.407021,-0.704982 a 0.56031491,0.56031491 0 0 0 0.371612,-0.115051 0.52859897,0.52859897 0 0 0 0.08336,-0.757563 l -0.06409,-0.037 a 0.5367039,0.5367039 0 0 0 -0.78741,0.729513 l 0.02289,0.01321 -0.412307,0.714137 a 2.9918701,2.9918701 0 0 0 -1.449571,-0.311989 l -0.01268,-0.538349 a 0.35416131,0.35416131 0 1 0 -0.302515,-0.0892 0.37530527,0.37530527 0 0 0 0.18769,0.108363 l 0.01726,0.54099 a 3.0394441,3.0394441 0 0 0 -1.322301,0.408486 L 19.64232,49.678471 a 0.52859897,0.52859897 0 0 0 0.0129,-0.688378 l -0.06408,-0.037 a 0.52859897,0.52859897 0 0 0 -0.70669,-0.02347 0.52859897,0.52859897 0 0 0 -0.08336,0.757564 l 0.06409,0.037 a 0.52859897,0.52859897 0 0 0 0.415732,0.13626 l 0.449888,0.711419 a 2.9390102,2.9390102 0 0 0 -0.331171,0.309305 3.0183001,3.0183001 0 0 0 -0.468464,0.663403 l -0.457779,-0.264299 a 0.34887532,0.34887532 0 0 0 -0.09075,-0.381994 0.3594473,0.3594473 0 0 0 -0.502952,0.01481 0.3551956,0.3551956 0 0 0 0.520403,0.483566 0.08986182,0.08986182 0 0 0 0.0185,-0.03205 l 0.45778,0.2643 a 3.0183001,3.0183001 0 0 0 -0.25034,0.856479 l -0.813395,-0.06066 a 0.71360861,0.71360861 0 0 0 -0.07938,-0.137385 l -0.06409,-0.037 a 0.52859897,0.52859897 0 0 0 -0.706693,-0.02347 0.52859897,0.52859897 0 0 0 -0.08336,0.757564 l 0.06409,0.037 a 0.52859897,0.52859897 0 0 0 0.713392,-0.0093 0.56031491,0.56031491 0 0 0 0.159611,-0.213034 l 0.78522,0.0566 a 3.0394441,3.0394441 0 0 0 0.232075,1.183832 l -0.466571,0.237237 -0.05951,-0.03436 a 0.35416131,0.35416131 0 0 0 -0.498375,0.01745 0.3594473,0.3594473 0 0 0 0.02203,0.501018 0.35416131,0.35416131 0 0 0 0.498374,-0.01745 0.34358933,0.34358933 0 0 0 0.07108,-0.355703 l 0.463926,-0.232658 a 3.0605881,3.0605881 0 0 0 0.672405,0.949757 3.4464652,3.4464652 0 0 0 0.30246,0.247879 l -0.400838,0.641412 a 0.52859897,0.52859897 0 0 0 -0.395209,0.113635 0.52859897,0.52859897 0 0 0 -0.08794,0.75492 l 0.06867,0.03965 a 0.53670411,0.53670411 0 0 0 0.787409,-0.729515 v 0 l 0.367376,-0.636313 a 3.0341581,3.0341581 0 0 0 1.480203,0.354081 l 0.11552,0.561097 a 0.40702121,0.40702121 0 0 0 -0.181419,0.102785 0.3594473,0.3594473 0 0 0 0.02203,0.501017 0.35416131,0.35416131 0 0 0 0.498374,-0.01745 0.34887532,0.34887532 0 0 0 -0.01745,-0.498373 0.36473329,0.36473329 0 0 0 -0.206002,-0.118935 l -0.04562,-0.502437 a 2.9707262,2.9707262 0 0 0 1.504947,-0.492252 l 0.462067,0.626896 a 0.52859897,0.52859897 0 0 0 0.02868,0.626932 l 0.06867,0.03965 a 0.53670372,0.53670372 0 0 0 0.787406,-0.729516 z"
     id="path6-3-6"
     style="stroke-width:0.528599;fill:#ffffff" />
  <path
     d="m 31.695735,66.850887 -0.05087,-0.05989 a 0.56031491,0.56031491 0 0 0 -0.501677,-0.124842 l -0.466645,-0.629539 a 2.6112789,2.6112789 0 0 0 0.214032,-0.212133 2.9231523,2.9231523 0 0 0 0.381245,-0.512337 l 0.45778,0.2643 a 0.3594473,0.3594473 0 0 0 0.604271,0.348875 0.35416131,0.35416131 0 0 0 -0.02467,-0.496439 0.34887532,0.34887532 0 0 0 -0.498375,0.01745 0.07928984,0.07928984 0 0 0 -0.0185,0.03204 l -0.457777,-0.264298 a 2.7328567,2.7328567 0 0 0 0.291348,-0.790075 l 0.761952,0.128623 a 0.52859897,0.52859897 0 0 0 0.105946,0.207658 l 0.05087,0.05989 a 0.55187417,0.55187417 0 0 0 0.803269,-0.75698 l -0.06409,-0.037 a 0.52859897,0.52859897 0 0 0 -0.704043,-0.02805 0.60788881,0.60788881 0 0 0 -0.127199,0.146295 l -0.764589,-0.124036 a 3.0394441,3.0394441 0 0 0 -0.338818,-1.65441 l 0.45142,-0.221567 0.06409,0.037 a 0.35416131,0.35416131 0 1 0 -0.02203,-0.501015 0.33830334,0.33830334 0 0 0 -0.07302,0.348482 l -0.45406,0.226145 A 3.3671754,3.3671754 0 0 0 30.743142,61.53389 3.605045,3.605045 0 0 0 30.370077,61.239152 l 0.407021,-0.704982 a 0.56031491,0.56031491 0 0 0 0.371612,-0.115051 0.52859897,0.52859897 0 0 0 0.08336,-0.757563 l -0.06409,-0.037 a 0.5367039,0.5367039 0 0 0 -0.78741,0.729513 l 0.02289,0.01321 -0.412307,0.714137 a 2.9918701,2.9918701 0 0 0 -1.449571,-0.311989 l -0.01268,-0.538349 a 0.35416131,0.35416131 0 1 0 -0.302515,-0.0892 0.37530527,0.37530527 0 0 0 0.18769,0.108363 l 0.01726,0.54099 a 3.0394441,3.0394441 0 0 0 -1.322301,0.408486 l -0.421903,-0.664744 a 0.52859897,0.52859897 0 0 0 0.0129,-0.688378 l -0.06408,-0.037 a 0.52859897,0.52859897 0 0 0 -0.70669,-0.02347 0.52859897,0.52859897 0 0 0 -0.08336,0.757564 l 0.06409,0.037 a 0.52859897,0.52859897 0 0 0 0.415732,0.13626 l 0.449888,0.711419 a 2.9390102,2.9390102 0 0 0 -0.331171,0.309305 3.0183001,3.0183001 0 0 0 -0.468464,0.663403 l -0.457779,-0.264299 a 0.34887532,0.34887532 0 0 0 -0.09075,-0.381994 0.3594473,0.3594473 0 0 0 -0.502952,0.01481 0.3551956,0.3551956 0 0 0 0.520403,0.483566 0.08986182,0.08986182 0 0 0 0.0185,-0.03205 l 0.45778,0.2643 a 3.0183001,3.0183001 0 0 0 -0.25034,0.856479 l -0.813395,-0.06066 a 0.71360861,0.71360861 0 0 0 -0.07938,-0.137385 l -0.06409,-0.037 a 0.52859897,0.52859897 0 0 0 -0.706693,-0.02347 0.52859897,0.52859897 0 0 0 -0.08336,0.757564 l 0.06409,0.037 a 0.52859897,0.52859897 0 0 0 0.713392,-0.0093 0.56031491,0.56031491 0 0 0 0.159611,-0.213034 l 0.78522,0.0566 a 3.0394441,3.0394441 0 0 0 0.232075,1.183832 l -0.466571,0.237237 -0.05951,-0.03436 a 0.35416131,0.35416131 0 0 0 -0.498375,0.01745 0.3594473,0.3594473 0 0 0 0.02203,0.501018 0.35416131,0.35416131 0 0 0 0.498374,-0.01745 0.34358933,0.34358933 0 0 0 0.07108,-0.355703 l 0.463926,-0.232658 a 3.0605881,3.0605881 0 0 0 0.672405,0.949757 3.4464652,3.4464652 0 0 0 0.30246,0.247879 l -0.400838,0.641412 a 0.52859897,0.52859897 0 0 0 -0.395209,0.113635 0.52859897,0.52859897 0 0 0 -0.08794,0.75492 l 0.06867,0.03965 a 0.53670411,0.53670411 0 0 0 0.787409,-0.729515 v 0 l 0.367376,-0.636313 a 3.0341581,3.0341581 0 0 0 1.480203,0.354081 l 0.11552,0.561097 a 0.40702121,0.40702121 0 0 0 -0.181419,0.102785 0.3594473,0.3594473 0 0 0 0.02203,0.501017 0.35416131,0.35416131 0 0 0 0.498374,-0.01745 0.34887532,0.34887532 0 0 0 -0.01745,-0.498373 0.36473329,0.36473329 0 0 0 -0.206002,-0.118935 l -0.04562,-0.502437 a 2.9707262,2.9707262 0 0 0 1.504947,-0.492252 l 0.462067,0.626896 a 0.52859897,0.52859897 0 0 0 0.02868,0.626932 l 0.06867,0.03965 a 0.53670372,0.53670372 0 0 0 0.787406,-0.729516 z"
     id="path6-3-6-7"
     style="stroke-width:0.528599;fill:#ffffff" />
  <path
     d="m 33.144229,26.316918 -0.05087,-0.05989 a 0.56031491,0.56031491 0 0 0 -0.501677,-0.124842 l -0.466645,-0.629539 a 2.6112789,2.6112789 0 0 0 0.214032,-0.212133 2.9231523,2.9231523 0 0 0 0.381245,-0.512337 l 0.45778,0.2643 a 0.3594473,0.3594473 0 0 0 0.604271,0.348875 0.35416131,0.35416131 0 0 0 -0.02467,-0.496439 0.34887532,0.34887532 0 0 0 -0.498375,0.01745 0.07928984,0.07928984 0 0 0 -0.0185,0.03204 l -0.457777,-0.264298 a 2.7328567,2.7328567 0 0 0 0.291348,-0.790075 l 0.761952,0.128623 a 0.52859897,0.52859897 0 0 0 0.105946,0.207658 l 0.05087,0.05989 a 0.55187417,0.55187417 0 0 0 0.803269,-0.75698 l -0.06409,-0.037 a 0.52859897,0.52859897 0 0 0 -0.704043,-0.02805 0.60788881,0.60788881 0 0 0 -0.127199,0.146295 L 33.136507,23.48643 a 3.0394441,3.0394441 0 0 0 -0.338818,-1.65441 l 0.45142,-0.221567 0.06409,0.037 a 0.35416131,0.35416131 0 1 0 -0.02203,-0.501015 0.33830334,0.33830334 0 0 0 -0.07302,0.348482 l -0.45406,0.226145 a 3.3671754,3.3671754 0 0 0 -0.572453,-0.721144 3.605045,3.605045 0 0 0 -0.373065,-0.294738 l 0.407021,-0.704982 a 0.56031491,0.56031491 0 0 0 0.371612,-0.115051 0.52859897,0.52859897 0 0 0 0.08336,-0.757563 l -0.06409,-0.037 a 0.5367039,0.5367039 0 0 0 -0.78741,0.729513 l 0.02289,0.01321 -0.412307,0.714137 a 2.9918701,2.9918701 0 0 0 -1.449571,-0.311989 l -0.01268,-0.538349 a 0.35416131,0.35416131 0 1 0 -0.302515,-0.0892 0.37530527,0.37530527 0 0 0 0.18769,0.108363 l 0.01726,0.54099 a 3.0394441,3.0394441 0 0 0 -1.322301,0.408486 l -0.421903,-0.664744 a 0.52859897,0.52859897 0 0 0 0.0129,-0.688378 l -0.06408,-0.037 a 0.52859897,0.52859897 0 0 0 -0.70669,-0.02347 0.52859897,0.52859897 0 0 0 -0.08336,0.757564 l 0.06409,0.037 a 0.52859897,0.52859897 0 0 0 0.415732,0.13626 l 0.449888,0.711419 a 2.9390102,2.9390102 0 0 0 -0.331171,0.309305 3.0183001,3.0183001 0 0 0 -0.468464,0.663403 l -0.457779,-0.264299 a 0.34887532,0.34887532 0 0 0 -0.09075,-0.381994 0.3594473,0.3594473 0 0 0 -0.502952,0.01481 0.3551956,0.3551956 0 0 0 0.520403,0.483566 0.08986182,0.08986182 0 0 0 0.0185,-0.03205 l 0.45778,0.2643 a 3.0183001,3.0183001 0 0 0 -0.25034,0.856479 l -0.813395,-0.06066 a 0.71360861,0.71360861 0 0 0 -0.07938,-0.137385 l -0.06409,-0.037 a 0.52859897,0.52859897 0 0 0 -0.706693,-0.02347 0.52859897,0.52859897 0 0 0 -0.08336,0.757564 l 0.06409,0.037 a 0.52859897,0.52859897 0 0 0 0.713392,-0.0093 0.56031491,0.56031491 0 0 0 0.159611,-0.213034 l 0.78522,0.0566 a 3.0394441,3.0394441 0 0 0 0.232075,1.183832 l -0.466571,0.237237 -0.05951,-0.03436 a 0.35416131,0.35416131 0 0 0 -0.498375,0.01745 0.3594473,0.3594473 0 0 0 0.02203,0.501018 0.35416131,0.35416131 0 0 0 0.498374,-0.01745 0.34358933,0.34358933 0 0 0 0.07108,-0.355703 L 27.357758,24.4776 a 3.0605881,3.0605881 0 0 0 0.672405,0.949757 3.4464652,3.4464652 0 0 0 0.30246,0.247879 l -0.400838,0.641412 a 0.52859897,0.52859897 0 0 0 -0.395209,0.113635 0.52859897,0.52859897 0 0 0 -0.08794,0.75492 l 0.06867,0.03965 a 0.53670411,0.53670411 0 0 0 0.787409,-0.729515 v 0 l 0.367376,-0.636313 a 3.0341581,3.0341581 0 0 0 1.480203,0.354081 l 0.11552,0.561097 a 0.40702121,0.40702121 0 0 0 -0.181419,0.102785 0.3594473,0.3594473 0 0 0 0.02203,0.501017 0.35416131,0.35416131 0 0 0 0.498374,-0.01745 0.34887532,0.34887532 0 0 0 -0.01745,-0.498373 0.36473329,0.36473329 0 0 0 -0.206002,-0.118935 l -0.04562,-0.502437 a 2.9707262,2.9707262 0 0 0 1.504947,-0.492252 l 0.462067,0.626896 a 0.52859897,0.52859897 0 0 0 0.02868,0.626932 l 0.06867,0.03965 a 0.53670372,0.53670372 0 0 0 0.787406,-0.729516 z"
     id="path6-3-6-7-5"
     style="stroke-width:0.528599;fill:#ffffff" />
  <path
     d="m 33.776,47.471707 -0.05087,-0.05989 a 0.56031491,0.56031491 0 0 0 -0.501677,-0.124842 l -0.466645,-0.629539 a 2.6112789,2.6112789 0 0 0 0.214032,-0.212133 2.9231523,2.9231523 0 0 0 0.381245,-0.512337 l 0.45778,0.2643 a 0.3594473,0.3594473 0 0 0 0.604271,0.348875 0.35416131,0.35416131 0 0 0 -0.02467,-0.496439 0.34887532,0.34887532 0 0 0 -0.498375,0.01745 0.07928984,0.07928984 0 0 0 -0.0185,0.03204 l -0.457777,-0.264298 a 2.7328567,2.7328567 0 0 0 0.291348,-0.790075 l 0.761952,0.128623 A 0.52859897,0.52859897 0 0 0 34.57406,45.3811 l 0.05087,0.05989 a 0.55187417,0.55187417 0 0 0 0.803269,-0.75698 l -0.06409,-0.037 a 0.52859897,0.52859897 0 0 0 -0.704043,-0.02805 0.60788881,0.60788881 0 0 0 -0.127199,0.146295 l -0.764589,-0.124036 a 3.0394441,3.0394441 0 0 0 -0.338818,-1.65441 l 0.45142,-0.221567 0.06409,0.037 a 0.35416131,0.35416131 0 1 0 -0.02203,-0.501015 0.33830334,0.33830334 0 0 0 -0.07302,0.348482 l -0.45406,0.226145 A 3.3671754,3.3671754 0 0 0 32.823407,42.15471 3.605045,3.605045 0 0 0 32.450342,41.859972 l 0.407021,-0.704982 a 0.56031491,0.56031491 0 0 0 0.371612,-0.115051 0.52859897,0.52859897 0 0 0 0.08336,-0.757563 l -0.06409,-0.037 a 0.5367039,0.5367039 0 0 0 -0.78741,0.729513 l 0.02289,0.01321 -0.412307,0.714137 a 2.9918701,2.9918701 0 0 0 -1.449571,-0.311989 l -0.01268,-0.538349 a 0.35416131,0.35416131 0 1 0 -0.302515,-0.0892 0.37530527,0.37530527 0 0 0 0.18769,0.108363 l 0.01726,0.54099 a 3.0394441,3.0394441 0 0 0 -1.322301,0.408486 l -0.421903,-0.664744 a 0.52859897,0.52859897 0 0 0 0.0129,-0.688378 l -0.06408,-0.037 a 0.52859897,0.52859897 0 0 0 -0.70669,-0.02347 0.52859897,0.52859897 0 0 0 -0.08336,0.757564 l 0.06409,0.037 a 0.52859897,0.52859897 0 0 0 0.415732,0.13626 l 0.449888,0.711419 a 2.9390102,2.9390102 0 0 0 -0.331171,0.309305 3.0183001,3.0183001 0 0 0 -0.468464,0.663403 l -0.457779,-0.264299 a 0.34887532,0.34887532 0 0 0 -0.09075,-0.381994 0.3594473,0.3594473 0 0 0 -0.502952,0.01481 0.3551956,0.3551956 0 0 0 0.520403,0.483566 0.08986182,0.08986182 0 0 0 0.0185,-0.03205 l 0.45778,0.2643 a 3.0183001,3.0183001 0 0 0 -0.25034,0.856479 l -0.813395,-0.06066 a 0.71360861,0.71360861 0 0 0 -0.07938,-0.137385 l -0.06409,-0.037 a 0.52859897,0.52859897 0 0 0 -0.706693,-0.02347 0.52859897,0.52859897 0 0 0 -0.08336,0.757564 l 0.06409,0.037 a 0.52859897,0.52859897 0 0 0 0.713392,-0.0093 0.56031491,0.56031491 0 0 0 0.159611,-0.213034 l 0.78522,0.0566 a 3.0394441,3.0394441 0 0 0 0.232075,1.183832 l -0.466571,0.237237 -0.05951,-0.03436 a 0.35416131,0.35416131 0 0 0 -0.498375,0.01745 0.3594473,0.3594473 0 0 0 0.02203,0.501018 0.35416131,0.35416131 0 0 0 0.498374,-0.01745 0.34358933,0.34358933 0 0 0 0.07108,-0.355703 l 0.463926,-0.232658 a 3.0605881,3.0605881 0 0 0 0.672405,0.949757 3.4464652,3.4464652 0 0 0 0.30246,0.247879 l -0.400838,0.641412 a 0.52859897,0.52859897 0 0 0 -0.395209,0.113635 0.52859897,0.52859897 0 0 0 -0.08794,0.75492 l 0.06867,0.03965 a 0.53670411,0.53670411 0 0 0 0.787409,-0.729515 v 0 l 0.367376,-0.636313 a 3.0341581,3.0341581 0 0 0 1.480203,0.354081 l 0.11552,0.561097 a 0.40702121,0.40702121 0 0 0 -0.181419,0.102785 0.3594473,0.3594473 0 0 0 0.02203,0.501017 0.35416131,0.35416131 0 0 0 0.498374,-0.01745 0.34887532,0.34887532 0 0 0 -0.01745,-0.498373 0.36473329,0.36473329 0 0 0 -0.206002,-0.118935 l -0.04562,-0.502437 a 2.9707262,2.9707262 0 0 0 1.504947,-0.492252 l 0.462067,0.626896 a 0.52859897,0.52859897 0 0 0 0.02868,0.626932 l 0.06867,0.03965 a 0.53670372,0.53670372 0 0 0 0.787406,-0.729516 z"
     id="path6-3-6-7-5-3"
     style="stroke-width:0.528599;fill:#ffffff" />
  <path
     d="m 69.475345,27.104626 -0.05087,-0.05989 a 0.56031491,0.56031491 0 0 0 -0.501677,-0.124842 l -0.466645,-0.629539 a 2.6112789,2.6112789 0 0 0 0.214032,-0.212133 2.9231523,2.9231523 0 0 0 0.381245,-0.512337 l 0.45778,0.2643 a 0.3594473,0.3594473 0 0 0 0.604271,0.348875 0.35416131,0.35416131 0 0 0 -0.02467,-0.496439 0.34887532,0.34887532 0 0 0 -0.498375,0.01745 0.07928984,0.07928984 0 0 0 -0.0185,0.03204 l -0.457777,-0.264298 a 2.7328567,2.7328567 0 0 0 0.291348,-0.790075 l 0.761952,0.128623 a 0.52859897,0.52859897 0 0 0 0.105946,0.207658 l 0.05087,0.05989 a 0.55187417,0.55187417 0 0 0 0.803269,-0.75698 l -0.06409,-0.037 a 0.52859897,0.52859897 0 0 0 -0.704043,-0.02805 0.60788881,0.60788881 0 0 0 -0.127199,0.146295 l -0.764589,-0.124036 a 3.0394441,3.0394441 0 0 0 -0.338818,-1.65441 l 0.45142,-0.221567 0.06409,0.037 a 0.35416131,0.35416131 0 1 0 -0.02203,-0.501015 0.33830334,0.33830334 0 0 0 -0.07302,0.348482 l -0.45406,0.226145 a 3.3671754,3.3671754 0 0 0 -0.572453,-0.721144 3.605045,3.605045 0 0 0 -0.373065,-0.294738 l 0.407021,-0.704982 a 0.56031491,0.56031491 0 0 0 0.371612,-0.115051 0.52859897,0.52859897 0 0 0 0.08336,-0.757563 l -0.06409,-0.037 a 0.5367039,0.5367039 0 0 0 -0.78741,0.729513 l 0.02289,0.01321 -0.412307,0.714137 a 2.9918701,2.9918701 0 0 0 -1.449571,-0.311989 l -0.01268,-0.538349 a 0.35416131,0.35416131 0 1 0 -0.302515,-0.0892 0.37530527,0.37530527 0 0 0 0.18769,0.108363 l 0.01726,0.54099 a 3.0394441,3.0394441 0 0 0 -1.322301,0.408486 l -0.421903,-0.664744 a 0.52859897,0.52859897 0 0 0 0.0129,-0.688378 l -0.06408,-0.037 a 0.52859897,0.52859897 0 0 0 -0.70669,-0.02347 0.52859897,0.52859897 0 0 0 -0.08336,0.757564 l 0.06409,0.037 a 0.52859897,0.52859897 0 0 0 0.415732,0.13626 l 0.449888,0.711419 a 2.9390102,2.9390102 0 0 0 -0.331171,0.309305 3.0183001,3.0183001 0 0 0 -0.468464,0.663403 l -0.457779,-0.264299 a 0.34887532,0.34887532 0 0 0 -0.09075,-0.381994 0.3594473,0.3594473 0 0 0 -0.502952,0.01481 0.3551956,0.3551956 0 0 0 0.520403,0.483566 0.08986182,0.08986182 0 0 0 0.0185,-0.03205 l 0.45778,0.2643 a 3.0183001,3.0183001 0 0 0 -0.25034,0.856479 l -0.813395,-0.06066 a 0.71360861,0.71360861 0 0 0 -0.07938,-0.137385 l -0.06409,-0.037 a 0.52859897,0.52859897 0 0 0 -0.706693,-0.02347 0.52859897,0.52859897 0 0 0 -0.08336,0.757564 l 0.06409,0.037 a 0.52859897,0.52859897 0 0 0 0.713392,-0.0093 0.56031491,0.56031491 0 0 0 0.159611,-0.213034 l 0.78522,0.0566 a 3.0394441,3.0394441 0 0 0 0.232075,1.183832 l -0.466571,0.237237 -0.05951,-0.03436 a 0.35416131,0.35416131 0 0 0 -0.498375,0.01745 0.3594473,0.3594473 0 0 0 0.02203,0.501018 0.35416131,0.35416131 0 0 0 0.498374,-0.01745 0.34358933,0.34358933 0 0 0 0.07108,-0.355703 l 0.463926,-0.232658 a 3.0605881,3.0605881 0 0 0 0.672405,0.949757 3.4464652,3.4464652 0 0 0 0.30246,0.247879 l -0.400838,0.641412 a 0.52859897,0.52859897 0 0 0 -0.395209,0.113635 0.52859897,0.52859897 0 0 0 -0.08794,0.75492 l 0.06867,0.03965 a 0.53670411,0.53670411 0 0 0 0.787409,-0.729515 v 0 l 0.367376,-0.636313 a 3.0341581,3.0341581 0 0 0 1.480203,0.354081 l 0.11552,0.561097 a 0.40702121,0.40702121 0 0 0 -0.181419,0.102785 0.3594473,0.3594473 0 0 0 0.02203,0.501017 0.35416131,0.35416131 0 0 0 0.498374,-0.01745 0.34887532,0.34887532 0 0 0 -0.01745,-0.498373 0.36473329,0.36473329 0 0 0 -0.206002,-0.118935 l -0.04562,-0.502437 a 2.9707262,2.9707262 0 0 0 1.504947,-0.492252 l 0.462067,0.626896 a 0.52859897,0.52859897 0 0 0 0.02868,0.626932 l 0.06867,0.03965 a 0.53670372,0.53670372 0 0 0 0.787406,-0.729516 z"
     id="path6-3-6-7-5-3-5"
     style="stroke-width:0.528599;fill:#ffffff" />
  <path
     d="m 38.534348,9.7475434 -0.05087,-0.05989 a 0.56031491,0.56031491 0 0 0 -0.501677,-0.124842 l -0.466645,-0.629539 a 2.6112789,2.6112789 0 0 0 0.214032,-0.212133 2.9231523,2.9231523 0 0 0 0.381245,-0.512337 l 0.45778,0.2643 a 0.3594473,0.3594473 0 0 0 0.604271,0.348875 0.35416131,0.35416131 0 0 0 -0.02467,-0.496439 0.34887532,0.34887532 0 0 0 -0.498375,0.01745 0.07928984,0.07928984 0 0 0 -0.0185,0.03204 l -0.457777,-0.264298 a 2.7328567,2.7328567 0 0 0 0.291348,-0.790075 l 0.761952,0.128623 a 0.52859897,0.52859897 0 0 0 0.105946,0.207658 l 0.05087,0.05989 a 0.55187417,0.55187417 0 0 0 0.803269,-0.75698 l -0.06409,-0.037 a 0.52859897,0.52859897 0 0 0 -0.704043,-0.02805 0.60788881,0.60788881 0 0 0 -0.127199,0.146295 l -0.764589,-0.124036 a 3.0394441,3.0394441 0 0 0 -0.338818,-1.65441 l 0.45142,-0.221567 0.06409,0.037 a 0.35416131,0.35416131 0 1 0 -0.02203,-0.5010153 0.33830334,0.33830334 0 0 0 -0.07302,0.348482 l -0.45406,0.2261453 A 3.3671754,3.3671754 0 0 0 37.581755,4.4305461 3.605045,3.605045 0 0 0 37.20869,4.1358081 l 0.407021,-0.704982 a 0.56031491,0.56031491 0 0 0 0.371612,-0.115051 0.52859897,0.52859897 0 0 0 0.08336,-0.757563 l -0.06409,-0.037 a 0.5367039,0.5367039 0 0 0 -0.78741,0.729513 l 0.02289,0.01321 -0.412307,0.714137 a 2.9918701,2.9918701 0 0 0 -1.449571,-0.311989 l -0.01268,-0.538349 a 0.35416131,0.35416131 0 1 0 -0.302515,-0.0892 0.37530527,0.37530527 0 0 0 0.18769,0.108363 l 0.01726,0.54099 a 3.0394441,3.0394441 0 0 0 -1.322301,0.408486 l -0.421903,-0.664744 a 0.52859897,0.52859897 0 0 0 0.0129,-0.688378 l -0.06408,-0.037 a 0.52859897,0.52859897 0 0 0 -0.70669,-0.02347 0.52859897,0.52859897 0 0 0 -0.08336,0.757564 l 0.06409,0.037 a 0.52859897,0.52859897 0 0 0 0.415732,0.13626 l 0.449888,0.711419 a 2.9390102,2.9390102 0 0 0 -0.331171,0.309305 3.0183001,3.0183001 0 0 0 -0.468464,0.6634033 l -0.457779,-0.264299 a 0.34887532,0.34887532 0 0 0 -0.09075,-0.3819943 0.3594473,0.3594473 0 0 0 -0.502952,0.01481 0.3551956,0.3551956 0 0 0 0.520403,0.4835663 0.08986182,0.08986182 0 0 0 0.0185,-0.03205 l 0.45778,0.2643 a 3.0183001,3.0183001 0 0 0 -0.25034,0.856479 l -0.813395,-0.06066 a 0.71360861,0.71360861 0 0 0 -0.07938,-0.137385 l -0.06409,-0.037 a 0.52859897,0.52859897 0 0 0 -0.706693,-0.02347 0.52859897,0.52859897 0 0 0 -0.08336,0.757564 l 0.06409,0.037 a 0.52859897,0.52859897 0 0 0 0.713392,-0.0093 0.56031491,0.56031491 0 0 0 0.159611,-0.213034 l 0.78522,0.0566 a 3.0394441,3.0394441 0 0 0 0.232075,1.183832 l -0.466571,0.237237 -0.05951,-0.03436 a 0.35416131,0.35416131 0 0 0 -0.498375,0.01745 0.3594473,0.3594473 0 0 0 0.02203,0.501018 0.35416131,0.35416131 0 0 0 0.498374,-0.01745 0.34358933,0.34358933 0 0 0 0.07108,-0.355703 l 0.463926,-0.232658 a 3.0605881,3.0605881 0 0 0 0.672405,0.949757 3.4464652,3.4464652 0 0 0 0.30246,0.247879 l -0.400838,0.641412 a 0.52859897,0.52859897 0 0 0 -0.395209,0.113635 0.52859897,0.52859897 0 0 0 -0.08794,0.7549196 l 0.06867,0.03965 a 0.53670411,0.53670411 0 0 0 0.787409,-0.7295146 v 0 l 0.367376,-0.636313 a 3.0341581,3.0341581 0 0 0 1.480203,0.354081 l 0.11552,0.5610966 a 0.40702121,0.40702121 0 0 0 -0.181419,0.102785 0.3594473,0.3594473 0 0 0 0.02203,0.501017 0.35416131,0.35416131 0 0 0 0.498374,-0.01745 0.34887532,0.34887532 0 0 0 -0.01745,-0.498373 0.36473329,0.36473329 0 0 0 -0.206002,-0.118935 l -0.04562,-0.5024366 a 2.9707262,2.9707262 0 0 0 1.504947,-0.492252 l 0.462067,0.626896 a 0.52859897,0.52859897 0 0 0 0.02868,0.6269316 l 0.06867,0.03965 a 0.53670372,0.53670372 0 0 0 0.787406,-0.7295156 z"
     id="path6-3-6-7-5-3-5-6"
     style="stroke-width:0.528599;fill:#ffffff" />
  <path
     d="m 45.430285,34.975697 -0.05087,-0.05989 a 0.56031491,0.56031491 0 0 0 -0.501677,-0.124842 l -0.466645,-0.629539 a 2.6112789,2.6112789 0 0 0 0.214032,-0.212133 2.9231523,2.9231523 0 0 0 0.381245,-0.512337 l 0.45778,0.2643 a 0.3594473,0.3594473 0 0 0 0.604271,0.348875 0.35416131,0.35416131 0 0 0 -0.02467,-0.496439 0.34887532,0.34887532 0 0 0 -0.498375,0.01745 0.07928984,0.07928984 0 0 0 -0.0185,0.03204 l -0.457777,-0.264298 a 2.7328567,2.7328567 0 0 0 0.291348,-0.790075 l 0.761952,0.128623 a 0.52859897,0.52859897 0 0 0 0.105946,0.207658 l 0.05087,0.05989 A 0.55187417,0.55187417 0 0 0 47.082484,32.188 l -0.06409,-0.037 a 0.52859897,0.52859897 0 0 0 -0.704043,-0.02805 0.60788881,0.60788881 0 0 0 -0.127199,0.146295 l -0.764589,-0.124036 a 3.0394441,3.0394441 0 0 0 -0.338818,-1.65441 l 0.45142,-0.221567 0.06409,0.037 a 0.35416131,0.35416131 0 1 0 -0.02203,-0.501015 0.33830334,0.33830334 0 0 0 -0.07302,0.348482 l -0.45406,0.226145 A 3.3671754,3.3671754 0 0 0 44.477692,29.6587 3.605045,3.605045 0 0 0 44.104627,29.363962 l 0.407021,-0.704982 a 0.56031491,0.56031491 0 0 0 0.371612,-0.115051 0.52859897,0.52859897 0 0 0 0.08336,-0.757563 l -0.06409,-0.037 a 0.5367039,0.5367039 0 0 0 -0.78741,0.729513 l 0.02289,0.01321 -0.412307,0.714137 a 2.9918701,2.9918701 0 0 0 -1.449571,-0.311989 l -0.01268,-0.538349 a 0.35416131,0.35416131 0 1 0 -0.302515,-0.0892 0.37530527,0.37530527 0 0 0 0.18769,0.108363 l 0.01726,0.54099 a 3.0394441,3.0394441 0 0 0 -1.322301,0.408486 l -0.421903,-0.664744 a 0.52859897,0.52859897 0 0 0 0.0129,-0.688378 l -0.06408,-0.037 a 0.52859897,0.52859897 0 0 0 -0.70669,-0.02347 0.52859897,0.52859897 0 0 0 -0.08336,0.757564 l 0.06409,0.037 a 0.52859897,0.52859897 0 0 0 0.415732,0.13626 l 0.449888,0.711419 a 2.9390102,2.9390102 0 0 0 -0.331171,0.309305 3.0183001,3.0183001 0 0 0 -0.468464,0.663403 l -0.457779,-0.264299 a 0.34887532,0.34887532 0 0 0 -0.09075,-0.381994 0.3594473,0.3594473 0 0 0 -0.502952,0.01481 0.3551956,0.3551956 0 0 0 0.520403,0.483566 0.08986182,0.08986182 0 0 0 0.0185,-0.03205 l 0.45778,0.2643 a 3.0183001,3.0183001 0 0 0 -0.25034,0.856479 l -0.813395,-0.06066 a 0.71360861,0.71360861 0 0 0 -0.07938,-0.137385 l -0.06409,-0.037 a 0.52859897,0.52859897 0 0 0 -0.706693,-0.02347 0.52859897,0.52859897 0 0 0 -0.08336,0.757564 l 0.06409,0.037 a 0.52859897,0.52859897 0 0 0 0.713392,-0.0093 0.56031491,0.56031491 0 0 0 0.159611,-0.213034 l 0.78522,0.0566 a 3.0394441,3.0394441 0 0 0 0.232075,1.183832 l -0.466571,0.237237 -0.05951,-0.03436 a 0.35416131,0.35416131 0 0 0 -0.498375,0.01745 0.3594473,0.3594473 0 0 0 0.02203,0.501018 0.35416131,0.35416131 0 0 0 0.498374,-0.01745 0.34358933,0.34358933 0 0 0 0.07108,-0.355703 l 0.463926,-0.232658 a 3.0605881,3.0605881 0 0 0 0.672405,0.949757 3.4464652,3.4464652 0 0 0 0.30246,0.247879 l -0.400838,0.641412 a 0.52859897,0.52859897 0 0 0 -0.395209,0.113635 0.52859897,0.52859897 0 0 0 -0.08794,0.75492 l 0.06867,0.03965 a 0.53670411,0.53670411 0 0 0 0.787409,-0.729515 v 0 l 0.367376,-0.636313 a 3.0341581,3.0341581 0 0 0 1.480203,0.354081 l 0.11552,0.561097 a 0.40702121,0.40702121 0 0 0 -0.181419,0.102785 0.3594473,0.3594473 0 0 0 0.02203,0.501017 0.35416131,0.35416131 0 0 0 0.498374,-0.01745 0.34887532,0.34887532 0 0 0 -0.01745,-0.498373 0.36473329,0.36473329 0 0 0 -0.206002,-0.118935 l -0.04562,-0.502437 a 2.9707262,2.9707262 0 0 0 1.504947,-0.492252 l 0.462067,0.626896 a 0.52859897,0.52859897 0 0 0 0.02868,0.626932 l 0.06867,0.03965 a 0.53670372,0.53670372 0 0 0 0.787406,-0.729516 z"
     id="path6-3-6-7-5-3-5-2"
     style="stroke-width:0.528599;fill:#ffffff" />
  <path
     d="m 21.052387,17.419224 -0.103214,-0.121516 a 1.1368694,1.1368694 0 0 0 -1.017894,-0.253302 l -0.946815,-1.277324 a 5.2982402,5.2982402 0 0 0 0.434267,-0.430414 5.931026,5.931026 0 0 0 0.77354,-1.039523 l 0.928828,0.53626 a 0.72931242,0.72931242 0 0 0 1.226055,0.707861 0.71858724,0.71858724 0 0 0 -0.05006,-1.007266 0.70786206,0.70786206 0 0 0 -1.011194,0.03541 0.16087773,0.16087773 0 0 0 -0.03754,0.06501 l -0.928822,-0.536256 a 5.5449195,5.5449195 0 0 0 0.59114,-1.603049 l 1.545988,0.260974 a 1.0725183,1.0725183 0 0 0 0.214962,0.421335 l 0.103215,0.121516 a 1.1197432,1.1197432 0 0 0 1.629819,-1.5359 l -0.130038,-0.07507 a 1.0725183,1.0725183 0 0 0 -1.428491,-0.05691 1.233396,1.233396 0 0 0 -0.258085,0.29683 L 21.036719,11.676212 A 6.1669801,6.1669801 0 0 0 20.349263,8.3194424 l 0.915924,-0.4495557 0.130037,0.075072 a 0.71858724,0.71858724 0 1 0 -0.0447,-1.0165508 0.68641169,0.68641169 0 0 0 -0.148156,0.707064 l -0.92128,0.4588443 A 6.8319413,6.8319413 0 0 0 19.119592,6.6311278 7.3145746,7.3145746 0 0 0 18.36265,6.0331094 L 19.188488,4.602713 A 1.1368694,1.1368694 0 0 0 19.942483,4.3692765 1.0725183,1.0725183 0 0 0 20.111619,2.8321941 L 19.981581,2.7571221 A 1.088963,1.088963 0 0 0 18.38394,4.2372915 l 0.04644,0.026803 -0.836564,1.4489718 A 6.0704532,6.0704532 0 0 0 14.652665,5.0800454 l -0.02573,-1.0923009 a 0.71858724,0.71858724 0 1 0 -0.613798,-0.1809853 0.76148797,0.76148797 0 0 0 0.38082,0.2198667 l 0.03502,1.0976595 A 6.1669801,6.1669801 0 0 0 11.746054,5.9530965 L 10.89002,4.6043423 a 1.0725183,1.0725183 0 0 0 0.02617,-1.3967072 l -0.130017,-0.075072 a 1.0725183,1.0725183 0 0 0 -1.4338625,-0.04762 1.0725183,1.0725183 0 0 0 -0.169136,1.5370844 l 0.1300375,0.075072 a 1.0725183,1.0725183 0 0 0 0.843513,0.2764693 L 11.06954,6.4170257 A 5.9632014,5.9632014 0 0 0 10.397604,7.0446 6.1240793,6.1240793 0 0 0 9.4470984,8.3906333 L 8.5182727,7.8543752 A 0.70786206,0.70786206 0 0 0 8.3341425,7.0793159 0.72931242,0.72931242 0 0 0 7.3136615,7.1093651 0.7206858,0.7206858 0 0 0 8.3695502,8.0905123 0.1823281,0.1823281 0 0 0 8.4070864,8.0254834 L 9.3359142,8.5617435 A 6.1240793,6.1240793 0 0 0 8.8279786,10.299525 L 7.1776141,10.176447 A 1.4478997,1.4478997 0 0 0 7.0165534,9.8976949 L 6.8865159,9.8226225 a 1.0725183,1.0725183 0 0 0 -1.433868,-0.04762 1.0725183,1.0725183 0 0 0 -0.169136,1.5370845 l 0.1300375,0.07507 a 1.0725183,1.0725183 0 0 0 1.4474602,-0.01887 1.1368694,1.1368694 0 0 0 0.323848,-0.432242 l 1.5931979,0.114841 a 6.1669801,6.1669801 0 0 0 0.4708762,2.401976 l -0.9466646,0.48135 -0.1207447,-0.06972 a 0.71858724,0.71858724 0 0 0 -1.0111944,0.03541 0.72931242,0.72931242 0 0 0 0.044698,1.016557 0.71858724,0.71858724 0 0 0 1.0111923,-0.03541 0.69713687,0.69713687 0 0 0 0.1442201,-0.721715 l 0.941298,-0.472059 a 6.2098809,6.2098809 0 0 0 1.3642986,1.927041 6.9928189,6.9928189 0 0 0 0.613687,0.502942 l -0.813294,1.301414 a 1.0725183,1.0725183 0 0 0 -0.801873,0.230563 1.0725183,1.0725183 0 0 0 -0.1784287,1.53172 l 0.1393302,0.08045 a 1.0889635,1.0889635 0 0 0 1.5976405,-1.480173 v 0 l 0.745399,-1.291068 a 6.1562549,6.1562549 0 0 0 3.003307,0.718424 l 0.234387,1.138456 a 0.82583907,0.82583907 0 0 0 -0.368095,0.208549 0.72931242,0.72931242 0 0 0 0.0447,1.016555 0.71858724,0.71858724 0 0 0 1.011192,-0.03541 0.70786206,0.70786206 0 0 0 -0.03541,-1.01119 0.74003761,0.74003761 0 0 0 -0.417974,-0.241317 l -0.09256,-1.019436 a 6.0275526,6.0275526 0 0 0 3.053511,-0.998771 l 0.937525,1.271961 a 1.0725183,1.0725183 0 0 0 0.05819,1.272034 l 0.13933,0.08045 A 1.0889627,1.0889627 0 0 0 21.144235,17.4103 Z"
     id="path6-3-9"
     style="stroke-width:1.07252;fill:#ffffff" />
  <path
     d="m 63.494295,66.327611 -0.189312,-0.22288 a 2.0852067,2.0852067 0 0 0 -1.866986,-0.464598 l -1.736616,-2.342824 a 9.7178497,9.7178497 0 0 0 0.796518,-0.78945 10.878484,10.878484 0 0 0 1.4188,-1.906658 l 1.703625,0.98359 a 1.3376797,1.3376797 0 0 0 2.248788,1.298334 1.318008,1.318008 0 0 0 -0.09182,-1.847492 1.2983362,1.2983362 0 0 0 -1.854697,0.06495 0.29507639,0.29507639 0 0 0 -0.06885,0.119239 L 62.150131,60.23624 a 10.1703,10.1703 0 0 0 1.084249,-2.940257 l 2.835598,0.478669 a 1.9671761,1.9671761 0 0 0 0.394276,0.772799 l 0.189313,0.22288 a 2.0537944,2.0537944 0 0 0 2.989358,-2.817095 l -0.238511,-0.137691 a 1.9671761,1.9671761 0 0 0 -2.620089,-0.104382 2.2622525,2.2622525 0 0 0 -0.473371,0.544435 L 63.46556,55.793979 a 11.311262,11.311262 0 0 0 -1.260908,-6.156872 l 1.679956,-0.824558 0.238509,0.137691 a 1.318008,1.318008 0 1 0 -0.08199,-1.864523 1.2589927,1.2589927 0 0 0 -0.271742,1.296872 l -1.68978,0.841596 A 12.530911,12.530911 0 0 0 59.949229,46.540456 13.416141,13.416141 0 0 0 58.560872,45.44359 l 1.514723,-2.623583 a 2.0852067,2.0852067 0 0 0 1.382952,-0.428162 1.9671761,1.9671761 0 0 0 0.310223,-2.819263 l -0.238511,-0.13769 a 1.9973384,1.9973384 0 0 0 -2.930338,2.714875 l 0.08518,0.04915 -1.534397,2.657653 a 11.134216,11.134216 0 0 0 -5.394558,-1.161065 l -0.04719,-2.003461 a 1.318008,1.318008 0 1 0 -1.125807,-0.331957 1.396695,1.396695 0 0 0 0.698487,0.403273 l 0.06423,2.013288 a 11.311262,11.311262 0 0 0 -4.920925,1.520177 l -1.570108,-2.473831 a 1.9671761,1.9671761 0 0 0 0.048,-2.561792 L 44.66436,40.123511 a 1.9671761,1.9671761 0 0 0 -2.62994,-0.08734 1.9671761,1.9671761 0 0 0 -0.310223,2.819267 l 0.238509,0.13769 a 1.9671761,1.9671761 0 0 0 1.547143,0.507092 l 1.674253,2.647539 a 10.937499,10.937499 0 0 0 -1.232441,1.151075 11.232575,11.232575 0 0 0 -1.743384,2.468847 l -1.703621,-0.983586 a 1.2983362,1.2983362 0 0 0 -0.337725,-1.421586 1.3376797,1.3376797 0 0 0 -1.871731,0.05512 1.3218571,1.3218571 0 0 0 1.936676,1.799586 0.33441992,0.33441992 0 0 0 0.06885,-0.119276 l 1.703625,0.983591 a 11.232575,11.232575 0 0 0 -0.931639,3.187378 L 38.045671,53.043159 A 2.6556878,2.6556878 0 0 0 37.75026,52.531882 l -0.238511,-0.137691 a 1.9671761,1.9671761 0 0 0 -2.629951,-0.08734 1.9671761,1.9671761 0 0 0 -0.310223,2.819268 l 0.238511,0.137691 a 1.9671761,1.9671761 0 0 0 2.654881,-0.03461 2.0852067,2.0852067 0 0 0 0.593991,-0.792803 l 2.922189,0.210637 a 11.311262,11.311262 0 0 0 0.863664,4.405622 l -1.73634,0.882876 -0.221465,-0.127878 a 1.318008,1.318008 0 0 0 -1.854699,0.06495 1.3376797,1.3376797 0 0 0 0.08199,1.864534 1.318008,1.318008 0 0 0 1.854695,-0.06495 1.2786644,1.2786644 0 0 0 0.264523,-1.323744 l 1.726497,-0.865835 a 11.38995,11.38995 0 0 0 2.502348,3.534512 12.825988,12.825988 0 0 0 1.125604,0.922479 l -1.491716,2.387009 A 1.9671761,1.9671761 0 0 0 42.62548,66.7495 1.9671761,1.9671761 0 0 0 42.298214,69.558928 l 0.255554,0.147558 a 1.9973393,1.9973393 0 0 0 2.930325,-2.714887 v 0 l 1.367185,-2.368033 a 11.291591,11.291591 0 0 0 5.508563,1.317709 l 0.429904,2.088116 a 1.5147256,1.5147256 0 0 0 -0.675147,0.382514 1.3376797,1.3376797 0 0 0 0.08199,1.86453 1.318008,1.318008 0 0 0 1.854694,-0.06495 1.2983362,1.2983362 0 0 0 -0.06495,-1.85469 1.3573515,1.3573515 0 0 0 -0.766634,-0.442615 l -0.16977,-1.869814 a 11.055529,11.055529 0 0 0 5.600645,-1.831912 l 1.719576,2.332987 a 1.9671761,1.9671761 0 0 0 0.10673,2.333121 l 0.255554,0.147559 a 1.9973379,1.9973379 0 0 0 2.930329,-2.714875 z"
     id="path6-3-9-1"
     style="stroke-width:1.96718;fill:#ffffff" />
  <path
     d="m 21.278472,43.99973 -0.121026,-0.142486 a 1.3330555,1.3330555 0 0 0 -1.193549,-0.297013 l -1.110204,-1.497748 a 6.2125415,6.2125415 0 0 0 0.509208,-0.504689 6.9545255,6.9545255 0 0 0 0.907027,-1.218911 l 1.089113,0.628801 a 0.85516765,0.85516765 0 0 0 1.437632,0.830014 0.84259169,0.84259169 0 0 0 -0.0587,-1.181086 0.83001567,0.83001567 0 0 0 -1.185692,0.04152 0.18863991,0.18863991 0 0 0 -0.04402,0.07623 l -1.089106,-0.628796 a 6.5017893,6.5017893 0 0 0 0.693151,-1.879682 l 1.812775,0.306009 a 1.2575995,1.2575995 0 0 0 0.252057,0.494044 l 0.121027,0.142486 a 1.312974,1.312974 0 0 0 1.911072,-1.800946 l -0.152479,-0.08802 a 1.2575995,1.2575995 0 0 0 -1.675001,-0.06673 1.4462395,1.4462395 0 0 0 -0.302622,0.348053 l -1.819033,-0.295115 a 7.2311969,7.2311969 0 0 0 -0.806088,-3.936037 l 1.073982,-0.527134 0.152477,0.08802 a 0.84259169,0.84259169 0 1 0 -0.05242,-1.191974 0.8048637,0.8048637 0 0 0 -0.173722,0.82908 l -1.080263,0.538025 a 8.0109085,8.0109085 0 0 0 -1.361932,-1.715686 8.5768288,8.5768288 0 0 0 -0.887565,-0.701217 l 0.96835,-1.677235 a 1.3330555,1.3330555 0 0 0 0.88411,-0.273721 1.2575995,1.2575995 0 0 0 0.198323,-1.802332 l -0.152478,-0.08802 a 1.276882,1.276882 0 0 0 -1.873341,1.735598 l 0.05446,0.03142 -0.980928,1.699016 a 7.1180129,7.1180129 0 0 0 -3.448696,-0.74226 l -0.03017,-1.280796 a 0.84259169,0.84259169 0 1 0 -0.719719,-0.212217 0.89289565,0.89289565 0 0 0 0.446537,0.257809 l 0.04106,1.287078 a 7.2311969,7.2311969 0 0 0 -3.145907,0.971837 l -1.0037568,-1.5815 a 1.2575995,1.2575995 0 0 0 0.03069,-1.637732 l -0.152454,-0.08803 a 1.2575995,1.2575995 0 0 0 -1.681299,-0.05584 1.2575995,1.2575995 0 0 0 -0.198323,1.802334 l 0.152477,0.08802 a 1.2575995,1.2575995 0 0 0 0.989076,0.32418 l 1.070336,1.69255 a 6.9922533,6.9922533 0 0 0 -0.78789,0.735873 7.180893,7.180893 0 0 0 -1.114531,1.578314 l -1.089111,-0.628799 a 0.83001567,0.83001567 0 0 0 -0.215904,-0.908808 0.85516765,0.85516765 0 0 0 -1.1965827,0.03524 0.84505239,0.84505239 0 0 0 1.2381007,1.15046 0.21379191,0.21379191 0 0 0 0.04402,-0.07625 l 1.089113,0.628802 a 7.180893,7.180893 0 0 0 -0.595595,2.037675 L 5.0093757,35.507089 A 1.6977594,1.6977594 0 0 0 4.8205219,35.180234 l -0.1524782,-0.08803 a 1.2575995,1.2575995 0 0 0 -1.681306,-0.05584 1.2575995,1.2575995 0 0 0 -0.1983231,1.802335 l 0.1524782,0.08803 A 1.2575995,1.2575995 0 0 0 4.6381364,36.904599 1.3330555,1.3330555 0 0 0 5.01787,36.397766 l 1.8681312,0.134659 a 7.2311969,7.2311969 0 0 0 0.552134,2.816478 l -1.110028,0.564415 -0.141581,-0.08175 a 0.84259169,0.84259169 0 0 0 -1.185694,0.04152 0.85516765,0.85516765 0 0 0 0.052415,1.191981 0.84259169,0.84259169 0 0 0 1.185691,-0.04152 0.81743965,0.81743965 0 0 0 0.169108,-0.846259 l 1.103735,-0.553521 a 7.2815015,7.2815015 0 0 0 1.59973,2.259585 8.1995488,8.1995488 0 0 0 0.719589,0.589733 l -0.953641,1.525995 a 1.2575995,1.2575995 0 0 0 -0.94025,0.270351 1.2575995,1.2575995 0 0 0 -0.209219,1.796044 l 0.163374,0.09433 a 1.2768826,1.2768826 0 0 0 1.873333,-1.735605 v 0 l 0.8740298,-1.513864 a 7.2186214,7.2186214 0 0 0 3.521579,0.8424 l 0.274834,1.334916 a 0.96835164,0.96835164 0 0 0 -0.431616,0.244538 0.85516765,0.85516765 0 0 0 0.05242,1.191979 0.84259169,0.84259169 0 0 0 1.18569,-0.04152 0.83001567,0.83001567 0 0 0 -0.04152,-1.185689 0.86774367,0.86774367 0 0 0 -0.490103,-0.28296 l -0.108532,-1.195356 a 7.0677089,7.0677089 0 0 0 3.580446,-1.171127 l 1.099311,1.49146 a 1.2575995,1.2575995 0 0 0 0.06823,1.491545 l 0.163373,0.09433 a 1.2768817,1.2768817 0 0 0 1.873335,-1.735597 z"
     id="path6-3-9-1-2"
     style="stroke-width:1.2576;fill:#ffffff" />
  <path
     d="M 17.588781,68.869432 17.485567,68.747916 A 1.1368694,1.1368694 0 0 0 16.467673,68.494614 L 15.520858,67.21729 a 5.2982402,5.2982402 0 0 0 0.434267,-0.430414 5.931026,5.931026 0 0 0 0.77354,-1.039523 l 0.928828,0.53626 a 0.72931242,0.72931242 0 0 0 1.226055,0.707861 0.71858724,0.71858724 0 0 0 -0.05006,-1.007266 0.70786206,0.70786206 0 0 0 -1.011194,0.03541 0.16087773,0.16087773 0 0 0 -0.03754,0.06501 l -0.928822,-0.536256 a 5.5449195,5.5449195 0 0 0 0.59114,-1.603049 l 1.545988,0.260974 a 1.0725183,1.0725183 0 0 0 0.214962,0.421335 l 0.103215,0.121516 a 1.1197432,1.1197432 0 0 0 1.629819,-1.5359 l -0.130038,-0.07507 a 1.0725183,1.0725183 0 0 0 -1.428491,-0.05691 1.233396,1.233396 0 0 0 -0.258085,0.29683 L 17.573113,63.12642 a 6.1669801,6.1669801 0 0 0 -0.687456,-3.356769 l 0.915924,-0.449556 0.130037,0.07507 a 0.71858724,0.71858724 0 1 0 -0.0447,-1.016551 0.68641169,0.68641169 0 0 0 -0.148156,0.707064 l -0.92128,0.458845 a 6.8319413,6.8319413 0 0 0 -1.161496,-1.463189 7.3145746,7.3145746 0 0 0 -0.756942,-0.598018 l 0.825838,-1.430396 a 1.1368694,1.1368694 0 0 0 0.753995,-0.233437 1.0725183,1.0725183 0 0 0 0.169136,-1.537082 l -0.130038,-0.07507 A 1.088963,1.088963 0 0 0 14.920334,55.6875 l 0.04644,0.0268 -0.836564,1.448972 a 6.0704532,6.0704532 0 0 0 -2.941151,-0.633021 l -0.02573,-1.092301 a 0.71858724,0.71858724 0 1 0 -0.613798,-0.180985 0.76148797,0.76148797 0 0 0 0.38082,0.219866 l 0.03502,1.09766 a 6.1669801,6.1669801 0 0 0 -2.6829226,0.828811 l -0.856034,-1.348754 a 1.0725183,1.0725183 0 0 0 0.02617,-1.396707 l -0.130017,-0.07507 a 1.0725183,1.0725183 0 0 0 -1.433862,-0.04762 1.0725183,1.0725183 0 0 0 -0.169136,1.537084 l 0.130037,0.07507 a 1.0725183,1.0725183 0 0 0 0.843513,0.276469 l 0.912815,1.443457 a 5.9632014,5.9632014 0 0 0 -0.671936,0.627575 6.1240793,6.1240793 0 0 0 -0.950505,1.346033 L 5.0546675,59.304584 a 0.70786206,0.70786206 0 0 0 -0.1841302,-0.77506 0.72931242,0.72931242 0 0 0 -1.020481,0.03005 0.7206858,0.7206858 0 0 0 1.0558887,0.981147 0.1823281,0.1823281 0 0 0 0.037536,-0.06503 l 0.9288282,0.53626 a 6.1240793,6.1240793 0 0 0 -0.507936,1.737782 L 3.7140089,61.626656 A 1.4478997,1.4478997 0 0 0 3.5529482,61.347903 l -0.1300375,-0.07507 a 1.0725183,1.0725183 0 0 0 -1.433868,-0.04762 1.0725183,1.0725183 0 0 0 -0.169136,1.537084 l 0.1300375,0.07507 a 1.0725183,1.0725183 0 0 0 1.4474602,-0.01887 1.1368694,1.1368694 0 0 0 0.323848,-0.432242 l 1.593198,0.114841 a 6.1669801,6.1669801 0 0 0 0.470876,2.401976 L 4.8386619,65.38442 4.7179172,65.3147 a 0.71858724,0.71858724 0 0 0 -1.0111944,0.03541 0.72931242,0.72931242 0 0 0 0.044698,1.016557 0.71858724,0.71858724 0 0 0 1.0111923,-0.03541 0.69713687,0.69713687 0 0 0 0.1442201,-0.721715 l 0.9412982,-0.472059 a 6.2098809,6.2098809 0 0 0 1.364298,1.927041 6.9928189,6.9928189 0 0 0 0.613687,0.502942 l -0.813294,1.301414 a 1.0725183,1.0725183 0 0 0 -0.801873,0.230563 1.0725183,1.0725183 0 0 0 -0.178428,1.53172 l 0.13933,0.08045 a 1.0889636,1.0889636 0 0 0 1.59764,-1.480173 v 0 l 0.745399,-1.291068 a 6.1562549,6.1562549 0 0 0 3.0033066,0.718424 l 0.234387,1.138456 a 0.82583907,0.82583907 0 0 0 -0.368095,0.208549 0.72931242,0.72931242 0 0 0 0.0447,1.016555 0.71858724,0.71858724 0 0 0 1.011192,-0.03541 0.70786206,0.70786206 0 0 0 -0.03541,-1.01119 0.74003761,0.74003761 0 0 0 -0.417974,-0.241317 l -0.09256,-1.019436 a 6.0275526,6.0275526 0 0 0 3.053511,-0.998771 l 0.937525,1.271961 a 1.0725183,1.0725183 0 0 0 0.05819,1.272034 l 0.13933,0.08045 a 1.0889627,1.0889627 0 0 0 1.597636,-1.480169 z"
     id="path6-3-9-7"
     style="stroke-width:1.07252;fill:#ffffff" />
  <path
     d="m 56.820887,23.559698 -0.129058,-0.151942 a 1.4215325,1.4215325 0 0 0 -1.272767,-0.316727 l -1.18389,-1.597156 a 6.6248776,6.6248776 0 0 0 0.543004,-0.538186 7.4161079,7.4161079 0 0 0 0.967229,-1.299812 l 1.161399,0.670536 a 0.91192647,0.91192647 0 0 0 1.533049,0.885103 0.89851579,0.89851579 0 0 0 -0.06259,-1.259477 0.88510511,0.88510511 0 0 0 -1.264389,0.04428 0.20116024,0.20116024 0 0 0 -0.04694,0.08129 l -1.161392,-0.67053 a 6.9333234,6.9333234 0 0 0 0.739157,-2.00444 l 1.933091,0.32632 a 1.3410684,1.3410684 0 0 0 0.268787,0.526834 l 0.129059,0.151943 a 1.400118,1.400118 0 0 0 2.037913,-1.920477 l -0.162599,-0.09387 a 1.3410684,1.3410684 0 0 0 -1.786173,-0.07116 1.5422286,1.5422286 0 0 0 -0.322708,0.371154 L 56.8013,16.378684 a 7.7111431,7.7111431 0 0 0 -0.85959,-4.197278 l 1.145264,-0.562121 0.162597,0.09387 a 0.89851579,0.89851579 0 1 0 -0.05589,-1.271088 0.85828374,0.85828374 0 0 0 -0.185253,0.884107 l -1.151961,0.573737 A 8.5426053,8.5426053 0 0 0 54.404135,10.070347 9.1460861,9.1460861 0 0 0 53.457661,9.3225897 l 1.032621,-1.7885569 a 1.4215325,1.4215325 0 0 0 0.94279,-0.2918865 1.3410684,1.3410684 0 0 0 0.211486,-1.9219564 l -0.162599,-0.093867 a 1.3616307,1.3616307 0 0 0 -1.997677,1.8507928 l 0.05807,0.033511 -1.046033,1.811783 A 7.5904466,7.5904466 0 0 0 48.818725,8.130885 l -0.03217,-1.3658046 a 0.89851579,0.89851579 0 1 0 -0.767489,-0.2263022 0.95215852,0.95215852 0 0 0 0.476175,0.2749187 l 0.04379,1.3725054 a 7.7111431,7.7111431 0 0 0 -3.354709,1.0363384 l -1.070378,-1.686471 a 1.3410684,1.3410684 0 0 0 0.03272,-1.7464326 l -0.162572,-0.093867 a 1.3410684,1.3410684 0 0 0 -1.79289,-0.059544 1.3410684,1.3410684 0 0 0 -0.211486,1.9219589 l 0.162597,0.093867 a 1.3410684,1.3410684 0 0 0 1.054722,0.3456947 l 1.141377,1.804887 a 7.4563398,7.4563398 0 0 0 -0.840183,0.7847143 7.6575002,7.6575002 0 0 0 -1.188504,1.68307 l -1.161397,-0.670532 a 0.88510511,0.88510511 0 0 0 -0.230235,-0.969129 0.91192647,0.91192647 0 0 0 -1.276001,0.03757 0.90113981,0.90113981 0 0 0 1.320274,1.226818 0.22798161,0.22798161 0 0 0 0.04694,-0.08131 l 1.161398,0.670537 a 7.6575002,7.6575002 0 0 0 -0.635118,2.172909 l -2.063604,-0.153896 a 1.8104423,1.8104423 0 0 0 -0.201388,-0.348551 l -0.162598,-0.09387 a 1.3410684,1.3410684 0 0 0 -1.792901,-0.05954 1.3410684,1.3410684 0 0 0 -0.211487,1.921959 l 0.162598,0.09387 a 1.3410684,1.3410684 0 0 0 1.809893,-0.0236 1.4215325,1.4215325 0 0 0 0.404937,-0.540472 l 1.992123,0.143596 a 7.7111431,7.7111431 0 0 0 0.588779,3.003412 l -1.183702,0.601876 -0.150978,-0.08718 a 0.89851579,0.89851579 0 0 0 -1.26439,0.04428 0.91192647,0.91192647 0 0 0 0.05589,1.271095 0.89851579,0.89851579 0 0 0 1.264386,-0.04428 0.87169442,0.87169442 0 0 0 0.180333,-0.902427 l 1.176992,-0.590259 a 7.7647859,7.7647859 0 0 0 1.705907,2.409557 8.7437653,8.7437653 0 0 0 0.767349,0.628874 l -1.016936,1.627278 a 1.3410684,1.3410684 0 0 0 -1.002656,0.288294 1.3410684,1.3410684 0 0 0 -0.223106,1.915251 l 0.174218,0.100594 a 1.3616316,1.3616316 0 0 0 1.997677,-1.850797 v 0 l 0.932041,-1.614341 a 7.6977324,7.6977324 0 0 0 3.755311,0.898312 l 0.293076,1.423516 a 1.0326226,1.0326226 0 0 0 -0.460263,0.260768 0.91192647,0.91192647 0 0 0 0.05589,1.271093 0.89851579,0.89851579 0 0 0 1.264387,-0.04428 0.88510511,0.88510511 0 0 0 -0.04428,-1.264384 0.92533716,0.92533716 0 0 0 -0.522631,-0.301741 l -0.115736,-1.274694 a 7.536804,7.536804 0 0 0 3.818086,-1.248856 l 1.172273,1.59045 a 1.3410684,1.3410684 0 0 0 0.07276,1.590541 l 0.174217,0.100595 a 1.3616303,1.3616303 0 0 0 1.997671,-1.850792 z"
     id="path6-3-9-0"
     style="stroke-width:1.34107;fill:#ffffff" />
</svg>
