  0
SECTION
  2
HEADER
  9
$ACADVER
  1
AC1015
  9
$ACADMAINTVER
 70
     6
  9
$DWGCODEPAGE
  3
DOS850
  9
$INSBASE
 10
0.0
 20
0.0
 30
0.0
  9
$EXTMIN
 10
5.2944
 20
-81.2054
 30
1.000000E+20
  9
$EXTMAX
 10
119.1508
 20
89.5062
 30
-1.000000E+20
  9
$LIMMIN
 10
0.0
 20
0.0
  9
$LIMMAX
 10
0.0
 20
0.0
  9
$ORTHOMODE
 70
     0
  9
$REGENMODE
 70
     1
  9
$FILLMODE
 70
     1
  9
$QTEXTMODE
 70
     0
  9
$MIRRTEXT
 70
     1
  9
$LTSCALE
 40
1.0
  9
$ATTMODE
 70
     1
  9
$TEXTSIZE
 40
0.2
  9
$TRACEWID
 40
0.05
  9
$TEXTSTYLE
  7
Standard
  9
$CLAYER
  8
0
  9
$CELTYPE
  6
Continuous
  9
$CECOLOR
 62
   256
  9
$CELTSCALE
 40
1.0
  9
$DISPSILH
 70
     0
  9
$DIMSCALE
 40
1.0
  9
$DIMASZ
 40
0.18
  9
$DIMEXO
 40
0.0625
  9
$DIMDLI
 40
0.38
  9
$DIMRND
 40
0.0
  9
$DIMDLE
 40
0.0
  9
$DIMEXE
 40
0.18
  9
$DIMTP
 40
0.0
  9
$DIMTM
 40
0.0
  9
$DIMTXT
 40
0.18
  9
$DIMCEN
 40
0.09
  9
$DIMTSZ
 40
0.0
  9
$DIMTOL
 70
     0
  9
$DIMLIM
 70
     0
  9
$DIMTIH
 70
     1
  9
$DIMTOH
 70
     1
  9
$DIMSE1
 70
     0
  9
$DIMSE2
 70
     0
  9
$DIMTAD
 70
     0
  9
$DIMZIN
 70
     0
  9
$DIMBLK
  1

  9
$DIMASO
 70
     1
  9
$DIMSHO
 70
     1
  9
$DIMPOST
  1

  9
$DIMAPOST
  1

  9
$DIMALT
 70
     0
  9
$DIMALTD
 70
     2
  9
$DIMALTF
 40
25.4
  9
$DIMLFAC
 40
1.0
  9
$DIMTOFL
 70
     0
  9
$DIMTVP
 40
0.0
  9
$DIMTIX
 70
     0
  9
$DIMSOXD
 70
     0
  9
$DIMSAH
 70
     0
  9
$DIMBLK1
  1

  9
$DIMBLK2
  1

  9
$DIMSTYLE
  2
Standard
  9
$DIMCLRD
 70
     0
  9
$DIMCLRE
 70
     0
  9
$DIMCLRT
 70
     0
  9
$DIMTFAC
 40
1.0
  9
$DIMGAP
 40
0.09
  9
$DIMJUST
 70
     0
  9
$DIMSD1
 70
     0
  9
$DIMSD2
 70
     0
  9
$DIMTOLJ
 70
     1
  9
$DIMTZIN
 70
     0
  9
$DIMALTZ
 70
     0
  9
$DIMALTTZ
 70
     0
  9
$DIMUPT
 70
     0
  9
$DIMDEC
 70
     4
  9
$DIMTDEC
 70
     4
  9
$DIMALTU
 70
     2
  9
$DIMALTTD
 70
     2
  9
$DIMTXSTY
  7
Standard
  9
$DIMAUNIT
 70
     0
  9
$DIMADEC
 70
     0
  9
$DIMALTRND
 40
0.0
  9
$DIMAZIN
 70
     0
  9
$DIMDSEP
 70
     0
  9
$DIMATFIT
 70
     3
  9
$DIMFRAC
 70
     0
  9
$DIMLDRBLK
  1

  9
$DIMLUNIT
 70
     2
  9
$DIMLWD
 70
     0
  9
$DIMLWE
 70
     0
  9
$DIMTMOVE
 70
     0
  9
$LUNITS
 70
     2
  9
$LUPREC
 70
     4
  9
$SKETCHINC
 40
0.1
  9
$FILLETRAD
 40
0.0
  9
$AUNITS
 70
     0
  9
$AUPREC
 70
     0
  9
$MENU
  1
acad
  9
$ELEVATION
 40
0.0
  9
$PELEVATION
 40
0.0
  9
$THICKNESS
 40
0.0
  9
$LIMCHECK
 70
     0
  9
$CHAMFERA
 40
0.0
  9
$CHAMFERB
 40
0.0
  9
$CHAMFERC
 40
0.0
  9
$CHAMFERD
 40
0.0
  9
$SKPOLY
 70
     0
  9
$TDCREATE
 40
0.000000000
  9
$TDUCREATE
 40
0.000000000
  9
$TDUPDATE
 40
0.000000000
  9
$TDUUPDATE
 40
0.000000000
  9
$TDINDWG
 40
0.0000000000
  9
$TDUSRTIMER
 40
0.0000000000
  9
$USRTIMER
 70
     1
  9
$ANGBASE
 50
0.0
  9
$ANGDIR
 70
     0
  9
$PDMODE
 70
     0
  9
$PDSIZE
 40
0.0
  9
$PLINEWID
 40
0.0
  9
$SPLFRAME
 70
     0
  9
$SPLINETYPE
 70
     6
  9
$SPLINESEGS
 70
     8
  9
$HANDSEED
  5
4C
  9
$SURFTAB1
 70
     6
  9
$SURFTAB2
 70
     6
  9
$SURFTYPE
 70
     6
  9
$SURFU
 70
     6
  9
$SURFV
 70
     6
  9
$UCSBASE
  2

  9
$UCSNAME
  2

  9
$UCSORG
 10
0.0
 20
0.0
 30
0.0
  9
$UCSXDIR
 10
1.0
 20
0.0
 30
0.0
  9
$UCSYDIR
 10
0.0
 20
1.0
 30
0.0
  9
$UCSORTHOREF
  2

  9
$UCSORTHOVIEW
 70
     0
  9
$UCSORGTOP
 10
0.0
 20
0.0
 30
0.0
  9
$UCSORGBOTTOM
 10
0.0
 20
0.0
 30
0.0
  9
$UCSORGLEFT
 10
0.0
 20
0.0
 30
0.0
  9
$UCSORGRIGHT
 10
0.0
 20
0.0
 30
0.0
  9
$UCSORGFRONT
 10
0.0
 20
0.0
 30
0.0
  9
$UCSORGBACK
 10
0.0
 20
0.0
 30
0.0
  9
$PUCSBASE
  2

  9
$PUCSNAME
  2

  9
$PUCSORG
 10
0.0
 20
0.0
 30
0.0
  9
$PUCSXDIR
 10
1.0
 20
0.0
 30
0.0
  9
$PUCSYDIR
 10
0.0
 20
1.0
 30
0.0
  9
$PUCSORTHOREF
  2

  9
$PUCSORTHOVIEW
 70
     0
  9
$PUCSORGTOP
 10
0.0
 20
0.0
 30
0.0
  9
$PUCSORGBOTTOM
 10
0.0
 20
0.0
 30
0.0
  9
$PUCSORGLEFT
 10
0.0
 20
0.0
 30
0.0
  9
$PUCSORGRIGHT
 10
0.0
 20
0.0
 30
0.0
  9
$PUCSORGFRONT
 10
0.0
 20
0.0
 30
0.0
  9
$PUCSORGBACK
 10
0.0
 20
0.0
 30
0.0
  9
$USERI1
 70
     0
  9
$USERI2
 70
     0
  9
$USERI3
 70
     0
  9
$USERI4
 70
     0
  9
$USERI5
 70
     0
  9
$USERR1
 40
0.0
  9
$USERR2
 40
0.0
  9
$USERR3
 40
0.0
  9
$USERR4
 40
0.0
  9
$USERR5
 40
0.0
  9
$WORLDVIEW
 70
     1
  9
$SHADEDGE
 70
     3
  9
$SHADEDIF
 70
    70
  9
$TILEMODE
 70
     1
  9
$MAXACTVP
 70
    16
  9
$PINSBASE
 10
0.0
 20
0.0
 30
0.0
  9
$PLIMCHECK
 70
     0
  9
$PEXTMIN
 10
1.000000E+20
 20
1.000000E+20
 30
1.000000E+20
  9
$PEXTMAX
 10
-1.000000E+20
 20
-1.000000E+20
 30
-1.000000E+20
  9
$PLIMMIN
 10
0.0
 20
0.0
  9
$PLIMMAX
 10
12.0
 20
9.0
  9
$UNITMODE
 70
     0
  9
$VISRETAIN
 70
     0
  9
$PLINEGEN
 70
     1
  9
$PSLTSCALE
 70
     0
  9
$TREEDEPTH
 70
  3020
  9
$CMLSTYLE
  2
Standard
  9
$CMLJUST
 70
     0
  9
$CMLSCALE
 40
1.0
  9
$PROXYGRAPHICS
 70
     0
  9
$MEASUREMENT
 70
     0
  9
$CELWEIGHT
370
     0
  9
$ENDCAPS
280
     0
  9
$JOINSTYLE
280
     0
  9
$LWDISPLAY
290
     0
  9
$INSUNITS
 70
     4
  9
$HYPERLINKBASE
  1

  9
$XEDIT
290
     1
  9
$CEPSNTYPE
380
     0
  9
$PSTYLEMODE
290
     1
  9
$FINGERPRINTGUID
  2

  9
$VERSIONGUID
  2

  9
$EXTNAMES
290
     1
  9
$PSVPSCALE
 40
0.0
  0
ENDSEC
  0
SECTION
  2
CLASSES
  0
CLASS
  1
LWPOLYLINE
  2
AcDbPolyline
  3
AutoCAD 2000
 90
    32768
280
     0
281
     1
  0
CLASS
  1
IMAGE
  2
AcDbRasterImage
  3
ISM
 90
    32895
280
     0
281
     1
  0
CLASS
  1
OLE2FRAME
  2
AcDbOle2Frame
  3
AutoCAD 2000
 90
    32768
280
     0
281
     1
  0
CLASS
  1
HATCH
  2
AcDbHatch
  3
AutoCAD 2000
 90
    32768
280
     0
281
     1
  0
CLASS
  1
DICTIONARYVAR
  2
AcDbDictionaryVar
  3
AutoCAD 2000
 90
    32768
280
     0
281
     0
  0
CLASS
  1
RASTERVARIABLES
  2
AcDbRasterVariables
  3
ISM
 90
    32768
280
     0
281
     0
  0
CLASS
  1
IMAGEDEF
  2
AcDbRasterImageDef
  3
ISM
 90
    32768
280
     0
281
     0
  0
CLASS
  1
IMAGEDEF_REACTOR
  2
AcDbRasterImageDefReactor
  3
ISM
 90
    32769
280
     0
281
     0
  0
CLASS
  1
IDBUFFER
  2
AcDbIdBuffer
  3
AutoCAD 2000
 90
    32768
280
     0
281
     0
  0
CLASS
  1
SPATIAL_FILTER
  2
AcDbSpatialFilter
  3
AutoCAD 2000
 90
    32768
280
     0
281
     0
  0
CLASS
  1
XRECORD
  2
AcDbXrecord
  3
AutoCAD 2000
 90
    32768
280
     0
281
     0
  0
CLASS
  1
SORTENTSTABLE
  2
AcDbSortentsTable
  3
AutoCAD 2000
 90
    32768
280
     0
281
     0
  0
CLASS
  1
LAYER_INDEX
  2
AcDbLayerIndex
  3
AutoCAD 2000
 90
    32768
280
     0
281
     0
  0
CLASS
  1
SPATIAL_INDEX
  2
AcDbSpatialIndex
  3
AutoCAD 2000
 90
    32768
280
     0
281
     0
  0
CLASS
  1
OBJECT_PTR
  2
CAseDLPNTableRecord
  3
"ASE-LPNTableRecord"
 90
    32769
280
     0
281
     0
  0
CLASS
  1
LAYOUT
  2
AcDbLayout
  3
AutoCAD 2000
 90
        0
280
     0
281
     0
  0
CLASS
  1
PLOTSETTINGS
  2
AcDbPlotSettings
  3
AutoCAD 2000
 90
    32768
280
     0
281
     0
  0
CLASS
  1
ACDBDICTIONARYWDFLT
  2
AcDbDictionaryWithDefault
  3
AutoCAD 2000
 90
        0
280
     0
281
     0
  0
CLASS
  1
ACDBPLACEHOLDER
  2
AcDbPlaceHolder
  3
AutoCAD 2000
 90
        0
280
     0
281
     0
  0
CLASS
  1
VBA_PROJECT
  2
AcDbVbaProject
  3
acadvba
 90
    32768
280
     0
281
     0
  0
CLASS
  1
WIPEOUT
  2
AcDbWipeout
  3
WipeOut|AutoCAD Express Tool|expresstools@autodesk.com
 90
    32895
280
     0
281
     1
  0
CLASS
  1
WIPEOUTVARIABLES
  2
AcDbWipeoutVariables
  3
WipeOut|AutoCAD Express Tool|expresstools@autodesk.com
 90
        0
280
     0
281
     0
  0
CLASS
  1
RTEXT
  2
RText
  3
RText|AutoCAD Express Tool|expresstools@autodesk.com
 90
    32768
280
     0
281
     1
  0
CLASS
  1
ARCALIGNEDTEXT
  2
AcDbArcAlignedText
  3
ATEXT|AutoCAD Express Tool|expresstools@autodesk.com
 90
    32768
280
     0
281
     1
  0
ENDSEC
  0
SECTION
  2
TABLES
  0
TABLE
  2
VPORT
  5
7
100
AcDbSymbolTable
 70
     1
  0
VPORT
  5
15
100
AcDbSymbolTableRecord
100
AcDbViewportTableRecord
  2
*ACTIVE
 70
     0
 10
0.0
 20
0.0
 11
1.0
 21
1.0
 12
6.591288
 22
4.579184
 13
0.0
 23
0.0
 14
1.0
 24
1.0
 15
0.0
 25
0.0
 16
0.0
 26
0.0
 36
1.0
 17
0.0
 27
0.0
 37
0.0
 40
9.158369
 41
0.688564
 42
50.0
 43
0.0
 44
0.0
 50
0.0
 51
0.0
 71
     0
 72
   100
 73
     1
 74
     1
 75
     0
 76
     0
 77
     0
 78
     0
281
     0
 65
     0
110
0.0
120
0.0
130
0.0
111
1.0
121
0.0
131
0.0
112
0.0
122
1.0
132
0.0
345
0
346
0
 79
     0
146
0.0
  0
ENDTAB
  0
TABLE
  2
LTYPE
  5
4
100
AcDbSymbolTable
 70
     3
  0
LTYPE
  5
11
100
AcDbSymbolTableRecord
100
AcDbLinetypeTableRecord
  2
ByBlock
 70
    64
  3

 72
    65
 73
     0
 40
0.0
  0
LTYPE
  5
12
100
AcDbSymbolTableRecord
100
AcDbLinetypeTableRecord
  2
ByLayer
 70
    64
  3

 72
    65
 73
     0
 40
0.0
  0
LTYPE
  5
13
100
AcDbSymbolTableRecord
100
AcDbLinetypeTableRecord
  2
Continuous
 70
    64
  3
Solid line
 72
    65
 73
     0
 40
0.0
  0
ENDTAB
  0
TABLE
  2
LAYER
  5
2
100
AcDbSymbolTable
 70
     2
  0
LAYER
  5
14
100
AcDbSymbolTableRecord
100
AcDbLayerTableRecord
  2
0
 70
     0
 62
     7
  6
Continuous
290
     1
370
    -3
390
1D
  0
LAYER
  5
24
100
AcDbSymbolTableRecord
100
AcDbLayerTableRecord
  2
Ebene 1
 70
     0
 62
     7
  6
Continuous
290
     1
370
    -3
390
1F
  0
ENDTAB
  0
TABLE
  2
STYLE
  5
3
100
AcDbSymbolTable
 70
     1
  0
STYLE
  5
17
100
AcDbSymbolTableRecord
100
AcDbTextStyleTableRecord
  2
Standard
 70
     0
 40
0.0
 41
1.0
 50
0.0
 71
     0
 42
0.0
  3
txt
  4

  0
ENDTAB
  0
TABLE
  2
VIEW
  5
5
100
AcDbSymbolTable
 70
     0
  0
ENDTAB
  0
TABLE
  2
UCS
  5
6
100
AcDbSymbolTable
 70
     0
  0
ENDTAB
  0
TABLE
  2
APPID
  5
8
100
AcDbSymbolTable
 70
     1
  0
APPID
  5
16
100
AcDbSymbolTableRecord
100
AcDbRegAppTableRecord
  2
ACAD
 70
     0
  0
ENDTAB
  0
TABLE
  2
DIMSTYLE
  5
9
100
AcDbSymbolTable
 70
     1
100
AcDbDimStyleTable
 71
     0
  0
DIMSTYLE
105
18
100
AcDbSymbolTableRecord
100
AcDbDimStyleTableRecord
  2
Standard
 70
     0
  3

  4

 40
1.0
 41
0.18
 42
0.0625
 43
0.38
 44
0.18
 45
0.0
 46
0.0
 47
0.0
 48
0.0
 71
     0
 72
     0
 73
     1
 74
     1
 75
     0
 76
     0
 77
     0
 78
     0
 79
     0
140
0.18
141
0.09
142
0.0
143
25.4
144
1.0
145
0.0
146
1.0
147
0.09
148
0.0
170
     0
171
     2
172
     0
173
     0
174
     0
175
     0
176
     0
177
     0
178
     0
179
     0
271
     4
272
     4
273
     2
274
     2
275
     0
276
     0
277
     2
278
    46
279
     0
280
     0
281
     0
282
     0
283
     1
284
     0
285
     0
286
     0
288
     0
340
17
341
0
342
0
343
0
344
0
371
    -2
372
    -2
  0
ENDTAB
  0
TABLE
  2
BLOCK_RECORD
  5
1
100
AcDbSymbolTable
 70
     0
  0
BLOCK_RECORD
  5
A
100
AcDbSymbolTableRecord
100
AcDbBlockTableRecord
  2
*MODEL_SPACE
340
20
  0
BLOCK_RECORD
  5
B
100
AcDbSymbolTableRecord
100
AcDbBlockTableRecord
  2
*PAPER_SPACE
340
21
  0
ENDTAB
  0
ENDSEC
  0
SECTION
  2
BLOCKS
  0
BLOCK
  5
D
100
AcDbEntity
  8
0
100
AcDbBlockBegin
  2
*MODEL_SPACE
 70
     0
 10
0.0
 20
0.0
 30
0.0
  3
*MODEL_SPACE
  1

  0
ENDBLK
  5
E
100
AcDbEntity
  8
0
100
AcDbBlockEnd
  0
BLOCK
  5
F
100
AcDbEntity
 67
     1
  8
0
100
AcDbBlockBegin
  2
*PAPER_SPACE
 70
     0
 10
0.0
 20
0.0
 30
0.0
  3
*PAPER_SPACE
  1

  0
ENDBLK
  5
10
100
AcDbEntity
 67
     1
  8
0
100
AcDbBlockEnd
  0
ENDSEC
  0
SECTION
  2
ENTITIES
  0
SPLINE
  5
25
100
AcDbEntity
  8
Ebene 1
370
     5
100
AcDbSpline
210
0.0
220
0.0
230
1.0
 70
     1
 71
     3
 72
   748
 73
   744
 74
     0
 42
0.0000000001
 43
0.0000000001
 40
0.0
 40
0.0
 40
0.0
 40
0.0
 40
0.0053763440860215
 40
0.0053763440860215
 40
0.0053763440860215
 40
0.0053763440860215
 40
0.010752688172043
 40
0.010752688172043
 40
0.010752688172043
 40
0.010752688172043
 40
0.0161290322580645
 40
0.0161290322580645
 40
0.0161290322580645
 40
0.0161290322580645
 40
0.021505376344086
 40
0.021505376344086
 40
0.021505376344086
 40
0.021505376344086
 40
0.0268817204301075
 40
0.0268817204301075
 40
0.0268817204301075
 40
0.0268817204301075
 40
0.032258064516129
 40
0.032258064516129
 40
0.032258064516129
 40
0.032258064516129
 40
0.0376344086021505
 40
0.0376344086021505
 40
0.0376344086021505
 40
0.0376344086021505
 40
0.0430107526881721
 40
0.0430107526881721
 40
0.0430107526881721
 40
0.0430107526881721
 40
0.0483870967741936
 40
0.0483870967741936
 40
0.0483870967741936
 40
0.0483870967741936
 40
0.0537634408602151
 40
0.0537634408602151
 40
0.0537634408602151
 40
0.0537634408602151
 40
0.0591397849462366
 40
0.0591397849462366
 40
0.0591397849462366
 40
0.0591397849462366
 40
0.0645161290322581
 40
0.0645161290322581
 40
0.0645161290322581
 40
0.0645161290322581
 40
0.0698924731182796
 40
0.0698924731182796
 40
0.0698924731182796
 40
0.0698924731182796
 40
0.0752688172043011
 40
0.0752688172043011
 40
0.0752688172043011
 40
0.0752688172043011
 40
0.0806451612903226
 40
0.0806451612903226
 40
0.0806451612903226
 40
0.0806451612903226
 40
0.0860215053763441
 40
0.0860215053763441
 40
0.0860215053763441
 40
0.0860215053763441
 40
0.0913978494623656
 40
0.0913978494623656
 40
0.0913978494623656
 40
0.0913978494623656
 40
0.0967741935483871
 40
0.0967741935483871
 40
0.0967741935483871
 40
0.0967741935483871
 40
0.1021505376344086
 40
0.1021505376344086
 40
0.1021505376344086
 40
0.1021505376344086
 40
0.1075268817204301
 40
0.1075268817204301
 40
0.1075268817204301
 40
0.1075268817204301
 40
0.1129032258064516
 40
0.1129032258064516
 40
0.1129032258064516
 40
0.1129032258064516
 40
0.1182795698924731
 40
0.1182795698924731
 40
0.1182795698924731
 40
0.1182795698924731
 40
0.1236559139784946
 40
0.1236559139784946
 40
0.1236559139784946
 40
0.1236559139784946
 40
0.1290322580645161
 40
0.1290322580645161
 40
0.1290322580645161
 40
0.1290322580645161
 40
0.1344086021505376
 40
0.1344086021505376
 40
0.1344086021505376
 40
0.1344086021505376
 40
0.1397849462365591
 40
0.1397849462365591
 40
0.1397849462365591
 40
0.1397849462365591
 40
0.1451612903225806
 40
0.1451612903225806
 40
0.1451612903225806
 40
0.1451612903225806
 40
0.1505376344086021
 40
0.1505376344086021
 40
0.1505376344086021
 40
0.1505376344086021
 40
0.1559139784946236
 40
0.1559139784946236
 40
0.1559139784946236
 40
0.1559139784946236
 40
0.1612903225806451
 40
0.1612903225806451
 40
0.1612903225806451
 40
0.1612903225806451
 40
0.1666666666666666
 40
0.1666666666666666
 40
0.1666666666666666
 40
0.1666666666666666
 40
0.1720430107526881
 40
0.1720430107526881
 40
0.1720430107526881
 40
0.1720430107526881
 40
0.1774193548387096
 40
0.1774193548387096
 40
0.1774193548387096
 40
0.1774193548387096
 40
0.1827956989247311
 40
0.1827956989247311
 40
0.1827956989247311
 40
0.1827956989247311
 40
0.1881720430107526
 40
0.1881720430107526
 40
0.1881720430107526
 40
0.1881720430107526
 40
0.1935483870967741
 40
0.1935483870967741
 40
0.1935483870967741
 40
0.1935483870967741
 40
0.1989247311827956
 40
0.1989247311827956
 40
0.1989247311827956
 40
0.1989247311827956
 40
0.2043010752688171
 40
0.2043010752688171
 40
0.2043010752688171
 40
0.2043010752688171
 40
0.2096774193548386
 40
0.2096774193548386
 40
0.2096774193548386
 40
0.2096774193548386
 40
0.2150537634408601
 40
0.2150537634408601
 40
0.2150537634408601
 40
0.2150537634408601
 40
0.2204301075268816
 40
0.2204301075268816
 40
0.2204301075268816
 40
0.2204301075268816
 40
0.2258064516129031
 40
0.2258064516129031
 40
0.2258064516129031
 40
0.2258064516129031
 40
0.2311827956989246
 40
0.2311827956989246
 40
0.2311827956989246
 40
0.2311827956989246
 40
0.2365591397849461
 40
0.2365591397849461
 40
0.2365591397849461
 40
0.2365591397849461
 40
0.2419354838709676
 40
0.2419354838709676
 40
0.2419354838709676
 40
0.2419354838709676
 40
0.2473118279569891
 40
0.2473118279569891
 40
0.2473118279569891
 40
0.2473118279569891
 40
0.2526881720430106
 40
0.2526881720430106
 40
0.2526881720430106
 40
0.2526881720430106
 40
0.2580645161290321
 40
0.2580645161290321
 40
0.2580645161290321
 40
0.2580645161290321
 40
0.2634408602150536
 40
0.2634408602150536
 40
0.2634408602150536
 40
0.2634408602150536
 40
0.2688172043010751
 40
0.2688172043010751
 40
0.2688172043010751
 40
0.2688172043010751
 40
0.2741935483870966
 40
0.2741935483870966
 40
0.2741935483870966
 40
0.2741935483870966
 40
0.2795698924731181
 40
0.2795698924731181
 40
0.2795698924731181
 40
0.2795698924731181
 40
0.2849462365591396
 40
0.2849462365591396
 40
0.2849462365591396
 40
0.2849462365591396
 40
0.2903225806451611
 40
0.2903225806451611
 40
0.2903225806451611
 40
0.2903225806451611
 40
0.2956989247311826
 40
0.2956989247311826
 40
0.2956989247311826
 40
0.2956989247311826
 40
0.3010752688172041
 40
0.3010752688172041
 40
0.3010752688172041
 40
0.3010752688172041
 40
0.3064516129032257
 40
0.3064516129032257
 40
0.3064516129032257
 40
0.3064516129032257
 40
0.3118279569892472
 40
0.3118279569892472
 40
0.3118279569892472
 40
0.3118279569892472
 40
0.3172043010752687
 40
0.3172043010752687
 40
0.3172043010752687
 40
0.3172043010752687
 40
0.3225806451612902
 40
0.3225806451612902
 40
0.3225806451612902
 40
0.3225806451612902
 40
0.3279569892473117
 40
0.3279569892473117
 40
0.3279569892473117
 40
0.3279569892473117
 40
0.3333333333333332
 40
0.3333333333333332
 40
0.3333333333333332
 40
0.3333333333333332
 40
0.3387096774193547
 40
0.3387096774193547
 40
0.3387096774193547
 40
0.3387096774193547
 40
0.3440860215053762
 40
0.3440860215053762
 40
0.3440860215053762
 40
0.3440860215053762
 40
0.3494623655913977
 40
0.3494623655913977
 40
0.3494623655913977
 40
0.3494623655913977
 40
0.3548387096774192
 40
0.3548387096774192
 40
0.3548387096774192
 40
0.3548387096774192
 40
0.3602150537634407
 40
0.3602150537634407
 40
0.3602150537634407
 40
0.3602150537634407
 40
0.3655913978494622
 40
0.3655913978494622
 40
0.3655913978494622
 40
0.3655913978494622
 40
0.3709677419354837
 40
0.3709677419354837
 40
0.3709677419354837
 40
0.3709677419354837
 40
0.3763440860215052
 40
0.3763440860215052
 40
0.3763440860215052
 40
0.3763440860215052
 40
0.3817204301075267
 40
0.3817204301075267
 40
0.3817204301075267
 40
0.3817204301075267
 40
0.3870967741935482
 40
0.3870967741935482
 40
0.3870967741935482
 40
0.3870967741935482
 40
0.3924731182795697
 40
0.3924731182795697
 40
0.3924731182795697
 40
0.3924731182795697
 40
0.3978494623655912
 40
0.3978494623655912
 40
0.3978494623655912
 40
0.3978494623655912
 40
0.4032258064516127
 40
0.4032258064516127
 40
0.4032258064516127
 40
0.4032258064516127
 40
0.4086021505376342
 40
0.4086021505376342
 40
0.4086021505376342
 40
0.4086021505376342
 40
0.4139784946236557
 40
0.4139784946236557
 40
0.4139784946236557
 40
0.4139784946236557
 40
0.4193548387096772
 40
0.4193548387096772
 40
0.4193548387096772
 40
0.4193548387096772
 40
0.4247311827956987
 40
0.4247311827956987
 40
0.4247311827956987
 40
0.4247311827956987
 40
0.4301075268817202
 40
0.4301075268817202
 40
0.4301075268817202
 40
0.4301075268817202
 40
0.4354838709677417
 40
0.4354838709677417
 40
0.4354838709677417
 40
0.4354838709677417
 40
0.4408602150537632
 40
0.4408602150537632
 40
0.4408602150537632
 40
0.4408602150537632
 40
0.4462365591397847
 40
0.4462365591397847
 40
0.4462365591397847
 40
0.4462365591397847
 40
0.4516129032258062
 40
0.4516129032258062
 40
0.4516129032258062
 40
0.4516129032258062
 40
0.4569892473118277
 40
0.4569892473118277
 40
0.4569892473118277
 40
0.4569892473118277
 40
0.4623655913978492
 40
0.4623655913978492
 40
0.4623655913978492
 40
0.4623655913978492
 40
0.4677419354838707
 40
0.4677419354838707
 40
0.4677419354838707
 40
0.4677419354838707
 40
0.4731182795698922
 40
0.4731182795698922
 40
0.4731182795698922
 40
0.4731182795698922
 40
0.4784946236559137
 40
0.4784946236559137
 40
0.4784946236559137
 40
0.4784946236559137
 40
0.4838709677419352
 40
0.4838709677419352
 40
0.4838709677419352
 40
0.4838709677419352
 40
0.4892473118279567
 40
0.4892473118279567
 40
0.4892473118279567
 40
0.4892473118279567
 40
0.4946236559139782
 40
0.4946236559139782
 40
0.4946236559139782
 40
0.4946236559139782
 40
0.4999999999999997
 40
0.4999999999999997
 40
0.4999999999999997
 40
0.4999999999999997
 40
0.5053763440860212
 40
0.5053763440860212
 40
0.5053763440860212
 40
0.5053763440860212
 40
0.5107526881720427
 40
0.5107526881720427
 40
0.5107526881720427
 40
0.5107526881720427
 40
0.5161290322580642
 40
0.5161290322580642
 40
0.5161290322580642
 40
0.5161290322580642
 40
0.5215053763440857
 40
0.5215053763440857
 40
0.5215053763440857
 40
0.5215053763440857
 40
0.5268817204301072
 40
0.5268817204301072
 40
0.5268817204301072
 40
0.5268817204301072
 40
0.5322580645161287
 40
0.5322580645161287
 40
0.5322580645161287
 40
0.5322580645161287
 40
0.5376344086021502
 40
0.5376344086021502
 40
0.5376344086021502
 40
0.5376344086021502
 40
0.5430107526881717
 40
0.5430107526881717
 40
0.5430107526881717
 40
0.5430107526881717
 40
0.5483870967741932
 40
0.5483870967741932
 40
0.5483870967741932
 40
0.5483870967741932
 40
0.5537634408602147
 40
0.5537634408602147
 40
0.5537634408602147
 40
0.5537634408602147
 40
0.5591397849462362
 40
0.5591397849462362
 40
0.5591397849462362
 40
0.5591397849462362
 40
0.5645161290322577
 40
0.5645161290322577
 40
0.5645161290322577
 40
0.5645161290322577
 40
0.5698924731182792
 40
0.5698924731182792
 40
0.5698924731182792
 40
0.5698924731182792
 40
0.5752688172043007
 40
0.5752688172043007
 40
0.5752688172043007
 40
0.5752688172043007
 40
0.5806451612903222
 40
0.5806451612903222
 40
0.5806451612903222
 40
0.5806451612903222
 40
0.5860215053763437
 40
0.5860215053763437
 40
0.5860215053763437
 40
0.5860215053763437
 40
0.5913978494623652
 40
0.5913978494623652
 40
0.5913978494623652
 40
0.5913978494623652
 40
0.5967741935483867
 40
0.5967741935483867
 40
0.5967741935483867
 40
0.5967741935483867
 40
0.6021505376344082
 40
0.6021505376344082
 40
0.6021505376344082
 40
0.6021505376344082
 40
0.6075268817204297
 40
0.6075268817204297
 40
0.6075268817204297
 40
0.6075268817204297
 40
0.6129032258064512
 40
0.6129032258064512
 40
0.6129032258064512
 40
0.6129032258064512
 40
0.6182795698924727
 40
0.6182795698924727
 40
0.6182795698924727
 40
0.6182795698924727
 40
0.6236559139784942
 40
0.6236559139784942
 40
0.6236559139784942
 40
0.6236559139784942
 40
0.6290322580645157
 40
0.6290322580645157
 40
0.6290322580645157
 40
0.6290322580645157
 40
0.6344086021505372
 40
0.6344086021505372
 40
0.6344086021505372
 40
0.6344086021505372
 40
0.6397849462365587
 40
0.6397849462365587
 40
0.6397849462365587
 40
0.6397849462365587
 40
0.6451612903225802
 40
0.6451612903225802
 40
0.6451612903225802
 40
0.6451612903225802
 40
0.6505376344086017
 40
0.6505376344086017
 40
0.6505376344086017
 40
0.6505376344086017
 40
0.6559139784946232
 40
0.6559139784946232
 40
0.6559139784946232
 40
0.6559139784946232
 40
0.6612903225806447
 40
0.6612903225806447
 40
0.6612903225806447
 40
0.6612903225806447
 40
0.6666666666666662
 40
0.6666666666666662
 40
0.6666666666666662
 40
0.6666666666666662
 40
0.6720430107526877
 40
0.6720430107526877
 40
0.6720430107526877
 40
0.6720430107526877
 40
0.6774193548387092
 40
0.6774193548387092
 40
0.6774193548387092
 40
0.6774193548387092
 40
0.6827956989247307
 40
0.6827956989247307
 40
0.6827956989247307
 40
0.6827956989247307
 40
0.6881720430107522
 40
0.6881720430107522
 40
0.6881720430107522
 40
0.6881720430107522
 40
0.6935483870967737
 40
0.6935483870967737
 40
0.6935483870967737
 40
0.6935483870967737
 40
0.6989247311827952
 40
0.6989247311827952
 40
0.6989247311827952
 40
0.6989247311827952
 40
0.7043010752688167
 40
0.7043010752688167
 40
0.7043010752688167
 40
0.7043010752688167
 40
0.7096774193548382
 40
0.7096774193548382
 40
0.7096774193548382
 40
0.7096774193548382
 40
0.7150537634408597
 40
0.7150537634408597
 40
0.7150537634408597
 40
0.7150537634408597
 40
0.7204301075268812
 40
0.7204301075268812
 40
0.7204301075268812
 40
0.7204301075268812
 40
0.7258064516129027
 40
0.7258064516129027
 40
0.7258064516129027
 40
0.7258064516129027
 40
0.7311827956989242
 40
0.7311827956989242
 40
0.7311827956989242
 40
0.7311827956989242
 40
0.7365591397849457
 40
0.7365591397849457
 40
0.7365591397849457
 40
0.7365591397849457
 40
0.7419354838709672
 40
0.7419354838709672
 40
0.7419354838709672
 40
0.7419354838709672
 40
0.7473118279569887
 40
0.7473118279569887
 40
0.7473118279569887
 40
0.7473118279569887
 40
0.7526881720430102
 40
0.7526881720430102
 40
0.7526881720430102
 40
0.7526881720430102
 40
0.7580645161290317
 40
0.7580645161290317
 40
0.7580645161290317
 40
0.7580645161290317
 40
0.7634408602150532
 40
0.7634408602150532
 40
0.7634408602150532
 40
0.7634408602150532
 40
0.7688172043010747
 40
0.7688172043010747
 40
0.7688172043010747
 40
0.7688172043010747
 40
0.7741935483870962
 40
0.7741935483870962
 40
0.7741935483870962
 40
0.7741935483870962
 40
0.7795698924731177
 40
0.7795698924731177
 40
0.7795698924731177
 40
0.7795698924731177
 40
0.7849462365591392
 40
0.7849462365591392
 40
0.7849462365591392
 40
0.7849462365591392
 40
0.7903225806451607
 40
0.7903225806451607
 40
0.7903225806451607
 40
0.7903225806451607
 40
0.7956989247311822
 40
0.7956989247311822
 40
0.7956989247311822
 40
0.7956989247311822
 40
0.8010752688172037
 40
0.8010752688172037
 40
0.8010752688172037
 40
0.8010752688172037
 40
0.8064516129032252
 40
0.8064516129032252
 40
0.8064516129032252
 40
0.8064516129032252
 40
0.8118279569892467
 40
0.8118279569892467
 40
0.8118279569892467
 40
0.8118279569892467
 40
0.8172043010752682
 40
0.8172043010752682
 40
0.8172043010752682
 40
0.8172043010752682
 40
0.8225806451612897
 40
0.8225806451612897
 40
0.8225806451612897
 40
0.8225806451612897
 40
0.8279569892473112
 40
0.8279569892473112
 40
0.8279569892473112
 40
0.8279569892473112
 40
0.8333333333333327
 40
0.8333333333333327
 40
0.8333333333333327
 40
0.8333333333333327
 40
0.8387096774193542
 40
0.8387096774193542
 40
0.8387096774193542
 40
0.8387096774193542
 40
0.8440860215053757
 40
0.8440860215053757
 40
0.8440860215053757
 40
0.8440860215053757
 40
0.8494623655913972
 40
0.8494623655913972
 40
0.8494623655913972
 40
0.8494623655913972
 40
0.8548387096774187
 40
0.8548387096774187
 40
0.8548387096774187
 40
0.8548387096774187
 40
0.8602150537634402
 40
0.8602150537634402
 40
0.8602150537634402
 40
0.8602150537634402
 40
0.8655913978494617
 40
0.8655913978494617
 40
0.8655913978494617
 40
0.8655913978494617
 40
0.8709677419354832
 40
0.8709677419354832
 40
0.8709677419354832
 40
0.8709677419354832
 40
0.8763440860215047
 40
0.8763440860215047
 40
0.8763440860215047
 40
0.8763440860215047
 40
0.8817204301075262
 40
0.8817204301075262
 40
0.8817204301075262
 40
0.8817204301075262
 40
0.8870967741935477
 40
0.8870967741935477
 40
0.8870967741935477
 40
0.8870967741935477
 40
0.8924731182795692
 40
0.8924731182795692
 40
0.8924731182795692
 40
0.8924731182795692
 40
0.8978494623655907
 40
0.8978494623655907
 40
0.8978494623655907
 40
0.8978494623655907
 40
0.9032258064516122
 40
0.9032258064516122
 40
0.9032258064516122
 40
0.9032258064516122
 40
0.9086021505376337
 40
0.9086021505376337
 40
0.9086021505376337
 40
0.9086021505376337
 40
0.9139784946236552
 40
0.9139784946236552
 40
0.9139784946236552
 40
0.9139784946236552
 40
0.9193548387096767
 40
0.9193548387096767
 40
0.9193548387096767
 40
0.9193548387096767
 40
0.9247311827956982
 40
0.9247311827956982
 40
0.9247311827956982
 40
0.9247311827956982
 40
0.9301075268817197
 40
0.9301075268817197
 40
0.9301075268817197
 40
0.9301075268817197
 40
0.9354838709677412
 40
0.9354838709677412
 40
0.9354838709677412
 40
0.9354838709677412
 40
0.9408602150537627
 40
0.9408602150537627
 40
0.9408602150537627
 40
0.9408602150537627
 40
0.9462365591397842
 40
0.9462365591397842
 40
0.9462365591397842
 40
0.9462365591397842
 40
0.9516129032258057
 40
0.9516129032258057
 40
0.9516129032258057
 40
0.9516129032258057
 40
0.9569892473118272
 40
0.9569892473118272
 40
0.9569892473118272
 40
0.9569892473118272
 40
0.9623655913978487
 40
0.9623655913978487
 40
0.9623655913978487
 40
0.9623655913978487
 40
0.9677419354838702
 40
0.9677419354838702
 40
0.9677419354838702
 40
0.9677419354838702
 40
0.9731182795698917
 40
0.9731182795698917
 40
0.9731182795698917
 40
0.9731182795698917
 40
0.9784946236559132
 40
0.9784946236559132
 40
0.9784946236559132
 40
0.9784946236559132
 40
0.9838709677419347
 40
0.9838709677419347
 40
0.9838709677419347
 40
0.9838709677419347
 40
0.9892473118279562
 40
0.9892473118279562
 40
0.9892473118279562
 40
0.9892473118279562
 40
0.9946236559139777
 40
0.9946236559139777
 40
0.9946236559139777
 40
0.9946236559139777
 40
1.0
 40
1.0
 40
1.0
 40
1.0
 10
24.325800000000001
 20
-71.3767
 30
0.0
 10
23.1265
 20
-68.492900000000006
 30
0.0
 10
24.0764
 20
-65.134500000000003
 30
0.0
 10
24.004900000000003
 20
-62.012
 30
0.0
 10
24.004900000000003
 20
-62.012
 30
0.0
 10
23.9267
 20
-58.570300000000003
 30
0.0
 10
24.1694
 20
-55.115200000000002
 30
0.0
 10
23.877100000000002
 20
-51.685200000000002
 30
0.0
 10
23.877100000000002
 20
-51.685200000000002
 30
0.0
 10
23.633400000000002
 20
-48.830600000000004
 30
0.0
 10
23.412300000000002
 20
-45.898600000000002
 30
0.0
 10
22.401500000000002
 20
-43.2181
 30
0.0
 10
22.401500000000002
 20
-43.2181
 30
0.0
 10
21.409700000000001
 20
-40.586400000000005
 30
0.0
 10
19.6632
 20
-38.284199999999998
 30
0.0
 10
17.9758
 20
-36.034400000000005
 30
0.0
 10
17.9758
 20
-36.034400000000005
 30
0.0
 10
16.25
 20
-33.7331
 30
0.0
 10
14.1205
 20
-31.7637
 30
0.0
 10
12.203000000000001
 20
-29.620000000000001
 30
0.0
 10
12.203000000000001
 20
-29.620000000000001
 30
0.0
 10
10.678600000000001
 20
-27.915600000000001
 30
0.0
 10
8.9931000000000001
 20
-26.338800000000003
 30
0.0
 10
7.6487000000000007
 20
-24.488600000000002
 30
0.0
 10
7.6487000000000007
 20
-24.488600000000002
 30
0.0
 10
6.8170000000000002
 20
-23.343900000000001
 30
0.0
 10
6.0711000000000004
 20
-22.0763
 30
0.0
 10
5.7247000000000003
 20
-20.7042
 30
0.0
 10
5.7247000000000003
 20
-20.7042
 30
0.0
 10
5.5135000000000005
 20
-19.868600000000001
 30
0.0
 10
5.6825000000000001
 20
-18.920300000000001
 30
0.0
 10
6.0452000000000004
 20
-18.138400000000001
 30
0.0
 10
6.0452000000000004
 20
-18.138400000000001
 30
0.0
 10
6.2778
 20
-17.638200000000001
 30
0.0
 10
6.8797000000000006
 20
-17.396900000000002
 30
0.0
 10
7.3738000000000001
 20
-17.151600000000002
 30
0.0
 10
7.3738000000000001
 20
-17.151600000000002
 30
0.0
 10
7.8986000000000001
 20
-16.891000000000002
 30
0.0
 10
8.4737000000000009
 20
-16.5839
 30
0.0
 10
9.0567000000000011
 20
-16.642900000000001
 30
0.0
 10
9.0567000000000011
 20
-16.642900000000001
 30
0.0
 10
10.9329
 20
-16.833000000000002
 30
0.0
 10
12.7844
 20
-17.2942
 30
0.0
 10
14.5763
 20
-17.881900000000002
 30
0.0
 10
14.5763
 20
-17.881900000000002
 30
0.0
 10
16.926500000000001
 20
-18.653100000000002
 30
0.0
 10
19.041399999999999
 20
-20.098400000000002
 30
0.0
 10
21.439500000000002
 20
-20.7042
 30
0.0
 10
21.439500000000002
 20
-20.7042
 30
0.0
 10
23.078100000000003
 20
-21.118200000000002
 30
0.0
 10
24.922800000000002
 20
-21.486599999999999
 30
0.0
 10
26.506700000000002
 20
-20.896700000000003
 30
0.0
 10
26.506700000000002
 20
-20.896700000000003
 30
0.0
 10
27.448400000000003
 20
-20.5459
 30
0.0
 10
27.751000000000001
 20
-19.245000000000001
 30
0.0
 10
27.982100000000003
 20
-18.2669
 30
0.0
 10
27.982100000000003
 20
-18.2669
 30
0.0
 10
28.406000000000002
 20
-16.471500000000002
 30
0.0
 10
28.281400000000001
 20
-14.589400000000001
 30
0.0
 10
28.430900000000001
 20
-12.7508
 30
0.0
 10
28.430900000000001
 20
-12.7508
 30
0.0
 10
28.580500000000001
 20
-10.911800000000001
 30
0.0
 10
28.1433
 20
-4.5417000000000005
 30
0.0
 10
28.1433
 20
-4.5417000000000005
 30
0.0
 10
28.1433
 20
-4.5417000000000005
 30
0.0
 10
25.834300000000002
 20
-2.4039000000000001
 30
0.0
 10
22.5319
 20
1.2328000000000001
 30
0.0
 10
20.092500000000001
 20
3.2207000000000003
 30
0.0
 10
20.092500000000001
 20
3.2207000000000003
 30
0.0
 10
17.6691
 20
5.1961000000000004
 30
0.0
 10
14.938400000000001
 20
6.7673000000000005
 30
0.0
 10
12.4594
 20
8.673
 30
0.0
 10
12.4594
 20
8.673
 30
0.0
 10
10.9573
 20
9.8277000000000001
 30
0.0
 10
9.4749999999999996
 20
11.027100000000001
 30
0.0
 10
8.161900000000001
 20
12.3933
 30
0.0
 10
8.161900000000001
 20
12.3933
 30
0.0
 10
7.3439000000000005
 20
13.244400000000001
 30
0.0
 10
6.6896000000000004
 20
14.2514
 30
0.0
 10
6.1097000000000001
 20
15.2796
 30
0.0
 10
6.1097000000000001
 20
15.2796
 30
0.0
 10
5.7406000000000006
 20
15.933800000000002
 30
0.0
 10
5.2677000000000005
 20
16.6492
 30
0.0
 10
5.3397000000000006
 20
17.3964
 30
0.0
 10
5.3397000000000006
 20
17.3964
 30
0.0
 10
5.3917999999999999
 20
17.9389
 30
0.0
 10
5.8853
 20
18.601900000000001
 30
0.0
 10
6.4302000000000001
 20
18.615100000000002
 30
0.0
 10
6.4302000000000001
 20
18.615100000000002
 30
0.0
 10
7.8663000000000007
 20
18.650000000000002
 30
0.0
 10
9.2663000000000011
 20
18.0595
 30
0.0
 10
10.599400000000001
 20
17.5246
 30
0.0
 10
10.599400000000001
 20
17.5246
 30
0.0
 10
12.747300000000001
 20
16.6631
 30
0.0
 10
14.776000000000002
 20
15.527900000000001
 30
0.0
 10
16.821200000000001
 20
14.4459
 30
0.0
 10
16.821200000000001
 20
14.4459
 30
0.0
 10
18.455000000000002
 20
13.5816
 30
0.0
 10
20.043500000000002
 20
12.633000000000001
 30
0.0
 10
21.631800000000002
 20
11.687700000000001
 30
0.0
 10
21.631800000000002
 20
11.687700000000001
 30
0.0
 10
23.6358
 20
10.4948
 30
0.0
 10
25.535900000000002
 20
9.1227999999999998
 30
0.0
 10
27.597200000000001
 20
8.0317000000000007
 30
0.0
 10
27.597200000000001
 20
8.0317000000000007
 30
0.0
 10
28.101400000000002
 20
7.7646000000000006
 30
0.0
 10
28.897200000000002
 20
7.2103000000000002
 30
0.0
 10
29.264900000000001
 20
7.6465000000000005
 30
0.0
 10
29.264900000000001
 20
7.6465000000000005
 30
0.0
 10
29.6356
 20
8.0869
 30
0.0
 10
29.104000000000003
 20
8.9334000000000007
 30
0.0
 10
28.6236
 20
9.2504000000000008
 30
0.0
 10
28.6236
 20
9.2504000000000008
 30
0.0
 10
23.110300000000002
 20
12.885900000000001
 30
0.0
 10
17.115100000000002
 20
15.746400000000001
 30
0.0
 10
11.5616
 20
19.320500000000003
 30
0.0
 10
11.5616
 20
19.320500000000003
 30
0.0
 10
10.607900000000001
 20
19.9343
 30
0.0
 10
9.9032999999999998
 20
20.8781
 30
0.0
 10
9.1882999999999999
 20
21.758100000000002
 30
0.0
 10
9.1882999999999999
 20
21.758100000000002
 30
0.0
 10
8.5077999999999996
 20
22.595600000000001
 30
0.0
 10
7.7833000000000006
 20
23.446200000000001
 30
0.0
 10
7.3922000000000008
 20
24.452000000000002
 30
0.0
 10
7.3922000000000008
 20
24.452000000000002
 30
0.0
 10
7.1599000000000004
 20
25.049800000000001
 30
0.0
 10
7.0574000000000003
 20
25.8291
 30
0.0
 10
7.3922000000000008
 20
26.3764
 30
0.0
 10
7.3922000000000008
 20
26.3764
 30
0.0
 10
7.7887000000000004
 20
27.024000000000001
 30
0.0
 10
8.5607000000000006
 20
27.523100000000003
 30
0.0
 10
9.3166000000000011
 20
27.594800000000003
 30
0.0
 10
9.3166000000000011
 20
27.594800000000003
 30
0.0
 10
10.4894
 20
27.706600000000002
 30
0.0
 10
11.694900000000001
 20
27.3476
 30
0.0
 10
12.7803
 20
26.889400000000002
 30
0.0
 10
12.7803
 20
26.889400000000002
 30
0.0
 10
15.018800000000001
 20
25.944400000000002
 30
0.0
 10
17.078700000000001
 20
24.6206
 30
0.0
 10
19.194600000000001
 20
23.425700000000003
 30
0.0
 10
19.194600000000001
 20
23.425700000000003
 30
0.0
 10
21.206099999999999
 20
22.2897
 30
0.0
 10
23.102800000000002
 20
20.949200000000001
 30
0.0
 10
25.159700000000001
 20
19.8979
 30
0.0
 10
25.159700000000001
 20
19.8979
 30
0.0
 10
26.002500000000001
 20
19.467200000000002
 30
0.0
 10
26.918200000000002
 20
19.143900000000002
 30
0.0
 10
27.8537
 20
18.9998
 30
0.0
 10
27.8537
 20
18.9998
 30
0.0
 10
28.100000000000001
 20
18.9621
 30
0.0
 10
28.709300000000002
 20
19.256800000000002
 30
0.0
 10
28.495100000000001
 20
19.384700000000002
 30
0.0
 10
28.495100000000001
 20
19.384700000000002
 30
0.0
 10
23.1311
 20
22.5901
 30
0.0
 10
17.4968
 20
25.322400000000002
 30
0.0
 10
12.0746
 20
28.428800000000003
 30
0.0
 10
12.0746
 20
28.428800000000003
 30
0.0
 10
11.332800000000001
 20
28.854200000000002
 30
0.0
 10
10.643000000000001
 20
29.380000000000003
 30
0.0
 10
10.0221
 20
29.968300000000003
 30
0.0
 10
10.0221
 20
29.968300000000003
 30
0.0
 10
9.4160000000000004
 20
30.542400000000001
 30
0.0
 10
8.8141999999999996
 20
31.1571
 30
0.0
 10
8.4184999999999999
 20
31.892600000000002
 30
0.0
 10
8.4184999999999999
 20
31.892600000000002
 30
0.0
 10
8.0496999999999996
 20
32.577600000000004
 30
0.0
 10
7.6986000000000008
 20
33.363300000000002
 30
0.0
 10
7.7772000000000006
 20
34.137599999999999
 30
0.0
 10
7.7772000000000006
 20
34.137599999999999
 30
0.0
 10
7.8395000000000001
 20
34.751000000000005
 30
0.0
 10
8.2495000000000012
 20
35.405799999999999
 30
0.0
 10
8.8033999999999999
 20
35.676900000000003
 30
0.0
 10
8.8033999999999999
 20
35.676900000000003
 30
0.0
 10
9.4756999999999998
 20
36.006300000000003
 30
0.0
 10
10.3352
 20
35.968400000000003
 30
0.0
 10
11.048400000000001
 20
35.741
 30
0.0
 10
11.048400000000001
 20
35.741
 30
0.0
 10
12.8072
 20
35.181000000000004
 30
0.0
 10
14.3931
 20
34.177800000000005
 30
0.0
 10
16.051600000000001
 20
33.367800000000003
 30
0.0
 10
16.051600000000001
 20
33.367800000000003
 30
0.0
 10
19.909400000000002
 20
31.483900000000002
 30
0.0
 10
23.678000000000001
 20
29.411900000000003
 30
0.0
 10
27.597200000000001
 20
27.659100000000002
 30
0.0
 10
27.597200000000001
 20
27.659100000000002
 30
0.0
 10
27.9679
 20
27.493300000000001
 30
0.0
 10
28.572100000000002
 20
27.334100000000003
 30
0.0
 10
28.815800000000003
 20
27.659100000000002
 30
0.0
 10
28.815800000000003
 20
27.659100000000002
 30
0.0
 10
29.077500000000001
 20
28.0078
 30
0.0
 10
28.938800000000001
 20
28.727
 30
0.0
 10
28.5593
 20
28.942
 30
0.0
 10
28.5593
 20
28.942
 30
0.0
 10
22.984300000000001
 20
32.098300000000002
 30
0.0
 10
16.996100000000002
 20
34.474600000000002
 30
0.0
 10
11.369100000000001
 20
37.537199999999999
 30
0.0
 10
11.369100000000001
 20
37.537199999999999
 30
0.0
 10
10.678700000000001
 20
37.912800000000004
 30
0.0
 10
10.1075
 20
38.531700000000001
 30
0.0
 10
9.7013999999999996
 20
39.204799999999999
 30
0.0
 10
9.7013999999999996
 20
39.204799999999999
 30
0.0
 10
9.2719000000000005
 20
39.916800000000002
 30
0.0
 10
8.9836000000000009
 20
40.7483
 30
0.0
 10
8.9317000000000011
 20
41.578000000000003
 30
0.0
 10
8.9317000000000011
 20
41.578000000000003
 30
0.0
 10
8.8941999999999997
 20
42.178800000000003
 30
0.0
 10
9.0662000000000003
 20
42.841900000000003
 30
0.0
 10
9.4450000000000003
 20
43.310100000000006
 30
0.0
 10
9.4450000000000003
 20
43.310100000000006
 30
0.0
 10
9.8486000000000011
 20
43.808700000000002
 30
0.0
 10
10.4727
 20
44.222900000000003
 30
0.0
 10
11.1126
 20
44.271900000000002
 30
0.0
 10
11.1126
 20
44.271900000000002
 30
0.0
 10
11.970800000000001
 20
44.338000000000001
 30
0.0
 10
12.814400000000001
 20
43.948500000000003
 30
0.0
 10
13.614100000000001
 20
43.630600000000001
 30
0.0
 10
13.614100000000001
 20
43.630600000000001
 30
0.0
 10
16.264900000000001
 20
42.576900000000002
 30
0.0
 10
18.811199999999999
 20
41.274900000000002
 30
0.0
 10
21.439500000000002
 20
40.166900000000005
 30
0.0
 10
21.439500000000002
 20
40.166900000000005
 30
0.0
 10
23.579900000000002
 20
39.264700000000005
 30
0.0
 10
25.646100000000001
 20
38.084700000000005
 30
0.0
 10
27.9178
 20
37.600999999999999
 30
0.0
 10
27.9178
 20
37.600999999999999
 30
0.0
 10
28.302100000000003
 20
37.519400000000005
 30
0.0
 10
28.721
 20
38.5212
 30
0.0
 10
28.366900000000001
 20
38.691800000000001
 30
0.0
 10
28.366900000000001
 20
38.691800000000001
 30
0.0
 10
23.1374
 20
41.210300000000004
 30
0.0
 10
17.433800000000002
 20
42.654000000000003
 30
0.0
 10
12.203000000000001
 20
45.170100000000005
 30
0.0
 10
12.203000000000001
 20
45.170100000000005
 30
0.0
 10
11.181000000000001
 20
45.6614
 30
0.0
 10
10.158100000000001
 20
46.689399999999999
 30
0.0
 10
9.4924999999999997
 20
47.607400000000005
 30
0.0
 10
9.4924999999999997
 20
47.607400000000005
 30
0.0
 10
8.9035000000000011
 20
48.420100000000005
 30
0.0
 10
8.482800000000001
 20
49.297499999999999
 30
0.0
 10
8.482800000000001
 20
50.301300000000005
 30
0.0
 10
8.482800000000001
 20
50.301300000000005
 30
0.0
 10
8.482800000000001
 20
50.999300000000005
 30
0.0
 10
9.1725000000000012
 20
51.670200000000001
 30
0.0
 10
9.8295000000000012
 20
51.904900000000005
 30
0.0
 10
9.8295000000000012
 20
51.904900000000005
 30
0.0
 10
10.8162
 20
52.257200000000005
 30
0.0
 10
11.929
 20
51.995699999999999
 30
0.0
 10
12.972700000000001
 20
51.904900000000005
 30
0.0
 10
12.972700000000001
 20
51.904900000000005
 30
0.0
 10
14.394600000000001
 20
51.781400000000005
 30
0.0
 10
15.820400000000001
 20
51.605400000000003
 30
0.0
 10
17.2058
 20
51.263500000000001
 30
0.0
 10
17.2058
 20
51.263500000000001
 30
0.0
 10
19.123100000000001
 20
50.790600000000005
 30
0.0
 10
20.972300000000001
 20
50.075800000000001
 30
0.0
 10
22.8507
 20
49.467500000000001
 30
0.0
 10
22.8507
 20
49.467500000000001
 30
0.0
 10
24.735100000000003
 20
48.857199999999999
 30
0.0
 10
26.5533
 20
47.999200000000002
 30
0.0
 10
28.495100000000001
 20
47.607400000000005
 30
0.0
 10
28.495100000000001
 20
47.607400000000005
 30
0.0
 10
28.869900000000001
 20
47.5319
 30
0.0
 10
29.675000000000001
 20
47.770200000000003
 30
0.0
 10
29.5214
 20
48.120400000000004
 30
0.0
 10
29.5214
 20
48.120400000000004
 30
0.0
 10
29.192300000000003
 20
48.873000000000005
 30
0.0
 10
28.313100000000002
 20
49.2575
 30
0.0
 10
27.597200000000001
 20
49.6599
 30
0.0
 10
27.597200000000001
 20
49.6599
 30
0.0
 10
22.593900000000001
 20
52.470800000000004
 30
0.0
 10
17.311600000000002
 20
54.780799999999999
 30
0.0
 10
12.3956
 20
57.741800000000005
 30
0.0
 10
12.3956
 20
57.741800000000005
 30
0.0
 10
11.714
 20
58.152200000000001
 30
0.0
 10
11.296100000000001
 20
58.9345
 30
0.0
 10
10.984300000000001
 20
59.6663
 30
0.0
 10
10.984300000000001
 20
59.6663
 30
0.0
 10
10.722200000000001
 20
60.280900000000003
 30
0.0
 10
10.338000000000001
 20
61.111800000000002
 30
0.0
 10
10.7278
 20
61.654600000000002
 30
0.0
 10
10.7278
 20
61.654600000000002
 30
0.0
 10
11.139100000000001
 20
62.227600000000002
 30
0.0
 10
12.1883
 20
62.583500000000001
 30
0.0
 10
12.8926
 20
62.617100000000001
 30
0.0
 10
12.8926
 20
62.617100000000001
 30
0.0
 10
14.006300000000001
 20
62.669900000000005
 30
0.0
 10
15.1196
 20
62.367900000000006
 30
0.0
 10
16.1158
 20
61.911100000000005
 30
0.0
 10
16.1158
 20
61.911100000000005
 30
0.0
 10
17.096900000000002
 20
61.461300000000001
 30
0.0
 10
18.269400000000001
 20
61.698
 30
0.0
 10
19.322800000000001
 20
61.462200000000003
 30
0.0
 10
19.322800000000001
 20
61.462200000000003
 30
0.0
 10
21.139900000000001
 20
61.055300000000003
 30
0.0
 10
22.966200000000001
 20
60.6374
 30
0.0
 10
24.711000000000002
 20
59.987200000000001
 30
0.0
 10
24.711000000000002
 20
59.987200000000001
 30
0.0
 10
26.763300000000001
 20
59.221800000000002
 30
0.0
 10
28.590300000000003
 20
57.898400000000002
 30
0.0
 10
30.676100000000002
 20
57.2288
 30
0.0
 10
30.676100000000002
 20
57.2288
 30
0.0
 10
31.040200000000002
 20
57.111700000000006
 30
0.0
 10
31.556100000000001
 20
57.388600000000004
 30
0.0
 10
31.702400000000001
 20
57.741800000000005
 30
0.0
 10
31.702400000000001
 20
57.741800000000005
 30
0.0
 10
31.876900000000003
 20
58.164000000000001
 30
0.0
 10
31.775000000000002
 20
58.772100000000002
 30
0.0
 10
31.445800000000002
 20
59.088800000000006
 30
0.0
 10
31.445800000000002
 20
59.088800000000006
 30
0.0
 10
30.012600000000003
 20
60.467600000000004
 30
0.0
 10
27.994900000000001
 20
61.165700000000001
 30
0.0
 10
26.635000000000002
 20
62.616800000000005
 30
0.0
 10
26.635000000000002
 20
62.616800000000005
 30
0.0
 10
25.086200000000002
 20
64.269599999999997
 30
0.0
 10
23.909200000000002
 20
66.258499999999998
 30
0.0
 10
22.8507
 20
68.261300000000006
 30
0.0
 10
22.8507
 20
68.261300000000006
 30
0.0
 10
21.8781
 20
70.101100000000002
 30
0.0
 10
21.066400000000002
 20
72.052900000000008
 30
0.0
 10
20.5777
 20
74.075800000000001
 30
0.0
 10
20.5777
 20
74.075800000000001
 30
0.0
 10
20.296500000000002
 20
75.240499999999997
 30
0.0
 10
20.238400000000002
 20
76.521500000000003
 30
0.0
 10
20.5777
 20
77.671000000000006
 30
0.0
 10
20.5777
 20
77.671000000000006
 30
0.0
 10
20.765499999999999
 20
78.306600000000003
 30
0.0
 10
21.401400000000002
 20
78.837100000000007
 30
0.0
 10
22.038399999999999
 20
79.019199999999998
 30
0.0
 10
22.038399999999999
 20
79.019199999999998
 30
0.0
 10
22.8339
 20
79.246400000000008
 30
0.0
 10
23.731400000000001
 20
79.072699999999998
 30
0.0
 10
24.510200000000001
 20
78.794499999999999
 30
0.0
 10
24.510200000000001
 20
78.794499999999999
 30
0.0
 10
25.351500000000001
 20
78.494100000000003
 30
0.0
 10
26.058300000000003
 20
77.890100000000004
 30
0.0
 10
26.757400000000001
 20
77.3339
 30
0.0
 10
26.757400000000001
 20
77.3339
 30
0.0
 10
27.711500000000001
 20
76.57480000000001
 30
0.0
 10
28.571400000000001
 20
75.703600000000009
 30
0.0
 10
29.453800000000001
 20
74.862099999999998
 30
0.0
 10
29.453800000000001
 20
74.862099999999998
 30
0.0
 10
31.0062
 20
73.38130000000001
 30
0.0
 10
32.685000000000002
 20
72.014200000000002
 30
0.0
 10
34.060400000000001
 20
70.368000000000009
 30
0.0
 10
34.060400000000001
 20
70.368000000000009
 30
0.0
 10
35.1723
 20
69.036500000000004
 30
0.0
 10
35.714800000000004
 20
67.281199999999998
 30
0.0
 10
36.869199999999999
 20
65.986000000000004
 30
0.0
 10
36.869199999999999
 20
65.986000000000004
 30
0.0
 10
37.304000000000002
 20
65.497900000000001
 30
0.0
 10
38.0672
 20
64.938800000000001
 30
0.0
 10
38.667000000000002
 20
65.1995
 30
0.0
 10
38.667000000000002
 20
65.1995
 30
0.0
 10
39.298200000000001
 20
65.4739
 30
0.0
 10
39.612400000000001
 20
66.439700000000002
 30
0.0
 10
39.453200000000002
 20
67.1096
 30
0.0
 10
39.453200000000002
 20
67.1096
 30
0.0
 10
38.678200000000004
 20
70.372100000000003
 30
0.0
 10
36.558199999999999
 20
73.245699999999999
 30
0.0
 10
35.970100000000002
 20
76.54740000000001
 30
0.0
 10
35.970100000000002
 20
76.54740000000001
 30
0.0
 10
35.562100000000001
 20
78.840600000000009
 30
0.0
 10
36.034500000000001
 20
81.237700000000004
 30
0.0
 10
36.532200000000003
 20
83.513400000000004
 30
0.0
 10
36.532200000000003
 20
83.513400000000004
 30
0.0
 10
36.832700000000003
 20
84.888100000000009
 30
0.0
 10
37.385000000000005
 20
86.290199999999999
 30
0.0
 10
38.329799999999999
 20
87.333399999999997
 30
0.0
 10
38.329799999999999
 20
87.333399999999997
 30
0.0
 10
39.265300000000003
 20
88.366500000000002
 30
0.0
 10
40.531700000000001
 20
89.441400000000002
 30
0.0
 10
41.925200000000004
 20
89.46820000000001
 30
0.0
 10
41.925200000000004
 20
89.46820000000001
 30
0.0
 10
42.932700000000004
 20
89.487400000000008
 30
0.0
 10
43.619399999999999
 20
88.28840000000001
 30
0.0
 10
44.172200000000004
 20
87.445800000000006
 30
0.0
 10
44.172200000000004
 20
87.445800000000006
 30
0.0
 10
45.219900000000003
 20
85.84920000000001
 30
0.0
 10
46.051300000000005
 20
84.092800000000011
 30
0.0
 10
46.643900000000002
 20
82.277600000000007
 30
0.0
 10
46.643900000000002
 20
82.277600000000007
 30
0.0
 10
47.259800000000006
 20
80.392200000000003
 30
0.0
 10
47.436
 20
78.390200000000007
 30
0.0
 10
47.767600000000002
 20
76.435100000000006
 30
0.0
 10
47.767600000000002
 20
76.435100000000006
 30
0.0
 10
48.1479
 20
74.194800000000001
 30
0.0
 10
47.984500000000004
 20
71.822600000000008
 30
0.0
 10
48.778800000000004
 20
69.693899999999999
 30
0.0
 10
48.778800000000004
 20
69.693899999999999
 30
0.0
 10
49.007300000000001
 20
69.081100000000006
 30
0.0
 10
49.986900000000006
 20
68.624400000000009
 30
0.0
 10
50.576500000000003
 20
68.90740000000001
 30
0.0
 10
50.576500000000003
 20
68.90740000000001
 30
0.0
 10
51.286300000000004
 20
69.248100000000008
 30
0.0
 10
51.4878
 20
70.260900000000007
 30
0.0
 10
51.587900000000005
 20
71.042000000000002
 30
0.0
 10
51.587900000000005
 20
71.042000000000002
 30
0.0
 10
51.906000000000006
 20
73.531999999999996
 30
0.0
 10
51.251000000000005
 20
76.1233
 30
0.0
 10
51.8125
 20
78.569800000000001
 30
0.0
 10
51.8125
 20
78.569800000000001
 30
0.0
 10
52.322000000000003
 20
80.790199999999999
 30
0.0
 10
53.2667
 20
83.005899999999997
 30
0.0
 10
54.733600000000003
 20
84.749099999999999
 30
0.0
 10
54.733600000000003
 20
84.749099999999999
 30
0.0
 10
55.957700000000003
 20
86.2042
 30
0.0
 10
57.7256
 20
87.300200000000004
 30
0.0
 10
59.564800000000005
 20
87.782600000000002
 30
0.0
 10
59.564800000000005
 20
87.782600000000002
 30
0.0
 10
60.922700000000006
 20
88.139200000000002
 30
0.0
 10
63.004900000000006
 20
88.315600000000003
 30
0.0
 10
63.722000000000001
 20
87.108699999999999
 30
0.0
 10
63.722000000000001
 20
87.108699999999999
 30
0.0
 10
64.929699999999997
 20
85.0762
 30
0.0
 10
64.4529
 20
82.377800000000008
 30
0.0
 10
64.171400000000006
 20
80.0304
 30
0.0
 10
64.171400000000006
 20
80.0304
 30
0.0
 10
63.882000000000005
 20
77.619100000000003
 30
0.0
 10
62.932100000000005
 20
75.321700000000007
 30
0.0
 10
62.036799999999999
 20
73.0642
 30
0.0
 10
62.036799999999999
 20
73.0642
 30
0.0
 10
61.128800000000005
 20
70.775900000000007
 30
0.0
 10
59.289200000000001
 20
68.843900000000005
 30
0.0
 10
58.778500000000001
 20
66.435500000000005
 30
0.0
 10
58.778500000000001
 20
66.435500000000005
 30
0.0
 10
58.649800000000006
 20
65.829099999999997
 30
0.0
 10
60.047600000000003
 20
65.189599999999999
 30
0.0
 10
60.463800000000006
 20
65.649000000000001
 30
0.0
 10
60.463800000000006
 20
65.649000000000001
 30
0.0
 10
61.505700000000004
 20
66.798900000000003
 30
0.0
 10
61.272000000000006
 20
68.680400000000006
 30
0.0
 10
62.036799999999999
 20
70.03070000000001
 30
0.0
 10
62.036799999999999
 20
70.03070000000001
 30
0.0
 10
63.051600000000001
 20
71.823099999999997
 30
0.0
 10
64.245900000000006
 20
73.56110000000001
 30
0.0
 10
65.744200000000006
 20
74.974299999999999
 30
0.0
 10
65.744200000000006
 20
74.974299999999999
 30
0.0
 10
67.581100000000006
 20
76.706900000000005
 30
0.0
 10
69.609400000000008
 20
78.346500000000006
 30
0.0
 10
71.923699999999997
 20
79.356099999999998
 30
0.0
 10
71.923699999999997
 20
79.356099999999998
 30
0.0
 10
73.836799999999997
 20
80.190899999999999
 30
0.0
 10
76.032300000000006
 20
80.626100000000008
 30
0.0
 10
78.103499999999997
 20
80.367400000000004
 30
0.0
 10
78.103499999999997
 20
80.367400000000004
 30
0.0
 10
79.023600000000002
 20
80.252499999999998
 30
0.0
 10
79.838800000000006
 20
79.255600000000001
 30
0.0
 10
80.013199999999998
 20
78.344800000000006
 30
0.0
 10
80.013199999999998
 20
78.344800000000006
 30
0.0
 10
80.225200000000001
 20
77.238500000000002
 30
0.0
 10
79.705600000000004
 20
76.045700000000011
 30
0.0
 10
79.114699999999999
 20
75.086799999999997
 30
0.0
 10
79.114699999999999
 20
75.086799999999997
 30
0.0
 10
77.687700000000007
 20
72.771299999999997
 30
0.0
 10
75.821600000000004
 20
70.753200000000007
 30
0.0
 10
74.058700000000002
 20
68.682500000000005
 30
0.0
 10
74.058700000000002
 20
68.682500000000005
 30
0.0
 10
71.961799999999997
 20
66.219499999999996
 30
0.0
 10
69.336300000000008
 20
64.183199999999999
 30
0.0
 10
67.542000000000002
 20
61.491900000000001
 30
0.0
 10
67.542000000000002
 20
61.491900000000001
 30
0.0
 10
67.179400000000001
 20
60.947700000000005
 30
0.0
 10
67.438400000000001
 20
59.930900000000001
 30
0.0
 10
67.991200000000006
 20
59.581900000000005
 30
0.0
 10
67.991200000000006
 20
59.581900000000005
 30
0.0
 10
68.492000000000004
 20
59.265800000000006
 30
0.0
 10
69.261200000000002
 20
59.721800000000002
 30
0.0
 10
69.6768
 20
60.1434
 30
0.0
 10
69.6768
 20
60.1434
 30
0.0
 10
71.712299999999999
 20
62.211000000000006
 30
0.0
 10
73.130700000000004
 20
64.833399999999997
 30
0.0
 10
75.182100000000005
 20
66.884900000000002
 30
0.0
 10
75.182100000000005
 20
66.884900000000002
 30
0.0
 10
76.601500000000001
 20
68.304299999999998
 30
0.0
 10
78.168199999999999
 20
69.689599999999999
 30
0.0
 10
80.013199999999998
 20
70.4803
 30
0.0
 10
80.013199999999998
 20
70.4803
 30
0.0
 10
81.93780000000001
 20
71.304900000000004
 30
0.0
 10
84.101100000000002
 20
71.514800000000008
 30
0.0
 10
86.192999999999998
 20
71.60390000000001
 30
0.0
 10
86.192999999999998
 20
71.60390000000001
 30
0.0
 10
87.66940000000001
 20
71.666600000000003
 30
0.0
 10
89.379500000000007
 20
71.798600000000008
 30
0.0
 10
90.574700000000007
 20
70.929600000000008
 30
0.0
 10
90.574700000000007
 20
70.929600000000008
 30
0.0
 10
91.37660000000001
 20
70.346500000000006
 30
0.0
 10
91.531000000000006
 20
68.918000000000006
 30
0.0
 10
91.136499999999998
 20
68.008300000000006
 30
0.0
 10
91.136499999999998
 20
68.008300000000006
 30
0.0
 10
90.451300000000003
 20
66.427300000000002
 30
0.0
 10
88.937700000000007
 20
65.337299999999999
 30
0.0
 10
87.653700000000001
 20
64.188100000000006
 30
0.0
 10
87.653700000000001
 20
64.188100000000006
 30
0.0
 10
83.947800000000001
 20
60.872700000000002
 30
0.0
 10
79.772199999999998
 20
58.090300000000006
 30
0.0
 10
76.193300000000008
 20
54.638100000000001
 30
0.0
 10
76.193300000000008
 20
54.638100000000001
 30
0.0
 10
75.481700000000004
 20
53.952000000000005
 30
0.0
 10
74.019300000000001
 20
52.254400000000004
 30
0.0
 10
74.95750000000001
 20
51.941500000000005
 30
0.0
 10
74.95750000000001
 20
51.941500000000005
 30
0.0
 10
76.324600000000004
 20
51.4861
 30
0.0
 10
77.651600000000002
 20
53.0015
 30
0.0
 10
78.889800000000008
 20
53.7395
 30
0.0
 10
78.889800000000008
 20
53.7395
 30
0.0
 10
81.183300000000003
 20
55.105800000000002
 30
0.0
 10
83.22120000000001
 20
56.874200000000002
 30
0.0
 10
85.51870000000001
 20
58.233499999999999
 30
0.0
 10
85.51870000000001
 20
58.233499999999999
 30
0.0
 10
87.724100000000007
 20
59.538400000000003
 30
0.0
 10
89.009799999999998
 20
60.114000000000004
 30
0.0
 10
91.474000000000004
 20
60.818100000000001
 30
0.0
 10
91.474000000000004
 20
60.818100000000001
 30
0.0
 10
92.810600000000008
 20
61.200000000000003
 30
0.0
 10
94.471699999999998
 20
61.859500000000004
 30
0.0
 10
96.529499999999999
 20
61.379400000000004
 30
0.0
 10
96.529499999999999
 20
61.379400000000004
 30
0.0
 10
97.623699999999999
 20
61.124200000000002
 30
0.0
 10
99.019000000000005
 20
60.461400000000005
 30
0.0
 10
99.226200000000006
 20
59.356999999999999
 30
0.0
 10
99.226200000000006
 20
59.356999999999999
 30
0.0
 10
99.45750000000001
 20
58.122400000000006
 30
0.0
 10
98.517300000000006
 20
56.776500000000006
 30
0.0
 10
97.540599999999998
 20
55.986499999999999
 30
0.0
 10
97.540599999999998
 20
55.986499999999999
 30
0.0
 10
95.834500000000006
 20
54.606200000000001
 30
0.0
 10
93.507199999999997
 20
54.238
 30
0.0
 10
91.585800000000006
 20
53.177500000000002
 30
0.0
 10
91.585800000000006
 20
53.177500000000002
 30
0.0
 10
87.734000000000009
 20
51.051600000000001
 30
0.0
 10
83.749800000000008
 20
49.0867
 30
0.0
 10
80.238100000000003
 20
46.436300000000003
 30
0.0
 10
80.238100000000003
 20
46.436300000000003
 30
0.0
 10
79.621800000000007
 20
45.971200000000003
 30
0.0
 10
79.482700000000008
 20
44.936500000000002
 30
0.0
 10
79.676200000000009
 20
44.1892
 30
0.0
 10
79.676200000000009
 20
44.1892
 30
0.0
 10
79.80680000000001
 20
43.685600000000001
 30
0.0
 10
80.550899999999999
 20
43.1875
 30
0.0
 10
81.0244
 20
43.402799999999999
 30
0.0
 10
81.0244
 20
43.402799999999999
 30
0.0
 10
85.710599999999999
 20
45.532700000000006
 30
0.0
 10
89.752300000000005
 20
48.959400000000002
 30
0.0
 10
94.507000000000005
 20
50.930400000000006
 30
0.0
 10
94.507000000000005
 20
50.930400000000006
 30
0.0
 10
97.072299999999998
 20
51.993500000000004
 30
0.0
 10
99.124200000000002
 20
51.6374
 30
0.0
 10
101.9002
 20
51.582500000000003
 30
0.0
 10
101.9002
 20
51.582500000000003
 30
0.0
 10
103.0899
 20
51.559100000000001
 30
0.0
 10
105.34180000000001
 20
51.779200000000003
 30
0.0
 10
105.85510000000001
 20
50.7059
 30
0.0
 10
105.85510000000001
 20
50.7059
 30
0.0
 10
106.36500000000001
 20
49.639300000000006
 30
0.0
 10
106.05340000000001
 20
48.020900000000005
 30
0.0
 10
105.1808
 20
47.222799999999999
 30
0.0
 10
105.1808
 20
47.222799999999999
 30
0.0
 10
102.7539
 20
45.0032
 30
0.0
 10
99.587100000000007
 20
43.743100000000005
 30
0.0
 10
96.641800000000003
 20
42.279200000000003
 30
0.0
 10
96.641800000000003
 20
42.279200000000003
 30
0.0
 10
93.172000000000011
 20
40.554500000000004
 30
0.0
 10
89.354100000000003
 20
39.557300000000005
 30
0.0
 10
85.96820000000001
 20
37.672600000000003
 30
0.0
 10
85.96820000000001
 20
37.672600000000003
 30
0.0
 10
85.27770000000001
 20
37.288600000000002
 30
0.0
 10
84.66940000000001
 20
36.437800000000003
 30
0.0
 10
84.732200000000006
 20
35.650300000000001
 30
0.0
 10
84.732200000000006
 20
35.650300000000001
 30
0.0
 10
84.776300000000006
 20
35.099299999999999
 30
0.0
 10
85.684200000000004
 20
34.647300000000001
 30
0.0
 10
86.192999999999998
 20
34.863700000000001
 30
0.0
 10
86.192999999999998
 20
34.863700000000001
 30
0.0
 10
90.463000000000008
 20
36.683900000000001
 30
0.0
 10
94.131700000000009
 20
39.7639
 30
0.0
 10
98.439700000000002
 20
41.492699999999999
 30
0.0
 10
98.439700000000002
 20
41.492699999999999
 30
0.0
 10
99.935600000000008
 20
42.093200000000003
 30
0.0
 10
101.6588
 20
41.732900000000001
 30
0.0
 10
103.27080000000001
 20
41.717500000000001
 30
0.0
 10
103.27080000000001
 20
41.717500000000001
 30
0.0
 10
105.52070000000001
 20
41.695500000000003
 30
0.0
 10
107.98020000000001
 20
42.346400000000003
 30
0.0
 10
110.0124
 20
41.380500000000005
 30
0.0
 10
110.0124
 20
41.380500000000005
 30
0.0
 10
110.8922
 20
40.961800000000004
 30
0.0
 10
110.8438
 20
39.116199999999999
 30
0.0
 10
110.12430000000001
 20
38.459499999999998
 30
0.0
 10
110.12430000000001
 20
38.459499999999998
 30
0.0
 10
107.093
 20
35.691400000000002
 30
0.0
 10
103.30980000000001
 20
33.850500000000004
 30
0.0
 10
99.6755
 20
31.942700000000002
 30
0.0
 10
99.6755
 20
31.942700000000002
 30
0.0
 10
96.509799999999998
 20
30.281100000000002
 30
0.0
 10
92.825200000000009
 20
29.671700000000001
 30
0.0
 10
89.788300000000007
 20
27.785700000000002
 30
0.0
 10
89.788300000000007
 20
27.785700000000002
 30
0.0
 10
89.05380000000001
 20
27.3293
 30
0.0
 10
88.186999999999998
 20
25.023900000000001
 30
0.0
 10
89.001800000000003
 20
25.3139
 30
0.0
 10
89.001800000000003
 20
25.3139
 30
0.0
 10
93.956500000000005
 20
27.077300000000001
 30
0.0
 10
98.188100000000006
 20
30.4893
 30
0.0
 10
103.04610000000001
 20
32.504400000000004
 30
0.0
 10
103.04610000000001
 20
32.504400000000004
 30
0.0
 10
104.83760000000001
 20
33.247199999999999
 30
0.0
 10
106.83710000000001
 20
33.475300000000004
 30
0.0
 10
108.7762
 20
33.515599999999999
 30
0.0
 10
108.7762
 20
33.515599999999999
 30
0.0
 10
110.4813
 20
33.551000000000002
 30
0.0
 10
112.2762
 20
33.428000000000004
 30
0.0
 10
113.83210000000001
 20
32.728999999999999
 30
0.0
 10
113.83210000000001
 20
32.728999999999999
 30
0.0
 10
114.3623
 20
32.491
 30
0.0
 10
114.5723
 20
31.5471
 30
0.0
 10
114.28160000000001
 20
31.043800000000001
 30
0.0
 10
114.28160000000001
 20
31.043800000000001
 30
0.0
 10
113.4867
 20
29.667900000000003
 30
0.0
 10
112.25670000000001
 20
28.517600000000002
 30
0.0
 10
110.91090000000001
 20
27.673000000000002
 30
0.0
 10
110.91090000000001
 20
27.673000000000002
 30
0.0
 10
104.87490000000001
 20
23.885300000000001
 30
0.0
 10
98.239400000000003
 20
21.099500000000003
 30
0.0
 10
92.260000000000005
 20
17.224299999999999
 30
0.0
 10
92.260000000000005
 20
17.224299999999999
 30
0.0
 10
91.863100000000003
 20
16.9665
 30
0.0
 10
91.931100000000001
 20
15.742600000000001
 30
0.0
 10
92.343699999999998
 20
15.973500000000001
 30
0.0
 10
92.343699999999998
 20
15.973500000000001
 30
0.0
 10
98.223200000000006
 20
19.2668
 30
0.0
 10
104.4629
 20
22.672700000000003
 30
0.0
 10
110.34320000000001
 20
25.964300000000001
 30
0.0
 10
110.34320000000001
 20
25.964300000000001
 30
0.0
 10
112.34490000000001
 20
27.084900000000001
 30
0.0
 10
114.26740000000001
 20
27.9117
 30
0.0
 10
116.5509
 20
28.138300000000001
 30
0.0
 10
116.5509
 20
28.138300000000001
 30
0.0
 10
117.27370000000001
 20
28.2102
 30
0.0
 10
118.62860000000001
 20
26.494500000000002
 30
0.0
 10
118.3486
 20
25.824200000000001
 30
0.0
 10
118.3486
 20
25.824200000000001
 30
0.0
 10
117.32130000000001
 20
23.363800000000001
 30
0.0
 10
115.2557
 20
22.530000000000001
 30
0.0
 10
113.4051
 20
20.610700000000001
 30
0.0
 10
113.4051
 20
20.610700000000001
 30
0.0
 10
108.20310000000001
 20
15.215
 30
0.0
 10
101.60650000000001
 20
11.6822
 30
0.0
 10
96.866700000000009
 20
5.8763000000000005
 30
0.0
 10
96.866700000000009
 20
5.8763000000000005
 30
0.0
 10
95.151200000000003
 20
3.7751000000000001
 30
0.0
 10
94.093500000000006
 20
0.9492
 30
0.0
 10
94.057600000000008
 20
-1.7639
 30
0.0
 10
94.057600000000008
 20
-1.7639
 30
0.0
 10
93.9726
 20
-8.2210999999999999
 30
0.0
 10
93.9636
 20
-10.3353
 30
0.0
 10
97.091400000000007
 20
-15.920400000000001
 30
0.0
 10
97.091400000000007
 20
-15.920400000000001
 30
0.0
 10
98.015000000000001
 20
-17.57
 30
0.0
 10
100.9422
 20
-15.806800000000001
 30
0.0
 10
102.7089
 20
-15.133700000000001
 30
0.0
 10
102.7089
 20
-15.133700000000001
 30
0.0
 10
105.73100000000001
 20
-13.982900000000001
 30
0.0
 10
108.2218
 20
-11.6684
 30
0.0
 10
111.248
 20
-10.5275
 30
0.0
 10
111.248
 20
-10.5275
 30
0.0
 10
112.8694
 20
-9.9161000000000001
 30
0.0
 10
114.77000000000001
 20
-9.4245999999999999
 30
0.0
 10
116.41640000000001
 20
-9.9656000000000002
 30
0.0
 10
116.41640000000001
 20
-9.9656000000000002
 30
0.0
 10
117.7282
 20
-10.3969
 30
0.0
 10
119.1271
 20
-11.730500000000001
 30
0.0
 10
119.11280000000001
 20
-13.111700000000001
 30
0.0
 10
119.11280000000001
 20
-13.111700000000001
 30
0.0
 10
119.08450000000001
 20
-15.8246
 30
0.0
 10
117.80880000000001
 20
-18.494
 30
0.0
 10
116.3039
 20
-20.7517
 30
0.0
 10
116.3039
 20
-20.7517
 30
0.0
 10
114.0694
 20
-24.1037
 30
0.0
 10
110.34580000000001
 20
-26.2822
 30
0.0
 10
108.10210000000001
 20
-29.627700000000001
 30
0.0
 10
108.10210000000001
 20
-29.627700000000001
 30
0.0
 10
106.0942
 20
-32.621700000000004
 30
0.0
 10
104.51920000000001
 20
-35.999600000000001
 30
0.0
 10
103.72020000000001
 20
-39.514900000000004
 30
0.0
 10
103.72020000000001
 20
-39.514900000000004
 30
0.0
 10
102.98960000000001
 20
-42.728900000000003
 30
0.0
 10
103.3677
 20
-46.115000000000002
 30
0.0
 10
103.60810000000001
 20
-49.402000000000001
 30
0.0
 10
103.60810000000001
 20
-49.402000000000001
 30
0.0
 10
103.8562
 20
-52.804200000000002
 30
0.0
 10
104.84580000000001
 20
-56.119400000000006
 30
0.0
 10
105.1808
 20
-59.5139
 30
0.0
 10
105.1808
 20
-59.5139
 30
0.0
 10
105.4089
 20
-61.825000000000003
 30
0.0
 10
105.8493
 20
-64.225400000000008
 30
0.0
 10
105.2933
 20
-66.480000000000004
 30
0.0
 10
105.2933
 20
-66.480000000000004
 30
0.0
 10
105.09660000000001
 20
-67.278700000000001
 30
0.0
 10
103.98020000000001
 20
-67.740400000000008
 30
0.0
 10
103.15860000000001
 20
-67.715800000000002
 30
0.0
 10
103.15860000000001
 20
-67.715800000000002
 30
0.0
 10
95.044700000000006
 20
-67.474199999999996
 30
0.0
 10
86.668300000000002
 20
-68.014800000000008
 30
0.0
 10
78.889800000000008
 20
-65.693600000000004
 30
0.0
 10
78.889800000000008
 20
-65.693600000000004
 30
0.0
 10
76.290999999999997
 20
-64.91810000000001
 30
0.0
 10
75.002600000000001
 20
-50.537700000000001
 30
0.0
 10
73.946200000000005
 20
-56.817600000000006
 30
0.0
 10
73.946200000000005
 20
-56.817600000000006
 30
0.0
 10
72.654499999999999
 20
-64.496700000000004
 30
0.0
 10
75.240600000000001
 20
-78.582700000000003
 30
0.0
 10
72.710300000000004
 20
-79.169800000000009
 30
0.0
 10
72.710300000000004
 20
-79.169800000000009
 30
0.0
 10
72.710300000000004
 20
-79.169800000000009
 30
0.0
 10
67.099199999999996
 20
-80.472300000000004
 30
0.0
 10
67.099199999999996
 20
-80.472300000000004
 30
0.0
 10
67.099199999999996
 20
-80.472300000000004
 30
0.0
 10
64.774799999999999
 20
-80.302199999999999
 30
0.0
 10
60.868100000000005
 20
-82.307699999999997
 30
0.0
 10
59.901900000000005
 20
-80.187400000000011
 30
0.0
 10
59.901900000000005
 20
-80.187400000000011
 30
0.0
 10
56.974299999999999
 20
-73.762500000000003
 30
0.0
 10
60.018600000000006
 20
-64.563000000000002
 30
0.0
 10
55.070700000000002
 20
-59.064600000000006
 30
0.0
 10
55.070700000000002
 20
-59.064600000000006
 30
0.0
 10
53.0197
 20
-56.785299999999999
 30
0.0
 10
55.316800000000001
 20
-62.029700000000005
 30
0.0
 10
54.958200000000005
 20
-63.334200000000003
 30
0.0
 10
54.958200000000005
 20
-63.334200000000003
 30
0.0
 10
54.482500000000002
 20
-65.064599999999999
 30
0.0
 10
54.4694
 20
-67.561400000000006
 30
0.0
 10
52.823500000000003
 20
-68.277500000000003
 30
0.0
 10
52.823500000000003
 20
-68.277500000000003
 30
0.0
 10
47.536999999999999
 20
-70.578800000000001
 30
0.0
 10
41.506599999999999
 20
-70.492400000000004
 30
0.0
 10
35.8583
 20
-71.648400000000009
 30
0.0
 10
35.8583
 20
-71.648400000000009
 30
0.0
 10
33.4544
 20
-72.140100000000004
 30
0.0
 10
31.120100000000001
 20
-73.278900000000007
 30
0.0
 10
28.667200000000001
 20
-73.221100000000007
 30
0.0
 10
28.667200000000001
 20
-73.221100000000007
 30
0.0
 10
27.095300000000002
 20
-73.184200000000004
 30
0.0
 10
24.9297
 20
-72.828299999999999
 30
0.0
 10
24.325800000000001
 20
-71.3767
 30
0.0
  0
SPLINE
  5
26
100
AcDbEntity
  8
Ebene 1
370
     5
100
AcDbSpline
210
0.0
220
0.0
230
1.0
 70
     1
 71
     3
 72
    20
 73
    16
 74
     0
 42
0.0000000001
 43
0.0000000001
 40
0.0
 40
0.0
 40
0.0
 40
0.0
 40
0.25
 40
0.25
 40
0.25
 40
0.25
 40
0.5
 40
0.5
 40
0.5
 40
0.5
 40
0.75
 40
0.75
 40
0.75
 40
0.75
 40
1.0
 40
1.0
 40
1.0
 40
1.0
 10
26.4771
 20
-70.075299999999999
 30
0.0
 10
26.4771
 20
-69.610399999999998
 30
0.0
 10
26.854200000000002
 20
-69.2333
 30
0.0
 10
27.319100000000002
 20
-69.2333
 30
0.0
 10
27.319100000000002
 20
-69.2333
 30
0.0
 10
27.784100000000002
 20
-69.2333
 30
0.0
 10
28.161100000000001
 20
-69.610399999999998
 30
0.0
 10
28.161100000000001
 20
-70.075299999999999
 30
0.0
 10
28.161100000000001
 20
-70.075299999999999
 30
0.0
 10
28.161100000000001
 20
-70.540300000000002
 30
0.0
 10
27.784100000000002
 20
-70.917400000000001
 30
0.0
 10
27.319100000000002
 20
-70.917400000000001
 30
0.0
 10
27.319100000000002
 20
-70.917400000000001
 30
0.0
 10
26.854200000000002
 20
-70.917400000000001
 30
0.0
 10
26.4771
 20
-70.540300000000002
 30
0.0
 10
26.4771
 20
-70.075299999999999
 30
0.0
  0
SPLINE
  5
27
100
AcDbEntity
  8
Ebene 1
370
     5
100
AcDbSpline
210
0.0
220
0.0
230
1.0
 70
     1
 71
     3
 72
    20
 73
    16
 74
     0
 42
0.0000000001
 43
0.0000000001
 40
0.0
 40
0.0
 40
0.0
 40
0.0
 40
0.25
 40
0.25
 40
0.25
 40
0.25
 40
0.5
 40
0.5
 40
0.5
 40
0.5
 40
0.75
 40
0.75
 40
0.75
 40
0.75
 40
1.0
 40
1.0
 40
1.0
 40
1.0
 10
75.065200000000004
 20
76.870199999999997
 30
0.0
 10
75.065200000000004
 20
77.335099999999997
 30
0.0
 10
75.442300000000003
 20
77.712100000000007
 30
0.0
 10
75.90740000000001
 20
77.712100000000007
 30
0.0
 10
75.90740000000001
 20
77.712100000000007
 30
0.0
 10
76.372200000000007
 20
77.712100000000007
 30
0.0
 10
76.749200000000002
 20
77.335099999999997
 30
0.0
 10
76.749200000000002
 20
76.870199999999997
 30
0.0
 10
76.749200000000002
 20
76.870199999999997
 30
0.0
 10
76.749200000000002
 20
76.4054
 30
0.0
 10
76.372200000000007
 20
76.028199999999998
 30
0.0
 10
75.90740000000001
 20
76.028199999999998
 30
0.0
 10
75.90740000000001
 20
76.028199999999998
 30
0.0
 10
75.442300000000003
 20
76.028199999999998
 30
0.0
 10
75.065200000000004
 20
76.4054
 30
0.0
 10
75.065200000000004
 20
76.870199999999997
 30
0.0
  0
SPLINE
  5
28
100
AcDbEntity
  8
Ebene 1
370
     5
100
AcDbSpline
210
0.0
220
0.0
230
1.0
 70
     1
 71
     3
 72
    20
 73
    16
 74
     0
 42
0.0000000001
 43
0.0000000001
 40
0.0
 40
0.0
 40
0.0
 40
0.0
 40
0.25
 40
0.25
 40
0.25
 40
0.25
 40
0.5
 40
0.5
 40
0.5
 40
0.5
 40
0.75
 40
0.75
 40
0.75
 40
0.75
 40
1.0
 40
1.0
 40
1.0
 40
1.0
 10
76.707000000000008
 20
-59.127400000000002
 30
0.0
 10
76.707000000000008
 20
-58.662500000000001
 30
0.0
 10
77.084000000000003
 20
-58.285700000000006
 30
0.0
 10
77.548900000000003
 20
-58.285700000000006
 30
0.0
 10
77.548900000000003
 20
-58.285700000000006
 30
0.0
 10
78.014099999999999
 20
-58.285700000000006
 30
0.0
 10
78.391199999999998
 20
-58.662500000000001
 30
0.0
 10
78.391199999999998
 20
-59.127400000000002
 30
0.0
 10
78.391199999999998
 20
-59.127400000000002
 30
0.0
 10
78.391199999999998
 20
-59.592500000000001
 30
0.0
 10
78.014099999999999
 20
-59.9696
 30
0.0
 10
77.548900000000003
 20
-59.9696
 30
0.0
 10
77.548900000000003
 20
-59.9696
 30
0.0
 10
77.084000000000003
 20
-59.9696
 30
0.0
 10
76.707000000000008
 20
-59.592500000000001
 30
0.0
 10
76.707000000000008
 20
-59.127400000000002
 30
0.0
  0
SPLINE
  5
29
100
AcDbEntity
  8
Ebene 1
370
     5
100
AcDbSpline
210
0.0
220
0.0
230
1.0
 70
     1
 71
     3
 72
    20
 73
    16
 74
     0
 42
0.0000000001
 43
0.0000000001
 40
0.0
 40
0.0
 40
0.0
 40
0.0
 40
0.25
 40
0.25
 40
0.25
 40
0.25
 40
0.5
 40
0.5
 40
0.5
 40
0.5
 40
0.75
 40
0.75
 40
0.75
 40
0.75
 40
1.0
 40
1.0
 40
1.0
 40
1.0
 10
51.419800000000002
 20
-62.323
 30
0.0
 10
51.419800000000002
 20
-61.857800000000005
 30
0.0
 10
51.797200000000004
 20
-61.480900000000005
 30
0.0
 10
52.262
 20
-61.480900000000005
 30
0.0
 10
52.262
 20
-61.480900000000005
 30
0.0
 10
52.726700000000001
 20
-61.480900000000005
 30
0.0
 10
53.103900000000003
 20
-61.857800000000005
 30
0.0
 10
53.103900000000003
 20
-62.323
 30
0.0
 10
53.103900000000003
 20
-62.323
 30
0.0
 10
53.103900000000003
 20
-62.7879
 30
0.0
 10
52.726700000000001
 20
-63.165100000000002
 30
0.0
 10
52.262
 20
-63.165100000000002
 30
0.0
 10
52.262
 20
-63.165100000000002
 30
0.0
 10
51.797200000000004
 20
-63.165100000000002
 30
0.0
 10
51.419800000000002
 20
-62.7879
 30
0.0
 10
51.419800000000002
 20
-62.323
 30
0.0
  0
SPLINE
  5
2A
100
AcDbEntity
  8
Ebene 1
370
     5
100
AcDbSpline
210
0.0
220
0.0
230
1.0
 70
     1
 71
     3
 72
    20
 73
    16
 74
     0
 42
0.0000000001
 43
0.0000000001
 40
0.0
 40
0.0
 40
0.0
 40
0.0
 40
0.25
 40
0.25
 40
0.25
 40
0.25
 40
0.5
 40
0.5
 40
0.5
 40
0.5
 40
0.75
 40
0.75
 40
0.75
 40
0.75
 40
1.0
 40
1.0
 40
1.0
 40
1.0
 10
84.62060000000001
 20
-62.884700000000002
 30
0.0
 10
84.62060000000001
 20
-62.419600000000003
 30
0.0
 10
84.997700000000009
 20
-62.0426
 30
0.0
 10
85.462800000000001
 20
-62.0426
 30
0.0
 10
85.462800000000001
 20
-62.0426
 30
0.0
 10
85.927300000000002
 20
-62.0426
 30
0.0
 10
86.304600000000008
 20
-62.419600000000003
 30
0.0
 10
86.304600000000008
 20
-62.884700000000002
 30
0.0
 10
86.304600000000008
 20
-62.884700000000002
 30
0.0
 10
86.304600000000008
 20
-63.349600000000002
 30
0.0
 10
85.927300000000002
 20
-63.726600000000005
 30
0.0
 10
85.462800000000001
 20
-63.726600000000005
 30
0.0
 10
85.462800000000001
 20
-63.726600000000005
 30
0.0
 10
84.997700000000009
 20
-63.726600000000005
 30
0.0
 10
84.62060000000001
 20
-63.349600000000002
 30
0.0
 10
84.62060000000001
 20
-62.884700000000002
 30
0.0
  0
SPLINE
  5
2B
100
AcDbEntity
  8
Ebene 1
370
     5
100
AcDbSpline
210
0.0
220
0.0
230
1.0
 70
     1
 71
     3
 72
    20
 73
    16
 74
     0
 42
0.0000000001
 43
0.0000000001
 40
0.0
 40
0.0
 40
0.0
 40
0.0
 40
0.25
 40
0.25
 40
0.25
 40
0.25
 40
0.5
 40
0.5
 40
0.5
 40
0.5
 40
0.75
 40
0.75
 40
0.75
 40
0.75
 40
1.0
 40
1.0
 40
1.0
 40
1.0
 10
101.3052
 20
-64.120599999999996
 30
0.0
 10
101.3052
 20
-63.655800000000006
 30
0.0
 10
101.6824
 20
-63.278400000000005
 30
0.0
 10
102.1472
 20
-63.278400000000005
 30
0.0
 10
102.1472
 20
-63.278400000000005
 30
0.0
 10
102.6122
 20
-63.278400000000005
 30
0.0
 10
102.9893
 20
-63.655800000000006
 30
0.0
 10
102.9893
 20
-64.120599999999996
 30
0.0
 10
102.9893
 20
-64.120599999999996
 30
0.0
 10
102.9893
 20
-64.585300000000004
 30
0.0
 10
102.6122
 20
-64.962600000000009
 30
0.0
 10
102.1472
 20
-64.962600000000009
 30
0.0
 10
102.1472
 20
-64.962600000000009
 30
0.0
 10
101.6824
 20
-64.962600000000009
 30
0.0
 10
101.3052
 20
-64.585300000000004
 30
0.0
 10
101.3052
 20
-64.120599999999996
 30
0.0
  0
SPLINE
  5
2C
100
AcDbEntity
  8
Ebene 1
370
     5
100
AcDbSpline
210
0.0
220
0.0
230
1.0
 70
     1
 71
     3
 72
    20
 73
    16
 74
     0
 42
0.0000000001
 43
0.0000000001
 40
0.0
 40
0.0
 40
0.0
 40
0.0
 40
0.25
 40
0.25
 40
0.25
 40
0.25
 40
0.5
 40
0.5
 40
0.5
 40
0.5
 40
0.75
 40
0.75
 40
0.75
 40
0.75
 40
1.0
 40
1.0
 40
1.0
 40
1.0
 10
95.743500000000012
 20
-63.4465
 30
0.0
 10
95.743500000000012
 20
-62.981500000000004
 30
0.0
 10
96.120800000000003
 20
-62.604300000000002
 30
0.0
 10
96.585700000000003
 20
-62.604300000000002
 30
0.0
 10
96.585700000000003
 20
-62.604300000000002
 30
0.0
 10
97.0505
 20
-62.604300000000002
 30
0.0
 10
97.427800000000005
 20
-62.981500000000004
 30
0.0
 10
97.427800000000005
 20
-63.4465
 30
0.0
 10
97.427800000000005
 20
-63.4465
 30
0.0
 10
97.427800000000005
 20
-63.9114
 30
0.0
 10
97.0505
 20
-64.288499999999999
 30
0.0
 10
96.585700000000003
 20
-64.288499999999999
 30
0.0
 10
96.585700000000003
 20
-64.288499999999999
 30
0.0
 10
96.120800000000003
 20
-64.288499999999999
 30
0.0
 10
95.743500000000012
 20
-63.9114
 30
0.0
 10
95.743500000000012
 20
-63.4465
 30
0.0
  0
SPLINE
  5
2D
100
AcDbEntity
  8
Ebene 1
370
     5
100
AcDbSpline
210
0.0
220
0.0
230
1.0
 70
     1
 71
     3
 72
    20
 73
    16
 74
     0
 42
0.0000000001
 43
0.0000000001
 40
0.0
 40
0.0
 40
0.0
 40
0.0
 40
0.25
 40
0.25
 40
0.25
 40
0.25
 40
0.5
 40
0.5
 40
0.5
 40
0.5
 40
0.75
 40
0.75
 40
0.75
 40
0.75
 40
1.0
 40
1.0
 40
1.0
 40
1.0
 10
90.182100000000005
 20
-63.671100000000003
 30
0.0
 10
90.182100000000005
 20
-63.206200000000003
 30
0.0
 10
90.559300000000007
 20
-62.829100000000004
 30
0.0
 10
91.024200000000008
 20
-62.829100000000004
 30
0.0
 10
91.024200000000008
 20
-62.829100000000004
 30
0.0
 10
91.489000000000004
 20
-62.829100000000004
 30
0.0
 10
91.866200000000006
 20
-63.206200000000003
 30
0.0
 10
91.866200000000006
 20
-63.671100000000003
 30
0.0
 10
91.866200000000006
 20
-63.671100000000003
 30
0.0
 10
91.866200000000006
 20
-64.136099999999999
 30
0.0
 10
91.489000000000004
 20
-64.513100000000009
 30
0.0
 10
91.024200000000008
 20
-64.513100000000009
 30
0.0
 10
91.024200000000008
 20
-64.513100000000009
 30
0.0
 10
90.559300000000007
 20
-64.513100000000009
 30
0.0
 10
90.182100000000005
 20
-64.136099999999999
 30
0.0
 10
90.182100000000005
 20
-63.671100000000003
 30
0.0
  0
SPLINE
  5
2E
100
AcDbEntity
  8
Ebene 1
370
     5
100
AcDbSpline
210
0.0
220
0.0
230
1.0
 70
     1
 71
     3
 72
    20
 73
    16
 74
     0
 42
0.0000000001
 43
0.0000000001
 40
0.0
 40
0.0
 40
0.0
 40
0.0
 40
0.25
 40
0.25
 40
0.25
 40
0.25
 40
0.5
 40
0.5
 40
0.5
 40
0.5
 40
0.75
 40
0.75
 40
0.75
 40
0.75
 40
1.0
 40
1.0
 40
1.0
 40
1.0
 10
79.058999999999997
 20
-62.266200000000005
 30
0.0
 10
79.058999999999997
 20
-61.801000000000002
 30
0.0
 10
79.436199999999999
 20
-61.424100000000003
 30
0.0
 10
79.90100000000001
 20
-61.424100000000003
 30
0.0
 10
79.90100000000001
 20
-61.424100000000003
 30
0.0
 10
80.365600000000001
 20
-61.424100000000003
 30
0.0
 10
80.743099999999998
 20
-61.801000000000002
 30
0.0
 10
80.743099999999998
 20
-62.266200000000005
 30
0.0
 10
80.743099999999998
 20
-62.266200000000005
 30
0.0
 10
80.743099999999998
 20
-62.731000000000002
 30
0.0
 10
80.365600000000001
 20
-63.1083
 30
0.0
 10
79.90100000000001
 20
-63.1083
 30
0.0
 10
79.90100000000001
 20
-63.1083
 30
0.0
 10
79.436199999999999
 20
-63.1083
 30
0.0
 10
79.058999999999997
 20
-62.731000000000002
 30
0.0
 10
79.058999999999997
 20
-62.266200000000005
 30
0.0
  0
SPLINE
  5
2F
100
AcDbEntity
  8
Ebene 1
370
     5
100
AcDbSpline
210
0.0
220
0.0
230
1.0
 70
     1
 71
     3
 72
    20
 73
    16
 74
     0
 42
0.0000000001
 43
0.0000000001
 40
0.0
 40
0.0
 40
0.0
 40
0.0
 40
0.25
 40
0.25
 40
0.25
 40
0.25
 40
0.5
 40
0.5
 40
0.5
 40
0.5
 40
0.75
 40
0.75
 40
0.75
 40
0.75
 40
1.0
 40
1.0
 40
1.0
 40
1.0
 10
111.9234
 20
-14.684600000000001
 30
0.0
 10
111.9234
 20
-14.219700000000001
 30
0.0
 10
112.3005
 20
-13.842500000000001
 30
0.0
 10
112.7654
 20
-13.842500000000001
 30
0.0
 10
112.7654
 20
-13.842500000000001
 30
0.0
 10
113.2303
 20
-13.842500000000001
 30
0.0
 10
113.6075
 20
-14.219700000000001
 30
0.0
 10
113.6075
 20
-14.684600000000001
 30
0.0
 10
113.6075
 20
-14.684600000000001
 30
0.0
 10
113.6075
 20
-15.149500000000002
 30
0.0
 10
113.2303
 20
-15.5266
 30
0.0
 10
112.7654
 20
-15.5266
 30
0.0
 10
112.7654
 20
-15.5266
 30
0.0
 10
112.3005
 20
-15.5266
 30
0.0
 10
111.9234
 20
-15.149500000000002
 30
0.0
 10
111.9234
 20
-14.684600000000001
 30
0.0
  0
SPLINE
  5
30
100
AcDbEntity
  8
Ebene 1
370
     5
100
AcDbSpline
210
0.0
220
0.0
230
1.0
 70
     1
 71
     3
 72
    20
 73
    16
 74
     0
 42
0.0000000001
 43
0.0000000001
 40
0.0
 40
0.0
 40
0.0
 40
0.0
 40
0.25
 40
0.25
 40
0.25
 40
0.25
 40
0.5
 40
0.5
 40
0.5
 40
0.5
 40
0.75
 40
0.75
 40
0.75
 40
0.75
 40
1.0
 40
1.0
 40
1.0
 40
1.0
 10
113.2149
 20
-18.279900000000001
 30
0.0
 10
113.2149
 20
-17.815000000000001
 30
0.0
 10
113.59190000000001
 20
-17.438000000000002
 30
0.0
 10
114.0569
 20
-17.438000000000002
 30
0.0
 10
114.0569
 20
-17.438000000000002
 30
0.0
 10
114.5218
 20
-17.438000000000002
 30
0.0
 10
114.89880000000001
 20
-17.815000000000001
 30
0.0
 10
114.89880000000001
 20
-18.279900000000001
 30
0.0
 10
114.89880000000001
 20
-18.279900000000001
 30
0.0
 10
114.89880000000001
 20
-18.744800000000001
 30
0.0
 10
114.5218
 20
-19.122
 30
0.0
 10
114.0569
 20
-19.122
 30
0.0
 10
114.0569
 20
-19.122
 30
0.0
 10
113.59190000000001
 20
-19.122
 30
0.0
 10
113.2149
 20
-18.744800000000001
 30
0.0
 10
113.2149
 20
-18.279900000000001
 30
0.0
  0
SPLINE
  5
31
100
AcDbEntity
  8
Ebene 1
370
     5
100
AcDbSpline
210
0.0
220
0.0
230
1.0
 70
     1
 71
     3
 72
    20
 73
    16
 74
     0
 42
0.0000000001
 43
0.0000000001
 40
0.0
 40
0.0
 40
0.0
 40
0.0
 40
0.25
 40
0.25
 40
0.25
 40
0.25
 40
0.5
 40
0.5
 40
0.5
 40
0.5
 40
0.75
 40
0.75
 40
0.75
 40
0.75
 40
1.0
 40
1.0
 40
1.0
 40
1.0
 10
94.956600000000009
 20
58.121200000000002
 30
0.0
 10
94.956600000000009
 20
58.586200000000005
 30
0.0
 10
95.333700000000007
 20
58.963200000000001
 30
0.0
 10
95.798500000000004
 20
58.963200000000001
 30
0.0
 10
95.798500000000004
 20
58.963200000000001
 30
0.0
 10
96.263400000000004
 20
58.963200000000001
 30
0.0
 10
96.640799999999999
 20
58.586200000000005
 30
0.0
 10
96.640799999999999
 20
58.121200000000002
 30
0.0
 10
96.640799999999999
 20
58.121200000000002
 30
0.0
 10
96.640799999999999
 20
57.656500000000001
 30
0.0
 10
96.263400000000004
 20
57.279200000000003
 30
0.0
 10
95.798500000000004
 20
57.279200000000003
 30
0.0
 10
95.798500000000004
 20
57.279200000000003
 30
0.0
 10
95.333700000000007
 20
57.279200000000003
 30
0.0
 10
94.956600000000009
 20
57.656500000000001
 30
0.0
 10
94.956600000000009
 20
58.121200000000002
 30
0.0
  0
SPLINE
  5
32
100
AcDbEntity
  8
Ebene 1
370
     5
100
AcDbSpline
210
0.0
220
0.0
230
1.0
 70
     1
 71
     3
 72
    20
 73
    16
 74
     0
 42
0.0000000001
 43
0.0000000001
 40
0.0
 40
0.0
 40
0.0
 40
0.0
 40
0.25
 40
0.25
 40
0.25
 40
0.25
 40
0.5
 40
0.5
 40
0.5
 40
0.5
 40
0.75
 40
0.75
 40
0.75
 40
0.75
 40
1.0
 40
1.0
 40
1.0
 40
1.0
 10
113.88890000000001
 20
24.8643
 30
0.0
 10
113.88890000000001
 20
25.3291
 30
0.0
 10
114.26600000000001
 20
25.706300000000002
 30
0.0
 10
114.73100000000001
 20
25.706300000000002
 30
0.0
 10
114.73100000000001
 20
25.706300000000002
 30
0.0
 10
115.19590000000001
 20
25.706300000000002
 30
0.0
 10
115.5729
 20
25.3291
 30
0.0
 10
115.5729
 20
24.8643
 30
0.0
 10
115.5729
 20
24.8643
 30
0.0
 10
115.5729
 20
24.3994
 30
0.0
 10
115.19590000000001
 20
24.022300000000001
 30
0.0
 10
114.73100000000001
 20
24.022300000000001
 30
0.0
 10
114.73100000000001
 20
24.022300000000001
 30
0.0
 10
114.26600000000001
 20
24.022300000000001
 30
0.0
 10
113.88890000000001
 20
24.3994
 30
0.0
 10
113.88890000000001
 20
24.8643
 30
0.0
  0
SPLINE
  5
33
100
AcDbEntity
  8
Ebene 1
370
     5
100
AcDbSpline
210
0.0
220
0.0
230
1.0
 70
     1
 71
     3
 72
    20
 73
    16
 74
     0
 42
0.0000000001
 43
0.0000000001
 40
0.0
 40
0.0
 40
0.0
 40
0.0
 40
0.25
 40
0.25
 40
0.25
 40
0.25
 40
0.5
 40
0.5
 40
0.5
 40
0.5
 40
0.75
 40
0.75
 40
0.75
 40
0.75
 40
1.0
 40
1.0
 40
1.0
 40
1.0
 10
108.7205
 20
30.706700000000001
 30
0.0
 10
108.7205
 20
31.171400000000002
 30
0.0
 10
109.0977
 20
31.5487
 30
0.0
 10
109.56270000000001
 20
31.5487
 30
0.0
 10
109.56270000000001
 20
31.5487
 30
0.0
 10
110.02770000000001
 20
31.5487
 30
0.0
 10
110.40470000000001
 20
31.171400000000002
 30
0.0
 10
110.40470000000001
 20
30.706700000000001
 30
0.0
 10
110.40470000000001
 20
30.706700000000001
 30
0.0
 10
110.40470000000001
 20
30.241800000000001
 30
0.0
 10
110.02770000000001
 20
29.864800000000002
 30
0.0
 10
109.56270000000001
 20
29.864800000000002
 30
0.0
 10
109.56270000000001
 20
29.864800000000002
 30
0.0
 10
109.0977
 20
29.864800000000002
 30
0.0
 10
108.7205
 20
30.241800000000001
 30
0.0
 10
108.7205
 20
30.706700000000001
 30
0.0
  0
SPLINE
  5
34
100
AcDbEntity
  8
Ebene 1
370
     5
100
AcDbSpline
210
0.0
220
0.0
230
1.0
 70
     1
 71
     3
 72
    20
 73
    16
 74
     0
 42
0.0000000001
 43
0.0000000001
 40
0.0
 40
0.0
 40
0.0
 40
0.0
 40
0.25
 40
0.25
 40
0.25
 40
0.25
 40
0.5
 40
0.5
 40
0.5
 40
0.5
 40
0.75
 40
0.75
 40
0.75
 40
0.75
 40
1.0
 40
1.0
 40
1.0
 40
1.0
 10
105.79950000000001
 20
38.403500000000001
 30
0.0
 10
105.79950000000001
 20
38.868700000000004
 30
0.0
 10
106.17630000000001
 20
39.245699999999999
 30
0.0
 10
106.64150000000001
 20
39.245699999999999
 30
0.0
 10
106.64150000000001
 20
39.245699999999999
 30
0.0
 10
107.1062
 20
39.245699999999999
 30
0.0
 10
107.48360000000001
 20
38.868700000000004
 30
0.0
 10
107.48360000000001
 20
38.403500000000001
 30
0.0
 10
107.48360000000001
 20
38.403500000000001
 30
0.0
 10
107.48360000000001
 20
37.938700000000004
 30
0.0
 10
107.1062
 20
37.561399999999999
 30
0.0
 10
106.64150000000001
 20
37.561399999999999
 30
0.0
 10
106.64150000000001
 20
37.561399999999999
 30
0.0
 10
106.17630000000001
 20
37.561399999999999
 30
0.0
 10
105.79950000000001
 20
37.938700000000004
 30
0.0
 10
105.79950000000001
 20
38.403500000000001
 30
0.0
  0
SPLINE
  5
35
100
AcDbEntity
  8
Ebene 1
370
     5
100
AcDbSpline
210
0.0
220
0.0
230
1.0
 70
     1
 71
     3
 72
    20
 73
    16
 74
     0
 42
0.0000000001
 43
0.0000000001
 40
0.0
 40
0.0
 40
0.0
 40
0.0
 40
0.25
 40
0.25
 40
0.25
 40
0.25
 40
0.5
 40
0.5
 40
0.5
 40
0.5
 40
0.75
 40
0.75
 40
0.75
 40
0.75
 40
1.0
 40
1.0
 40
1.0
 40
1.0
 10
101.0805
 20
48.233900000000006
 30
0.0
 10
101.0805
 20
48.699000000000005
 30
0.0
 10
101.4577
 20
49.076100000000004
 30
0.0
 10
101.9225
 20
49.076100000000004
 30
0.0
 10
101.9225
 20
49.076100000000004
 30
0.0
 10
102.38730000000001
 20
49.076100000000004
 30
0.0
 10
102.7646
 20
48.699000000000005
 30
0.0
 10
102.7646
 20
48.233900000000006
 30
0.0
 10
102.7646
 20
48.233900000000006
 30
0.0
 10
102.7646
 20
47.769000000000005
 30
0.0
 10
102.38730000000001
 20
47.392200000000003
 30
0.0
 10
101.9225
 20
47.392200000000003
 30
0.0
 10
101.9225
 20
47.392200000000003
 30
0.0
 10
101.4577
 20
47.392200000000003
 30
0.0
 10
101.0805
 20
47.769000000000005
 30
0.0
 10
101.0805
 20
48.233900000000006
 30
0.0
  0
SPLINE
  5
36
100
AcDbEntity
  8
Ebene 1
370
     5
100
AcDbSpline
210
0.0
220
0.0
230
1.0
 70
     1
 71
     3
 72
    20
 73
    16
 74
     0
 42
0.0000000001
 43
0.0000000001
 40
0.0
 40
0.0
 40
0.0
 40
0.0
 40
0.25
 40
0.25
 40
0.25
 40
0.25
 40
0.5
 40
0.5
 40
0.5
 40
0.5
 40
0.75
 40
0.75
 40
0.75
 40
0.75
 40
1.0
 40
1.0
 40
1.0
 40
1.0
 10
10.073400000000001
 20
33.1785
 30
0.0
 10
10.073400000000001
 20
33.6434
 30
0.0
 10
10.4504
 20
34.020499999999998
 30
0.0
 10
10.9152
 20
34.020499999999998
 30
0.0
 10
10.9152
 20
34.020499999999998
 30
0.0
 10
11.3802
 20
34.020499999999998
 30
0.0
 10
11.757300000000001
 20
33.6434
 30
0.0
 10
11.757300000000001
 20
33.1785
 30
0.0
 10
11.757300000000001
 20
33.1785
 30
0.0
 10
11.757300000000001
 20
32.713700000000003
 30
0.0
 10
11.3802
 20
32.336500000000001
 30
0.0
 10
10.9152
 20
32.336500000000001
 30
0.0
 10
10.9152
 20
32.336500000000001
 30
0.0
 10
10.4504
 20
32.336500000000001
 30
0.0
 10
10.073400000000001
 20
32.713700000000003
 30
0.0
 10
10.073400000000001
 20
33.1785
 30
0.0
  0
SPLINE
  5
37
100
AcDbEntity
  8
Ebene 1
370
     5
100
AcDbSpline
210
0.0
220
0.0
230
1.0
 70
     1
 71
     3
 72
    20
 73
    16
 74
     0
 42
0.0000000001
 43
0.0000000001
 40
0.0
 40
0.0
 40
0.0
 40
0.0
 40
0.25
 40
0.25
 40
0.25
 40
0.25
 40
0.5
 40
0.5
 40
0.5
 40
0.5
 40
0.75
 40
0.75
 40
0.75
 40
0.75
 40
1.0
 40
1.0
 40
1.0
 40
1.0
 10
86.867100000000008
 20
68.008300000000006
 30
0.0
 10
86.867100000000008
 20
68.473300000000009
 30
0.0
 10
87.244100000000003
 20
68.850499999999997
 30
0.0
 10
87.709000000000003
 20
68.850499999999997
 30
0.0
 10
87.709000000000003
 20
68.850499999999997
 30
0.0
 10
88.174000000000007
 20
68.850499999999997
 30
0.0
 10
88.551200000000009
 20
68.473300000000009
 30
0.0
 10
88.551200000000009
 20
68.008300000000006
 30
0.0
 10
88.551200000000009
 20
68.008300000000006
 30
0.0
 10
88.551200000000009
 20
67.543700000000001
 30
0.0
 10
88.174000000000007
 20
67.16640000000001
 30
0.0
 10
87.709000000000003
 20
67.16640000000001
 30
0.0
 10
87.709000000000003
 20
67.16640000000001
 30
0.0
 10
87.244100000000003
 20
67.16640000000001
 30
0.0
 10
86.867100000000008
 20
67.543700000000001
 30
0.0
 10
86.867100000000008
 20
68.008300000000006
 30
0.0
  0
SPLINE
  5
38
100
AcDbEntity
  8
Ebene 1
370
     5
100
AcDbSpline
210
0.0
220
0.0
230
1.0
 70
     1
 71
     3
 72
    20
 73
    16
 74
     0
 42
0.0000000001
 43
0.0000000001
 40
0.0
 40
0.0
 40
0.0
 40
0.0
 40
0.25
 40
0.25
 40
0.25
 40
0.25
 40
0.5
 40
0.5
 40
0.5
 40
0.5
 40
0.75
 40
0.75
 40
0.75
 40
0.75
 40
1.0
 40
1.0
 40
1.0
 40
1.0
 10
60.632900000000006
 20
84.412000000000006
 30
0.0
 10
60.632900000000006
 20
84.87700000000001
 30
0.0
 10
61.010000000000005
 20
85.254400000000004
 30
0.0
 10
61.475000000000001
 20
85.254400000000004
 30
0.0
 10
61.475000000000001
 20
85.254400000000004
 30
0.0
 10
61.939700000000002
 20
85.254400000000004
 30
0.0
 10
62.317100000000003
 20
84.87700000000001
 30
0.0
 10
62.317100000000003
 20
84.412000000000006
 30
0.0
 10
62.317100000000003
 20
84.412000000000006
 30
0.0
 10
62.317100000000003
 20
83.947200000000009
 30
0.0
 10
61.939700000000002
 20
83.5702
 30
0.0
 10
61.475000000000001
 20
83.5702
 30
0.0
 10
61.475000000000001
 20
83.5702
 30
0.0
 10
61.010000000000005
 20
83.5702
 30
0.0
 10
60.632900000000006
 20
83.947200000000009
 30
0.0
 10
60.632900000000006
 20
84.412000000000006
 30
0.0
  0
SPLINE
  5
39
100
AcDbEntity
  8
Ebene 1
370
     5
100
AcDbSpline
210
0.0
220
0.0
230
1.0
 70
     1
 71
     3
 72
    20
 73
    16
 74
     0
 42
0.0000000001
 43
0.0000000001
 40
0.0
 40
0.0
 40
0.0
 40
0.0
 40
0.25
 40
0.25
 40
0.25
 40
0.25
 40
0.5
 40
0.5
 40
0.5
 40
0.5
 40
0.75
 40
0.75
 40
0.75
 40
0.75
 40
1.0
 40
1.0
 40
1.0
 40
1.0
 10
40.858400000000003
 20
85.535700000000006
 30
0.0
 10
40.858400000000003
 20
86.000700000000009
 30
0.0
 10
41.235600000000005
 20
86.377499999999998
 30
0.0
 10
41.700600000000001
 20
86.377499999999998
 30
0.0
 10
41.700600000000001
 20
86.377499999999998
 30
0.0
 10
42.165400000000005
 20
86.377499999999998
 30
0.0
 10
42.542500000000004
 20
86.000700000000009
 30
0.0
 10
42.542500000000004
 20
85.535700000000006
 30
0.0
 10
42.542500000000004
 20
85.535700000000006
 30
0.0
 10
42.542500000000004
 20
85.071100000000001
 30
0.0
 10
42.165400000000005
 20
84.693700000000007
 30
0.0
 10
41.700600000000001
 20
84.693700000000007
 30
0.0
 10
41.700600000000001
 20
84.693700000000007
 30
0.0
 10
41.235600000000005
 20
84.693700000000007
 30
0.0
 10
40.858400000000003
 20
85.071100000000001
 30
0.0
 10
40.858400000000003
 20
85.535700000000006
 30
0.0
  0
SPLINE
  5
3A
100
AcDbEntity
  8
Ebene 1
370
     5
100
AcDbSpline
210
0.0
220
0.0
230
1.0
 70
     1
 71
     3
 72
    20
 73
    16
 74
     0
 42
0.0000000001
 43
0.0000000001
 40
0.0
 40
0.0
 40
0.0
 40
0.0
 40
0.25
 40
0.25
 40
0.25
 40
0.25
 40
0.5
 40
0.5
 40
0.5
 40
0.5
 40
0.75
 40
0.75
 40
0.75
 40
0.75
 40
1.0
 40
1.0
 40
1.0
 40
1.0
 10
23.499000000000002
 20
76.322800000000001
 30
0.0
 10
23.499000000000002
 20
76.787599999999998
 30
0.0
 10
23.876100000000001
 20
77.1648
 30
0.0
 10
24.341000000000001
 20
77.1648
 30
0.0
 10
24.341000000000001
 20
77.1648
 30
0.0
 10
24.805900000000001
 20
77.1648
 30
0.0
 10
25.1831
 20
76.787599999999998
 30
0.0
 10
25.1831
 20
76.322800000000001
 30
0.0
 10
25.1831
 20
76.322800000000001
 30
0.0
 10
25.1831
 20
75.857900000000001
 30
0.0
 10
24.805900000000001
 20
75.480699999999999
 30
0.0
 10
24.341000000000001
 20
75.480699999999999
 30
0.0
 10
24.341000000000001
 20
75.480699999999999
 30
0.0
 10
23.876100000000001
 20
75.480699999999999
 30
0.0
 10
23.499000000000002
 20
75.857900000000001
 30
0.0
 10
23.499000000000002
 20
76.322800000000001
 30
0.0
  0
SPLINE
  5
3B
100
AcDbEntity
  8
Ebene 1
370
     5
100
AcDbSpline
210
0.0
220
0.0
230
1.0
 70
     1
 71
     3
 72
    20
 73
    16
 74
     0
 42
0.0000000001
 43
0.0000000001
 40
0.0
 40
0.0
 40
0.0
 40
0.0
 40
0.25
 40
0.25
 40
0.25
 40
0.25
 40
0.5
 40
0.5
 40
0.5
 40
0.5
 40
0.75
 40
0.75
 40
0.75
 40
0.75
 40
1.0
 40
1.0
 40
1.0
 40
1.0
 10
12.9945
 20
59.694100000000006
 30
0.0
 10
12.9945
 20
60.159000000000006
 30
0.0
 10
13.371500000000001
 20
60.5364
 30
0.0
 10
13.836500000000001
 20
60.5364
 30
0.0
 10
13.836500000000001
 20
60.5364
 30
0.0
 10
14.301400000000001
 20
60.5364
 30
0.0
 10
14.678500000000001
 20
60.159000000000006
 30
0.0
 10
14.678500000000001
 20
59.694100000000006
 30
0.0
 10
14.678500000000001
 20
59.694100000000006
 30
0.0
 10
14.678500000000001
 20
59.229200000000006
 30
0.0
 10
14.301400000000001
 20
58.8521
 30
0.0
 10
13.836500000000001
 20
58.8521
 30
0.0
 10
13.836500000000001
 20
58.8521
 30
0.0
 10
13.371500000000001
 20
58.8521
 30
0.0
 10
12.9945
 20
59.229200000000006
 30
0.0
 10
12.9945
 20
59.694100000000006
 30
0.0
  0
SPLINE
  5
3C
100
AcDbEntity
  8
Ebene 1
370
     5
100
AcDbSpline
210
0.0
220
0.0
230
1.0
 70
     1
 71
     3
 72
    20
 73
    16
 74
     0
 42
0.0000000001
 43
0.0000000001
 40
0.0
 40
0.0
 40
0.0
 40
0.0
 40
0.25
 40
0.25
 40
0.25
 40
0.25
 40
0.5
 40
0.5
 40
0.5
 40
0.5
 40
0.75
 40
0.75
 40
0.75
 40
0.75
 40
1.0
 40
1.0
 40
1.0
 40
1.0
 10
11.1967
 20
49.5822
 30
0.0
 10
11.1967
 20
50.047200000000004
 30
0.0
 10
11.5739
 20
50.424300000000002
 30
0.0
 10
12.039
 20
50.424300000000002
 30
0.0
 10
12.039
 20
50.424300000000002
 30
0.0
 10
12.5037
 20
50.424300000000002
 30
0.0
 10
12.8812
 20
50.047200000000004
 30
0.0
 10
12.8812
 20
49.5822
 30
0.0
 10
12.8812
 20
49.5822
 30
0.0
 10
12.8812
 20
49.117400000000004
 30
0.0
 10
12.5037
 20
48.740300000000005
 30
0.0
 10
12.039
 20
48.740300000000005
 30
0.0
 10
12.039
 20
48.740300000000005
 30
0.0
 10
11.5739
 20
48.740300000000005
 30
0.0
 10
11.1967
 20
49.117400000000004
 30
0.0
 10
11.1967
 20
49.5822
 30
0.0
  0
SPLINE
  5
3D
100
AcDbEntity
  8
Ebene 1
370
     5
100
AcDbSpline
210
0.0
220
0.0
230
1.0
 70
     1
 71
     3
 72
    20
 73
    16
 74
     0
 42
0.0000000001
 43
0.0000000001
 40
0.0
 40
0.0
 40
0.0
 40
0.0
 40
0.25
 40
0.25
 40
0.25
 40
0.25
 40
0.5
 40
0.5
 40
0.5
 40
0.5
 40
0.75
 40
0.75
 40
0.75
 40
0.75
 40
1.0
 40
1.0
 40
1.0
 40
1.0
 10
11.0845
 20
42.110100000000003
 30
0.0
 10
11.0845
 20
42.575000000000003
 30
0.0
 10
11.461600000000001
 20
42.952200000000005
 30
0.0
 10
11.9267
 20
42.952200000000005
 30
0.0
 10
11.9267
 20
42.952200000000005
 30
0.0
 10
12.391500000000001
 20
42.952200000000005
 30
0.0
 10
12.768600000000001
 20
42.575000000000003
 30
0.0
 10
12.768600000000001
 20
42.110100000000003
 30
0.0
 10
12.768600000000001
 20
42.110100000000003
 30
0.0
 10
12.768600000000001
 20
41.645099999999999
 30
0.0
 10
12.391500000000001
 20
41.268000000000001
 30
0.0
 10
11.9267
 20
41.268000000000001
 30
0.0
 10
11.9267
 20
41.268000000000001
 30
0.0
 10
11.461600000000001
 20
41.268000000000001
 30
0.0
 10
11.0845
 20
41.645099999999999
 30
0.0
 10
11.0845
 20
42.110100000000003
 30
0.0
  0
SPLINE
  5
3E
100
AcDbEntity
  8
Ebene 1
370
     5
100
AcDbSpline
210
0.0
220
0.0
230
1.0
 70
     1
 71
     3
 72
    20
 73
    16
 74
     0
 42
0.0000000001
 43
0.0000000001
 40
0.0
 40
0.0
 40
0.0
 40
0.0
 40
0.25
 40
0.25
 40
0.25
 40
0.25
 40
0.5
 40
0.5
 40
0.5
 40
0.5
 40
0.75
 40
0.75
 40
0.75
 40
0.75
 40
1.0
 40
1.0
 40
1.0
 40
1.0
 10
61.980900000000005
 20
-77.153599999999997
 30
0.0
 10
61.980900000000005
 20
-76.688800000000001
 30
0.0
 10
62.358200000000004
 20
-76.311599999999999
 30
0.0
 10
62.823100000000004
 20
-76.311599999999999
 30
0.0
 10
62.823100000000004
 20
-76.311599999999999
 30
0.0
 10
63.2881
 20
-76.311599999999999
 30
0.0
 10
63.665000000000006
 20
-76.688800000000001
 30
0.0
 10
63.665000000000006
 20
-77.153599999999997
 30
0.0
 10
63.665000000000006
 20
-77.153599999999997
 30
0.0
 10
63.665000000000006
 20
-77.618600000000001
 30
0.0
 10
63.2881
 20
-77.995699999999999
 30
0.0
 10
62.823100000000004
 20
-77.995699999999999
 30
0.0
 10
62.823100000000004
 20
-77.995699999999999
 30
0.0
 10
62.358200000000004
 20
-77.995699999999999
 30
0.0
 10
61.980900000000005
 20
-77.618600000000001
 30
0.0
 10
61.980900000000005
 20
-77.153599999999997
 30
0.0
  0
SPLINE
  5
3F
100
AcDbEntity
  8
Ebene 1
370
     5
100
AcDbSpline
210
0.0
220
0.0
230
1.0
 70
     1
 71
     3
 72
    20
 73
    16
 74
     0
 42
0.0000000001
 43
0.0000000001
 40
0.0
 40
0.0
 40
0.0
 40
0.0
 40
0.25
 40
0.25
 40
0.25
 40
0.25
 40
0.5
 40
0.5
 40
0.5
 40
0.5
 40
0.75
 40
0.75
 40
0.75
 40
0.75
 40
1.0
 40
1.0
 40
1.0
 40
1.0
 10
9.6239000000000008
 20
24.247
 30
0.0
 10
9.6239000000000008
 20
24.7117
 30
0.0
 10
10.001200000000001
 20
25.088900000000002
 30
0.0
 10
10.466000000000001
 20
25.088900000000002
 30
0.0
 10
10.466000000000001
 20
25.088900000000002
 30
0.0
 10
10.930800000000001
 20
25.088900000000002
 30
0.0
 10
11.3079
 20
24.7117
 30
0.0
 10
11.3079
 20
24.247
 30
0.0
 10
11.3079
 20
24.247
 30
0.0
 10
11.3079
 20
23.7819
 30
0.0
 10
10.930800000000001
 20
23.404900000000001
 30
0.0
 10
10.466000000000001
 20
23.404900000000001
 30
0.0
 10
10.466000000000001
 20
23.404900000000001
 30
0.0
 10
10.001200000000001
 20
23.404900000000001
 30
0.0
 10
9.6239000000000008
 20
23.7819
 30
0.0
 10
9.6239000000000008
 20
24.247
 30
0.0
  0
SPLINE
  5
40
100
AcDbEntity
  8
Ebene 1
370
     5
100
AcDbSpline
210
0.0
220
0.0
230
1.0
 70
     1
 71
     3
 72
    20
 73
    16
 74
     0
 42
0.0000000001
 43
0.0000000001
 40
0.0
 40
0.0
 40
0.0
 40
0.0
 40
0.25
 40
0.25
 40
0.25
 40
0.25
 40
0.5
 40
0.5
 40
0.5
 40
0.5
 40
0.75
 40
0.75
 40
0.75
 40
0.75
 40
1.0
 40
1.0
 40
1.0
 40
1.0
 10
8.2756000000000007
 20
15.426400000000001
 30
0.0
 10
8.2756000000000007
 20
15.8916
 30
0.0
 10
8.6528000000000009
 20
16.2685
 30
0.0
 10
9.1179000000000006
 20
16.2685
 30
0.0
 10
9.1179000000000006
 20
16.2685
 30
0.0
 10
9.5826000000000011
 20
16.2685
 30
0.0
 10
9.9596999999999998
 20
15.8916
 30
0.0
 10
9.9596999999999998
 20
15.426400000000001
 30
0.0
 10
9.9596999999999998
 20
15.426400000000001
 30
0.0
 10
9.9596999999999998
 20
14.961500000000001
 30
0.0
 10
9.5826000000000011
 20
14.5844
 30
0.0
 10
9.1179000000000006
 20
14.5844
 30
0.0
 10
9.1179000000000006
 20
14.5844
 30
0.0
 10
8.6528000000000009
 20
14.5844
 30
0.0
 10
8.2756000000000007
 20
14.961500000000001
 30
0.0
 10
8.2756000000000007
 20
15.426400000000001
 30
0.0
  0
SPLINE
  5
41
100
AcDbEntity
  8
Ebene 1
370
     5
100
AcDbSpline
210
0.0
220
0.0
230
1.0
 70
     1
 71
     3
 72
    20
 73
    16
 74
     0
 42
0.0000000001
 43
0.0000000001
 40
0.0
 40
0.0
 40
0.0
 40
0.0
 40
0.25
 40
0.25
 40
0.25
 40
0.25
 40
0.5
 40
0.5
 40
0.5
 40
0.5
 40
0.75
 40
0.75
 40
0.75
 40
0.75
 40
1.0
 40
1.0
 40
1.0
 40
1.0
 10
10.522600000000001
 20
-19.852900000000002
 30
0.0
 10
10.522600000000001
 20
-19.387900000000002
 30
0.0
 10
10.899700000000001
 20
-19.0107
 30
0.0
 10
11.364800000000001
 20
-19.0107
 30
0.0
 10
11.364800000000001
 20
-19.0107
 30
0.0
 10
11.829600000000001
 20
-19.0107
 30
0.0
 10
12.206800000000001
 20
-19.387900000000002
 30
0.0
 10
12.206800000000001
 20
-19.852900000000002
 30
0.0
 10
12.206800000000001
 20
-19.852900000000002
 30
0.0
 10
12.206800000000001
 20
-20.317900000000002
 30
0.0
 10
11.829600000000001
 20
-20.694800000000001
 30
0.0
 10
11.364800000000001
 20
-20.694800000000001
 30
0.0
 10
11.364800000000001
 20
-20.694800000000001
 30
0.0
 10
10.899700000000001
 20
-20.694800000000001
 30
0.0
 10
10.522600000000001
 20
-20.317900000000002
 30
0.0
 10
10.522600000000001
 20
-19.852900000000002
 30
0.0
  0
SPLINE
  5
42
100
AcDbEntity
  8
Ebene 1
370
     5
100
AcDbSpline
210
0.0
220
0.0
230
1.0
 70
     1
 71
     3
 72
    20
 73
    16
 74
     0
 42
0.0000000001
 43
0.0000000001
 40
0.0
 40
0.0
 40
0.0
 40
0.0
 40
0.25
 40
0.25
 40
0.25
 40
0.25
 40
0.5
 40
0.5
 40
0.5
 40
0.5
 40
0.75
 40
0.75
 40
0.75
 40
0.75
 40
1.0
 40
1.0
 40
1.0
 40
1.0
 10
8.9497
 20
-22.998800000000003
 30
0.0
 10
8.9497
 20
-22.533900000000003
 30
0.0
 10
9.3269000000000002
 20
-22.1568
 30
0.0
 10
9.7917000000000005
 20
-22.1568
 30
0.0
 10
9.7917000000000005
 20
-22.1568
 30
0.0
 10
10.256500000000001
 20
-22.1568
 30
0.0
 10
10.633800000000001
 20
-22.533900000000003
 30
0.0
 10
10.633800000000001
 20
-22.998800000000003
 30
0.0
 10
10.633800000000001
 20
-22.998800000000003
 30
0.0
 10
10.633800000000001
 20
-23.463700000000003
 30
0.0
 10
10.256500000000001
 20
-23.840800000000002
 30
0.0
 10
9.7917000000000005
 20
-23.840800000000002
 30
0.0
 10
9.7917000000000005
 20
-23.840800000000002
 30
0.0
 10
9.3269000000000002
 20
-23.840800000000002
 30
0.0
 10
8.9497
 20
-23.463700000000003
 30
0.0
 10
8.9497
 20
-22.998800000000003
 30
0.0
  0
SPLINE
  5
43
100
AcDbEntity
  8
Ebene 1
370
     5
100
AcDbSpline
210
0.0
220
0.0
230
1.0
 70
     1
 71
     3
 72
    20
 73
    16
 74
     0
 42
0.0000000001
 43
0.0000000001
 40
0.0
 40
0.0
 40
0.0
 40
0.0
 40
0.25
 40
0.25
 40
0.25
 40
0.25
 40
0.5
 40
0.5
 40
0.5
 40
0.5
 40
0.75
 40
0.75
 40
0.75
 40
0.75
 40
1.0
 40
1.0
 40
1.0
 40
1.0
 10
68.946899999999999
 20
-76.254800000000003
 30
0.0
 10
68.946899999999999
 20
-75.790000000000006
 30
0.0
 10
69.324300000000008
 20
-75.412800000000004
 30
0.0
 10
69.789100000000005
 20
-75.412800000000004
 30
0.0
 10
69.789100000000005
 20
-75.412800000000004
 30
0.0
 10
70.254100000000008
 20
-75.412800000000004
 30
0.0
 10
70.631200000000007
 20
-75.790000000000006
 30
0.0
 10
70.631200000000007
 20
-76.254800000000003
 30
0.0
 10
70.631200000000007
 20
-76.254800000000003
 30
0.0
 10
70.631200000000007
 20
-76.719800000000006
 30
0.0
 10
70.254100000000008
 20
-77.096800000000002
 30
0.0
 10
69.789100000000005
 20
-77.096800000000002
 30
0.0
 10
69.789100000000005
 20
-77.096800000000002
 30
0.0
 10
69.324300000000008
 20
-77.096800000000002
 30
0.0
 10
68.946899999999999
 20
-76.719800000000006
 30
0.0
 10
68.946899999999999
 20
-76.254800000000003
 30
0.0
  0
SPLINE
  5
44
100
AcDbEntity
  8
Ebene 1
370
     5
100
AcDbSpline
210
0.0
220
0.0
230
1.0
 70
     1
 71
     3
 72
    20
 73
    16
 74
     0
 42
0.0000000001
 43
0.0000000001
 40
0.0
 40
0.0
 40
0.0
 40
0.0
 40
0.25
 40
0.25
 40
0.25
 40
0.25
 40
0.5
 40
0.5
 40
0.5
 40
0.5
 40
0.75
 40
0.75
 40
0.75
 40
0.75
 40
1.0
 40
1.0
 40
1.0
 40
1.0
 10
68.722400000000007
 20
-70.637100000000004
 30
0.0
 10
68.722400000000007
 20
-70.172200000000004
 30
0.0
 10
69.099299999999999
 20
-69.795000000000002
 30
0.0
 10
69.56450000000001
 20
-69.795000000000002
 30
0.0
 10
69.56450000000001
 20
-69.795000000000002
 30
0.0
 10
70.029300000000006
 20
-69.795000000000002
 30
0.0
 10
70.406400000000005
 20
-70.172200000000004
 30
0.0
 10
70.406400000000005
 20
-70.637100000000004
 30
0.0
 10
70.406400000000005
 20
-70.637100000000004
 30
0.0
 10
70.406400000000005
 20
-71.101900000000001
 30
0.0
 10
70.029300000000006
 20
-71.479100000000003
 30
0.0
 10
69.56450000000001
 20
-71.479100000000003
 30
0.0
 10
69.56450000000001
 20
-71.479100000000003
 30
0.0
 10
69.099299999999999
 20
-71.479100000000003
 30
0.0
 10
68.722400000000007
 20
-71.101900000000001
 30
0.0
 10
68.722400000000007
 20
-70.637100000000004
 30
0.0
  0
SPLINE
  5
45
100
AcDbEntity
  8
Ebene 1
370
     5
100
AcDbSpline
210
0.0
220
0.0
230
1.0
 70
     1
 71
     3
 72
    20
 73
    16
 74
     0
 42
0.0000000001
 43
0.0000000001
 40
0.0
 40
0.0
 40
0.0
 40
0.0
 40
0.25
 40
0.25
 40
0.25
 40
0.25
 40
0.5
 40
0.5
 40
0.5
 40
0.5
 40
0.75
 40
0.75
 40
0.75
 40
0.75
 40
1.0
 40
1.0
 40
1.0
 40
1.0
 10
61.0824
 20
-71.928600000000003
 30
0.0
 10
61.0824
 20
-71.463700000000003
 30
0.0
 10
61.459400000000002
 20
-71.086500000000001
 30
0.0
 10
61.924300000000002
 20
-71.086500000000001
 30
0.0
 10
61.924300000000002
 20
-71.086500000000001
 30
0.0
 10
62.389300000000006
 20
-71.086500000000001
 30
0.0
 10
62.766500000000001
 20
-71.463700000000003
 30
0.0
 10
62.766500000000001
 20
-71.928600000000003
 30
0.0
 10
62.766500000000001
 20
-71.928600000000003
 30
0.0
 10
62.766500000000001
 20
-72.393500000000003
 30
0.0
 10
62.389300000000006
 20
-72.770600000000002
 30
0.0
 10
61.924300000000002
 20
-72.770600000000002
 30
0.0
 10
61.924300000000002
 20
-72.770600000000002
 30
0.0
 10
61.459400000000002
 20
-72.770600000000002
 30
0.0
 10
61.0824
 20
-72.393500000000003
 30
0.0
 10
61.0824
 20
-71.928600000000003
 30
0.0
  0
SPLINE
  5
46
100
AcDbEntity
  8
Ebene 1
370
     5
100
AcDbSpline
210
0.0
220
0.0
230
1.0
 70
     1
 71
     3
 72
    20
 73
    16
 74
     0
 42
0.0000000001
 43
0.0000000001
 40
0.0
 40
0.0
 40
0.0
 40
0.0
 40
0.25
 40
0.25
 40
0.25
 40
0.25
 40
0.5
 40
0.5
 40
0.5
 40
0.5
 40
0.75
 40
0.75
 40
0.75
 40
0.75
 40
1.0
 40
1.0
 40
1.0
 40
1.0
 10
68.27300000000001
 20
-64.962600000000009
 30
0.0
 10
68.27300000000001
 20
-64.497700000000009
 30
0.0
 10
68.650199999999998
 20
-64.120599999999996
 30
0.0
 10
69.115099999999998
 20
-64.120599999999996
 30
0.0
 10
69.115099999999998
 20
-64.120599999999996
 30
0.0
 10
69.579999999999998
 20
-64.120599999999996
 30
0.0
 10
69.957000000000008
 20
-64.497700000000009
 30
0.0
 10
69.957000000000008
 20
-64.962600000000009
 30
0.0
 10
69.957000000000008
 20
-64.962600000000009
 30
0.0
 10
69.957000000000008
 20
-65.427400000000006
 30
0.0
 10
69.579999999999998
 20
-65.804600000000008
 30
0.0
 10
69.115099999999998
 20
-65.804600000000008
 30
0.0
 10
69.115099999999998
 20
-65.804600000000008
 30
0.0
 10
68.650199999999998
 20
-65.804600000000008
 30
0.0
 10
68.27300000000001
 20
-65.427400000000006
 30
0.0
 10
68.27300000000001
 20
-64.962600000000009
 30
0.0
  0
SPLINE
  5
47
100
AcDbEntity
  8
Ebene 1
370
     5
100
AcDbSpline
210
0.0
220
0.0
230
1.0
 70
     1
 71
     3
 72
    20
 73
    16
 74
     0
 42
0.0000000001
 43
0.0000000001
 40
0.0
 40
0.0
 40
0.0
 40
0.0
 40
0.25
 40
0.25
 40
0.25
 40
0.25
 40
0.5
 40
0.5
 40
0.5
 40
0.5
 40
0.75
 40
0.75
 40
0.75
 40
0.75
 40
1.0
 40
1.0
 40
1.0
 40
1.0
 10
60.183500000000002
 20
-65.805700000000002
 30
0.0
 10
60.183500000000002
 20
-65.340800000000002
 30
0.0
 10
60.560600000000001
 20
-64.963800000000006
 30
0.0
 10
61.025500000000001
 20
-64.963800000000006
 30
0.0
 10
61.025500000000001
 20
-64.963800000000006
 30
0.0
 10
61.490600000000001
 20
-64.963800000000006
 30
0.0
 10
61.8675
 20
-65.340800000000002
 30
0.0
 10
61.8675
 20
-65.805700000000002
 30
0.0
 10
61.8675
 20
-65.805700000000002
 30
0.0
 10
61.8675
 20
-66.270600000000002
 30
0.0
 10
61.490600000000001
 20
-66.647999999999996
 30
0.0
 10
61.025500000000001
 20
-66.647999999999996
 30
0.0
 10
61.025500000000001
 20
-66.647999999999996
 30
0.0
 10
60.560600000000001
 20
-66.647999999999996
 30
0.0
 10
60.183500000000002
 20
-66.270600000000002
 30
0.0
 10
60.183500000000002
 20
-65.805700000000002
 30
0.0
  0
SPLINE
  5
48
100
AcDbEntity
  8
Ebene 1
370
     5
100
AcDbSpline
210
0.0
220
0.0
230
1.0
 70
     1
 71
     3
 72
    20
 73
    16
 74
     0
 42
0.0000000001
 43
0.0000000001
 40
0.0
 40
0.0
 40
0.0
 40
0.0
 40
0.25
 40
0.25
 40
0.25
 40
0.25
 40
0.5
 40
0.5
 40
0.5
 40
0.5
 40
0.75
 40
0.75
 40
0.75
 40
0.75
 40
1.0
 40
1.0
 40
1.0
 40
1.0
 10
50.0715
 20
-65.636600000000001
 30
0.0
 10
50.0715
 20
-65.171700000000001
 30
0.0
 10
50.448800000000006
 20
-64.794700000000006
 30
0.0
 10
50.913499999999999
 20
-64.794700000000006
 30
0.0
 10
50.913499999999999
 20
-64.794700000000006
 30
0.0
 10
51.3782
 20
-64.794700000000006
 30
0.0
 10
51.755700000000004
 20
-65.171700000000001
 30
0.0
 10
51.755700000000004
 20
-65.636600000000001
 30
0.0
 10
51.755700000000004
 20
-65.636600000000001
 30
0.0
 10
51.755700000000004
 20
-66.101500000000001
 30
0.0
 10
51.3782
 20
-66.47890000000001
 30
0.0
 10
50.913499999999999
 20
-66.47890000000001
 30
0.0
 10
50.913499999999999
 20
-66.47890000000001
 30
0.0
 10
50.448800000000006
 20
-66.47890000000001
 30
0.0
 10
50.0715
 20
-66.101500000000001
 30
0.0
 10
50.0715
 20
-65.636600000000001
 30
0.0
  0
SPLINE
  5
49
100
AcDbEntity
  8
Ebene 1
370
     5
100
AcDbSpline
210
0.0
220
0.0
230
1.0
 70
     1
 71
     3
 72
    20
 73
    16
 74
     0
 42
0.0000000001
 43
0.0000000001
 40
0.0
 40
0.0
 40
0.0
 40
0.0
 40
0.25
 40
0.25
 40
0.25
 40
0.25
 40
0.5
 40
0.5
 40
0.5
 40
0.5
 40
0.75
 40
0.75
 40
0.75
 40
0.75
 40
1.0
 40
1.0
 40
1.0
 40
1.0
 10
44.172900000000006
 20
-66.817000000000007
 30
0.0
 10
44.172900000000006
 20
-66.352100000000007
 30
0.0
 10
44.550000000000004
 20
-65.975000000000009
 30
0.0
 10
45.014800000000001
 20
-65.975000000000009
 30
0.0
 10
45.014800000000001
 20
-65.975000000000009
 30
0.0
 10
45.479700000000001
 20
-65.975000000000009
 30
0.0
 10
45.856900000000003
 20
-66.352100000000007
 30
0.0
 10
45.856900000000003
 20
-66.817000000000007
 30
0.0
 10
45.856900000000003
 20
-66.817000000000007
 30
0.0
 10
45.856900000000003
 20
-67.281999999999996
 30
0.0
 10
45.479700000000001
 20
-67.659400000000005
 30
0.0
 10
45.014800000000001
 20
-67.659400000000005
 30
0.0
 10
45.014800000000001
 20
-67.659400000000005
 30
0.0
 10
44.550000000000004
 20
-67.659400000000005
 30
0.0
 10
44.172900000000006
 20
-67.281999999999996
 30
0.0
 10
44.172900000000006
 20
-66.817000000000007
 30
0.0
  0
SPLINE
  5
4A
100
AcDbEntity
  8
Ebene 1
370
     5
100
AcDbSpline
210
0.0
220
0.0
230
1.0
 70
     1
 71
     3
 72
    20
 73
    16
 74
     0
 42
0.0000000001
 43
0.0000000001
 40
0.0
 40
0.0
 40
0.0
 40
0.0
 40
0.25
 40
0.25
 40
0.25
 40
0.25
 40
0.5
 40
0.5
 40
0.5
 40
0.5
 40
0.75
 40
0.75
 40
0.75
 40
0.75
 40
1.0
 40
1.0
 40
1.0
 40
1.0
 10
38.274500000000003
 20
-67.996200000000002
 30
0.0
 10
38.274500000000003
 20
-67.531199999999998
 30
0.0
 10
38.651400000000002
 20
-67.154200000000003
 30
0.0
 10
39.116300000000003
 20
-67.154200000000003
 30
0.0
 10
39.116300000000003
 20
-67.154200000000003
 30
0.0
 10
39.581299999999999
 20
-67.154200000000003
 30
0.0
 10
39.958200000000005
 20
-67.531199999999998
 30
0.0
 10
39.958200000000005
 20
-67.996200000000002
 30
0.0
 10
39.958200000000005
 20
-67.996200000000002
 30
0.0
 10
39.958200000000005
 20
-68.460999999999999
 30
0.0
 10
39.581299999999999
 20
-68.838200000000001
 30
0.0
 10
39.116300000000003
 20
-68.838200000000001
 30
0.0
 10
39.116300000000003
 20
-68.838200000000001
 30
0.0
 10
38.651400000000002
 20
-68.838200000000001
 30
0.0
 10
38.274500000000003
 20
-68.460999999999999
 30
0.0
 10
38.274500000000003
 20
-67.996200000000002
 30
0.0
  0
SPLINE
  5
4B
100
AcDbEntity
  8
Ebene 1
370
     5
100
AcDbSpline
210
0.0
220
0.0
230
1.0
 70
     1
 71
     3
 72
    20
 73
    16
 74
     0
 42
0.0000000001
 43
0.0000000001
 40
0.0
 40
0.0
 40
0.0
 40
0.0
 40
0.25
 40
0.25
 40
0.25
 40
0.25
 40
0.5
 40
0.5
 40
0.5
 40
0.5
 40
0.75
 40
0.75
 40
0.75
 40
0.75
 40
1.0
 40
1.0
 40
1.0
 40
1.0
 10
32.375700000000002
 20
-68.951900000000009
 30
0.0
 10
32.375700000000002
 20
-68.486900000000006
 30
0.0
 10
32.752700000000004
 20
-68.109700000000004
 30
0.0
 10
33.2179
 20
-68.109700000000004
 30
0.0
 10
33.2179
 20
-68.109700000000004
 30
0.0
 10
33.682700000000004
 20
-68.109700000000004
 30
0.0
 10
34.059899999999999
 20
-68.486900000000006
 30
0.0
 10
34.059899999999999
 20
-68.951900000000009
 30
0.0
 10
34.059899999999999
 20
-68.951900000000009
 30
0.0
 10
34.059899999999999
 20
-69.416700000000006
 30
0.0
 10
33.682700000000004
 20
-69.793700000000001
 30
0.0
 10
33.2179
 20
-69.793700000000001
 30
0.0
 10
33.2179
 20
-69.793700000000001
 30
0.0
 10
32.752700000000004
 20
-69.793700000000001
 30
0.0
 10
32.375700000000002
 20
-69.416700000000006
 30
0.0
 10
32.375700000000002
 20
-68.951900000000009
 30
0.0
  0
ENDSEC
  0
SECTION
  2
OBJECTS
  0
DICTIONARY
  5
19
100
AcDbDictionary
280
     0
281
     1
  3
ACAD_GROUP
350
1A
  3
ACAD_MLINESTYLE
350
1B
  3
ACAD_LAYOUT
350
1E
  3
ACAD_PLOTSETTINGS
350
22
  3
ACAD_PLOTSTYLENAME
350
1F
  3
ACAD_WIPEOUT_VARS
350
23
  0
DICTIONARY
  5
1A
102
{ACAD_REACTORS
330
19
102
}
100
AcDbDictionary
280
     0
281
     1
  0
DICTIONARY
  5
1B
102
{ACAD_REACTORS
330
19
102
}
100
AcDbDictionary
280
     0
281
     1
  3
Standard
350
1C
  0
MLINESTYLE
  5
1C
102
{ACAD_REACTORS
330
1B
102
}
100
AcDbMlineStyle
  2
Standard
 70
     0
  3

 62
     0
 51
90.0
 52
90.0
 71
     2
 49
0.5
 62
   256
  6
BYLAYER
 49
-0.5
 62
   256
  6
BYLAYER
  0
ACDBDICTIONARYWDFLT
  5
1F
102
{ACAD_REACTORS
330
19
102
}
100
AcDbDictionary
281
     1
  3
Normal
350
1D
100
AcDbDictionaryWithDefault
340
1D
  0
ACDBPLACEHOLDER
  5
1D
102
{ACAD_REACTORS
330
1F
102
}
  0
LAYOUT
  5
20
102
{ACAD_REACTORS
330
1E
102
}
100
AcDbPlotSettings
  1

  2

  4

  6

 40
0.0
 41
0.0
 42
0.0
 43
0.0
 44
0.0
 45
0.0
 46
0.0
 47
0.0
 48
0.0
 49
0.0
140
0.0
141
0.0
142
1.0
143
1.0
 70
  1024
 72
     0
 73
     0
 74
     0
  7

 75
     0
147
1.0
148
0.0
149
0.0
100
AcDbLayout
  1
Model
 70
     0
 71
     0
 10
0.0
 20
0.0
 11
0.0
 21
0.0
 12
0.0
 22
0.0
 32
0.0
 14
0.0
 24
0.0
 34
0.0
 15
0.0
 25
0.0
 35
0.0
146
0.0
 13
0.0
 23
0.0
 33
0.0
 16
0.0
 26
0.0
 36
0.0
 17
0.0
 27
0.0
 37
0.0
 76
     0
330
A
331
0
345
0
346
0
  0
LAYOUT
  5
21
102
{ACAD_REACTORS
330
1E
102
}
100
AcDbPlotSettings
  1

  2

  4

  6

 40
0.0
 41
0.0
 42
0.0
 43
0.0
 44
0.0
 45
0.0
 46
0.0
 47
0.0
 48
0.0
 49
0.0
140
0.0
141
0.0
142
1.0
143
1.0
 70
     0
 72
     0
 73
     0
 74
     0
  7

 75
     0
147
1.0
148
0.0
149
0.0
100
AcDbLayout
  1
Layout1
 70
     0
 71
     0
 10
0.0
 20
0.0
 11
0.0
 21
0.0
 12
0.0
 22
0.0
 32
0.0
 14
0.0
 24
0.0
 34
0.0
 15
0.0
 25
0.0
 35
0.0
146
0.0
 13
0.0
 23
0.0
 33
0.0
 16
0.0
 26
0.0
 36
0.0
 17
0.0
 27
0.0
 37
0.0
 76
     0
330
B
331
0
345
0
346
0
  0
DICTIONARY
  5
1E
102
{ACAD_REACTORS
330
19
102
}
100
AcDbDictionary
280
     0
281
     1
  3
Layout1
350
21
  3
Model
350
20
  0
DICTIONARY
  5
22
102
{ACAD_REACTORS
330
19
102
}
100
AcDbDictionary
280
     0
281
     1
  0
WIPEOUTVARIABLES
  5
23
100
AcDbWipeoutVariables
 70
     1
  0
ENDSEC
  0
EOF
