<?xml version="1.0" encoding="UTF-8" standalone="no"?>
<svg
   xmlns:dc="http://purl.org/dc/elements/1.1/"
   xmlns:cc="http://creativecommons.org/ns#"
   xmlns:rdf="http://www.w3.org/1999/02/22-rdf-syntax-ns#"
   xmlns:svg="http://www.w3.org/2000/svg"
   xmlns="http://www.w3.org/2000/svg"
   xmlns:sodipodi="http://sodipodi.sourceforge.net/DTD/sodipodi-0.dtd"
   xmlns:inkscape="http://www.inkscape.org/namespaces/inkscape"
   width="794.70081"
   height="397.8504"
   version="1.1"
   id="svg7045"
   sodipodi:docname="3D_Lab_Open_White_3.svg"
   inkscape:version="0.92.4 (5da689c313, 2019-01-14)">
  <metadata
     id="metadata7049">
    <rdf:RDF>
      <cc:Work
         rdf:about="">
        <dc:format>image/svg+xml</dc:format>
        <dc:type
           rdf:resource="http://purl.org/dc/dcmitype/StillImage" />
        <dc:title></dc:title>
      </cc:Work>
    </rdf:RDF>
  </metadata>
  <sodipodi:namedview
     pagecolor="#ffffff"
     bordercolor="#666666"
     borderopacity="1"
     objecttolerance="10"
     gridtolerance="10"
     guidetolerance="10"
     inkscape:pageopacity="0"
     inkscape:pageshadow="2"
     inkscape:window-width="1858"
     inkscape:window-height="1057"
     id="namedview7047"
     showgrid="false"
     inkscape:zoom="1.1893044"
     inkscape:cx="670.56003"
     inkscape:cy="284.75663"
     inkscape:window-x="-8"
     inkscape:window-y="-8"
     inkscape:window-maximized="1"
     inkscape:current-layer="g634"
     fit-margin-top="0"
     fit-margin-left="0"
     fit-margin-right="0"
     fit-margin-bottom="0" />
  <desc
     id="desc6940">C:\Users\Larsho\Documents\test2000.dxf - scale = 105.000000, origin = (0.141051, 0.343906), method = auto</desc>
  <defs
     id="defs6979">
    <marker
       id="DistanceX"
       orient="auto"
       refX="0"
       refY="0"
       style="overflow:visible">
      <path
         d="M 3,-3 -3,3 M 0,-5 V 5"
         style="stroke:#000000;stroke-width:0.5"
         id="path6942"
         inkscape:connector-curvature="0" />
    </marker>
    <pattern
       height="8"
       id="Hatch"
       patternUnits="userSpaceOnUse"
       width="8"
       x="0"
       y="0">
      <path
         d="M8 4 l-4,4"
         linecap="square"
         stroke="#000000"
         stroke-width="0.25"
         id="path6945" />
      <path
         d="M6 2 l-4,4"
         linecap="square"
         stroke="#000000"
         stroke-width="0.25"
         id="path6947" />
      <path
         d="M4 0 l-4,4"
         linecap="square"
         stroke="#000000"
         stroke-width="0.25"
         id="path6949" />
    </pattern>
    <symbol
       id="*Model_Space" />
    <symbol
       id="*Paper_Space" />
    <symbol
       id="*Paper_Space0" />
    <symbol
       id="*D1">
      <path
         d="m 1284344.4,-790796.75 a 215068.75,215068.75 0 0 0 -214033.5,219372.69"
         style="fill:none;stroke:#000000"
         id="path6955"
         inkscape:connector-curvature="0" />
      <text
         style="font-size:992.09997559px;font-family:Arial;fill:#000000"
         x="1130858"
         y="-726449"
         id="text6959">
        <tspan
           sodipodi:role="line"
           id="tspan6957"
           x="1130858"
           y="-726449">91°</tspan>
      </text>
      <path
         d="m 1176276.4,-761095.91 a 0.25,0.25 0 1 0 -0.5,0 0.25,0.25 0 1 0 0.5,0 z"
         style="fill:none;stroke:#000000"
         id="path6961"
         inkscape:connector-curvature="0" />
      <path
         d="m 854589.97,-565115.84 a 0.25,0.25 0 1 0 -0.5,0 0.25,0.25 0 1 0 0.5,0 z"
         style="fill:none;stroke:#000000"
         id="path6963"
         inkscape:connector-curvature="0" />
      <path
         d="m 1285336.8,-565115.84 a 0.25,0.25 0 1 0 -0.5,0 0.25,0.25 0 1 0 0.5,0 z"
         style="fill:none;stroke:#000000"
         id="path6965"
         inkscape:connector-curvature="0" />
      <path
         d="m 1285336.8,-948415.52 a 0.25,0.25 0 1 0 -0.5,0 0.25,0.25 0 1 0 0.5,0 z"
         style="fill:none;stroke:#000000"
         id="path6967"
         inkscape:connector-curvature="0" />
      <path
         d="m 1285206,-575727.07 a 0.25,0.25 0 1 0 -0.5,0 0.25,0.25 0 1 0 0.5,0 z"
         style="fill:none;stroke:#000000"
         id="path6969"
         inkscape:connector-curvature="0" />
    </symbol>
    <symbol
       id="_ClosedBlank">
      <path
         d="m -452.8267,1192.8573 396.850397,66.1418"
         style="fill:none;stroke:#000000;stroke-linecap:round"
         id="path6972"
         inkscape:connector-curvature="0" />
      <path
         d="M -55.976303,1258.9991 -452.8267,1325.1408"
         style="fill:none;stroke:#000000;stroke-linecap:round"
         id="path6974"
         inkscape:connector-curvature="0" />
      <path
         d="m -452.8267,1192.8573 v 132.2835"
         style="fill:none;stroke:#000000;stroke-linecap:round"
         id="path6976"
         inkscape:connector-curvature="0" />
    </symbol>
    <clipPath
       id="clipPath248"
       clipPathUnits="userSpaceOnUse">
      <path
         inkscape:connector-curvature="0"
         id="path246"
         d="M 3686,5991 H 33164 V 44842 H 3686 V 5991" />
    </clipPath>
    <clipPath
       id="clipPath312"
       clipPathUnits="userSpaceOnUse">
      <path
         inkscape:connector-curvature="0"
         id="path310"
         d="M 3686,5991 H 33164 V 44842 H 3686 V 5991" />
    </clipPath>
    <clipPath
       id="clipPath324"
       clipPathUnits="userSpaceOnUse">
      <path
         inkscape:connector-curvature="0"
         id="path322"
         d="M 3686,5991 H 33164 V 44842 H 3686 V 5991" />
    </clipPath>
    <clipPath
       id="clipPath336"
       clipPathUnits="userSpaceOnUse">
      <path
         inkscape:connector-curvature="0"
         id="path334"
         d="M 0,0 H 37795 V 49700 H 0 V 0" />
    </clipPath>
    <clipPath
       id="clipPath346"
       clipPathUnits="userSpaceOnUse">
      <path
         inkscape:connector-curvature="0"
         id="path344"
         d="M 0,0 H 37795 V 49700 H 0 V 0" />
    </clipPath>
    <clipPath
       id="clipPath354"
       clipPathUnits="userSpaceOnUse">
      <path
         inkscape:connector-curvature="0"
         id="path352"
         d="M 0,0 H 37795 V 49700 H 0 V 0" />
    </clipPath>
    <clipPath
       id="clipPath366"
       clipPathUnits="userSpaceOnUse">
      <path
         inkscape:connector-curvature="0"
         id="path364"
         d="M 0,0 H 37795 V 49700 H 0 V 0" />
    </clipPath>
    <marker
       style="overflow:visible"
       refY="0"
       refX="0"
       orient="auto"
       id="DistanceX-5">
      <path
         id="path531"
         style="stroke:#000000;stroke-width:0.5"
         d="M 3,-3 -3,3 M 0,-5 V 5"
         inkscape:connector-curvature="0" />
    </marker>
    <pattern
       y="0"
       x="0"
       width="8"
       patternUnits="userSpaceOnUse"
       id="Hatch-0"
       height="8">
      <path
         id="path534"
         stroke-width="0.25"
         stroke="#000000"
         linecap="square"
         d="M8 4 l-4,4" />
      <path
         id="path536"
         stroke-width="0.25"
         stroke="#000000"
         linecap="square"
         d="M6 2 l-4,4" />
      <path
         id="path538"
         stroke-width="0.25"
         stroke="#000000"
         linecap="square"
         d="M4 0 l-4,4" />
    </pattern>
    <symbol
       id="*Model_Space-1" />
    <symbol
       id="*Paper_Space-9" />
    <symbol
       id="*Paper_Space0-8" />
    <symbol
       id="*D2">
      <path
         id="path544"
         style="fill:none;stroke:#000000"
         d="m 1284344.4,-790796.75 a 215068.75,215068.75 0 0 0 -214033.5,219372.69"
         inkscape:connector-curvature="0" />
      <text
         id="text548"
         y="-726449"
         x="1130858"
         style="font-size:992.09997559px;font-family:Arial;fill:#000000">
        <tspan
           id="tspan546"
           sodipodi:role="line"
           x="1130858"
           y="-726449">91°</tspan>
      </text>
      <path
         id="path550"
         style="fill:none;stroke:#000000"
         d="m 1176276.4,-761095.91 a 0.25,0.25 0 1 0 -0.5,0 0.25,0.25 0 1 0 0.5,0 z"
         inkscape:connector-curvature="0" />
      <path
         id="path552"
         style="fill:none;stroke:#000000"
         d="m 854589.97,-565115.84 a 0.25,0.25 0 1 0 -0.5,0 0.25,0.25 0 1 0 0.5,0 z"
         inkscape:connector-curvature="0" />
      <path
         id="path554"
         style="fill:none;stroke:#000000"
         d="m 1285336.8,-565115.84 a 0.25,0.25 0 1 0 -0.5,0 0.25,0.25 0 1 0 0.5,0 z"
         inkscape:connector-curvature="0" />
      <path
         id="path556"
         style="fill:none;stroke:#000000"
         d="m 1285336.8,-948415.52 a 0.25,0.25 0 1 0 -0.5,0 0.25,0.25 0 1 0 0.5,0 z"
         inkscape:connector-curvature="0" />
      <path
         id="path558"
         style="fill:none;stroke:#000000"
         d="m 1285206,-575727.07 a 0.25,0.25 0 1 0 -0.5,0 0.25,0.25 0 1 0 0.5,0 z"
         inkscape:connector-curvature="0" />
    </symbol>
    <symbol
       id="_ClosedBlank-6">
      <path
         id="path561"
         style="fill:none;stroke:#000000;stroke-linecap:round"
         d="m -452.8267,1192.8573 396.850397,66.1418"
         inkscape:connector-curvature="0" />
      <path
         id="path563"
         style="fill:none;stroke:#000000;stroke-linecap:round"
         d="M -55.976303,1258.9991 -452.8267,1325.1408"
         inkscape:connector-curvature="0" />
      <path
         id="path565"
         style="fill:none;stroke:#000000;stroke-linecap:round"
         d="m -452.8267,1192.8573 v 132.2835"
         inkscape:connector-curvature="0" />
    </symbol>
  </defs>
  <g
     inkscape:groupmode="layer"
     inkscape:label="0"
     id="g7039"
     transform="translate(1066.2845,-290.48149)">
    <g
       id="g703"
       transform="translate(-502.42994,197.61458)">
      <g
         id="g636"
         inkscape:label="Defpoints" />
      <g
         id="g638"
         inkscape:label="ADSK_CONSTRAINTS" />
      <g
         transform="translate(-563.35451,-632.30238)"
         id="g634"
         inkscape:label="0">
        <path
           id="path572"
           style="fill:none;stroke:none;stroke-width:1.10000002"
           d="m 151.59758,970.12643 v 21.30262"
           inkscape:connector-curvature="0" />
        <path
           id="path574"
           style="fill:none;stroke:none;stroke-width:1.10000002"
           d="m 171.4382,971.58653 v 18.98136"
           inkscape:connector-curvature="0" />
        <path
           id="path576"
           style="fill:none;stroke:none;stroke-width:1.10000002"
           d="M 194.00018,1033.8316 H 793.70079"
           inkscape:connector-curvature="0" />
        <path
           id="path578"
           style="fill:none;stroke:none;stroke-width:1.10000002"
           d="M 793.70079,1013.9891 H 194.85944"
           inkscape:connector-curvature="0" />
        <path
           id="path580"
           style="fill:none;stroke:none;stroke-width:1.10000002"
           d="m 171.4382,990.56789 a 23.421235,23.421235 0 0 0 23.42124,23.42121"
           inkscape:connector-curvature="0" />
        <path
           id="path582"
           style="fill:none;stroke:none;stroke-width:1.10000002"
           d="m 151.59758,991.42905 a 42.402595,42.402595 0 0 0 42.4026,42.40255"
           inkscape:connector-curvature="0" />
        <path
           id="path584"
           style="fill:none;stroke:none"
           d="m 793.70079,1013.9891 v 19.8425"
           inkscape:connector-curvature="0" />
        <path
           id="path586"
           style="fill:none;stroke:none;stroke-width:1.5"
           d="M 151.59758,970.12643 131.75506,950.28391"
           inkscape:connector-curvature="0" />
        <path
           id="path588"
           style="fill:none;stroke:none"
           d="m 131.75506,950.28391 h 19.84252"
           inkscape:connector-curvature="0" />
        <path
           id="path590"
           style="fill:none;stroke:none;stroke-width:1.5"
           d="M 151.59568,950.28391 H 111.91064 V 930.5477 h 39.68504"
           inkscape:connector-curvature="0" />
        <path
           id="path592"
           style="fill:none;stroke:none;stroke-width:1.5"
           d="M 131.75506,950.28391 V 930.44139"
           inkscape:connector-curvature="0" />
        <path
           id="path594"
           style="fill:none;stroke:none;stroke-width:1.5"
           d="M 146.35853,930.44139 H 78.891688 l 1.133753,-79.37007 h 71.570239"
           inkscape:connector-curvature="0" />
        <path
           id="path596"
           style="fill:none;stroke:none;stroke-width:1.5"
           d="m 121.8319,890.75635 a 9.92126,9.92126 0 1 0 -19.84252,0 9.92126,9.92126 0 1 0 19.84252,0 z"
           inkscape:connector-curvature="0" />
        <path
           id="path598"
           style="fill:none;stroke:none;stroke-width:1.10000002"
           d="M 151.59568,973.92268 V 725.66929"
           inkscape:connector-curvature="0" />
        <path
           id="path600"
           style="fill:none;stroke:none;stroke-width:1.10000002"
           d="M 171.4382,971.58653 V 725.66929"
           inkscape:connector-curvature="0" />
        <path
           id="path602"
           style="fill:none;stroke:none;stroke-width:1.5"
           d="m 131.75506,847.10281 v 3.96851"
           inkscape:connector-curvature="0" />
        <path
           id="path608"
           style="fill:none;stroke:#000000"
           d="M 793.70079,1122.5197 V 725.66929 M 0,725.66929 V 1122.5197 M 0,725.66929 H 793.70079 M 0,1122.5197 h 793.70079 v -88.6881 H 0 Z"
           inkscape:connector-curvature="0" />
        <path
           id="path610"
           style="fill:none;stroke:none;stroke-width:1.5"
           d="M 71.711008,725.66929 V 847.10281"
           inkscape:connector-curvature="0" />
        <path
           id="path612"
           style="fill:none;stroke:none;stroke-width:1.5"
           d="M 71.711008,847.10281 H 131.75506"
           inkscape:connector-curvature="0" />
        <path
           id="path614"
           style="fill:none;stroke:none;stroke-width:1.5"
           d="m 171.4363,970.12643 19.84252,-19.84252"
           inkscape:connector-curvature="0" />
        <path
           id="path616"
           style="fill:none;stroke:none;stroke-width:1.5"
           d="m 171.4382,950.28391 h 39.68504 V 930.5477 H 171.4382"
           inkscape:connector-curvature="0" />
        <path
           id="path618"
           style="fill:none;stroke:none;stroke-width:1.5"
           d="M 191.27882,950.28391 V 930.44139"
           inkscape:connector-curvature="0" />
        <path
           id="path620"
           style="fill:none;stroke:none;stroke-width:1.5"
           d="m 176.67535,930.44139 h 67.46685 l -1.13376,-79.37007 H 171.4382"
           inkscape:connector-curvature="0" />
        <path
           id="path622"
           style="fill:none;stroke:none;stroke-width:1.5"
           d="m 191.27882,847.10281 v 3.96851"
           inkscape:connector-curvature="0" />
        <path
           id="path624"
           style="fill:none;stroke:none;stroke-width:1.5"
           d="M 251.32288,725.66929 V 847.10281"
           inkscape:connector-curvature="0" />
        <path
           id="path626"
           style="fill:none;stroke:none;stroke-width:1.5"
           d="M 251.32288,847.10281 H 191.27882"
           inkscape:connector-curvature="0" />
        <path
           style="fill:#0000ff;fill-opacity:1;stroke:none;stroke-width:1.9835124;stroke-miterlimit:10;stroke-dasharray:none"
           d="M -893.8307,353.54603 V 291.7452 h 39.09848 39.09849 v 59.688 59.68801 l -29.63918,0.22096 -29.63917,0.22097 -0.26869,1.89186 c -0.25992,1.83015 -0.56846,1.89186 -9.45931,1.89186 h -9.19062 z"
           id="path910"
           inkscape:connector-curvature="0"
           transform="translate(1065.7845,434.6878)" />
        <path
           style="fill:#0000ff;fill-opacity:1;stroke:none;stroke-width:1.9835124;stroke-miterlimit:10;stroke-dasharray:none"
           d="m 131.90532,847.16888 -0.52759,-2.10207 H 101.54437 71.711008 v -59.69876 -59.69876 h 39.098482 39.09849 v 61.80083 61.80083 h -8.73754 c -8.6188,0 -8.74471,-0.0286 -9.26512,-2.10207 z"
           id="path912"
           inkscape:connector-curvature="0" />
        <path
           style="fill:#0000ff;fill-opacity:1;stroke:none;stroke-width:1.9835124;stroke-miterlimit:10;stroke-dasharray:none"
           d="m -985.47909,476.93748 c 0.001,-9.59594 0.25077,-26.81189 0.55505,-38.25765 l 0.55323,-20.81049 h 34.75971 34.75971 v 38.25766 38.25766 h -35.31476 -35.31476 z m 39.15353,-12.87604 c 8.17485,-7.67988 0.48299,-21.4203 -10.35704,-18.50138 -8.19549,2.20682 -10.81999,12.09307 -4.8067,18.10636 4.16753,4.16753 10.95974,4.34447 15.16374,0.39502 z"
           id="path914"
           inkscape:connector-curvature="0"
           transform="translate(1065.7845,434.6878)" />
        <path
           style="fill:#0000ff;fill-opacity:1;stroke:none;stroke-width:1.9835124;stroke-miterlimit:10;stroke-dasharray:none"
           d="m -893.8307,456.127 v -38.25766 h 34.7627 34.76271 l 0.54925,13.24304 c 0.30209,7.28367 0.55052,24.49961 0.55206,38.25766 l 0.003,25.01462 h -35.31476 -35.31476 z"
           id="path916"
           inkscape:connector-curvature="0"
           transform="translate(1065.7845,434.6878)" />
        <path
           style="fill:#0000ff;fill-opacity:1;stroke:none;stroke-width:1.9835124;stroke-miterlimit:10;stroke-dasharray:none"
           d="m -893.8307,505.73583 v -8.82869 h 9.2491 9.2491 v 8.82869 8.82869 h -9.2491 -9.2491 z"
           id="path918"
           inkscape:connector-curvature="0"
           transform="translate(1065.7845,434.6878)" />
        <path
           style="fill:#0000ff;fill-opacity:1;stroke:none;stroke-width:1.9835124;stroke-miterlimit:10;stroke-dasharray:none"
           d="m -873.65084,505.73583 v -8.82869 h 8.82869 8.82869 v 8.82869 8.82869 h -8.82869 -8.82869 z"
           id="path920"
           inkscape:connector-curvature="0"
           transform="translate(1065.7845,434.6878)" />
        <path
           style="fill:#0000ff;fill-opacity:1;stroke:none;stroke-width:1.9835124;stroke-miterlimit:10;stroke-dasharray:none"
           d="M -893.8307,525.07487 V 517.087 h 8.18146 8.18146 l -7.95465,7.98787 c -4.37505,4.39332 -8.05671,7.98786 -8.18146,7.98786 -0.12475,0 -0.22681,-3.59454 -0.22681,-7.98786 z"
           id="path922"
           inkscape:connector-curvature="0"
           transform="translate(1065.7845,434.6878)" />
        <path
           style="fill:#0000ff;fill-opacity:1;stroke:none;stroke-width:1.9835124;stroke-miterlimit:10;stroke-dasharray:none"
           d="m -923.25967,525.07487 -7.95465,-7.98787 h 8.18146 8.18147 v 7.98787 c 0,4.39332 -0.10207,7.98786 -0.22682,7.98786 -0.12474,0 -3.8064,-3.59454 -8.18146,-7.98786 z"
           id="path924"
           inkscape:connector-curvature="0"
           transform="translate(1065.7845,434.6878)" />
        <path
           style="fill:#0000ff;fill-opacity:1;stroke:none;stroke-width:1.9835124;stroke-miterlimit:10;stroke-dasharray:none"
           d="m -932.50877,505.73583 v -8.82869 h 8.82869 8.82869 v 8.82869 8.82869 h -8.82869 -8.82869 z"
           id="path926"
           inkscape:connector-curvature="0"
           transform="translate(1065.7845,434.6878)" />
        <path
           style="fill:#000000;fill-opacity:1;stroke:none;stroke-width:1.9835124;stroke-miterlimit:10;stroke-dasharray:none"
           d="m -952.68864,505.73583 v -8.82869 h 8.82869 8.82869 v 8.82869 8.82869 h -8.82869 -8.82869 z"
           id="path928"
           inkscape:connector-curvature="0"
           transform="translate(1065.7845,434.6878)" />
        <path
           style="fill:#0000ff;fill-opacity:1;stroke:none;stroke-width:1.9835124;stroke-miterlimit:10;stroke-dasharray:none"
           d="m -952.68864,505.73583 v -8.82869 h 8.82869 8.82869 v 8.82869 8.82869 h -8.82869 -8.82869 z"
           id="path930"
           inkscape:connector-curvature="0"
           transform="translate(1065.7845,434.6878)" />
        <path
           style="fill:#008000;fill-opacity:1;stroke-width:1.9835124;stroke-miterlimit:10;stroke-dasharray:none"
           d="m -883.32036,596.62578 c -13.77346,-4.37439 -24.5398,-15.3701 -28.2893,-28.89197 -1.48975,-5.37253 -1.56008,-11.71971 -1.56008,-140.80737 V 291.7452 h 8.81615 8.81614 l 0.22275,134.74263 0.22276,134.74262 2.00605,4.43909 c 2.46743,5.46006 8.75762,11.3123 14.12433,13.14091 3.56425,1.21447 31.83437,1.33863 304.79514,1.33863 h 300.86651 v 8.82869 8.82869 l -303.32857,-0.0563 c -242.80942,-0.045 -303.9996,-0.26935 -306.69188,-1.12442 z"
           id="path932"
           inkscape:connector-curvature="0"
           transform="translate(1065.7845,434.6878)" />
        <flowRoot
           xml:space="preserve"
           id="flowRoot934"
           style="font-style:normal;font-variant:normal;font-weight:normal;font-stretch:normal;font-size:40px;line-height:1.25;font-family:'Elemental End';-inkscape-font-specification:'Elemental End';letter-spacing:0px;word-spacing:0px;fill:#008000;fill-opacity:1;stroke:none"
           transform="translate(1065.7845,434.6878)"><flowRegion
             id="flowRegion936"
             style="font-style:normal;font-variant:normal;font-weight:normal;font-stretch:normal;font-family:'Elemental End';-inkscape-font-specification:'Elemental End';fill:#008000"><rect
               id="rect938"
               width="372.48663"
               height="163.9614"
               x="-714.70349"
               y="327.09671"
               style="font-style:normal;font-variant:normal;font-weight:normal;font-stretch:normal;font-family:'Elemental End';-inkscape-font-specification:'Elemental End';fill:#008000" /></flowRegion><flowPara
             id="flowPara940" /></flowRoot>        <flowRoot
           xml:space="preserve"
           id="flowRoot946"
           style="font-style:normal;font-weight:normal;font-size:40px;line-height:1.25;font-family:sans-serif;letter-spacing:0px;word-spacing:0px;fill:#000000;fill-opacity:1;stroke:none"><flowRegion
             id="flowRegion948"><rect
               id="rect950"
               width="228.70511"
               height="163.9614"
               x="-665.93549"
               y="326.25589" /></flowRegion><flowPara
             id="flowPara952" /></flowRoot>        <flowRoot
           xml:space="preserve"
           id="flowRoot954"
           style="font-style:normal;font-weight:normal;font-size:66.66666412px;line-height:1.25;font-family:sans-serif;letter-spacing:0px;word-spacing:0px;fill:#008000;fill-opacity:1;stroke:none"
           transform="translate(1019.539,418.71208)"><flowRegion
             id="flowRegion956"
             style="font-size:66.66666412px;fill:#008000"><rect
               id="rect958"
               width="409.48306"
               height="216.09271"
               x="-708.81769"
               y="343.91327"
               style="font-size:66.66666412px;fill:#008000" /></flowRegion><flowPara
             id="flowPara960"
             style="font-style:normal;font-variant:normal;font-weight:normal;font-stretch:normal;font-size:66.66666412px;font-family:'Elemental End';-inkscape-font-specification:'Elemental End';text-align:center;text-anchor:middle;fill:#ff0000"><flowSpan
   style="fill:#008000"
   id="flowSpan1052">3d</flowSpan> <flowSpan
   style="fill:#008000"
   id="flowSpan1050">lab</flowSpan></flowPara><flowPara
             id="flowPara962"
             style="font-style:normal;font-variant:normal;font-weight:normal;font-stretch:normal;font-size:66.66666412px;font-family:'Elemental End';-inkscape-font-specification:'Elemental End';text-align:center;text-anchor:middle;fill:#008000">open</flowPara></flowRoot>        <path
           style="fill:none;fill-opacity:1;stroke:none;stroke-width:1.9835124;stroke-miterlimit:10;stroke-dasharray:none"
           d="m -1064.5187,643.63156 v -43.30262 h 395.60939 395.6094 v 43.30262 43.30262 h -395.6094 -395.60939 z"
           id="path988"
           inkscape:connector-curvature="0"
           transform="translate(1065.7845,434.6878)" />
        <path
           style="fill:#ff0000;fill-opacity:1;stroke-width:1.9835124;stroke-miterlimit:10;stroke-dasharray:none"
           d="m -821.09911,596.98117 -63.06208,-0.43596 -5.41472,-2.82533 c -6.25115,-3.26177 -14.41417,-10.69638 -17.4723,-15.91318 -1.16186,-1.982 -2.89771,-5.95491 -3.85744,-8.82869 -1.73168,-5.18528 -1.74748,-6.26102 -2.07418,-141.22894 l -0.32921,-136.00387 h 8.89834 8.89834 v 134.62051 134.62053 l 2.16036,4.32624 c 2.63555,5.27782 6.27948,9.20655 11.29288,12.17547 l 3.78373,2.24071 302.48774,0.22486 302.48774,0.22484 v 8.81405 8.81405 l -242.36857,-0.19466 c -133.30271,-0.10707 -270.74649,-0.39085 -305.43063,-0.63063 z"
           id="path990"
           inkscape:connector-curvature="0"
           transform="translate(1065.7845,434.6878)" />
        <path
           style="fill:#b3b3b3;fill-opacity:1;stroke:none;stroke-width:1.9835124;stroke-miterlimit:10;stroke-dasharray:none"
           d="m -1064.5187,643.63156 v -43.30262 h 395.60939 395.6094 v 43.30262 43.30262 h -395.6094 -395.60939 z"
           id="path1012"
           inkscape:connector-curvature="0"
           transform="translate(1065.7845,434.6878)" />
        <path
           style="fill:#000000;fill-opacity:1;stroke:none;stroke-width:1.9835124;stroke-miterlimit:10;stroke-dasharray:none"
           d="m -931.79186,413.94305 c -0.76184,-0.20236 -1.57776,-1.1044 -1.81315,-2.00454 -0.41395,-1.58294 -1.40963,-1.63662 -30.35608,-1.63662 h -29.9281 v -59.69876 -59.69876 h 38.67807 38.67807 v 61.80083 61.80083 l -6.93683,-0.0975 c -3.81525,-0.0537 -7.56015,-0.2631 -8.32198,-0.46545 z"
           id="path1014"
           inkscape:connector-curvature="0"
           transform="translate(1065.7845,434.6878)" />
        <path
           style="fill:#000000;fill-opacity:1;stroke:none;stroke-width:1.9835124;stroke-miterlimit:10;stroke-dasharray:none"
           d="M -893.8307,353.54603 V 291.7452 h 39.09848 39.09849 v 59.69876 59.69876 h -29.84938 c -28.544,0 -29.84939,0.0684 -29.84939,1.56454 0,1.25949 -0.86067,1.66791 -4.41434,2.09476 -2.42789,0.29162 -6.58999,0.53351 -9.2491,0.53753 l -4.83476,0.007 z"
           id="path1016"
           inkscape:connector-curvature="0"
           transform="translate(1065.7845,434.6878)" />
        <path
           style="fill:#000000;fill-opacity:1;stroke:none;stroke-width:1.9835124;stroke-miterlimit:10;stroke-dasharray:none"
           d="m -893.8307,456.127 v -38.25766 h 34.407 34.40701 l 0.46484,5.25518 c 0.25566,2.89034 0.70162,20.10629 0.99102,38.25765 l 0.52619,33.00249 h -35.39803 -35.39803 z"
           id="path1018"
           inkscape:connector-curvature="0"
           transform="translate(1065.7845,434.6878)" />
        <path
           style="fill:#000000;fill-opacity:1;stroke:none;stroke-width:1.9835124;stroke-miterlimit:10;stroke-dasharray:none"
           d="m -985.07211,464.74548 c 0.26564,-16.30154 0.69711,-33.51749 0.95883,-38.25765 l 0.47585,-8.61849 h 34.39302 34.39302 v 38.25766 38.25766 h -35.35185 -35.35185 z m 35.71362,1.38661 c 8.72518,-3.49112 8.9268,-15.88302 0.3265,-20.06721 -3.58192,-1.74266 -6.89308,-1.61645 -10.18075,0.38806 -8.06571,4.91772 -7.69602,15.27222 0.69808,19.55248 3.55925,1.8149 4.89083,1.83333 9.15617,0.12667 z"
           id="path1020"
           inkscape:connector-curvature="0"
           transform="translate(1065.7845,434.6878)" />
        <path
           style="fill:#000000;fill-opacity:1;stroke:none;stroke-width:1.9835124;stroke-miterlimit:10;stroke-dasharray:none"
           d="m -952.68864,505.73583 v -8.82869 h 8.82869 8.82869 v 8.82869 8.82869 h -8.82869 -8.82869 z"
           id="path1022"
           inkscape:connector-curvature="0"
           transform="translate(1065.7845,434.6878)" />
        <path
           style="fill:#000000;fill-opacity:1;stroke:none;stroke-width:1.9835124;stroke-miterlimit:10;stroke-dasharray:none"
           d="m -932.50877,505.73583 v -8.82869 h 8.82869 8.82869 v 8.82869 8.82869 h -8.82869 -8.82869 z"
           id="path1024"
           inkscape:connector-curvature="0"
           transform="translate(1065.7845,434.6878)" />
        <path
           style="fill:#000000;fill-opacity:1;stroke:none;stroke-width:1.9835124;stroke-miterlimit:10;stroke-dasharray:none"
           d="m -893.8307,505.73583 v -8.82869 h 9.2491 9.2491 v 8.82869 8.82869 h -9.2491 -9.2491 z"
           id="path1026"
           inkscape:connector-curvature="0"
           transform="translate(1065.7845,434.6878)" />
        <path
           style="fill:#000000;fill-opacity:1;stroke:none;stroke-width:1.9835124;stroke-miterlimit:10;stroke-dasharray:none"
           d="m -873.65084,505.73583 v -8.82869 h 8.82869 8.82869 v 8.82869 8.82869 h -8.82869 -8.82869 z"
           id="path1028"
           inkscape:connector-curvature="0"
           transform="translate(1065.7845,434.6878)" />
        <path
           style="fill:#000000;fill-opacity:1;stroke:none;stroke-width:1.9835124;stroke-miterlimit:10;stroke-dasharray:none"
           d="m -893.32033,530.05106 c -0.28071,-0.7315 -0.51037,-3.94767 -0.51037,-7.14703 V 517.087 h 7.75909 7.75909 l -7.10991,7.14704 c -3.91045,3.93087 -7.17237,7.14703 -7.24872,7.14703 -0.0763,0 -0.36848,-0.5985 -0.64918,-1.33001 z"
           id="path1030"
           inkscape:connector-curvature="0"
           transform="translate(1065.7845,434.6878)" />
        <path
           style="fill:#000000;fill-opacity:1;stroke:none;stroke-width:1.9835124;stroke-miterlimit:10;stroke-dasharray:none"
           d="m -923.25408,524.23966 -7.1155,-7.15266 h 7.75909 7.7591 l -0.0591,5.67559 c -0.0994,9.54819 -0.28221,9.58055 -8.34359,1.47707 z"
           id="path1032"
           inkscape:connector-curvature="0"
           transform="translate(1065.7845,434.6878)" />
        <flowRoot
           xml:space="preserve"
           id="flowRoot1034"
           style="font-style:normal;font-weight:normal;font-size:40px;line-height:1.25;font-family:sans-serif;letter-spacing:0px;word-spacing:0px;fill:#000000;fill-opacity:1;stroke:none"><flowRegion
             id="flowRegion1036"><rect
               id="rect1038"
               width="248.04414"
               height="84.082764"
               x="-682.75201"
               y="371.66058" /></flowRegion><flowPara
             id="flowPara1040" /></flowRoot>        <flowRoot
           xml:space="preserve"
           id="flowRoot1042"
           style="font-style:normal;font-weight:normal;font-size:40px;line-height:1.25;font-family:sans-serif;letter-spacing:0px;word-spacing:0px;fill:#000000;fill-opacity:1;stroke:none"><flowRegion
             id="flowRegion1044"><rect
               id="rect1046"
               width="243.84001"
               height="147.98566"
               x="-706.29523"
               y="350.63989" /></flowRegion><flowPara
             id="flowPara1048" /></flowRoot>        <path
           style="fill:#008000;fill-opacity:1;stroke:none;stroke-width:1.9835124;stroke-miterlimit:10;stroke-dasharray:none"
           d="m -630.65165,597.00178 -252.66871,-0.45657 -5.46538,-2.9146 c -3.26659,-1.74203 -8.02682,-5.46305 -11.83219,-9.2491 -5.12815,-5.10212 -6.80442,-7.43925 -8.61609,-12.01296 -2.98989,-7.54819 -2.98098,-7.14889 -3.51705,-157.65231 l -0.43799,-122.97104 h 8.83835 8.83835 v 134.98078 134.98079 l 2.03879,3.96598 c 2.58776,5.03386 5.99123,8.69527 11.08621,11.92641 l 4.02079,2.54992 h 302.53333 302.53333 v 8.82869 8.82869 l -52.34152,-0.17406 c -28.78784,-0.0957 -166.04244,-0.37951 -305.01022,-0.63062 z"
           id="path1054"
           inkscape:connector-curvature="0"
           transform="translate(1065.7845,434.6878)" />
      </g>
    </g>
  </g>
  <g
     inkscape:groupmode="layer"
     inkscape:label="Defpoints"
     id="g7041"
     transform="translate(1066.2845,-290.48149)" />
  <g
     inkscape:groupmode="layer"
     inkscape:label="ADSK_CONSTRAINTS"
     id="g7043"
     transform="translate(1066.2845,-290.48149)" />
</svg>
