<svg xmlns="http://www.w3.org/2000/svg" width="205" height="180" version="1"><path d="M168.633 159.614c-4.307-2.905-6.57-7.6-6.99-14.503-.313-5.143.2-9.02 2.413-18.19 1.976-8.193 2.24-9.832 2.366-14.686l.11-4.22-.612-1.122c-.336-.618-.67-1.117-.742-1.11-.222.025-2.915 3.22-4.552 5.4-3.57 4.756-5.595 9.447-5.964 13.81l-.142 1.688-1.152.24c-2.32.48-2.375.465-2.702-.772-.438-1.654-.23-5.785.38-7.6.828-2.465 2.686-5.915 5.343-9.92 2.948-4.448 4.87-7.96 5.58-10.193.578-1.828.648-1.87 3.397-2.065l1.908-.135.683 1.737c1.624 4.138 2.222 7.048 2.417 11.762.222 5.386-.346 10.194-2.59 21.922-1.946 10.165-1.922 9.932-1.344 13.094 1 5.46 2.373 8.622 4.95 11.396.62.67.64.752.485 2.093-.09.768-.246 1.62-.35 1.892-.295.78-1.21.616-2.892-.518zm-19.75-21.842l-.964-.086.117-.883c.182-1.354 1.053-2.48 2.445-3.162 1.08-.527 1.58-.61 4.693-.783 1.916-.106 3.856-.197 4.31-.2l.826-.01v2.088c0 2.47.633 2.127-5.08 2.752-4.018.44-4.41.457-6.348.285zm19.888-2.82c-.18-.727.053-2.17.49-3.014.52-1.01 1.998-2.52 3.83-3.92 1.888-1.44 3.526-3.12 4.073-4.18 1.178-2.277 1.976-9.81 1.454-13.725-.71-5.334-3.47-11.27-7.07-15.21-.606-.662-1.1-1.302-1.1-1.42 0-.12 1.056-1.198 2.35-2.394 1.655-1.535 2.38-2.08 2.453-1.846.292.917 3.97 7.776 4.795 8.944 1.787 2.526 4.158 4.326 6.488 4.925.543.14 1.36.398 1.818.573 1.204.462 2.855.395 5.627-.23 4.148-.937 5.468-.67 6.418 1.292.79 1.628.63 1.916-1.434 2.608-3.618 1.214-8.388 1.267-13.168.145-1.472-.345-2.01-.394-2.203-.202-.29.288-.306 2.187-.045 5.3.147 1.746.097 2.507-.303 4.59-1.213 6.328-3.585 10.96-7.475 14.6-1.534 1.435-2.092 1.814-3.1 2.104-.677.195-1.798.64-2.492.988l-1.263.633-.14-.562zm-12.477-38.877c-.33-.1-.95-.397-1.377-.66-.635-.393-.774-.61-.774-1.214v-.735l1.487-.145c3.714-.364 6.714-1.59 9.67-3.955 3.15-2.522 5.88-6.157 10.323-13.747 1.43-2.442 2.332-3.767 2.57-3.77.445-.01 1.456 1.148 1.64 1.877.294 1.174-1.4 6.83-3.015 10.07-3.12 6.257-8.36 10.515-14.854 12.073-1.808.434-4.58.535-5.67.207zM46.516 92.99l-35.692-.11-.717-.512c-.903-.644-2.28-3.443-2.894-5.878-1.057-4.202-1.67-8.8-2.01-15.092-.128-2.363-.44-7.47-.69-11.346-.5-7.698-.465-12.516.146-19.72.923-10.868 2.6-17.387 4.856-18.865.62-.407 7.124-.802 28.234-1.718 19.857-.862 41.31-.154 53.37 1.76 2.72.433 3.22.815 4.525 3.462 1.32 2.676 2.076 5.718 2.273 9.14.214 3.724.127 4.605-.474 4.766-.767.206-3.223.152-3.657-.08-.628-.336-1.078-1.763-1.444-4.574-.775-5.963-1.83-7.364-6.336-8.43-5.034-1.19-12.69-1.633-27.924-1.62-14.805.013-26.24.47-37.713 1.503-2.836.256-3.646.41-4.526.855-2.28 1.155-3.982 3.853-5.026 7.965-.8 3.15-.96 5.218-1.198 15.33-.34 14.537.213 21.577 2.288 29.107 1.254 4.55 2.296 6.095 5.003 7.416 3.01 1.468 1.832 1.415 31.7 1.406 25.886-.007 34.434-.17 37.794-.717 3.126-.51 4.918-3.752 5.947-10.762.48-3.27.538-3.467 1.175-4.037 1.294-1.154 2.988-1.015 3.71.305.647 1.187.512 5.024-.318 8.988-1.07 5.11-2.05 8.57-2.62 9.248-1.115 1.325-4.4 2.116-9.335 2.25-1.515.04-18.815.023-38.446-.04zm100.466-3.615c-1.436-.355-2.3-.82-3.337-1.8l-.845-.796.515-.42c.8-.645 2.523-1.078 5.65-1.417 1.575-.17 3.31-.456 3.855-.633 5.993-1.946 9.73-4.34 14.574-9.34 2.37-2.447 7.25-8.5 7.61-9.44.074-.19.47-.3 1.088-.3 1.136 0 1.134-.132.046 3.187-2.46 7.493-7.53 13.694-14.778 18.066-1.63.984-1.94 1.078-6.917 2.116-5.602 1.166-5.796 1.186-7.46.775zM40.536 84.732c.212-.554 8.296-11.776 10.094-14.013 3.703-4.61 9.112-10.28 11.158-11.702 1.523-1.057 4.214-1.926 6.844-2.21 3.133-.337 28.884-.325 48.827.024 16.918.296 16.454.257 21.28 1.786 1.496.473 2.76.82 2.812.768.052-.052-.177-.448-.507-.88-.778-1.02-2.504-2.154-4.31-2.83-3.016-1.13-4.04-1.2-21.26-1.455-15.527-.23-22.512-.393-41.088-.968l-8.703-.27-1.292-.644c-2.275-1.135-4.094-3.136-13.067-14.377-4.765-5.97-8.664-10.907-8.664-10.972 0-.22 4.957.183 5.27.43.173.136 2.488 3.155 5.145 6.71 5.723 7.655 7.43 9.728 10.064 12.205 2.605 2.454 3.52 3.058 5.148 3.4 3.137.66 11.667.815 30.738.557 22.11-.3 29.52-.14 32.974.71 2.758.677 6.145 1.853 8.26 2.868.895.428 1.664.74 1.71.692.207-.205-.656-1.434-1.675-2.387-3.196-2.99-7.956-4.853-13.913-5.444-2.387-.238-16.08-.348-25.006-.2-2.787.045-8.34.08-12.338.077-6.53-.005-7.547-.055-9.985-.494-3.23-.58-6.84-1.74-8.966-2.877-1.274-.682-1.623-.994-2.026-1.808-1.158-2.344-1.28-8.725-.262-13.818l.23-1.157h1.748c.96 0 1.762.025 1.78.055.02.03.1 2.484.176 5.453.152 5.91.226 6.277 1.558 7.795.972 1.106 1.583 1.385 3.643 1.662 4.362.586 7.703.682 23.595.68 9.807-.003 17.908.09 19.498.225 7.46.63 13.427 2.12 18.623 4.648 2.52 1.226 2.8 1.43 4.596 3.338 3.38 3.59 6.655 8.39 8.527 12.498l.853 1.872-.08-1.342c-.177-2.994-4.587-10.293-11.488-19.02-1.286-1.624-2.338-3.032-2.338-3.126 0-.317.974-.857 1.546-.857 1.006 0 3.602 1.752 4.78 3.228 6.02 7.53 9.78 13.66 11.53 18.805.393 1.15.948 2.34 1.234 2.64l.52.545.665-.666.667-.666-.57-1.973c-1.273-4.406-2.66-7.13-8.014-15.723-4.084-6.557-4.11-6.63-2.325-6.63.772 0 1.243.203 2.562 1.1.888.605 1.773 1.224 1.965 1.377.563.446 4.976 7.93 6.507 11.032.773 1.57 1.762 4.004 2.196 5.412 1.152 3.732 1.156 3.736 2.41 2.635.802-.705.816-.743.687-1.94-.3-2.79-1.903-7.8-3.804-11.883-.53-1.14-.965-2.203-.965-2.365 0-.162.288-.616.64-1.01.613-.687.66-.7 1.266-.388 1.024.53 2.78 2.45 3.53 3.86.384.72 1.265 3.22 1.96 5.553.693 2.333 1.34 4.24 1.437 4.24.097 0 .504-.41.905-.913 1.85-2.322 2.52-2.645 3.444-1.66.598.636.608 1.47.038 3.125-.59 1.71-.566 2.184.12 2.497.31.14.706.256.882.256.433 0 .403.572-.11 2.06-1.512 4.398-4.775 8.278-9.925 11.804-4.892 3.35-11.24 5.442-17.258 5.692-2.987.123-4.724-.224-6.207-1.24-1.14-.78-1.18-1.464-.13-2.172 1.148-.774 2.665-1.135 5.833-1.39 9.836-.79 17.28-4.363 22.683-10.89.847-1.026.866-1.076.255-.675-6.71 4.402-14.02 7.617-19.56 8.6-1.66.294-2.895.356-5.398.27-3.437-.12-5.488-.532-7.863-1.583-1.314-.58-1.48-.88-1.385-2.487l.055-.932-18.066-.11c-9.937-.062-20.393-.11-23.235-.11-6.574 0-12.968.423-18.406 1.217-2.568.374-3.018.708-3.876 2.882-.58 1.464-.692 4.3-.336 8.388.222 2.545-.048 4.043-.827 4.59-.283.198-.986.32-1.846.32-1.65 0-1.65 0-2.016-2.986-.536-4.374-.205-9.13.858-12.325.427-1.28.61-1.53 1.7-2.31 2.3-1.648 6.145-2.75 11.518-3.3 1.316-.134 6.814-.23 12.778-.225 5.757.005 16.07-.054 22.916-.133 7.97-.093 14.66-.056 18.598.102 3.382.136 6.192.205 6.244.153.22-.22-2.356-1.457-3.897-1.873-3.033-.818-4.424-.905-17.75-1.11-7.27-.11-19.07-.32-26.218-.46-19.75-.393-21.552-.387-23.244.078-2.99.82-5.605 2.08-7.82 3.763-2.24 1.7-4.82 4.6-10.96 12.308l-6.626 8.318h-2.302c-1.943 0-2.282-.05-2.176-.326z"/></svg>