<?xml version="1.0" encoding="UTF-8" standalone="no"?>
<!-- Created with Inkscape (http://www.inkscape.org/) -->

<svg
   xmlns:dc="http://purl.org/dc/elements/1.1/"
   xmlns:cc="http://creativecommons.org/ns#"
   xmlns:rdf="http://www.w3.org/1999/02/22-rdf-syntax-ns#"
   xmlns:svg="http://www.w3.org/2000/svg"
   xmlns="http://www.w3.org/2000/svg"
   xmlns:sodipodi="http://sodipodi.sourceforge.net/DTD/sodipodi-0.dtd"
   xmlns:inkscape="http://www.inkscape.org/namespaces/inkscape"
   id="svg2"
   sodipodi:version="0.32"
   inkscape:version="0.91pre0 r13343"
   width="205"
   height="180"
   version="1.0"
   sodipodi:docname="ccc-event.svg"
   inkscape:output_extension="org.inkscape.output.svg.inkscape">
  <metadata
     id="metadata7">
    <rdf:RDF>
      <cc:Work
         rdf:about="">
        <dc:format>image/svg+xml</dc:format>
        <dc:type
           rdf:resource="http://purl.org/dc/dcmitype/StillImage" />
        <dc:title></dc:title>
      </cc:Work>
    </rdf:RDF>
  </metadata>
  <defs
     id="defs5" />
  <sodipodi:namedview
     inkscape:window-height="753"
     inkscape:window-width="1280"
     inkscape:pageshadow="2"
     inkscape:pageopacity="0.0"
     guidetolerance="10.0"
     gridtolerance="10.0"
     objecttolerance="10.0"
     borderopacity="1.0"
     bordercolor="#666666"
     pagecolor="#ffffff"
     id="base"
     width="930px"
     height="676.29px"
     inkscape:zoom="2.9341317"
     inkscape:cx="97.915304"
     inkscape:cy="89.293876"
     inkscape:window-x="0"
     inkscape:window-y="0"
     inkscape:current-layer="svg2"
     showgrid="false"
     inkscape:window-maximized="0" />
  <path
     style="fill:#000000"
     d="m 168.63271,159.6139 c -4.30622,-2.90458 -6.56955,-7.60069 -6.98991,-14.50302 -0.31325,-5.14362 0.20095,-9.01979 2.4133,-18.19213 1.97583,-8.19173 2.23996,-9.83114 2.36585,-14.68444 l 0.10953,-4.21925 -0.61148,-1.12349 c -0.3363,-0.61792 -0.67006,-1.11705 -0.74169,-1.10918 -0.22195,0.0244 -2.9158,3.22026 -4.55249,5.40091 -3.56897,4.75509 -5.59448,9.44543 -5.96332,13.8087 l -0.14271,1.68829 -1.15164,0.23908 c -2.31997,0.48163 -2.37543,0.46579 -2.70257,-0.77174 -0.43715,-1.65382 -0.2307,-5.78469 0.3799,-7.60101 0.82809,-2.46337 2.68675,-5.91378 5.34344,-9.91962 2.94927,-4.447 4.87201,-7.95893 5.57999,-10.191936 0.57947,-1.827654 0.64914,-1.870004 3.39848,-2.065142 l 1.90811,-0.135396 0.68221,1.737408 c 1.62471,4.137836 2.22273,7.047666 2.41729,11.761946 0.22228,5.38581 -0.34585,10.1938 -2.5903,21.92178 -1.94531,10.16494 -1.92148,9.93255 -1.34325,13.09389 0.99862,5.45975 2.37175,8.62242 4.94811,11.39674 0.62086,0.66859 0.64007,0.75149 0.4851,2.09303 -0.0887,0.76828 -0.24578,1.61996 -0.34896,1.89261 -0.29521,0.78002 -1.21193,0.61588 -2.8929,-0.51796 z m -19.75024,-21.84182 -0.96349,-0.0856 0.11846,-0.88303 c 0.18174,-1.35488 1.05228,-2.48116 2.44418,-3.16214 1.07964,-0.52822 1.5814,-0.6121 4.69301,-0.78444 1.91626,-0.10614 3.85591,-0.19675 4.31033,-0.20136 l 0.82618,-0.009 0,2.08883 c 0,2.46901 0.63212,2.12674 -5.08151,2.75156 -4.01776,0.43936 -4.40925,0.45691 -6.34714,0.28463 z m 19.88888,-2.82115 c -0.1822,-0.726 0.0514,-2.16951 0.4877,-3.01316 0.52229,-1.00998 1.99855,-2.52016 3.8306,-3.91857 1.88813,-1.44121 3.52658,-3.12264 4.07359,-4.18042 1.17778,-2.27758 1.97561,-9.81071 1.45371,-13.72618 -0.71087,-5.33345 -3.47101,-11.271006 -7.06993,-15.208814 -0.60566,-0.662693 -1.1012,-1.30268 -1.1012,-1.422217 0,-0.11952 1.05737,-1.196216 2.34973,-2.392631 1.65657,-1.533585 2.38073,-2.077792 2.45481,-1.844799 0.29157,0.917146 3.96834,7.776168 4.79427,8.943705 1.78698,2.526126 4.15879,4.326596 6.48819,4.925286 0.54326,0.13968 1.36155,0.39754 1.81839,0.57313 1.20259,0.46222 2.8538,0.39427 5.62604,-0.23154 4.14737,-0.93621 5.46765,-0.67014 6.41816,1.29335 0.7882,1.62821 0.63023,1.91554 -1.43396,2.60804 -3.61964,1.21434 -8.38908,1.26679 -13.16918,0.14485 -1.47256,-0.34564 -2.01081,-0.39527 -2.20319,-0.20313 -0.28902,0.28861 -0.30462,2.1875 -0.0436,5.30022 0.14646,1.74616 0.0962,2.50664 -0.30307,4.5887 -1.21364,6.32894 -3.5851,10.9608 -7.47524,14.60045 -1.53446,1.43565 -2.09235,1.81437 -3.10053,2.10479 -0.67617,0.19478 -1.79749,0.63922 -2.4918,0.98764 l -1.26241,0.6335 -0.14111,-0.56212 z M 156.2934,96.074974 c -0.33154,-0.09989 -0.9512,-0.396806 -1.377,-0.659981 -0.63528,-0.392632 -0.77421,-0.610498 -0.77421,-1.21411 l 0,-0.735601 1.48715,-0.145565 c 3.71504,-0.363697 6.7148,-1.59049 9.66941,-3.954471 3.152,-2.521926 5.88208,-6.15694 10.32456,-13.746961 1.42977,-2.442739 2.33168,-3.766825 2.56918,-3.771749 0.44535,-0.0089 1.45698,1.149498 1.63991,1.878373 0.29481,1.174579 -1.39811,6.831087 -3.0139,10.070365 -3.12101,6.25682 -8.36005,10.514783 -14.85497,12.073128 -1.8071,0.43359 -4.58068,0.534647 -5.67013,0.20661 z M 46.516214,92.991413 10.824485,92.879385 10.106972,92.367625 C 9.2044891,91.723911 7.8263701,88.924592 7.2134461,86.490129 6.1555691,82.288251 5.5427521,77.688764 5.2026741,71.398264 5.0749481,69.035335 4.7641601,63.929441 4.5120611,60.051818 4.0116301,52.353962 4.0476281,47.536039 4.6594111,40.333227 5.5826221,29.463735 7.2608081,22.944524 9.5160081,21.466865 10.136335,21.060408 16.640401,20.664672 37.749795,19.74897 c 19.857056,-0.861383 41.310419,-0.153235 53.370078,1.761778 2.719706,0.431878 3.219496,0.814163 4.525296,3.461496 1.319859,2.67584 2.076296,5.717323 2.27311,9.13977 0.214155,3.723708 0.126478,4.604767 -0.473798,4.765816 -0.767603,0.205931 -3.223634,0.151988 -3.657776,-0.08046 -0.627534,-0.335851 -1.077804,-1.76235 -1.443428,-4.573033 -0.775703,-5.96289 -1.829477,-7.364807 -6.336398,-8.429713 -5.034112,-1.189491 -12.689833,-1.633588 -27.92391,-1.619835 -14.805016,0.01249 -26.239925,0.468947 -37.713419,1.502581 -2.835335,0.255434 -3.645646,0.408384 -4.525385,0.854176 -2.279656,1.155187 -3.982568,3.853915 -5.02596,7.965047 -0.799481,3.150086 -0.9611009,5.21814 -1.1979829,15.329891 -0.34056,14.537934 0.212799,21.577733 2.2880059,29.107638 1.254069,4.550414 2.29623,6.095111 5.00293,7.415379 3.009781,1.468098 1.831064,1.415795 31.698083,1.406644 25.886682,-0.0071 34.434807,-0.170003 37.794337,-0.716835 3.126358,-0.508835 4.918213,-3.751199 5.946942,-10.76103 0.479881,-3.269926 0.537376,-3.46749 1.174953,-4.037154 1.293047,-1.155331 2.987697,-1.016295 3.708706,0.304277 0.647888,1.186672 0.512402,5.023587 -0.317369,8.987477 -1.06983,5.11064 -2.050251,8.570228 -2.62095,9.248459 -1.113802,1.323676 -4.397641,2.114434 -9.333925,2.247672 -1.514711,0.04085 -18.81527,0.0239 -38.445721,-0.03764 z M 146.98182,89.375076 c -1.43551,-0.354761 -2.29866,-0.820159 -3.33648,-1.798937 l -0.84569,-0.797592 0.51565,-0.41757 c 0.79835,-0.646444 2.52283,-1.079427 5.6494,-1.418417 1.57527,-0.170718 3.31029,-0.455426 3.85556,-0.632511 5.99262,-1.946001 9.72938,-4.341039 14.57325,-9.340597 2.37043,-2.446628 7.24957,-8.498195 7.61087,-9.439691 0.0733,-0.190876 0.46975,-0.300424 1.08735,-0.300424 1.13658,0 1.13468,-0.130937 0.0461,3.187438 -2.45835,7.492942 -7.53099,13.694283 -14.77832,18.066629 -1.62965,0.983186 -1.93829,1.077571 -6.91682,2.115236 -5.60194,1.167604 -5.79606,1.187815 -7.4607,0.776436 z M 40.535539,84.731651 c 0.2123,-0.553218 8.296402,-11.775202 10.094804,-14.013116 3.702516,-4.607426 9.111939,-10.279811 11.157855,-11.700298 1.522541,-1.057109 4.214221,-1.926091 6.844269,-2.209603 3.132209,-0.337636 28.883708,-0.325381 48.826553,0.02319 16.91899,0.295767 16.45521,0.256861 21.28232,1.785897 1.49493,0.473531 2.75992,0.819105 2.81109,0.767942 0.0512,-0.05119 -0.17732,-0.447449 -0.50776,-0.880647 -0.7773,-1.019117 -2.50417,-2.152773 -4.30994,-2.829417 -3.01608,-1.130142 -4.03843,-1.200106 -21.25858,-1.454612 C 99.948082,53.991493 92.963122,53.826735 74.386607,53.251701 L 65.68398,52.982316 64.392128,52.33805 C 62.116592,51.203234 60.29789,49.20222 51.324897,37.961058 46.559545,31.991121 42.660623,27.053391 42.660623,26.988333 c 0,-0.221807 4.956031,0.182474 5.270547,0.429934 0.172323,0.135574 2.487266,3.154866 5.14425,6.709444 5.722279,7.655383 7.430934,9.727843 10.063122,12.205654 2.606642,2.453781 3.521345,3.057821 5.149333,3.400451 3.137168,0.660232 11.667027,0.814502 30.737977,0.555965 22.109558,-0.299747 29.520368,-0.140393 32.974248,0.709163 2.75804,0.678374 6.14475,1.854434 8.26132,2.868767 0.8933,0.428113 1.66278,0.739793 1.70995,0.692627 0.20559,-0.205592 -0.65712,-1.434544 -1.67614,-2.387725 -3.19627,-2.989732 -7.95645,-4.852281 -13.91326,-5.443923 -2.38652,-0.237025 -16.08002,-0.346376 -25.00626,-0.19967 -2.787028,0.04584 -8.339074,0.081 -12.337876,0.07813 -6.531287,-0.0054 -7.546529,-0.05477 -9.984844,-0.493653 -3.229663,-0.581278 -6.840773,-1.740354 -8.965607,-2.877738 -1.27412,-0.682015 -1.6231,-0.993462 -2.026061,-1.808179 -1.159183,-2.343698 -1.281006,-8.724891 -0.263765,-13.817853 l 0.23103,-1.156687 1.746937,0 c 0.960799,0 1.762672,0.0248 1.781901,0.05512 0.01927,0.03032 0.09758,2.484089 0.174286,5.452897 0.152521,5.908731 0.225875,6.275818 1.558433,7.793544 0.971537,1.106506 1.583105,1.385611 3.642703,1.662416 4.362231,0.586291 7.703636,0.682388 23.595163,0.678607 9.80712,-0.0019 17.90811,0.09151 19.49826,0.225964 7.45833,0.630441 13.42678,2.120231 18.62299,4.64849 2.51954,1.225918 2.80027,1.429762 4.59716,3.338087 3.38062,3.590293 6.65419,8.388468 8.52649,12.497602 l 0.85331,1.8727 -0.0798,-1.342495 c -0.17786,-2.994066 -4.58709,-10.293153 -11.4886,-19.018614 -1.2859,-1.62574 -2.33801,-3.032919 -2.33801,-3.127054 0,-0.316925 0.97452,-0.857119 1.54623,-0.857119 1.00639,0 3.60167,1.751878 4.78112,3.227343 6.01806,7.528513 9.77768,13.660103 11.53013,18.804602 0.39213,1.151157 0.94669,2.338811 1.23235,2.639199 l 0.51936,0.546171 0.66647,-0.666458 0.66646,-0.666458 -0.56999,-1.972741 c -1.27285,-4.40549 -2.66129,-7.129637 -8.01366,-15.722911 -4.08387,-6.556691 -4.10936,-6.629383 -2.32541,-6.629383 0.77222,0 1.24281,0.20197 2.56176,1.099458 0.88867,0.604719 1.77308,1.224349 1.96534,1.376997 0.56321,0.447164 4.976,7.92976 6.50679,11.033321 0.7736,1.568405 1.76208,4.003581 2.19663,5.411491 1.15188,3.731986 1.15569,3.73616 2.40948,2.635346 0.80228,-0.70442 0.81582,-0.742594 0.68761,-1.939258 -0.29902,-2.791167 -1.90299,-7.800536 -3.80498,-11.883268 -0.53042,-1.138581 -0.9644,-2.202808 -0.9644,-2.364964 0,-0.162154 0.28707,-0.616115 0.63795,-1.008802 0.61418,-0.6874 0.66136,-0.701885 1.26683,-0.389028 1.02431,0.529259 2.78109,2.449679 3.52996,3.858819 0.38382,0.722223 1.26566,3.221655 1.95962,5.554292 0.69397,2.332621 1.34099,4.241141 1.43781,4.241141 0.0969,0 0.50385,-0.411542 0.90452,-0.914561 1.84892,-2.321185 2.51934,-2.644317 3.44407,-1.659989 0.598,0.63656 0.60825,1.469078 0.0384,3.125359 -0.58881,1.711402 -0.56593,2.185522 0.12059,2.498307 0.30863,0.14057 0.7052,0.255684 0.88126,0.255684 0.43289,0 0.40262,0.572537 -0.10899,2.059348 -1.51322,4.398283 -4.77625,8.278831 -9.92595,11.804439 -4.89188,3.349113 -11.23886,5.442479 -17.2581,5.692116 -2.98575,0.1238 -4.7229,-0.222737 -6.20591,-1.238104 -1.13945,-0.780162 -1.1803,-1.464637 -0.12969,-2.172677 1.14782,-0.773526 2.66495,-1.13487 5.83229,-1.389126 9.83636,-0.789635 17.27995,-4.364014 22.68322,-10.892359 0.84803,-1.024572 0.86713,-1.074966 0.25562,-0.673718 -6.70973,4.4026 -14.02043,7.616903 -19.55933,8.599643 -1.6617,0.294822 -2.89556,0.356526 -5.39781,0.269937 -3.43697,-0.118984 -5.48877,-0.531704 -7.8637,-1.582017 -1.31333,-0.580813 -1.48086,-0.881754 -1.38458,-2.48707 l 0.056,-0.932505 -18.06619,-0.111136 c -9.9364,-0.06119 -20.391903,-0.110778 -23.234465,-0.110421 -6.573868,8.73e-4 -12.967048,0.423778 -18.405887,1.217337 -2.567111,0.374562 -3.016525,0.708879 -3.874875,2.882574 -0.57828,1.464459 -0.691682,4.301097 -0.335334,8.388415 0.221879,2.545008 -0.04817,4.043611 -0.827256,4.589248 -0.283781,0.198759 -0.987343,0.321062 -1.846906,0.321062 -1.650197,0 -1.649573,8.75e-4 -2.015839,-2.985627 -0.536466,-4.374308 -0.205432,-9.129243 0.858047,-12.324995 0.426437,-1.28145 0.608999,-1.529589 1.700448,-2.311161 2.300565,-1.647378 6.143865,-2.748067 11.516718,-3.298234 1.316593,-0.134863 6.814604,-0.232066 12.778528,-0.226018 5.757213,0.0054 16.069291,-0.05405 22.915701,-0.133256 7.97063,-0.09205 14.66001,-0.05494 18.59771,0.103464 3.38231,0.136111 6.19236,0.20463 6.24455,0.152522 0.21928,-0.219293 -2.35655,-1.456806 -3.89711,-1.87229 -3.03328,-0.818088 -4.4236,-0.904998 -17.75051,-1.109627 -7.27053,-0.111671 -19.06864,-0.319279 -26.217986,-0.461419 -19.749791,-0.392686 -21.551226,-0.38662 -23.243683,0.07832 -2.990336,0.821495 -5.605721,2.08004 -7.821336,3.763722 -2.238521,1.701071 -4.819618,4.599575 -10.959826,12.307618 l -6.625335,8.317041 -2.302043,0 c -1.943021,0 -2.282494,-0.05084 -2.176781,-0.326413 z"
     id="path2161"
     inkscape:connector-curvature="0" />
</svg>
