<svg xmlns="http://www.w3.org/2000/svg" width="205" height="180" viewBox="0 0 205 180"><path d="M154.43 111.497V23.084H50.4L39.664 29.43v127.486h109.878v-11.373h15.794c0 .002-10.907-8.755-10.907-34.046zM147.202 92.4h-18.81V72.27h18.81V92.4zm-46.036-43.355v20.13H80.134v-20.13h21.033zm3.097 0h21.034v20.13h-21.034v-20.13zm-46.637 0h19.41v20.13h-19.41v-20.13zm0 23.227h19.41v20.13h-19.41V72.27zm0 23.225h19.41V111.5c0 1.444.03 2.817.086 4.127H57.627v-20.13zM80.134 111.5V95.497h21.033V111.5c0 1.444.03 2.817.086 4.127h-21.03a91.258 91.258 0 0 1-.09-4.127zm0-19.1V72.27h21.033V92.4H80.134zm24.13-20.128h21.034v20.13h-21.034V72.27zm42.94-3.098h-18.81v-20.13h18.81v20.13zm-69.894 49.55c.817 10.235 3.342 16.167 5.86 19.595H62.98c-.493-.44-1.315-1.36-2.178-3.15-1.3-2.707-2.823-7.706-3.118-16.448H77.31zm9.99 19.595c-2.43-2.235-5.886-7.49-6.884-19.598h21.025c.82 10.235 3.347 16.167 5.86 19.595h-20zm24.128 0c-2.428-2.235-5.885-7.49-6.88-19.598h21.023c.82 10.235 3.347 16.167 5.86 19.595h-20zm-7.075-22.695a97.33 97.33 0 0 1-.09-4.127V95.496H125.3V111.5c0 1.444.03 2.817.086 4.127h-21.03zm24.04-4.127V95.496h18.81v19.1c0 .35.003.688.008 1.03h-18.725a91.17 91.17 0 0 1-.09-4.127zm13.924 38.192H46.89V33.555l3.512-2.076v84.15c0 27.873 10.908 29.915 10.908 29.915h81.01l-.003 4.146zm7.225-11.374h-13.985c-2.43-2.233-5.886-7.49-6.882-19.596h18.616c.33 7.616 1.58 14.175 3.747 19.595h-1.493z" fill="#010101"/></svg>