<?xml version="1.0" encoding="UTF-8" standalone="no"?>
<svg
   xmlns:dc="http://purl.org/dc/elements/1.1/"
   xmlns:cc="http://creativecommons.org/ns#"
   xmlns:rdf="http://www.w3.org/1999/02/22-rdf-syntax-ns#"
   xmlns:svg="http://www.w3.org/2000/svg"
   xmlns="http://www.w3.org/2000/svg"
   xmlns:sodipodi="http://sodipodi.sourceforge.net/DTD/sodipodi-0.dtd"
   xmlns:inkscape="http://www.inkscape.org/namespaces/inkscape"
   version="1.1"
   id="Layer_1"
   x="0px"
   y="0px"
   width="205"
   height="180"
   viewBox="0 0 205 180"
   enable-background="new 0 0 100 100"
   xml:space="preserve"
   inkscape:version="0.48.4 r9939"
   sodipodi:docname="group.svg"><metadata
     id="metadata25"><rdf:RDF><cc:Work
         rdf:about=""><dc:format>image/svg+xml</dc:format><dc:type
           rdf:resource="http://purl.org/dc/dcmitype/StillImage" /></cc:Work></rdf:RDF></metadata><defs
     id="defs23" /><sodipodi:namedview
     pagecolor="#ffffff"
     bordercolor="#666666"
     borderopacity="1"
     objecttolerance="10"
     gridtolerance="10"
     guidetolerance="10"
     inkscape:pageopacity="0"
     inkscape:pageshadow="2"
     inkscape:window-width="1127"
     inkscape:window-height="666"
     id="namedview21"
     showgrid="false"
     inkscape:zoom="0.834386"
     inkscape:cx="64.618644"
     inkscape:cy="96.822034"
     inkscape:window-x="0"
     inkscape:window-y="0"
     inkscape:window-maximized="0"
     inkscape:current-layer="Layer_1" /><g
     id="g3"
     transform="matrix(3.2143577,0,0,3.2143577,-54.152129,-73.069188)"><g
       id="XMLID_5_"><g
         id="g6"><g
           id="g8"><path
             d="m 75.036,52.356 c 4.69,1.377 3.886,4.781 3.872,7.063 h -11.7 c -0.421,-1.381 -1.46,-2.671 -3.942,-3.396 l -0.785,-0.235 c -3.284,-0.955 -5.042,-1.471 -5.502,-2.506 -0.112,-0.373 -0.078,-0.787 1.017,-1.185 3.519,-1.024 5.302,-1.56 5.723,-2.878 h 0.222 c -0.06,-0.053 -0.118,-0.105 -0.173,-0.168 -1.739,-1.677 -3.067,-4.949 -3.067,-7.591 0,-3.736 2.86,-6.191 5.566,-6.191 2.705,0 5.427,2.652 5.427,6.393 0,2.642 -1.478,5.811 -3.293,7.432 0.374,1.525 2.414,2.024 6.635,3.262 z"
             id="path10"
             inkscape:connector-curvature="0" /></g><g
           id="XMLID_6_"><g
             id="g13"><path
               d="M 66.957,68.003 H 30.61 c -0.022,-0.364 -0.045,-0.728 -0.089,-1.157 -0.112,-1.436 -0.224,-2.914 0.178,-4.265 0.491,-1.585 1.764,-2.978 4.71,-3.836 l 1.139,-0.364 c 5.179,-1.479 7.948,-2.314 8.863,-4.265 l 0.291,-0.491 -0.022,-0.622 c -0.067,-0.043 -0.111,-0.085 -0.201,-0.193 -0.313,-0.321 -0.625,-0.643 -0.916,-1.027 -2.009,-2.552 -3.438,-6.494 -3.438,-9.75 0,-4.159 3.082,-8.573 7.68,-8.573 3.595,0 7.458,3.558 7.458,8.872 0,3.387 -1.764,7.585 -4.175,10.05 -0.157,0.173 -0.335,0.321 -0.491,0.472 l -0.29,0.258 0.089,0.387 c 0.625,2.441 3.438,3.277 9.086,4.884 l 1.161,0.364 c 2.925,0.858 4.309,2.273 4.912,3.836 h 0.022 c 0.559,1.521 0.491,3.173 0.424,4.715 -0.022,0.233 -0.022,0.49 -0.044,0.705 z"
               id="path15"
               inkscape:connector-curvature="0" /></g></g><g
           id="g17"><path
             d="m 22.434,52.356 c -4.694,1.377 -3.884,4.781 -3.872,7.063 h 11.696 c 0.424,-1.381 1.459,-2.671 3.946,-3.396 l 0.782,-0.235 c 3.287,-0.955 5.046,-1.471 5.503,-2.506 -0.125,-0.411 0.102,-1.027 -1.019,-1.185 -3.517,-1.024 -5.3,-1.56 -5.72,-2.878 h -0.22 c 0.059,-0.053 0.119,-0.105 0.172,-0.168 1.739,-1.677 3.068,-4.949 3.068,-7.591 0,-3.736 -2.859,-6.191 -5.566,-6.191 -2.708,0 -5.427,2.652 -5.427,6.393 0,2.642 1.472,5.811 3.287,7.432 -0.372,1.525 -2.415,2.024 -6.63,3.262 z"
             id="path19"
             inkscape:connector-curvature="0" /></g></g></g></g></svg>