<svg xmlns="http://www.w3.org/2000/svg" width="205" height="180" viewBox="0 0 205 180"><path d="M187.04 95.222c15.076 4.426 12.49 15.368 12.446 22.703h-37.608c-1.353-4.44-4.693-8.586-12.67-10.916l-2.524-.757c-10.556-3.07-16.207-4.728-17.685-8.055-.36-1.2-.252-2.53 3.268-3.81 11.31-3.29 17.042-5.013 18.396-9.25h.713a5.852 5.852 0 0 1-.556-.54c-5.59-5.39-9.857-15.908-9.857-24.4 0-12.01 9.193-19.9 17.89-19.9 8.696 0 17.445 8.524 17.445 20.55 0 8.492-4.75 18.678-10.585 23.888 1.202 4.902 7.76 6.506 21.327 10.486z"/><path d="M161.072 145.517H44.24c-.07-1.17-.145-2.34-.287-3.72-.36-4.615-.72-9.366.572-13.708 1.58-5.096 5.67-9.574 15.14-12.332l3.66-1.17c16.648-4.754 25.55-7.438 28.49-13.71l.935-1.577-.07-2c-.216-.137-.357-.272-.646-.62-1.006-1.03-2.01-2.066-2.945-3.3-6.458-8.203-11.052-20.874-11.052-31.34 0-13.37 9.907-27.557 24.687-27.557 11.555 0 23.972 11.437 23.972 28.518 0 10.888-5.67 24.382-13.42 32.305-.504.556-1.076 1.032-1.578 1.517l-.933.83.286 1.244c2.01 7.846 11.05 10.533 29.206 15.7l3.73 1.17c9.403 2.757 13.85 7.305 15.79 12.33h.07c1.797 4.888 1.578 10.198 1.363 15.155-.07.75-.07 1.576-.14 2.267z"/><path d="M17.96 95.222C2.87 99.648 5.473 110.59 5.512 117.925h37.595c1.363-4.44 4.69-8.586 12.684-10.916l2.513-.757c10.566-3.07 16.22-4.728 17.69-8.055-.403-1.32.327-3.3-3.276-3.81-11.306-3.29-17.038-5.013-18.388-9.25h-.707c.19-.17.383-.337.553-.54 5.59-5.39 9.862-15.908 9.862-24.4 0-12.01-9.19-19.9-17.89-19.9-8.706 0-17.446 8.524-17.446 20.55 0 8.492 4.732 18.678 10.566 23.888-1.196 4.902-7.763 6.506-21.31 10.486z"/></svg>