<svg xmlns="http://www.w3.org/2000/svg" width="30" height="30" viewBox="0 0 29.999999 29.999999"><g fill="red" stroke="#000" stroke-width=".492"><path d="M278.624 532.532l-3.52-2.396 1.63-2.302.47.32.326-.46-.47-.32-.703-.48-.47-.32-.326.46.47.32-1.63 2.303-3.518-2.396 1.63-2.3.47.32 2.117-2.994-.47-.32 1.63-2.302 3.518 2.396-1.63 2.302-.47-.32-.325.46 1.642 1.12.326-.462-.468-.32 1.63-2.3 3.52 2.395-1.63 2.302-.47-.32-2.12 2.992.47.32-1.628 2.302zm-5.375 1.55l.534.256.558.21.157-.03.115-.146.07-.182.095-.172.105-.162.124-.15.183-.138.203-.088.21-.034.205.022.197.063.173.12.15.16.113.202.045.186.03.19.01.196-.012.196.042.18.13.088.595.04.598-.017.13-.082.05-.183-.006-.197.016-.192.036-.19.055-.186.12-.198.15-.153.18-.11.2-.062.208-.01.207.04.198.09.183.146.114.155.1.17.083.174.068.18.11.156.153.034.566-.19.543-.243.09-.126-.023-.182-.082-.18-.06-.185-.042-.19-.025-.188.037-.23.08-.198.12-.17.163-.13.184-.09.21-.04.222.012.22.065.17.1.154.115.147.133.133.144.16.1.154-.026.45-.386.408-.43.034-.15-.095-.16-.143-.136-.127-.146-.113-.156-.092-.17-.062-.224-.002-.212.046-.204.1-.18.136-.154.18-.114.203-.072.236-.022.194.03.192.044.183.066.18.084.186.03.13-.08.267-.525.21-.548-.027-.154-.15-.114-.186-.068-.176-.092-.164-.1-.155-.123-.14-.18-.088-.2-.034-.206.02-.2.065-.193.12-.168.165-.147.206-.113.188-.042.196-.028.198-.01.2.012.182-.042.09-.127.042-.583-.017-.587-.086-.128-.187-.046-.2.006-.196-.017-.194-.035-.186-.053-.203-.116-.157-.15-.11-.176-.064-.195-.01-.205.04-.204.095-.194.15-.18.156-.11.17-.1.178-.083.19-.066.156-.107.036-.15-.194-.555-.247-.532-.13-.088-.185.023-.183.08-.19.058-.193.04-.194.025-.232-.034-.205-.082-.173-.118-.13-.157-.092-.18-.042-.206.013-.217.065-.217.1-.168.12-.15.13-.147.152-.13.1-.155-.03-.153-.393-.442-.435-.398-.152-.032-.166.092-.138.143-.144.116-.164.11-.17.094-.23.06-.215.003-.208-.045-.183-.098-.158-.133-.116-.176-.073-.2-.02-.23.024-.192.05-.188.067-.178.087-.177.033-.184-.086-.13-.537-.262-.555-.205-.156.027-.115.146-.075.182-.09.174-.104.16-.123.152-.186.136-.203.088-.21.034-.204-.02-.196-.064-.177-.12-.147-.16-.114-.2-.044-.186-.027-.192-.01-.194.013-.196-.043-.18-.13-.087-.596-.04-.598.017-.13.084-.047.184v.194l-.018.193-.032.194-.054.183-.118.2-.153.153-.182.107-.197.064-.208.01-.21-.04-.197-.092-.182-.145-.116-.153-.1-.167-.084-.174-.066-.186-.11-.156-.152-.034-.566.19-.545.242-.09.127.025.183.08.18.062.185.04.19.026.188-.036.23-.082.202-.12.17-.16.127-.185.09-.21.04-.222-.01-.22-.067-.17-.098-.156-.116-.15-.13-.13-.148-.16-.097-.157.03-.448.385-.412.425-.03.15.095.16.14.135.13.148.11.16.096.168.06.225.005.212-.047.205-.1.18-.136.154-.178.113-.205.07-.235.02-.196-.023-.19-.05-.186-.067-.178-.083-.186-.03-.134.08-.263.53-.214.547.03.15.15.114.184.072.178.09.165.1.155.12.14.182.09.2.033.208-.02.2-.07.196-.12.17-.16.142-.207.113-.19.045-.194.028-.2.01-.198-.012-.183.043-.09.127-.043.584.018.586.085.13.187.045h.197l.196.016.197.033.188.05.202.117.156.15.112.177.064.196.008.203-.04.205-.093.193-.15.18-.156.114-.172.097-.177.082-.185.068-.16.107-.032.15.192.555.247.535.13.088.185-.024.183-.08.19-.06.192-.04.193-.023.233.035.203.08.178.12.13.16.09.178.042.205-.013.217-.065.218-.103.167-.12.152-.134.144-.147.13-.102.158.028.153.39.436.437.406.155.028.163-.092.138-.14.15-.127.16-.11.175-.093.227-.06.216-.003.21.046.182.097.157.134.117.176.07.2.026.23-.03.19-.048.19-.07.182-.085.174-.03.182.082.132.002-.005z" transform="matrix(1.01574 0 0 1.01574 -266.79 -519.46)"/><path d="M11.93 26.35c-5-1.354-8.69-5.928-8.69-11.35s3.69-9.996 8.69-11.35V.573C5.264 1.99.25 7.92.25 15c0 7.08 5.016 13.01 11.68 14.427V26.35zM17.845.528V3.59C22.96 4.866 26.76 9.496 26.76 15c0 5.504-3.8 10.134-8.915 11.41v3.062C24.62 28.142 29.75 22.16 29.75 15c0-7.16-5.13-13.143-11.905-14.472z" stroke-width=".49974408000000003"/></g></svg>