<?xml version="1.0" encoding="UTF-8" standalone="no"?>
<!-- Created with Inkscape (http://www.inkscape.org/) -->

<svg
   xmlns:dc="http://purl.org/dc/elements/1.1/"
   xmlns:cc="http://creativecommons.org/ns#"
   xmlns:rdf="http://www.w3.org/1999/02/22-rdf-syntax-ns#"
   xmlns:svg="http://www.w3.org/2000/svg"
   xmlns="http://www.w3.org/2000/svg"
   xmlns:sodipodi="http://sodipodi.sourceforge.net/DTD/sodipodi-0.dtd"
   xmlns:inkscape="http://www.inkscape.org/namespaces/inkscape"
   width="218.235"
   height="30.496"
   id="svg3004"
   version="1.1"
   inkscape:version="0.48.4 r9939"
   sodipodi:docname="New document 1">
  <defs
     id="defs3006" />
  <sodipodi:namedview
     id="base"
     pagecolor="#ffffff"
     bordercolor="#666666"
     borderopacity="1.0"
     inkscape:pageopacity="0.0"
     inkscape:pageshadow="2"
     inkscape:zoom="1.979899"
     inkscape:cx="109.1175"
     inkscape:cy="10.449775"
     inkscape:document-units="px"
     inkscape:current-layer="layer1"
     showgrid="false"
     fit-margin-top="1"
     fit-margin-left="1"
     fit-margin-right="1"
     fit-margin-bottom="1"
     inkscape:window-width="856"
     inkscape:window-height="594"
     inkscape:window-x="0"
     inkscape:window-y="0"
     inkscape:window-maximized="0" />
  <metadata
     id="metadata3009">
    <rdf:RDF>
      <cc:Work
         rdf:about="">
        <dc:format>image/svg+xml</dc:format>
        <dc:type
           rdf:resource="http://purl.org/dc/dcmitype/StillImage" />
        <dc:title></dc:title>
      </cc:Work>
    </rdf:RDF>
  </metadata>
  <g
     inkscape:label="Layer 1"
     inkscape:groupmode="layer"
     id="layer1"
     transform="translate(-265.8825,-517.11418)">
    <g
       transform="translate(79.3565,6.1841826)"
       id="g2994">
      <g
         id="g11">
        <path
           inkscape:connector-curvature="0"
           id="path13"
           d="m 299.5,520.746 h 14.554 v -3.656 h -18.193 v 18.278 h 3.639 v -7.311 h 14.554 v -3.655 H 299.5 v -3.656 z m 31.527,14.622 h 5.592 l -8.539,-7.311 h 1.129 c 4.042,0 6.065,-1.828 6.065,-5.484 0,-3.654 -2.022,-5.482 -6.065,-5.482 H 317.08 v 3.656 h 11.522 c 2.022,0 3.032,0.609 3.032,1.827 0,1.219 -1.011,1.828 -3.032,1.828 H 317.08 v 3.655 h 5.409 l 8.538,7.311 z m 27.136,0 -7.896,-18.278 h -3.953 l -7.897,18.278 h 3.967 l 5.906,-13.684 5.92,13.684 h 3.953 z m 11.26,0 h 4.1 v -0.013 l 5.227,-10.345 v 10.357 h 3.639 V 517.09 h -3.722 l -7.193,14.22 -7.193,-14.22 h -3.723 v 18.278 h 3.638 v -10.345 l 5.227,10.345 z m 34.338,-3.657 h -18.194 v 3.656 h 18.194 v -3.656 z m -18.194,-3.654 h 18.194 v -3.655 h -18.194 v 3.655 z m 0,-7.311 h 18.194 v -3.656 h -18.194 v 3.656 z" />
      </g>
      <g
         id="g15">
        <path
           inkscape:connector-curvature="0"
           id="path17"
           d="m 278.624,532.532 -3.519,-2.396 1.629,-2.302 0.47,0.32 0.326,-0.461 -0.47,-0.319 -0.703,-0.479 -0.47,-0.32 -0.326,0.46 0.47,0.32 -1.63,2.302 -3.519,-2.396 1.629,-2.302 0.47,0.32 2.118,-2.993 -0.47,-0.32 1.63,-2.302 3.519,2.396 -1.63,2.302 -0.469,-0.32 -0.326,0.46 1.642,1.119 0.326,-0.461 -0.469,-0.319 1.63,-2.302 3.519,2.396 -1.63,2.302 -0.469,-0.32 -2.119,2.992 0.47,0.32 -1.629,2.303 z m -5.375,1.549 0.535,0.257 0.558,0.209 0.157,-0.028 0.116,-0.147 0.071,-0.182 0.094,-0.172 0.105,-0.162 0.124,-0.151 0.184,-0.137 0.203,-0.088 0.21,-0.034 0.205,0.022 0.196,0.063 0.173,0.118 0.149,0.162 0.114,0.201 0.045,0.186 0.03,0.191 0.01,0.195 -0.012,0.196 0.042,0.18 0.129,0.088 0.596,0.039 0.598,-0.016 0.129,-0.083 0.049,-0.183 -0.005,-0.197 0.016,-0.192 0.036,-0.191 0.055,-0.185 0.118,-0.198 0.151,-0.153 0.181,-0.108 0.199,-0.063 0.208,-0.01 0.207,0.04 0.198,0.091 0.183,0.145 0.114,0.155 0.099,0.17 0.084,0.175 0.068,0.181 0.11,0.155 0.152,0.034 0.566,-0.189 0.544,-0.244 0.09,-0.127 -0.023,-0.182 -0.082,-0.179 -0.06,-0.186 -0.042,-0.189 -0.025,-0.189 0.036,-0.229 0.079,-0.198 0.12,-0.17 0.164,-0.131 0.184,-0.088 0.21,-0.04 0.222,0.011 0.221,0.065 0.17,0.101 0.153,0.115 0.147,0.133 0.133,0.144 0.16,0.099 0.154,-0.025 0.449,-0.386 0.409,-0.43 0.034,-0.149 -0.095,-0.161 -0.144,-0.136 -0.127,-0.146 -0.113,-0.156 -0.092,-0.171 -0.062,-0.223 -0.002,-0.212 0.045,-0.204 0.1,-0.179 0.136,-0.155 0.181,-0.114 0.202,-0.072 0.236,-0.022 0.193,0.029 0.192,0.045 0.183,0.066 0.181,0.084 0.186,0.031 0.131,-0.082 0.266,-0.524 0.211,-0.547 -0.028,-0.154 -0.149,-0.114 -0.187,-0.068 -0.176,-0.092 -0.164,-0.101 -0.155,-0.122 -0.14,-0.181 -0.088,-0.201 -0.034,-0.205 0.02,-0.201 0.065,-0.192 0.12,-0.169 0.165,-0.147 0.206,-0.113 0.189,-0.042 0.196,-0.028 0.198,-0.01 0.2,0.012 0.182,-0.042 0.09,-0.127 0.042,-0.583 -0.017,-0.587 -0.085,-0.128 -0.187,-0.046 -0.199,0.005 -0.197,-0.017 -0.195,-0.034 -0.186,-0.053 -0.203,-0.116 -0.157,-0.149 -0.11,-0.177 -0.064,-0.195 -0.009,-0.205 0.04,-0.204 0.094,-0.194 0.148,-0.179 0.157,-0.112 0.17,-0.099 0.178,-0.083 0.189,-0.065 0.157,-0.107 0.036,-0.149 -0.194,-0.556 -0.247,-0.532 -0.129,-0.088 -0.186,0.023 -0.183,0.08 -0.189,0.058 -0.194,0.041 -0.194,0.024 -0.232,-0.034 -0.205,-0.082 -0.173,-0.118 -0.131,-0.157 -0.091,-0.181 -0.042,-0.205 0.013,-0.218 0.066,-0.217 0.101,-0.168 0.118,-0.15 0.132,-0.147 0.151,-0.13 0.099,-0.156 -0.028,-0.153 -0.394,-0.442 -0.435,-0.398 -0.151,-0.032 -0.166,0.092 -0.138,0.143 -0.144,0.116 -0.164,0.109 -0.17,0.094 -0.229,0.06 -0.216,0.003 -0.209,-0.045 -0.183,-0.098 -0.157,-0.133 -0.116,-0.177 -0.073,-0.199 -0.021,-0.231 0.025,-0.192 0.05,-0.188 0.067,-0.178 0.087,-0.177 0.032,-0.183 -0.086,-0.129 -0.537,-0.263 -0.555,-0.205 -0.156,0.028 -0.114,0.146 -0.075,0.182 -0.091,0.174 -0.103,0.16 -0.123,0.153 -0.186,0.136 -0.203,0.088 -0.21,0.034 -0.204,-0.019 -0.196,-0.065 -0.177,-0.121 -0.147,-0.158 -0.114,-0.201 -0.044,-0.186 -0.027,-0.192 -0.01,-0.194 0.013,-0.196 -0.043,-0.179 -0.129,-0.088 -0.597,-0.042 -0.597,0.018 -0.131,0.084 -0.046,0.183 v 0.194 l -0.018,0.193 -0.032,0.193 -0.054,0.183 -0.119,0.199 -0.153,0.154 -0.181,0.107 -0.197,0.064 -0.209,0.009 -0.209,-0.04 -0.198,-0.092 -0.182,-0.145 -0.116,-0.153 -0.101,-0.167 -0.083,-0.174 -0.066,-0.185 -0.11,-0.156 -0.152,-0.034 -0.566,0.19 -0.544,0.242 -0.09,0.127 0.025,0.183 0.081,0.179 0.061,0.186 0.04,0.189 0.026,0.188 -0.036,0.229 -0.082,0.203 -0.12,0.17 -0.161,0.127 -0.184,0.09 -0.209,0.04 -0.223,-0.011 -0.221,-0.066 -0.17,-0.098 -0.155,-0.116 -0.149,-0.129 -0.13,-0.149 -0.161,-0.097 -0.157,0.028 -0.448,0.386 -0.412,0.425 -0.03,0.15 0.095,0.16 0.141,0.135 0.13,0.148 0.11,0.16 0.095,0.168 0.06,0.224 0.004,0.212 -0.047,0.205 -0.099,0.18 -0.137,0.154 -0.178,0.113 -0.205,0.071 -0.234,0.021 -0.196,-0.024 -0.188,-0.049 -0.187,-0.068 -0.178,-0.083 -0.186,-0.031 -0.134,0.082 -0.263,0.528 -0.214,0.548 0.031,0.151 0.15,0.113 0.184,0.072 0.178,0.089 0.165,0.102 0.155,0.12 0.141,0.181 0.088,0.201 0.034,0.207 -0.021,0.199 -0.068,0.197 -0.121,0.17 -0.161,0.142 -0.206,0.113 -0.19,0.044 -0.194,0.028 -0.2,0.01 -0.198,-0.012 -0.183,0.042 -0.09,0.127 -0.043,0.584 0.018,0.586 0.085,0.129 0.187,0.046 h 0.197 l 0.196,0.016 0.197,0.032 0.188,0.051 0.202,0.116 0.156,0.151 0.112,0.176 0.064,0.196 0.008,0.203 -0.04,0.205 -0.093,0.192 -0.149,0.179 -0.157,0.115 -0.173,0.097 -0.177,0.082 -0.186,0.068 -0.159,0.107 -0.033,0.149 0.192,0.555 0.247,0.535 0.129,0.088 0.186,-0.024 0.183,-0.08 0.19,-0.059 0.192,-0.04 0.193,-0.024 0.233,0.034 0.203,0.079 0.177,0.121 0.129,0.159 0.091,0.179 0.042,0.205 -0.013,0.217 -0.065,0.218 -0.103,0.167 -0.119,0.152 -0.134,0.144 -0.147,0.131 -0.101,0.157 0.028,0.153 0.391,0.436 0.436,0.406 0.155,0.029 0.163,-0.092 0.137,-0.139 0.149,-0.128 0.161,-0.11 0.175,-0.092 0.227,-0.059 0.216,-0.004 0.209,0.046 0.183,0.097 0.157,0.134 0.117,0.175 0.071,0.2 0.025,0.23 -0.031,0.191 -0.047,0.188 -0.069,0.183 -0.086,0.174 -0.029,0.182 0.081,0.132 0.002,-0.005 z" />
        <g
           id="g19">
          <path
             inkscape:connector-curvature="0"
             id="path21"
             d="m 274.4,537.352 c -4.922,-1.333 -8.554,-5.836 -8.554,-11.174 0,-5.338 3.632,-9.841 8.554,-11.174 v -3.029 c -6.561,1.395 -11.498,7.232 -11.498,14.203 0,6.971 4.938,12.808 11.498,14.203 v -3.029 z" />
          <path
             inkscape:connector-curvature="0"
             id="path23"
             d="m 280.224,511.93 v 3.015 c 5.035,1.256 8.777,5.814 8.777,11.233 0,5.419 -3.742,9.977 -8.777,11.233 v 3.015 c 6.671,-1.309 11.721,-7.199 11.721,-14.248 0,-7.049 -5.05,-12.939 -11.721,-14.248 z" />
        </g>
      </g>
      <path
         inkscape:connector-curvature="0"
         id="path25"
         d="m 196.392,534.915 h 4.099 v -0.013 l 5.228,-10.345 v 10.357 h 3.639 v -18.278 h -3.724 l -7.192,14.22 -7.193,-14.22 h -3.723 v 18.278 h 3.638 v -10.346 l 5.228,10.347 z m 35.124,0 -7.896,-18.278 h -3.954 l -7.896,18.278 h 3.967 l 5.907,-13.684 5.918,13.684 h 3.954 z m 6.028,-18.278 h -3.639 v 18.278 h 3.639 v -18.278 z m 17.706,18.278 h 3.7 v -18.278 h -3.639 v 12.733 l -10.843,-12.733 h -3.711 v 18.278 h 3.639 v -12.733 l 10.854,12.733 z" />
    </g>
  </g>
</svg>
