<?xml version="1.0" encoding="UTF-8" standalone="no"?>
<svg
   xmlns:dc="http://purl.org/dc/elements/1.1/"
   xmlns:cc="http://creativecommons.org/ns#"
   xmlns:rdf="http://www.w3.org/1999/02/22-rdf-syntax-ns#"
   xmlns:svg="http://www.w3.org/2000/svg"
   xmlns="http://www.w3.org/2000/svg"
   xmlns:sodipodi="http://sodipodi.sourceforge.net/DTD/sodipodi-0.dtd"
   xmlns:inkscape="http://www.inkscape.org/namespaces/inkscape"
   width="218.235"
   height="30.496"
   id="svg2"
   version="1.1"
   inkscape:version="0.91 r13725"
   sodipodi:docname="mainframe-long.dark.svg">
  <metadata
     id="metadata12">
    <rdf:RDF>
      <cc:Work
         rdf:about="">
        <dc:format>image/svg+xml</dc:format>
        <dc:type
           rdf:resource="http://purl.org/dc/dcmitype/StillImage" />
        <dc:title></dc:title>
      </cc:Work>
    </rdf:RDF>
  </metadata>
  <defs
     id="defs10" />
  <sodipodi:namedview
     pagecolor="#ffffff"
     bordercolor="#666666"
     borderopacity="1"
     objecttolerance="10"
     gridtolerance="10"
     guidetolerance="10"
     inkscape:pageopacity="0"
     inkscape:pageshadow="2"
     inkscape:window-width="730"
     inkscape:window-height="480"
     id="namedview8"
     showgrid="false"
     inkscape:zoom="1.3563361"
     inkscape:cx="20.643851"
     inkscape:cy="37.735053"
     inkscape:window-x="0"
     inkscape:window-y="0"
     inkscape:window-maximized="0"
     inkscape:current-layer="svg2" />
  <path
     d="M112.974 9.816h14.554V6.16h-18.193v18.278h3.64v-7.31h14.553V13.47h-14.554V9.816zM144.5 24.438h5.593l-8.54-7.31h1.13c4.042 0 6.065-1.83 6.065-5.485 0-3.654-2.022-5.482-6.065-5.482h-12.13v3.657h11.523c2.022 0 3.032.61 3.032 1.827 0 1.22-1.01 1.828-3.032 1.828h-11.522v3.655h5.41l8.537 7.31zm27.137 0L163.74 6.16h-3.952l-7.897 18.278h3.968l5.906-13.684 5.92 13.684h3.953zm11.26 0h4.1v-.013l5.227-10.345v10.357h3.64V6.16h-3.723l-7.192 14.22-7.193-14.22h-3.723v18.278h3.638V14.093l5.227 10.345zm34.338-3.657H199.04v3.657h18.195V20.78zm-18.194-3.653h18.195v-3.655H199.04v3.655zm0-7.31h18.195V6.16H199.04v3.656zM92.098 21.602l-3.52-2.396 1.63-2.302.47.32.326-.46-.47-.32-.703-.48-.47-.32-.325.46.47.32-1.63 2.303-3.52-2.396 1.63-2.3.47.32 2.118-2.994-.47-.32 1.63-2.302 3.52 2.396-1.63 2.302-.47-.32-.326.46 1.642 1.12.325-.462-.47-.32 1.63-2.3 3.52 2.395-1.63 2.302-.47-.32-2.118 2.992.47.32-1.63 2.302zm-5.375 1.55l.535.256.558.21.157-.03.116-.146.07-.182.094-.172.105-.162.123-.15.184-.138.203-.088.21-.034.205.022.196.063.174.12.15.16.113.202.045.186.03.19.01.196-.012.196.042.18.13.088.595.04.598-.017.13-.082.048-.183-.005-.197.016-.192.036-.19.055-.186.118-.198.15-.153.182-.11.2-.062.207-.01.207.04.197.09.183.146.114.155.1.17.083.174.068.18.11.156.152.034.566-.19.544-.243.09-.126-.023-.182-.082-.18-.06-.185-.042-.19-.025-.188.036-.23.08-.198.12-.17.164-.13.184-.09.21-.04.222.012.22.065.17.1.154.115.147.133.134.144.16.1.154-.026.45-.386.408-.43.034-.15-.095-.16-.144-.136-.126-.146-.113-.156-.09-.17-.063-.224-.002-.212.045-.204.1-.18.136-.154.18-.114.203-.072.235-.022.193.03.192.044.183.066.18.084.187.03.13-.08.267-.525.21-.548-.027-.154-.15-.114-.186-.068-.176-.092-.164-.1-.155-.123-.14-.18-.09-.2-.033-.206.02-.2.065-.193.12-.168.165-.147.206-.113.19-.042.195-.028.198-.01.2.012.182-.042.09-.127.042-.583-.017-.587-.085-.128-.187-.046-.198.006-.197-.017-.195-.035-.186-.053-.203-.116-.156-.15-.11-.176-.064-.195-.01-.205.04-.204.095-.194.148-.18.157-.11.17-.1.178-.083.19-.066.156-.107.036-.15-.194-.555-.247-.532-.13-.088-.186.023-.183.08-.188.058-.194.04-.194.025-.232-.034-.205-.082-.173-.118-.13-.157-.092-.18-.042-.206.013-.217.066-.217.1-.168.118-.15.132-.147.15-.13.1-.155-.028-.153-.394-.442-.435-.398-.15-.032-.167.092-.138.143-.144.116-.164.11-.17.094-.23.06-.215.003-.21-.045-.182-.098-.157-.133-.116-.176-.073-.2-.02-.23.024-.192.05-.188.068-.178.087-.177.032-.184-.086-.13-.536-.262-.555-.205-.157.027-.114.146-.076.182-.09.174-.104.16-.123.152-.186.136-.202.088-.21.034-.204-.02-.196-.064-.177-.12-.146-.16-.114-.2-.044-.186-.027-.192-.01-.194.012-.196-.043-.18-.13-.087-.597-.04-.597.017-.13.084-.047.184v.194l-.02.193-.03.194-.055.183-.12.2-.152.153-.18.107-.198.064-.21.01-.208-.04-.198-.092-.183-.145-.116-.153-.1-.167-.083-.174-.066-.186-.11-.156-.15-.034-.567.19-.544.242-.09.127.024.183.08.18.062.185.04.19.026.188-.036.23-.082.202-.12.17-.16.127-.185.09-.21.04-.223-.01-.22-.067-.17-.098-.156-.116-.148-.13-.13-.148-.16-.097-.158.03-.448.385-.412.425-.03.15.095.16.14.135.13.148.11.16.095.168.06.225.004.212-.048.205-.1.18-.136.154-.178.113-.205.07-.234.02-.197-.023-.188-.05-.187-.067-.178-.083-.186-.03-.134.08-.263.53-.214.547.03.15.15.114.185.072.178.09.165.1.156.12.14.182.09.2.033.208-.022.2-.068.196-.12.17-.162.142-.206.113-.19.045-.194.028-.2.01-.198-.012-.183.043-.09.127-.043.584.018.586.085.13.187.045h.197l.197.016.197.033.188.05.202.117.156.15.112.177.064.196.008.203-.04.205-.093.193-.148.18-.157.114-.173.097-.177.082-.186.068-.16.107-.033.15.192.555.246.535.13.088.185-.024.184-.08.19-.06.192-.04.193-.023.232.035.203.08.177.12.13.16.09.178.042.205-.013.217-.064.218-.103.167-.12.152-.133.144-.147.13-.1.158.027.153.39.436.437.406.155.028.163-.092.137-.14.15-.127.16-.11.175-.093.227-.06.216-.003.21.046.182.097.157.134.116.176.07.2.026.23-.03.19-.048.19-.07.182-.085.174-.03.182.08.132.003-.005z"
     id="path4"
     style="fill:#ffffff" />
  <path
     d="M87.874 26.422c-4.922-1.333-8.554-5.836-8.554-11.174 0-5.338 3.632-9.84 8.554-11.174v-3.03C81.314 2.44 76.376 8.278 76.376 15.25c0 6.97 4.938 12.808 11.498 14.203v-3.028zM93.698 1v3.015c5.035 1.256 8.777 5.814 8.777 11.233 0 5.42-3.742 9.977-8.777 11.233v3.016c6.67-1.31 11.72-7.2 11.72-14.248 0-7.05-5.05-12.94-11.72-14.248zM9.866 23.985h4.1v-.013l5.227-10.345v10.357h3.64V5.706h-3.725l-7.192 14.22-7.193-14.22H1v18.278h3.638V13.638l5.228 10.347zm35.124 0L37.094 5.707H33.14l-7.896 18.278h3.967L35.12 10.3l5.918 13.685h3.954zm6.028-18.278h-3.64v18.278h3.64V5.707zm17.706 18.278h3.7V5.707h-3.64V18.44L57.943 5.707h-3.71v18.278h3.638V11.252l10.854 12.733z"
     id="path6"
     style="fill:#ffffff" />
</svg>
