<?xml version="1.0" encoding="UTF-8" standalone="no"?>
<svg
   xmlns:dc="http://purl.org/dc/elements/1.1/"
   xmlns:cc="http://creativecommons.org/ns#"
   xmlns:rdf="http://www.w3.org/1999/02/22-rdf-syntax-ns#"
   xmlns:svg="http://www.w3.org/2000/svg"
   xmlns="http://www.w3.org/2000/svg"
   xmlns:sodipodi="http://sodipodi.sourceforge.net/DTD/sodipodi-0.dtd"
   xmlns:inkscape="http://www.inkscape.org/namespaces/inkscape"
   width="887.42957"
   height="414.52682"
   id="svg2"
   version="1.1"
   inkscape:version="1.0.2 (e86c870879, 2021-01-15)"
   sodipodi:docname="mainframe-logo.dark.svg">
  <metadata
     id="metadata490">
    <rdf:RDF>
      <cc:Work
         rdf:about="">
        <dc:format>image/svg+xml</dc:format>
        <dc:type
           rdf:resource="http://purl.org/dc/dcmitype/StillImage" />
        <dc:title></dc:title>
      </cc:Work>
    </rdf:RDF>
  </metadata>
  <sodipodi:namedview
     pagecolor="#ffffff"
     bordercolor="#666666"
     borderopacity="1"
     objecttolerance="10"
     gridtolerance="10"
     guidetolerance="10"
     inkscape:pageopacity="0"
     inkscape:pageshadow="2"
     inkscape:window-width="1920"
     inkscape:window-height="1065"
     id="namedview488"
     showgrid="false"
     units="mm"
     inkscape:zoom="0.63429569"
     inkscape:cx="447.18994"
     inkscape:cy="125.6665"
     inkscape:window-x="1280"
     inkscape:window-y="0"
     inkscape:window-maximized="1"
     inkscape:current-layer="g20"
     fit-margin-top="0"
     fit-margin-left="0"
     fit-margin-right="0"
     fit-margin-bottom="0"
     inkscape:document-rotation="0" />
  <desc
     id="desc4">C:\Documents and Settings\ktt\Desktop\Main.dxf - scale = 1.000000</desc>
  <defs
     id="defs6">
    <marker
       refY="0"
       refX="0"
       style="overflow:visible"
       id="DistanceX"
       orient="auto">
      <path
         style="stroke:#000000;stroke-width:0.5"
         d="M 3,-3 -3,3 M 0,-5 0,5"
         id="path9"
         inkscape:connector-curvature="0" />
    </marker>
    <pattern
       height="8"
       width="8"
       patternUnits="userSpaceOnUse"
       y="0"
       x="0"
       id="Hatch">
      <path
         linecap="square"
         stroke="#000000"
         stroke-width="0.25"
         d="M8 4 l-4,4"
         id="path12" />
      <path
         linecap="square"
         stroke="#000000"
         stroke-width="0.25"
         d="M6 2 l-4,4"
         id="path14" />
      <path
         linecap="square"
         stroke="#000000"
         stroke-width="0.25"
         d="M4 0 l-4,4"
         id="path16" />
    </pattern>
    <symbol
       id="*MODEL_SPACE" />
    <symbol
       id="*PAPER_SPACE" />
  </defs>
  <g
     inkscape:label="0"
     inkscape:groupmode="layer"
     id="g20"
     transform="translate(-11.821075,-631.78464)">
    <g
       id="g3343"
       style="fill:#ffffff">
      <path
         id="path54"
         transform="translate(11.821075,631.78464)"
         d="M 183.375 253.5625 C 183.375 253.5625 181.34508 263.79121 175.375 263.5625 C 170.28113 263.36051 170.78125 254 170.78125 254 L 164.3125 254.5625 C 164.3125 254.5625 165.2342 262.97964 159.625 264.6875 C 154.02322 266.39685 151.625 258.6875 151.625 258.6875 L 146.34375 261.15625 C 146.34375 261.15625 149.61711 268.75476 144.96875 271.84375 C 140.31001 274.94168 134.90625 268.625 134.90625 268.625 L 130.71875 273.34375 C 130.71875 273.34375 136.7143 280.29729 133.78125 283.8125 C 130.84373 287.3173 121.5 284.96875 121.5 284.96875 L 120.03125 289.625 C 120.03125 289.625 127.71698 294.30422 126.84375 298.3125 C 125.58587 304.08802 115.75 302 115.75 302 L 115.25 307.40625 C 115.25 307.40625 124.00338 308.51775 124.9375 315.09375 C 125.47659 318.81544 115.625 321.28125 115.625 321.28125 L 118.21875 326.78125 L 122.21875 325.90625 C 125.63297 326.26264 127.55343 328.49738 128.21875 329.4375 C 128.5128 330.54094 129.01249 333.47004 127.09375 336.34375 L 123.875 338.875 L 126.4375 344.375 C 126.4375 344.375 134.63754 338.39266 137.15625 341.1875 C 141.60115 346.1181 136.8125 353.53125 136.8125 353.53125 L 141.3125 356.625 C 141.3125 356.625 146.01058 347.7377 151.25 350.46875 C 154.90037 352.36525 153.5625 361.25 153.5625 361.25 L 158.0625 363.125 C 158.0625 363.125 162.27411 354.44636 166.84375 354.4375 C 171.42231 354.4375 172.90625 363.5 172.90625 363.5 L 179.21875 363.28125 C 179.21875 363.28125 177.83076 355.09356 183.1875 353.5 C 188.54127 351.90954 192.28125 359.3125 192.28125 359.3125 L 197.53125 356.84375 C 197.53125 356.84375 193.16168 350.04573 198.0625 346.84375 C 202.96331 343.63164 208.84375 349.71875 208.84375 349.71875 L 213.4375 345.15625 C 213.4375 345.15625 205.92296 339.50079 209.03125 335.46875 C 212.67864 330.73424 221.8125 335.71875 221.8125 335.71875 L 224.5625 329.875 C 224.5625 329.875 214.7768 326.32578 216.25 321.875 C 218.03063 316.53607 227.5 316.59375 227.5 316.59375 L 227.53125 311.40625 C 227.53625 311.40625 218.30852 309.92751 217.8125 304.96875 C 217.26153 299.30017 228 297.4375 228 297.4375 L 226.1875 290.96875 C 226.1875 290.96875 218.23435 294.9699 214.90625 288.90625 C 212.35336 282.44905 220.53125 278.875 220.53125 278.875 L 216.71875 273.34375 C 216.71875 273.34375 208.42794 280.43674 204.4375 276.375 C 200.94456 272.82414 205.71875 264.78125 205.71875 264.78125 L 201.71875 261.46875 C 201.71875 261.46875 195.69628 268.77709 190.46875 266.71875 C 186.10703 265.00645 189.65625 255.21875 189.65625 255.21875 L 183.375 253.5625 z M 166.40625 271.34375 L 186.78125 286.9375 L 177.59375 298.9375 L 173.65625 295.90625 L 170.6875 299.90625 L 176.8125 304.59375 L 181.5 308.1875 L 184.59375 304.28125 L 180.625 301.25 L 189.8125 289.25 L 210.1875 304.84375 L 200.90625 317.03125 L 197.84375 314.84375 L 184.1875 332.6875 L 186.1875 334.1875 L 176.375 347 L 156.65625 331.90625 L 166.6875 318.46875 L 171.125 321.875 L 173.3125 319.375 L 168.65625 315.84375 L 167.6875 315.125 L 166.65625 314.34375 L 166.65625 314.3125 L 162.0625 310.75 L 160.1875 313.5 L 164.625 316.90625 L 154.28125 330.09375 L 134.5625 315 L 144.375 302.1875 L 146.34375 303.71875 L 160 285.875 L 157.09375 283.5 L 166.40625 271.34375 z "
         style="fill:#ffffff;stroke:#000000;stroke-width:1.4850949;fill-opacity:1" />
      <path
         inkscape:connector-curvature="0"
         id="path132"
         d="m 229.6231,936.75391 0,0"
         style="fill:#ffffff;stroke:#000000;stroke-width:1.4850949" />
      <path
         sodipodi:nodetypes="ccccccccccccccc"
         inkscape:connector-curvature="0"
         id="path144"
         d="m 77.227125,1000.8819 c -4.021639,5.866 -3.527102,13.9376 1.590536,19.272 5.860186,6.1082 15.566764,6.3101 21.674959,0.4485 6.10968,-5.8617 6.31017,-15.5682 0.44998,-21.67802 -5.114663,-5.33441 -13.160906,-6.15859 -19.187423,-2.38643 l -51.635263,-53.82285 0,-192.37178 50.375905,-47.18146 c 5.81563,4.08995 13.893062,3.69196 19.288412,-1.35887 6.177989,-5.78594 6.495809,-15.48954 0.709869,-21.66751 -5.785927,-6.17951 -15.489538,-6.4973 -21.667529,-0.71139 -5.395349,5.05231 -6.319082,13.08816 -2.618224,19.15921 l -52.362961,49.04082 0,197.61266 53.381739,55.64512"
         style="fill:#ffffff;stroke:#000000;stroke-width:1.4850949;fill-opacity:1" />
      <path
         inkscape:connector-curvature="0"
         id="path158"
         d="m 100.9426,998.92438 0,0"
         style="fill:#ffffff;stroke:#000000;stroke-width:1.4850949" />
      <path
         id="path160"
         transform="translate(11.821075,631.78464)"
         d="M 202.6875 5 C 194.22246 5 187.34375 11.8787 187.34375 20.34375 C 187.34375 27.73359 192.56912 33.8958 199.53125 35.34375 L 199.53125 102.84375 L 116.53125 194.03125 C 110.40821 190.41652 102.38132 191.44261 97.40625 196.90625 C 91.70943 203.16742 92.17782 212.86121 98.4375 218.5625 C 104.69717 224.25782 114.39545 223.7939 120.09375 217.53125 C 125.06733 212.0661 125.36061 204.00624 121.1875 198.25 L 205.8125 105.25 L 205.8125 35.34375 C 212.77462 33.89431 218 27.73359 218 20.34375 C 218 11.8787 211.15254 5 202.6875 5 z "
         style="fill:#ffffff;stroke:#000000;stroke-width:1.4850949;fill-opacity:1" />
      <path
         inkscape:connector-curvature="0"
         id="path174"
         d="m 229.82805,652.11469 0,0"
         style="fill:#ffffff;stroke:#000000;stroke-width:1.4850949" />
      <path
         sodipodi:nodetypes="cccccccccccccccc"
         inkscape:connector-curvature="0"
         id="path196"
         d="m 860.38154,988.12937 c 1.44946,6.96055 7.61705,12.19403 15.00837,12.19403 8.46356,0 15.32916,-6.86411 15.32916,-15.32912 10e-4,-8.46949 -6.86411,-15.33505 -15.32916,-15.33505 -7.39279,0 -13.5604,5.23331 -15.00837,12.1956 l -581.31665,0 -17.09048,-12.12583 c 3.09643,-9.03084 4.76716,-18.90227 4.76716,-29.40936 0,-40.60397 -29.21033,-74.49384 -67.71736,-81.8109 l 0,12.8134 c 31.53748,7.11509 55.17128,35.3393 55.17128,68.9975 0,36.23624 -22.02248,62.95916 -55.17128,69.29596 l 0,12.7035 c 27.99552,-4.6781 49.93335,-21.9407 60.60524,-46.56357 l 17.43353,12.37384 583.31856,0"
         style="fill:#ffffff;stroke:#000000;stroke-width:1.4850949;fill-opacity:1" />
      <path
         inkscape:connector-curvature="0"
         id="path204"
         d="m 875.38991,969.65923 0,0"
         style="fill:#ffffff;stroke:#000000;stroke-width:1.4850949" />
      <path
         sodipodi:nodetypes="cccccccccccccccc"
         inkscape:connector-curvature="0"
         id="path216"
         d="m 116.72025,890.55263 c -10.39269,13.8901 -16.55584,31.12016 -16.55584,49.76851 0,39.6936 27.91088,72.96266 65.13033,81.27626 l 0,-12.901 c -30.23654,-8.0374 -52.58573,-35.63933 -52.58573,-68.37526 0,-32.73299 22.34919,-60.33646 52.58573,-68.37379 l 0,-12.90102 c -17.6162,3.93551 -33.14287,13.46833 -44.61671,26.62478 l -39.484219,-35.92742 0,-86.67013 c 6.960642,-1.44796 12.192632,-7.61556 12.192632,-15.00541 0,-8.46503 -6.865597,-15.33062 -15.330635,-15.33062 -8.465043,0 -15.330635,6.86559 -15.330635,15.33062 0,7.38985 5.231991,13.55745 12.192628,15.00541 l 0,89.44281 41.802449,38.03626"
         style="fill:#ffffff;stroke:#000000;stroke-width:1.4850949;fill-opacity:1" />
      <path
         inkscape:connector-curvature="0"
         id="path232"
         d="m 120.67803,885.67111 0,0"
         style="fill:#ffffff;stroke:#000000;stroke-width:1.4850949" />
      <path
         inkscape:connector-curvature="0"
         id="path234"
         d="m 632.51304,850.36595 19.11317,0 0,-93.99463 -18.79983,0 0,65.4823 -56.02074,-65.4823 -19.17704,0 0,93.99463 18.79983,0 0,-65.48376 56.08461,65.48376 0,0"
         style="fill:#ffffff;stroke:#000000;stroke-width:1.4850949;fill-opacity:1" />
      <path
         inkscape:connector-curvature="0"
         id="path236"
         d="m 541.03713,756.37132 -18.79983,0 0,93.99463 18.79983,0 0,-93.99463 0,0"
         style="fill:#ffffff;stroke:#000000;stroke-width:1.4850949;fill-opacity:1" />
      <path
         inkscape:connector-curvature="0"
         id="path238"
         d="m 509.88726,850.36595 -40.79556,-93.99463 -20.42599,0 -40.79558,93.99463 20.49136,0 30.5187,-70.37122 30.5781,70.37122 20.42897,0 0,0"
         style="fill:#ffffff;stroke:#000000;stroke-width:1.4850949;fill-opacity:1" />
      <path
         inkscape:connector-curvature="0"
         id="path240"
         d="m 328.42053,850.36595 21.17894,0 0,-0.0624 27.00795,-53.20202 0,53.2644 18.80129,0 0,-93.99463 -19.23792,0 -37.15856,73.12757 -37.16153,-73.12757 -19.23793,0 0,93.99463 18.80132,0 0,-53.20205 27.00644,53.20205 0,0"
         style="fill:#ffffff;stroke:#000000;stroke-width:1.4850949;fill-opacity:1" />
      <path
         inkscape:connector-curvature="0"
         id="path242"
         d="m 305.81293,1018.4475 0,-10.2932 5.15476,-0.017 0,25.7769 -5.15476,0 0,-10.311 -15.46725,0 0,10.311 -5.15626,0 0,-25.7769 5.15626,0 0,10.3096 15.46725,0 0,0"
         style="fill:#ffffff;stroke:#000000;stroke-width:1.4850949;fill-opacity:1" />
      <path
         id="path244"
         transform="translate(11.821075,631.78464)"
         d="M 314.46875 376.34375 L 303.28125 402.125 L 308.90625 402.125 L 311.125 396.96875 L 323.4375 396.96875 L 325.65625 402.125 L 331.25 402.125 L 320.0625 376.34375 L 314.46875 376.34375 z M 317.28125 382.84375 L 321.1875 391.8125 L 313.375 391.8125 L 317.28125 382.84375 z "
         style="fill:#ffffff;stroke:#000000;stroke-width:1.4850949;fill-opacity:1" />
      <path
         id="path250"
         transform="translate(11.821075,631.78464)"
         d="M 342.8125 376.34375 C 337.083 376.34375 334.21875 379.2095 334.21875 384.9375 L 334.21875 393.53125 C 334.21875 399.25925 337.08448 402.125 342.8125 402.125 L 360 402.125 L 360 396.96875 L 343.53125 396.96875 C 340.76006 396.96875 339.375 395.60295 339.375 392.84375 L 339.375 385.625 C 339.375 382.8761 340.77045 381.5 343.53125 381.5 L 360 381.5 L 360 376.34375 L 342.8125 376.34375 z "
         style="fill:#ffffff;stroke:#000000;stroke-width:1.4850949;fill-opacity:1" />
      <path
         inkscape:connector-curvature="0"
         id="path270"
         d="m 382.08444,1022.2836 0,11.6312 -5.15477,0 0,-25.7769 5.15477,0 0,11.6343 12.9233,-11.6343 7.69873,0 -14.2985,12.8907 14.2985,12.8876 -7.69873,0 -12.9233,-11.6326 0,0"
         style="fill:#ffffff;stroke:#000000;stroke-width:1.4850949;fill-opacity:1" />
      <path
         sodipodi:nodetypes="cccccccccccccccccc"
         inkscape:connector-curvature="0"
         id="path280"
         d="m 433.5905,1026.1833 c 0,5.1563 -2.86474,7.7315 -8.59275,7.7315 l -17.18404,0 0,-5.1562 16.32566,0 c 2.86474,0 4.29637,-0.8569 4.29637,-2.5753 0,-1.7183 -1.43163,-2.5795 -4.29637,-2.5795 l -7.73439,0 0,0 c -5.72801,0 -8.59275,-2.5752 -8.59275,-7.7315 0,-5.1546 2.86327,-7.7344 8.59275,-7.7344 l 17.18552,0 0,5.1548 -16.32564,0 c -2.86475,0 -4.29639,0.8614 -4.29639,2.5796 0,1.7183 1.43164,2.5752 4.29639,2.5752 l 7.73289,0 c 5.72801,0 8.59275,2.5796 8.59275,7.7358"
         style="fill:#ffffff;stroke:#000000;stroke-width:1.4850949;fill-opacity:1" />
      <path
         id="path296"
         transform="translate(11.821075,631.78464)"
         d="M 426.875 376.34375 L 426.875 402.125 L 432.03125 402.125 L 432.03125 391.8125 L 444.0625 391.8125 C 449.78902 391.8125 452.65625 389.25005 452.65625 384.09375 C 452.65625 378.93915 449.78902 376.34375 444.0625 376.34375 L 426.875 376.34375 z M 432.03125 381.5 L 443.1875 381.5 C 446.05224 381.5 447.5 382.37555 447.5 384.09375 C 447.5 385.81205 446.05224 386.65625 443.1875 386.65625 L 432.03125 386.65625 L 432.03125 381.5 z "
         style="fill:#ffffff;stroke:#000000;stroke-width:1.4850949;fill-opacity:1" />
      <path
         id="path306"
         transform="translate(11.821075,631.78464)"
         d="M 464.6875 376.34375 L 453.5 402.125 L 459.125 402.125 L 461.34375 396.96875 L 473.65625 396.96875 L 475.875 402.125 L 481.46875 402.125 L 470.28125 376.34375 L 464.6875 376.34375 z M 467.5 382.84375 L 471.375 391.8125 L 463.59375 391.8125 L 467.5 382.84375 z "
         style="fill:#ffffff;stroke:#000000;stroke-width:1.4850949;fill-opacity:1" />
      <path
         id="path310"
         transform="translate(11.821075,631.78464)"
         d="M 493.03125 376.34375 C 487.30472 376.34375 484.4375 379.2095 484.4375 384.9375 L 484.4375 393.53125 C 484.4375 399.25925 487.30472 402.125 493.03125 402.125 L 510.21875 402.125 L 510.21875 396.96875 L 493.75 396.96875 C 490.97734 396.96875 489.59375 395.60295 489.59375 392.84375 L 489.59375 385.625 C 489.59375 382.8761 490.99218 381.5 493.75 381.5 L 510.21875 381.5 L 510.21875 376.34375 L 493.03125 376.34375 z "
         style="fill:#ffffff;stroke:#000000;stroke-width:1.4850949;fill-opacity:1" />
      <path
         inkscape:connector-curvature="0"
         id="path328"
         d="m 532.3018,1028.7586 20.62351,0 0,5.1562 -25.77827,0 0,-25.7769 25.77827,0 0,5.1548 -20.62351,0 0,5.1563 20.62351,0 0,5.1563 -20.62351,0 0,5.1533 0,0"
         style="fill:#ffffff;stroke:#000000;stroke-width:1.4850949;fill-opacity:1" />
      <path
         id="path342"
         transform="translate(11.821075,631.78464)"
         d="M 563.4375 376.34375 C 557.70948 376.34375 554.84375 379.2095 554.84375 384.9375 L 554.84375 393.53125 C 554.84375 399.25925 557.70948 402.125 563.4375 402.125 L 563.4375 402.15625 L 572.03125 402.125 C 577.75925 402.1146 580.625 399.24885 580.625 393.53125 L 580.625 384.9375 C 580.625 379.2095 577.75925 376.34375 572.03125 376.34375 L 563.4375 376.34375 z M 563.4375 381.5 L 571.1875 381.5 C 574.05224 381.5 575.46875 382.9478 575.46875 385.8125 L 575.46875 392.6875 C 575.46875 395.5522 574.05224 396.96875 571.1875 396.96875 L 564.3125 396.96875 C 561.44775 396.96875 560 395.5522 560 392.6875 L 560 385.8125 C 560 382.9478 561.14599 381.5 563.4375 381.5 z "
         style="fill:#ffffff;stroke:#000000;stroke-width:1.4850949;fill-opacity:1" />
      <path
         inkscape:connector-curvature="0"
         id="path348"
         d="m 583.85688,1033.9148 0,0"
         style="fill:#ffffff;stroke:#000000;stroke-width:1.4850949;fill-opacity:1" />
      <path
         id="path366"
         transform="translate(11.821075,631.78464)"
         d="M 585.84375 376.34375 L 585.84375 402.125 L 611.625 402.125 L 611.625 396.96875 L 591 396.96875 L 591 376.34375 L 585.84375 376.34375 z "
         style="fill:#ffffff;stroke:#000000;stroke-width:1.4850949;fill-opacity:1" />
      <path
         id="path372"
         transform="translate(11.821075,631.78464)"
         d="M 616.71875 376.34375 L 616.71875 402.125 L 633.90625 402.125 C 639.63426 402.125 642.5 399.25925 642.5 393.53125 L 642.5 384.9375 C 642.5 379.2095 639.63426 376.34375 633.90625 376.34375 L 616.71875 376.34375 z M 621.875 381.5 L 633.21875 381.5 C 635.95728 381.5 637.3135 382.8581 637.3125 385.5625 L 637.3125 392.90625 C 637.3125 395.61815 635.93642 396.96875 633.1875 396.96875 L 621.875 396.96875 L 621.875 381.5 z "
         style="fill:#ffffff;stroke:#000000;stroke-width:1.4850949;fill-opacity:1" />
      <path
         inkscape:connector-curvature="0"
         id="path382"
         d="m 645.03089,1013.2912 0,0"
         style="fill:#ffffff;stroke:#000000;stroke-width:1.4850949;fill-opacity:1" />
      <path
         inkscape:connector-curvature="0"
         id="path384"
         d="m 664.70247,1028.7586 20.62202,0 0,5.1562 -25.77679,0 0,-25.7769 25.77679,0 0,5.1548 -20.62202,0 0,5.1563 20.62202,0 0,5.1563 -20.62202,0 0,5.1533 0,0"
         style="fill:#ffffff;stroke:#000000;stroke-width:1.4850949;fill-opacity:1" />
      <path
         inkscape:connector-curvature="0"
         id="path394"
         d="m 695.72759,1015.9586 0,17.9562 -5.15625,0 0,-25.7769 5.25871,0 15.36331,17.9594 0,-17.9594 5.15625,0 0,25.7769 -5.24239,0 -15.37963,-17.9562 0,0"
         style="fill:#ffffff;stroke:#000000;stroke-width:1.4850949;fill-opacity:1" />
      <path
         id="path398"
         transform="translate(11.821075,631.78464)"
         d="M 709.875 376.34375 L 709.875 402.125 L 727.0625 402.125 C 732.79052 402.125 735.65625 399.56255 735.65625 394.40625 C 735.65625 391.54145 734.812 389.8233 733.09375 389.25 C 734.812 388.6769 735.65625 386.95855 735.65625 384.09375 C 735.65625 378.94065 732.79052 376.34375 727.0625 376.34375 L 709.875 376.34375 z M 715.03125 381.5 L 726.21875 381.5 C 729.08352 381.5 730.5 382.37555 730.5 384.09375 C 730.5 385.81205 729.35402 386.65625 727.0625 386.65625 L 715.03125 386.65625 L 715.03125 381.5 z M 715.03125 391.8125 L 727.0625 391.8125 C 729.35402 391.8125 730.5 392.68785 730.5 394.40625 C 730.5 396.12455 729.08349 396.96875 726.21875 396.96875 L 715.03125 396.96875 L 715.03125 391.8125 z "
         style="fill:#ffffff;stroke:#000000;stroke-width:1.4850949;fill-opacity:1" />
      <path
         inkscape:connector-curvature="0"
         id="path410"
         d="m 738.89483,1023.6038 0,0"
         style="fill:#ffffff;stroke:#000000;stroke-width:1.4850949;fill-opacity:1" />
      <path
         sodipodi:nodetypes="cccccccccccccc"
         inkscape:connector-curvature="0"
         id="path412"
         d="m 778.37164,1025.322 c 0,5.728 -2.86476,8.5928 -8.59276,8.5928 l -8.59277,0 c -5.72652,0 -8.59126,-2.8648 -8.59126,-8.5928 l 0,-17.1841 5.15624,0 0,16.4832 c 0,2.7592 1.3752,4.139 4.12263,4.139 l 7.20122,0 c 2.76228,0 4.14192,-1.3842 4.14192,-4.1568 l 0,-16.4654 -0.001,0 5.15602,0 0,17.1841"
         style="fill:#ffffff;stroke:#000000;stroke-width:1.4850949;fill-opacity:1" />
      <path
         id="path438"
         transform="translate(11.821075,631.78464)"
         d="M 771.875 376.34375 L 771.875 402.125 L 777.03125 402.125 L 777.03125 391.8125 L 779.53125 391.8125 L 791.625 402.125 L 799.5625 402.125 L 787.4375 391.8125 L 789.0625 391.8125 C 794.79051 391.8125 797.65625 389.25005 797.65625 384.09375 C 797.65625 378.93915 794.79051 376.34375 789.0625 376.34375 L 771.875 376.34375 z M 777.03125 381.5 L 788.1875 381.5 C 791.05224 381.5 792.5 382.37555 792.5 384.09375 C 792.5 385.81205 791.05224 386.65625 788.1875 386.65625 L 777.03125 386.65625 L 777.03125 381.5 z "
         style="fill:#ffffff;stroke:#000000;stroke-width:1.4850949;fill-opacity:1" />
      <path
         sodipodi:nodetypes="cccccccccccccccc"
         inkscape:connector-curvature="0"
         id="path444"
         d="m 823.16506,1033.9148 c -5.72652,0 -8.59127,-2.8648 -8.59127,-8.5928 l 0,-8.5927 c 0,-5.728 2.86475,-8.5914 8.59127,-8.5914 l 17.18553,0 0,5.1548 -16.48457,0 c -2.7578,0 -4.13895,1.3753 -4.13895,4.1242 l 0,7.2042 c 0,2.7592 1.3856,4.139 4.15679,4.139 l 11.31048,0 0,-8.5928 5.15772,0 0,0 0,13.7475 -17.187,0"
         style="fill:#ffffff;stroke:#000000;stroke-width:1.4850949;fill-opacity:1" />
      <path
         inkscape:connector-curvature="0"
         id="path462"
         d="m 746.08121,891.92932 93.99908,0 0,-18.79984 -93.99908,0 0,18.79984 0,0"
         style="fill:#ffffff;stroke:#000000;stroke-width:1.4850949;fill-opacity:1" />
      <path
         inkscape:connector-curvature="0"
         id="path464"
         d="m 746.08121,929.52747 93.99908,0 0,-18.79984 -93.99908,0 0,18.79984 0,0"
         style="fill:#ffffff;stroke:#000000;stroke-width:1.4850949;fill-opacity:1" />
      <path
         inkscape:connector-curvature="0"
         id="path466"
         d="m 840.08029,948.32573 -93.99908,0 0,18.80291 93.99908,0 0,-18.80291 0,0"
         style="fill:#ffffff;stroke:#000000;stroke-width:1.4850949;fill-opacity:1" />
      <path
         inkscape:connector-curvature="0"
         id="path468"
         d="m 662.67086,967.12864 21.18042,0 0,-0.0668 27.00794,-53.20202 0,53.26892 18.79832,0 0,-94.00061 -19.23791,0 -37.15856,73.13053 -37.16004,-73.13053 -19.23793,0 0,94.00061 18.79686,0 0,-53.20504 27.0109,53.20504 0,0"
         style="fill:#ffffff;stroke:#000000;stroke-width:1.4850949;fill-opacity:1" />
      <path
         inkscape:connector-curvature="0"
         id="path470"
         d="m 604.49968,967.12864 -40.79555,-94.00064 -20.42749,0 -40.79555,94.00064 20.49134,0 30.5187,-70.37724 30.58108,70.37724 20.42747,0 0,0"
         style="fill:#ffffff;stroke:#000000;stroke-width:1.4850949;fill-opacity:1" />
      <path
         id="path484"
         transform="translate(11.821075,631.78464)"
         d="M 380.40625 241.34375 L 380.40625 260.15625 L 439.9375 260.15625 C 450.38217 260.15625 455.625 263.26709 455.625 269.53125 C 455.625 275.80132 450.38069 278.9375 439.9375 278.9375 L 380.40625 278.9375 L 380.40625 297.75 L 408.375 297.75 L 452.46875 335.34375 L 481.375 335.34375 L 437.25 297.75 L 443.09375 297.75 C 463.97864 297.75 474.40625 288.33402 474.40625 269.53125 C 474.40625 250.73438 463.98013 241.34375 443.09375 241.34375 L 380.40625 241.34375 z "
         style="fill:#ffffff;stroke:#000000;stroke-width:1.4850949;fill-opacity:1" />
      <path
         inkscape:connector-curvature="0"
         id="path486"
         d="m 301.4126,891.92932 75.19482,0 0,-18.79984 -93.99465,0 0,94.00066 18.80132,0 0,-37.6012 75.1948,0 0,-18.80131 -75.1948,0 0,-18.79831 -10e-4,0"
         style="fill:#ffffff;stroke:#000000;stroke-width:1.4850949;fill-opacity:1" />
    </g>
  </g>
</svg>
