<?xml version="1.0" encoding="UTF-8" standalone="no"?>
<svg
   xmlns:dc="http://purl.org/dc/elements/1.1/"
   xmlns:cc="http://creativecommons.org/ns#"
   xmlns:rdf="http://www.w3.org/1999/02/22-rdf-syntax-ns#"
   xmlns:svg="http://www.w3.org/2000/svg"
   xmlns="http://www.w3.org/2000/svg"
   xmlns:sodipodi="http://sodipodi.sourceforge.net/DTD/sodipodi-0.dtd"
   xmlns:inkscape="http://www.inkscape.org/namespaces/inkscape"
   width="887.43"
   height="414.527"
   id="svg2"
   version="1.1"
   inkscape:version="0.91 r13725"
   sodipodi:docname="mainframe-open-plus.dark.svg">
  <metadata
     id="metadata44">
    <rdf:RDF>
      <cc:Work
         rdf:about="">
        <dc:format>image/svg+xml</dc:format>
        <dc:type
           rdf:resource="http://purl.org/dc/dcmitype/StillImage" />
        <dc:title></dc:title>
      </cc:Work>
    </rdf:RDF>
  </metadata>
  <defs
     id="defs42" />
  <sodipodi:namedview
     pagecolor="#ffffff"
     bordercolor="#666666"
     borderopacity="1"
     objecttolerance="10"
     gridtolerance="10"
     guidetolerance="10"
     inkscape:pageopacity="0"
     inkscape:pageshadow="2"
     inkscape:window-width="1537"
     inkscape:window-height="868"
     id="namedview40"
     showgrid="false"
     inkscape:zoom="0.66709487"
     inkscape:cx="425.40317"
     inkscape:cy="319.14727"
     inkscape:window-x="0"
     inkscape:window-y="0"
     inkscape:window-maximized="0"
     inkscape:current-layer="svg2" />
  <desc
     id="desc4">C:\Documents and Settings\ktt\Desktop\Main.dxf - scale = 1.000000</desc>
  <path
     style="fill:#8ae234;stroke:#000000;stroke-width:1.48500001"
     inkscape:connector-curvature="0"
     id="path8"
     d="m 183.375,253.563 c 0,0 -2.03,10.228 -8,10 -5.094,-0.202 -4.594,-9.563 -4.594,-9.563 l -6.468,0.563 c 0,0 0.922,8.417 -4.687,10.125 -5.602,1.71 -8,-6 -8,-6 l -5.28,2.468 c 0,0 3.272,7.6 -1.376,10.688 -4.66,3.098 -10.064,-3.22 -10.064,-3.22 l -4.187,4.72 c 0,0 5.994,6.953 3.06,10.47 -2.936,3.503 -12.28,1.155 -12.28,1.155 l -1.47,4.655 c 0,0 7.687,4.68 6.814,8.688 C 125.586,304.087 115.75,302 115.75,302 l -0.5,5.406 c 0,0 8.753,1.112 9.687,7.688 0.54,3.72 -9.312,6.187 -9.312,6.187 l 2.594,5.5 4,-0.874 c 3.413,0.357 5.333,2.59 6,3.53 0.293,1.105 0.792,4.034 -1.126,6.908 l -3.22,2.53 2.563,5.5 c 0,0 8.2,-5.98 10.72,-3.187 4.444,4.93 -0.345,12.344 -0.345,12.344 l 4.5,3.095 c 0,0 4.7,-8.887 9.938,-6.156 3.65,1.895 2.312,10.78 2.312,10.78 l 4.5,1.875 c 0,0 4.212,-8.68 8.782,-8.688 4.578,0 6.062,9.063 6.062,9.063 l 6.313,-0.22 c 0,0 -1.39,-8.186 3.967,-9.78 5.354,-1.59 9.094,5.813 9.094,5.813 l 5.25,-2.47 c 0,0 -4.368,-6.797 0.532,-10 4.9,-3.21 10.782,2.876 10.782,2.876 l 4.593,-4.564 c 0,0 -7.514,-5.655 -4.406,-9.687 3.65,-4.736 12.782,0.25 12.782,0.25 l 2.75,-5.845 c 0,0 -9.785,-3.55 -8.312,-8 1.78,-5.34 11.25,-5.28 11.25,-5.28 l 0.03,-5.19 c 0.006,0 -9.222,-1.477 -9.718,-6.436 -0.55,-5.67 10.188,-7.533 10.188,-7.533 l -1.813,-6.468 c 0,0 -7.953,4 -11.28,-2.064 -2.554,-6.457 5.624,-10.03 5.624,-10.03 l -3.81,-5.532 c 0,0 -8.292,7.093 -12.283,3.03 -3.492,-3.55 1.282,-11.593 1.282,-11.593 l -4,-3.31 c 0,0 -6.024,7.307 -11.25,5.25 -4.363,-1.714 -0.814,-11.5 -0.814,-11.5 l -6.28,-1.657 z m -16.97,17.78 20.376,15.594 -9.186,12 -3.938,-3.03 -2.97,4 6.126,4.687 4.688,3.594 3.094,-3.907 -3.97,-3.03 9.188,-12 20.375,15.594 -9.28,12.187 -3.063,-2.186 -13.657,17.844 2,1.5 -9.813,12.81 -19.72,-15.094 10.032,-13.437 4.438,3.405 2.187,-2.5 -4.656,-3.53 -0.97,-0.72 -1.03,-0.78 0,-0.032 -4.594,-3.563 -1.875,2.75 4.438,3.406 -10.344,13.188 -19.718,-15.093 9.813,-12.813 1.97,1.532 13.654,-17.845 -2.906,-2.375 9.312,-12.156 z" />
  <path
     style="fill:none;stroke:#000000;stroke-width:1.48500001"
     inkscape:connector-curvature="0"
     id="path10"
     d="M 217.802,304.97" />
  <path
     style="stroke:#ffffff;stroke-width:1.48500001;fill:#ffffff"
     inkscape:connector-curvature="0"
     id="path12"
     d="m 65.406,369.097 c -4.022,5.866 -3.527,13.938 1.59,19.272 5.86,6.107 15.567,6.31 21.676,0.448 6.11,-5.862 6.31,-15.568 0.45,-21.678 -5.115,-5.335 -13.16,-6.16 -19.188,-2.387 L 18.3,310.93 18.3,118.56 68.675,71.377 c 5.815,4.09 13.893,3.692 19.288,-1.36 6.178,-5.785 6.496,-15.488 0.71,-21.666 -5.786,-6.18 -15.49,-6.496 -21.668,-0.71 -5.395,5.052 -6.32,13.088 -2.618,19.16 l -52.363,49.04 0,197.609 53.382,55.645" />
  <path
     style="fill:none;stroke:#000000;stroke-width:1.48500001"
     inkscape:connector-curvature="0"
     id="path14"
     d="M 89.122,367.14" />
  <path
     style="stroke:#ffffff;stroke-width:1.48500001;fill:#ffffff"
     inkscape:connector-curvature="0"
     id="path16"
     d="m 202.687,5 c -8.465,0 -15.343,6.88 -15.343,15.344 0,7.39 5.225,13.552 12.187,15 l 0,67.5 -83,91.187 c -6.122,-3.613 -14.15,-2.587 -19.124,2.876 -5.697,6.26 -5.228,15.955 1.032,21.656 6.26,5.696 15.957,5.232 21.656,-1.03 a 15.304,15.304 0 0 0 1.093,-19.282 l 84.625,-93 0,-69.907 c 6.963,-1.45 12.188,-7.61 12.188,-15 C 218,11.88 211.153,5 202.687,5 Z" />
  <path
     style="fill:none;stroke:#000000;stroke-width:1.48500001"
     inkscape:connector-curvature="0"
     id="path18"
     d="M 218.007,20.33" />
  <path
     style="stroke:#ffffff;stroke-width:1.48500001;fill:#ffffff"
     inkscape:connector-curvature="0"
     id="path20"
     d="m 848.56,356.345 c 1.45,6.96 7.618,12.194 15.01,12.194 8.462,0 15.328,-6.865 15.328,-15.33 0,-8.47 -6.864,-15.335 -15.33,-15.335 -7.392,0 -13.56,5.233 -15.008,12.195 l -581.316,0 -17.09,-12.126 c 3.096,-9.03 4.766,-18.902 4.766,-29.41 0,-40.603 -29.21,-74.493 -67.717,-81.81 l 0,12.814 c 31.538,7.115 55.17,35.34 55.17,68.997 0,36.236 -22.02,62.96 -55.17,69.296 l 0,12.704 c 27.996,-4.678 49.933,-21.94 60.605,-46.563 l 17.434,12.375 583.318,0" />
  <path
     style="fill:none;stroke:#000000;stroke-width:1.48500001"
     inkscape:connector-curvature="0"
     id="path22"
     d="M 863.57,337.875" />
  <path
     style="stroke:#ffffff;stroke-width:1.48500001;fill:#ffffff"
     inkscape:connector-curvature="0"
     id="path24"
     d="m 104.9,258.768 c -10.394,13.89 -16.557,31.12 -16.557,49.77 0,39.692 27.91,72.96 65.13,81.275 l 0,-12.9 c -30.236,-8.04 -52.585,-35.64 -52.585,-68.376 0,-32.733 22.35,-60.337 52.586,-68.374 l 0,-12.9 c -17.617,3.934 -33.143,13.467 -44.617,26.623 l -39.484,-35.926 0,-86.67 c 6.96,-1.45 12.192,-7.617 12.192,-15.006 0,-8.466 -6.865,-15.33 -15.33,-15.33 -8.465,0 -15.33,6.864 -15.33,15.33 0,7.39 5.23,13.557 12.192,15.005 l 0,89.442 41.802,38.036" />
  <path
     style="fill:none;stroke:#000000;stroke-width:1.48500001"
     inkscape:connector-curvature="0"
     id="path26"
     d="M 108.857,253.886" />
  <g
     style="stroke:#ffffff;stroke-width:4.36199999;fill:#ffffff"
     id="g32">
    <path
       inkscape:connector-curvature="0"
       id="path34"
       transform="matrix(0.34512,0,0,0.33582,287.217,111.64)"
       d="m 632.513,850.077 19.113,0 0,-93.994 -18.8,0 0,65.482 -56.02,-65.482 -19.176,0 0,93.994 18.798,0 0,-65.484 56.085,65.484 m -91.476,-93.994 -18.8,0 0,93.994 18.8,0 0,-93.994 m -31.15,93.994 -40.795,-93.994 -20.426,0 -40.796,93.994 20.49,0 30.52,-70.37 30.578,70.37 20.43,0 m -181.468,0 21.18,0 0,-0.062 27.007,-53.202 0,53.264 18.802,0 0,-93.995 -19.24,0 -37.158,73.128 -37.16,-73.128 -19.24,0 0,93.995 18.802,0 0,-53.202 27.007,53.202"
       style="fill:#ffffff;stroke:#ffffff" />
    <path
       inkscape:connector-curvature="0"
       id="path36"
       transform="matrix(0.34512,0,0,0.33582,419.874,72.332)"
       d="m 746.08,891.93 94,0 0,-18.8 -94,0 0,18.8 m 0,37.597 94,0 0,-18.8 -94,0 0,18.8 m 94,18.799 -94,0 0,18.803 94,0 0,-18.804"
       style="fill:#ffffff;stroke:#ffffff" />
    <path
       inkscape:connector-curvature="0"
       id="path38"
       transform="matrix(0.34512,0,0,0.33582,287.217,111.64)"
       d="m 1047.044,850.077 21.18,0 0,-0.067 27.008,-53.202 0,53.27 18.8,0 0,-94 -19.24,0 -37.158,73.13 -37.16,-73.13 -19.238,0 0,94 18.797,0 0,-53.208 27.01,53.205 m -58.17,0.002 -40.796,-94 -20.427,0 -40.796,94 20.492,0 30.518,-70.377 30.58,70.377 20.43,0 m -212.274,-94 0,18.813 59.532,0 c 10.444,0 15.687,3.11 15.687,9.375 0,6.27 -5.245,9.406 -15.688,9.406 l -59.531,0 0,18.813 27.97,0 44.093,37.594 28.906,0 -44.126,-37.594 5.844,0 c 20.885,0 31.312,-9.416 31.312,-28.218 0,-18.797 -10.426,-28.188 -31.312,-28.188 l -62.687,0 z m -90.814,18.799 75.195,0 0,-18.8 -93.994,0 0,94 18.8,0 0,-37.6 75.196,0 0,-18.8 -75.195,0 0,-18.8"
       style="fill:#ffffff;stroke:#ffffff" />
  </g>
  <g
     id="g4235"
     transform="matrix(0.78065451,0,0,0.78065451,68.371279,35.095498)">
    <path
       d="m 448.64743,146.50064 53.48187,0 c 13.73481,0 20.67172,4.34684 20.67172,12.8718 0,8.52495 -6.93691,12.71796 -20.67172,12.71796 l -53.48187,0 0,-25.58479 z m -24.72745,-25.58479 0,127.92397 24.72745,0 0,-51.15966 57.67182,0 c 27.45524,0 41.20443,-12.72293 41.20443,-38.30772 0,-25.57984 -13.74919,-38.45659 -41.19963,-38.45659 l -82.40886,0 z"
       style="fill:#8ae234;stroke:#000000;stroke-width:1.89932036"
       id="path4197"
       inkscape:connector-curvature="0" />
    <path
       id="path4195"
       d="m 595.03702,223.25999 98.87145,0 0,25.58479 -123.58932,0 0,-127.91404 123.58932,0 0,25.57983 -98.87145,0 0,25.58479 98.87145,0 0,25.58976 -98.87145,0 0,25.56991"
       style="fill:#8ae234;stroke:#000000;stroke-width:1.89932036"
       inkscape:connector-curvature="0" />
    <path
       d="m 318.73962,146.33193 37.1535,0 c 13.72522,0 20.51832,7.18518 20.51832,21.40171 l 0,34.11471 c 0,14.21653 -6.7931,21.23796 -20.51832,21.23796 l -32.96354,0 c -13.73481,0 -20.67653,-7.02143 -20.67653,-21.23796 l 0,-34.11471 c 0,-14.21653 5.49872,-21.40171 16.49136,-21.40171 z m 0,-25.58479 c -27.46962,0 -41.20443,14.22149 -41.20443,42.64463 l 0,42.64463 c 0,28.42314 13.7396,42.64463 41.19964,42.64463 l 0,0.14887 41.19004,-0.14887 c 27.46004,-0.0496 41.19964,-14.27608 41.19964,-42.64463 l 0,-42.64463 c 0,-28.42314 -13.7396,-42.64463 -41.19964,-42.64463 l -41.19484,0 z"
       style="fill:#8ae234;stroke:#000000;stroke-width:1.89932036"
       id="path4191"
       inkscape:connector-curvature="0" />
    <path
       id="path30"
       d="m 741.43619,159.7446 0,89.10018 -24.71787,0 0,-127.91404 25.20686,0 73.65501,89.12003 0,-89.12003 24.71787,0 0,127.90908 -25.13015,0 -73.73172,-89.10515"
       style="fill:#8ae234;stroke:#000000;stroke-width:1.89932036"
       inkscape:connector-curvature="0" />
    <path
       inkscape:connector-curvature="0"
       id="path30-3"
       d="m 914.58505,120.93072 0,51.35351 -51.35352,0 0,24.71875 51.35352,0 0,51.8418 24.71874,0 0,-51.8418 13.0293,0 38.8125,0.48828 0,-25.20703 -51.8418,0 0,-12.54101 0.48829,-38.8125 -25.20703,0 z"
       style="fill:#8ae234;stroke:#000000;stroke-width:1.89932036" />
  </g>
</svg>
