<svg xmlns="http://www.w3.org/2000/svg" width="887.43" height="414.527"><desc>C:\Documents and Settings\ktt\Desktop\Main.dxf - scale = 1.000000</desc><g stroke="#000"><path d="M183.375 253.563s-2.03 10.228-8 10c-5.094-.202-4.594-9.563-4.594-9.563l-6.468.563s.922 8.417-4.687 10.125c-5.602 1.71-8-6-8-6l-5.28 2.468s3.272 7.6-1.376 10.688c-4.66 3.098-10.064-3.22-10.064-3.22l-4.187 4.72s5.994 6.953 3.06 10.47c-2.936 3.503-12.28 1.155-12.28 1.155l-1.47 4.655s7.687 4.68 6.814 8.688C125.586 304.087 115.75 302 115.75 302l-.5 5.406s8.753 1.112 9.687 7.688c.54 3.72-9.312 6.187-9.312 6.187l2.594 5.5 4-.874c3.413.357 5.333 2.59 6 3.53.293 1.105.792 4.034-1.126 6.908l-3.22 2.53 2.563 5.5s8.2-5.98 10.72-3.187c4.444 4.93-.345 12.344-.345 12.344l4.5 3.095s4.7-8.887 9.938-6.156c3.65 1.895 2.312 10.78 2.312 10.78l4.5 1.875s4.212-8.68 8.782-8.688c4.578 0 6.062 9.063 6.062 9.063l6.313-.22s-1.39-8.186 3.967-9.78c5.354-1.59 9.094 5.813 9.094 5.813l5.25-2.47s-4.368-6.797.532-10c4.9-3.21 10.782 2.876 10.782 2.876l4.593-4.564s-7.514-5.655-4.406-9.687c3.65-4.736 12.782.25 12.782.25l2.75-5.845s-9.785-3.55-8.312-8c1.78-5.34 11.25-5.28 11.25-5.28l.03-5.19c.006 0-9.222-1.477-9.718-6.436-.55-5.67 10.188-7.533 10.188-7.533l-1.813-6.468s-7.953 4-11.28-2.064c-2.554-6.457 5.624-10.03 5.624-10.03l-3.81-5.532s-8.292 7.093-12.283 3.03c-3.492-3.55 1.282-11.593 1.282-11.593l-4-3.31s-6.024 7.307-11.25 5.25c-4.363-1.714-.814-11.5-.814-11.5l-6.28-1.657zm-16.97 17.78l20.376 15.594-9.186 12-3.938-3.03-2.97 4 6.126 4.687 4.688 3.594 3.094-3.907-3.97-3.03 9.188-12 20.375 15.594-9.28 12.187-3.063-2.186-13.657 17.844 2 1.5L176.375 347l-19.72-15.094 10.032-13.437 4.438 3.405 2.187-2.5-4.656-3.53-.97-.72-1.03-.78v-.032l-4.594-3.563-1.875 2.75 4.438 3.406-10.344 13.188L134.563 315l9.813-12.813 1.97 1.532L160 285.874l-2.906-2.375 9.312-12.156z" fill="#fce94f" stroke-width="1.485"/><path d="M217.802 304.97" fill="none" stroke-width="1.485"/><path d="M65.406 369.097c-4.022 5.866-3.527 13.938 1.59 19.272 5.86 6.107 15.567 6.31 21.676.448 6.11-5.862 6.31-15.568.45-21.678-5.115-5.335-13.16-6.16-19.188-2.387L18.3 310.93V118.56l50.375-47.183c5.815 4.09 13.893 3.692 19.288-1.36 6.178-5.785 6.496-15.488.71-21.666-5.786-6.18-15.49-6.496-21.668-.71-5.395 5.052-6.32 13.088-2.618 19.16l-52.363 49.04V313.45l53.382 55.645" stroke-width="1.485"/><path d="M89.122 367.14" fill="none" stroke-width="1.485"/><path d="M202.687 5c-8.465 0-15.343 6.88-15.343 15.344 0 7.39 5.225 13.552 12.187 15v67.5l-83 91.187c-6.122-3.613-14.15-2.587-19.124 2.876-5.697 6.26-5.228 15.955 1.032 21.656 6.26 5.696 15.957 5.232 21.656-1.03a15.304 15.304 0 0 0 1.093-19.282l84.625-93V35.344c6.963-1.45 12.188-7.61 12.188-15C218 11.88 211.153 5 202.687 5z" stroke-width="1.485"/><path d="M218.007 20.33" fill="none" stroke-width="1.485"/><path d="M848.56 356.345c1.45 6.96 7.618 12.194 15.01 12.194 8.462 0 15.328-6.865 15.328-15.33 0-8.47-6.864-15.335-15.33-15.335-7.392 0-13.56 5.233-15.008 12.195H267.244l-17.09-12.126c3.096-9.03 4.766-18.902 4.766-29.41 0-40.603-29.21-74.493-67.717-81.81v12.814c31.538 7.115 55.17 35.34 55.17 68.997 0 36.236-22.02 62.96-55.17 69.296v12.704c27.996-4.678 49.933-21.94 60.605-46.563l17.434 12.375H848.56" stroke-width="1.485"/><path d="M863.57 337.875" fill="none" stroke-width="1.485"/><path d="M104.9 258.768c-10.394 13.89-16.557 31.12-16.557 49.77 0 39.692 27.91 72.96 65.13 81.275v-12.9c-30.236-8.04-52.585-35.64-52.585-68.376 0-32.733 22.35-60.337 52.586-68.374v-12.9c-17.617 3.934-33.143 13.467-44.617 26.623L69.373 217.96v-86.67c6.96-1.45 12.192-7.617 12.192-15.006 0-8.466-6.865-15.33-15.33-15.33s-15.33 6.864-15.33 15.33c0 7.39 5.23 13.557 12.192 15.005v89.442l41.802 38.036" stroke-width="1.485"/><path d="M108.857 253.886" fill="none" stroke-width="1.485"/><g stroke-width="4.362"><path d="M632.513 850.077h19.113v-93.994h-18.8v65.482l-56.02-65.482H557.63v93.994h18.798v-65.484l56.085 65.484M541.037 756.083h-18.8v93.994h18.8v-93.994M509.887 850.077l-40.795-93.994h-20.426l-40.796 93.994h20.49l30.52-70.37 30.578 70.37h20.43M328.42 850.077h21.18v-.062l27.007-53.202v53.264h18.802v-93.995h-19.24l-37.158 73.128-37.16-73.128h-19.24v93.995h18.802v-53.202l27.007 53.202" transform="matrix(.34512 0 0 .33582 287.217 111.64)"/><path d="M746.08 891.93h94v-18.8h-94v18.8M746.08 929.527h94v-18.8h-94v18.8M840.08 948.326h-94v18.803h94v-18.804" transform="matrix(.34512 0 0 .33582 419.874 72.332)"/><path d="M1047.044 850.077h21.18v-.067l27.008-53.202v53.27h18.8v-94h-19.24l-37.158 73.13-37.16-73.13h-19.238v94h18.797V796.87l27.01 53.205M988.873 850.077l-40.796-94H927.65l-40.796 94h20.492l30.518-70.377 30.58 70.377h20.43M776.6 756.077v18.813h59.532c10.444 0 15.687 3.11 15.687 9.375 0 6.27-5.245 9.406-15.688 9.406H776.6v18.813h27.97l44.093 37.594h28.906l-44.126-37.594h5.844c20.885 0 31.312-9.416 31.312-28.218 0-18.797-10.426-28.188-31.312-28.188H776.6zM685.786 774.876h75.195v-18.8h-93.994v94h18.8v-37.6h75.196v-18.8h-75.195v-18.8" transform="matrix(.34512 0 0 .33582 287.217 111.64)"/></g><g fill="#fce94f" stroke-width="1.716"><path d="M269.33 139.11c-17.203 0-25.803 8.906-25.803 26.708v26.708c0 17.802 8.605 26.708 25.803 26.708h51.607V203.21h-49.45c-8.32 0-12.478-4.245-12.478-12.82v-22.435c0-8.544 4.19-12.82 12.478-12.82h49.45V139.11H269.33zM336.242 139.11v80.124h77.41V203.21h-61.928v-64.1h-15.482zM454.73 139.11c-17.178 0-25.772 8.896-25.772 26.676v26.676c0 17.78 8.594 26.675 25.772 26.675v.096l25.772-.096c17.178-.03 25.772-8.928 25.772-26.675v-26.676c0-17.78-8.594-26.675-25.772-26.675H454.73zm0 16.006h23.242c8.59 0 12.84 4.494 12.84 13.386v21.34c0 8.893-4.25 13.29-12.84 13.29h-20.618c-8.59 0-12.933-4.397-12.933-13.29v-21.34c0-8.892 3.438-13.386 10.31-13.386zM599.09 195.202c0 16.028-8.602 24.032-25.804 24.032H521.68v-16.027h49.03c8.602 0 12.9-2.664 12.9-8.005 0-5.34-4.298-8.018-12.9-8.018H547.48c-17.202 0-25.805-8.005-25.805-24.033 0-16.02 8.598-24.04 25.805-24.04h51.61v16.023h-49.028c-8.603 0-12.903 2.677-12.903 8.018 0 5.342 4.3 8.006 12.904 8.006h23.222c17.202 0 25.805 8.018 25.805 24.046M635.163 139.135h-19.017v80.075h19.017v-80.075M783.393 219.21c-17.99 0-26.988-9-26.988-26.993v-26.992c0-17.993 9-26.988 26.988-26.988h53.985v16.193h-51.783c-8.663 0-13.002 4.32-13.002 12.955v22.63c0 8.668 4.353 13.003 13.058 13.003h35.53v-26.993h16.203v43.185h-53.99M721.24 219.21h16.718v-80.075h-16.445v55.785l-49.004-55.785h-16.776v80.075h16.445v-55.787l49.06 55.787" stroke-width="1.48473468"/></g></g></svg>