<?xml version="1.0" encoding="UTF-8" standalone="no"?>
<svg
   xmlns:dc="http://purl.org/dc/elements/1.1/"
   xmlns:cc="http://creativecommons.org/ns#"
   xmlns:rdf="http://www.w3.org/1999/02/22-rdf-syntax-ns#"
   xmlns:svg="http://www.w3.org/2000/svg"
   xmlns="http://www.w3.org/2000/svg"
   xmlns:sodipodi="http://sodipodi.sourceforge.net/DTD/sodipodi-0.dtd"
   xmlns:inkscape="http://www.inkscape.org/namespaces/inkscape"
   width="887.42957"
   height="414.52682"
   id="svg2"
   version="1.1"
   inkscape:version="0.48.5 r10040"
   sodipodi:docname="mainframe-closing.svg">
  <metadata
     id="metadata490">
    <rdf:RDF>
      <cc:Work
         rdf:about="">
        <dc:format>image/svg+xml</dc:format>
        <dc:type
           rdf:resource="http://purl.org/dc/dcmitype/StillImage" />
        <dc:title></dc:title>
      </cc:Work>
    </rdf:RDF>
  </metadata>
  <sodipodi:namedview
     pagecolor="#ffffff"
     bordercolor="#666666"
     borderopacity="1"
     objecttolerance="10"
     gridtolerance="10"
     guidetolerance="10"
     inkscape:pageopacity="0"
     inkscape:pageshadow="2"
     inkscape:window-width="1920"
     inkscape:window-height="1035"
     id="namedview488"
     showgrid="false"
     units="mm"
     inkscape:zoom="0.63429568"
     inkscape:cx="541.34696"
     inkscape:cy="261.46044"
     inkscape:window-x="0"
     inkscape:window-y="0"
     inkscape:window-maximized="1"
     inkscape:current-layer="g20"
     fit-margin-top="0"
     fit-margin-left="0"
     fit-margin-right="0"
     fit-margin-bottom="0" />
  <desc
     id="desc4">C:\Documents and Settings\ktt\Desktop\Main.dxf - scale = 1.000000</desc>
  <defs
     id="defs6">
    <marker
       refY="0"
       refX="0"
       style="overflow:visible"
       id="DistanceX"
       orient="auto">
      <path
         style="stroke:#000000;stroke-width:0.5"
         d="M 3,-3 -3,3 M 0,-5 0,5"
         id="path9"
         inkscape:connector-curvature="0" />
    </marker>
    <pattern
       height="8"
       width="8"
       patternUnits="userSpaceOnUse"
       y="0"
       x="0"
       id="Hatch">
      <path
         linecap="square"
         stroke="#000000"
         stroke-width="0.25"
         d="M8 4 l-4,4"
         id="path12" />
      <path
         linecap="square"
         stroke="#000000"
         stroke-width="0.25"
         d="M6 2 l-4,4"
         id="path14" />
      <path
         linecap="square"
         stroke="#000000"
         stroke-width="0.25"
         d="M4 0 l-4,4"
         id="path16" />
    </pattern>
    <symbol
       id="*MODEL_SPACE" />
    <symbol
       id="*PAPER_SPACE" />
  </defs>
  <g
     inkscape:label="0"
     inkscape:groupmode="layer"
     id="g20"
     transform="translate(-11.821075,-631.78464)">
    <path
       inkscape:connector-curvature="0"
       style="fill:#fce94f;fill-opacity:1;stroke:#000000;stroke-width:1.48509490000000000"
       d="m 195.19607,885.34714 c 0,0 -2.02992,10.22871 -8,10 -5.09387,-0.20199 -4.59375,-9.5625 -4.59375,-9.5625 l -6.46875,0.5625 c 0,0 0.9217,8.41714 -4.6875,10.125 -5.60177,1.70935 -8,-6 -8,-6 l -5.28125,2.46875 c 0,0 3.27336,7.59851 -1.375,10.6875 -4.65873,3.09793 -10.0625,-3.21875 -10.0625,-3.21875 l -4.1875,4.71875 c 0,0 5.99556,6.95354 3.0625,10.46875 -2.93752,3.5048 -12.28125,1.15625 -12.28125,1.15625 l -1.46875,4.65625 c 0,0 7.68574,4.67922 6.8125,8.6875 -1.25788,5.77552 -11.09374,3.6875 -11.09374,3.6875 l -0.5,5.40625 c 0,0 8.75337,1.1115 9.68749,7.6875 0.53909,3.72169 -9.31249,6.1875 -9.31249,6.1875 l 2.59374,5.5 4,-0.875 c 3.41422,0.35639 5.33468,2.59113 6,3.53125 0.29405,1.10344 0.79375,4.03254 -1.125,6.90625 l -3.21875,2.53125 2.5625,5.5 c 0,0 8.20004,-5.98234 10.71875,-3.1875 4.4449,4.9306 -0.34375,12.34375 -0.34375,12.34375 l 4.5,3.09375 c 0,0 4.69808,-8.8873 9.9375,-6.15625 3.65038,1.8965 2.3125,10.78125 2.3125,10.78125 l 4.5,1.875 c 0,0 4.21162,-8.67864 8.78125,-8.6875 4.57857,0 6.0625,9.0625 6.0625,9.0625 l 6.3125,-0.21875 c 0,0 -1.38799,-8.18769 3.96875,-9.78125 5.35377,-1.59046 9.09375,5.8125 9.09375,5.8125 l 5.25,-2.46875 c 0,0 -4.36957,-6.79802 0.53125,-10 4.90082,-3.21211 10.78125,2.875 10.78125,2.875 l 4.59375,-4.5625 c 0,0 -7.51454,-5.65546 -4.40625,-9.6875 3.64739,-4.73451 12.78125,0.25 12.78125,0.25 l 2.75,-5.84375 c 0,0 -9.78569,-3.54922 -8.3125,-8 1.78063,-5.33893 11.25,-5.28125 11.25,-5.28125 l 0.0312,-5.1875 c 0.005,0 -9.22274,-1.47874 -9.71875,-6.4375 -0.55093,-5.66858 10.18754,-7.53125 10.18754,-7.53125 l -1.8125,-6.46875 c 0,0 -7.95314,4.00115 -11.28125,-2.0625 -2.55288,-6.4572 5.625,-10.03125 5.625,-10.03125 l -3.8125,-5.53125 c 0,0 -8.2908,7.09299 -12.28125,3.03125 -3.49294,-3.55086 1.28125,-11.59375 1.28125,-11.59375 l -4,-3.3125 c 0,0 -6.02247,7.30834 -11.25,5.25 -4.36171,-1.7123 -0.8125,-11.5 -0.8125,-11.5 l -6.28125,-1.65625 z m -16.96875,17.78125 20.375,15.59375 -9.1875,12 -3.9375,-3.03125 -2.96875,4 6.125,4.6875 4.6875,3.59375 3.09375,-3.90625 -3.96875,-3.03125 9.1875,-12 20.375,15.59375 -9.28125,12.1875 -3.0625,-2.1875 -13.65625,17.84375 2,1.5 -9.8125,12.8125 -19.71875,-15.09375 10.03125,-13.4375 4.4375,3.40625 2.1875,-2.5 -4.65625,-3.53125 -0.96875,-0.71875 -1.03125,-0.78125 0,-0.0312 -4.59375,-3.5625 -1.875,2.75 4.4375,3.40625 -10.34375,13.1875 -19.71875,-15.0938 9.8125,-12.8125 1.96875,1.53125 13.65625,-17.84375 -2.90625,-2.375 9.3125,-12.15625 z"
       id="path54" />
    <path
       style="fill:none;stroke:#000000;stroke-width:1.4850949"
       d="m 229.6231,936.75391 0,0"
       id="path132"
       inkscape:connector-curvature="0" />
    <path
       style="fill:#000000;fill-opacity:1;stroke:#000000;stroke-width:1.4850949"
       d="m 77.227125,1000.8819 c -4.021639,5.866 -3.527102,13.9376 1.590536,19.272 5.860186,6.1082 15.566764,6.3101 21.674959,0.4485 6.10968,-5.8617 6.31017,-15.5682 0.44998,-21.67802 -5.114663,-5.33441 -13.160906,-6.15859 -19.187423,-2.38643 l -51.635263,-53.82285 0,-192.37178 50.375905,-47.18146 c 5.81563,4.08995 13.893062,3.69196 19.288412,-1.35887 6.177989,-5.78594 6.495809,-15.48954 0.709869,-21.66751 -5.785927,-6.17951 -15.489538,-6.4973 -21.667529,-0.71139 -5.395349,5.05231 -6.319082,13.08816 -2.618224,19.15921 l -52.362961,49.04082 0,197.61266 53.381739,55.64512"
       id="path144"
       inkscape:connector-curvature="0"
       sodipodi:nodetypes="ccccccccccccccc" />
    <path
       style="fill:none;stroke:#000000;stroke-width:1.4850949"
       d="m 100.9426,998.92438 0,0"
       id="path158"
       inkscape:connector-curvature="0" />
    <path
       inkscape:connector-curvature="0"
       style="fill:#000000;fill-opacity:1;stroke:#000000;stroke-width:1.4850949"
       d="m 214.50857,636.78464 c -8.46503,0 -15.34375,6.8787 -15.34375,15.34375 0,7.38984 5.22537,13.55205 12.1875,15 l 0,67.5 -83,91.1875 c -6.12303,-3.61473 -14.14993,-2.58864 -19.12499,2.875 -5.69682,6.26117 -5.22843,15.95496 1.03125,21.65625 6.25967,5.69532 15.95794,5.2314 21.65624,-1.03125 4.97358,-5.46515 5.26686,-13.52501 1.09375,-19.28125 l 84.625,-93 0,-69.90625 c 6.96212,-1.44944 12.1875,-7.61016 12.1875,-15 0,-8.46505 -6.84746,-15.34375 -15.3125,-15.34375 z"
       id="path160" />
    <path
       style="fill:none;stroke:#000000;stroke-width:1.4850949"
       d="m 229.82805,652.11469 0,0"
       id="path174"
       inkscape:connector-curvature="0" />
    <path
       style="fill:#000000;fill-opacity:1;stroke:#000000;stroke-width:1.4850949"
       d="m 860.38154,988.12937 c 1.44946,6.96055 7.61705,12.19403 15.00837,12.19403 8.46356,0 15.32916,-6.86411 15.32916,-15.32912 10e-4,-8.46949 -6.86411,-15.33505 -15.32916,-15.33505 -7.39279,0 -13.5604,5.23331 -15.00837,12.1956 l -581.31665,0 -17.09048,-12.12583 c 3.09643,-9.03084 4.76716,-18.90227 4.76716,-29.40936 0,-40.60397 -29.21033,-74.49384 -67.71736,-81.8109 l 0,12.8134 c 31.53748,7.11509 55.17128,35.3393 55.17128,68.9975 0,36.23624 -22.02248,62.95916 -55.17128,69.29596 l 0,12.7035 c 27.99552,-4.6781 49.93335,-21.9407 60.60524,-46.56357 l 17.43353,12.37384 583.31856,0"
       id="path196"
       inkscape:connector-curvature="0"
       sodipodi:nodetypes="cccccccccccccccc" />
    <path
       style="fill:none;stroke:#000000;stroke-width:1.4850949"
       d="m 875.38991,969.65923 0,0"
       id="path204"
       inkscape:connector-curvature="0" />
    <path
       style="fill:#000000;fill-opacity:1;stroke:#000000;stroke-width:1.4850949"
       d="m 116.72025,890.55263 c -10.39269,13.8901 -16.55584,31.12016 -16.55584,49.76851 0,39.6936 27.91088,72.96266 65.13033,81.27626 l 0,-12.901 c -30.23654,-8.0374 -52.58573,-35.63933 -52.58573,-68.37526 0,-32.73299 22.34919,-60.33646 52.58573,-68.37379 l 0,-12.90102 c -17.6162,3.93551 -33.14287,13.46833 -44.61671,26.62478 l -39.484219,-35.92742 0,-86.67013 c 6.960642,-1.44796 12.192632,-7.61556 12.192632,-15.00541 0,-8.46503 -6.865597,-15.33062 -15.330635,-15.33062 -8.465043,0 -15.330635,6.86559 -15.330635,15.33062 0,7.38985 5.231991,13.55745 12.192628,15.00541 l 0,89.44281 41.802449,38.03626"
       id="path216"
       inkscape:connector-curvature="0"
       sodipodi:nodetypes="cccccccccccccccc" />
    <path
       style="fill:none;stroke:#000000;stroke-width:1.4850949"
       d="m 120.67803,885.67111 0,0"
       id="path232"
       inkscape:connector-curvature="0" />
    <g
       id="g3448"
       transform="matrix(0.34512349,0,0,0.33582312,299.03841,743.42482)">
      <path
         inkscape:connector-curvature="0"
         id="path234"
         d="m 632.51304,850.07714 19.11317,0 0,-93.99463 -18.79983,0 0,65.4823 -56.02074,-65.4823 -19.17704,0 0,93.99463 18.79983,0 0,-65.48376 56.08461,65.48376 0,0"
         style="fill:#000000;fill-opacity:1;stroke:#000000;stroke-width:4.3622613" />
      <path
         inkscape:connector-curvature="0"
         id="path236"
         d="m 541.03713,756.08251 -18.79983,0 0,93.99463 18.79983,0 0,-93.99463 0,0"
         style="fill:#000000;fill-opacity:1;stroke:#000000;stroke-width:4.3622613" />
      <path
         inkscape:connector-curvature="0"
         id="path238"
         d="m 509.88726,850.07714 -40.79556,-93.99463 -20.42599,0 -40.79558,93.99463 20.49136,0 30.5187,-70.37122 30.5781,70.37122 20.42897,0 0,0"
         style="fill:#000000;fill-opacity:1;stroke:#000000;stroke-width:4.3622613" />
      <path
         inkscape:connector-curvature="0"
         id="path240"
         d="m 328.42053,850.07714 21.17894,0 0,-0.0624 27.00795,-53.20202 0,53.2644 18.80129,0 0,-93.99463 -19.23792,0 -37.15856,73.12757 -37.16153,-73.12757 -19.23793,0 0,93.99463 18.80132,0 0,-53.20205 27.00644,53.20205 0,0"
         style="fill:#000000;fill-opacity:1;stroke:#000000;stroke-width:4.3622613" />
      <g
         transform="translate(384.37313,-117.0515)"
         id="g3443">
        <path
           style="fill:#000000;fill-opacity:1;stroke:#000000;stroke-width:4.3622613"
           d="m 746.08121,891.92932 93.99908,0 0,-18.79984 -93.99908,0 0,18.79984 0,0"
           id="path462"
           inkscape:connector-curvature="0" />
        <path
           style="fill:#000000;fill-opacity:1;stroke:#000000;stroke-width:4.3622613"
           d="m 746.08121,929.52747 93.99908,0 0,-18.79984 -93.99908,0 0,18.79984 0,0"
           id="path464"
           inkscape:connector-curvature="0" />
        <path
           style="fill:#000000;fill-opacity:1;stroke:#000000;stroke-width:4.3622613"
           d="m 840.08029,948.32573 -93.99908,0 0,18.80291 93.99908,0 0,-18.80291 0,0"
           id="path466"
           inkscape:connector-curvature="0" />
      </g>
      <path
         inkscape:connector-curvature="0"
         id="path468"
         d="m 1047.044,850.07704 21.1804,0 0,-0.0668 27.0079,-53.20202 0,53.26892 18.7984,0 0,-94.00061 -19.2379,0 -37.1586,73.13053 -37.16,-73.13053 -19.238,0 0,94.00061 18.7969,0 0,-53.20504 27.0109,53.20504 0,0"
         style="fill:#000000;fill-opacity:1;stroke:#000000;stroke-width:4.3622613" />
      <path
         inkscape:connector-curvature="0"
         id="path470"
         d="m 988.87281,850.07714 -40.79555,-94.00064 -20.42749,0 -40.79555,94.00064 20.49134,0 30.5187,-70.37724 30.58108,70.37724 20.42747,0 0,0"
         style="fill:#000000;fill-opacity:1;stroke:#000000;stroke-width:4.3622613" />
      <path
         id="path484"
         d="m 776.60045,756.07714 0,18.8125 59.53125,0 c 10.44467,0 15.6875,3.11084 15.6875,9.375 0,6.27007 -5.2443,9.40625 -15.6875,9.40625 l -59.53125,0 0,18.8125 27.96875,0 44.09375,37.59375 28.90625,0 -44.125,-37.59375 5.84375,0 c 20.88489,0 31.3125,-9.41598 31.3125,-28.21875 0,-18.79687 -10.42612,-28.1875 -31.3125,-28.1875 l -62.6875,0 z"
         style="fill:#000000;fill-opacity:1;stroke:#000000;stroke-width:4.3622613"
         inkscape:connector-curvature="0" />
      <path
         inkscape:connector-curvature="0"
         id="path486"
         d="m 685.78573,774.87632 75.19482,0 0,-18.79984 -93.99465,0 0,94.00066 18.80132,0 0,-37.6012 75.1948,0 0,-18.80131 -75.1948,0 0,-18.79831 -0.001,0"
         style="fill:#000000;fill-opacity:1;stroke:#000000;stroke-width:4.3622613" />
    </g>
    <g
       id="g3070"
       transform="matrix(0.86523139,0,0,0.86523139,29.593393,99.916508)">
      <path
         id="path250"
         d="m 290.74072,775.48978 c -19.88277,0 -29.82248,10.29342 -29.82248,30.868 l 0,30.86835 c 0,20.57461 9.94481,30.868 29.82248,30.868 l 59.64495,0 0,-18.52072 -57.15071,0 c -9.61669,0 -14.42323,-4.90586 -14.42323,-14.81672 l 0,-25.92945 c 0,-9.87387 4.84256,-14.81672 14.42323,-14.81672 l 57.15071,0 0,-18.52074 -59.64495,0 z"
         style="fill:#fce94f;fill-opacity:1;stroke:#000000;stroke-width:1.71641362"
         inkscape:connector-curvature="0" />
      <path
         id="path366"
         d="m 368.0748,775.48978 0,92.60435 89.46742,0 0,-18.52072 -71.57395,0 0,-74.08363 -17.89347,0 z"
         style="fill:#fce94f;fill-opacity:1;stroke:#000000;stroke-width:1.71641362"
         inkscape:connector-curvature="0" />
      <path
         id="path342-2"
         d="m 505.01843,775.49087 c -19.85334,0 -29.78596,10.2808 -29.78596,30.83021 l 0,30.83056 c 0,20.5494 9.93262,30.8302 29.78596,30.8302 l 0,0.11121 29.78595,-0.11121 c 19.85326,-0.0359 29.78596,-10.31811 29.78596,-30.8302 l 0,-30.83056 c 0,-20.54941 -9.9327,-30.83021 -29.78596,-30.83021 l -29.78595,0 z m 0,18.49805 26.86152,0 c 9.9292,0 14.83882,5.19404 14.83882,15.47125 l 0,24.6643 c 0,10.27722 -4.90962,15.35932 -14.83882,15.35932 l -23.82877,0 c -9.92923,0 -14.94714,-5.0821 -14.94714,-15.35932 l 0,-24.6643 c 0,-10.27721 3.97201,-15.47125 11.91439,-15.47125 z"
         style="fill:#fce94f;fill-opacity:1;stroke:#000000;stroke-width:1.7164135"
         inkscape:connector-curvature="0" />
      <path
         sodipodi:nodetypes="cccccccccccccccccc"
         inkscape:connector-curvature="0"
         id="path280-9"
         d="m 671.86511,840.31852 c 0,18.52424 -9.94306,27.77575 -29.82409,27.77575 l -59.64309,0 0,-18.52386 56.66379,0 c 9.94307,0 14.91202,-3.07846 14.91202,-9.25189 0,-6.17307 -4.96895,-9.26697 -14.91202,-9.26697 l -26.84486,0 0,0 c -19.881,0 -29.82407,-9.25151 -29.82407,-27.77575 0,-18.51814 9.93796,-27.78617 29.82407,-27.78617 l 59.64825,0 0,18.51885 -56.66374,0 c -9.94309,0 -14.91208,3.09461 -14.91208,9.26732 0,6.17307 4.96899,9.25151 14.91208,9.25151 l 26.83965,0 c 19.88103,0 29.82409,9.26734 29.82409,27.79121"
         style="fill:#fce94f;fill-opacity:1;stroke:#000000;stroke-width:1.7164135" />
      <path
         style="fill:#fce94f;fill-opacity:1;stroke:#000000;stroke-width:1.71641374"
         d="m 713.55528,775.5182 -21.97908,0 0,92.5481 21.97908,0 0,-92.5481 0,0"
         id="path236-6"
         inkscape:connector-curvature="0" />
      <path
         style="fill:#fce94f;fill-opacity:1;stroke:#000000;stroke-width:1.71641362"
         d="m 884.87412,868.0663 c -20.79067,0 -31.19141,-10.40095 -31.19141,-31.19705 l 0,-31.19668 c 0,-20.7961 10.40074,-31.19197 31.19141,-31.19197 l 62.3937,0 0,18.71504 -59.84879,0 c -10.01246,0 -15.02685,4.99316 -15.02685,14.97333 l 0,26.15559 c 0,10.01756 5.03055,15.02707 15.09162,15.02707 l 41.06376,0 0,-31.19705 18.72559,0 0,0 0,49.91172 -62.39903,0"
         id="path444"
         inkscape:connector-curvature="0"
         sodipodi:nodetypes="cccccccccccccccc" />
      <path
         style="fill:#fce94f;fill-opacity:1;stroke:#000000;stroke-width:1.71641374"
         d="m 813.03873,868.0663 19.32327,0 0,-92.54811 -19.00646,0 0,64.47457 -56.63652,-64.47457 -19.38781,0 0,92.54811 19.00646,0 0,-64.476 56.70106,64.476 0,0"
         id="path234-2"
         inkscape:connector-curvature="0" />
    </g>
  </g>
</svg>
