<?xml version="1.0" encoding="UTF-8" standalone="no"?>
<svg
   xmlns:dc="http://purl.org/dc/elements/1.1/"
   xmlns:cc="http://creativecommons.org/ns#"
   xmlns:rdf="http://www.w3.org/1999/02/22-rdf-syntax-ns#"
   xmlns:svg="http://www.w3.org/2000/svg"
   xmlns="http://www.w3.org/2000/svg"
   xmlns:sodipodi="http://sodipodi.sourceforge.net/DTD/sodipodi-0.dtd"
   xmlns:inkscape="http://www.inkscape.org/namespaces/inkscape"
   width="205"
   height="180"
   viewBox="0 0 205 180"
   id="svg2"
   version="1.1"
   inkscape:version="0.91 r13725"
   sodipodi:docname="project.dark.svg">
  <metadata
     id="metadata14">
    <rdf:RDF>
      <cc:Work
         rdf:about="">
        <dc:format>image/svg+xml</dc:format>
        <dc:type
           rdf:resource="http://purl.org/dc/dcmitype/StillImage" />
        <dc:title></dc:title>
      </cc:Work>
    </rdf:RDF>
  </metadata>
  <defs
     id="defs12" />
  <sodipodi:namedview
     pagecolor="#ffffff"
     bordercolor="#666666"
     borderopacity="1"
     objecttolerance="10"
     gridtolerance="10"
     guidetolerance="10"
     inkscape:pageopacity="0"
     inkscape:pageshadow="2"
     inkscape:window-width="1327"
     inkscape:window-height="741"
     id="namedview10"
     showgrid="false"
     inkscape:zoom="1.3111111"
     inkscape:cx="102.5"
     inkscape:cy="82.754237"
     inkscape:window-x="159"
     inkscape:window-y="68"
     inkscape:window-maximized="0"
     inkscape:current-layer="svg2" />
  <path
     d="M176.772 20v-.18c-2.727-3.638-6-6.728-9.818-9.638v.182a180.097 180.097 0 0 0-9.09 7.455c-1.274-.728-2.364-1.274-3.455-1.82-1.456-.727-2.91-1.454-4.547-1.818-.545-.18-1.09-.363-1.636-.363-.364-4-.727-8-1.273-12-1.818-.365-3.636-.365-5.636-.547h-2.909c-1.82.182-3.456.182-5.092.546a124.01 124.01 0 0 0-1.09 11.817c-.728 0-1.274.182-2 .364-.183 0-.365 0-.546.182-1.455.364-2.91 1.09-4.364 1.82-1.273.544-2.364 1.09-3.455 1.817-3.09-2.547-6-4.91-9.09-7.456l-.182-.182c-.726.546-1.454 1.09-2 1.637-1.272.908-2.363 2-3.272 3.09-1.636 1.454-2.91 3.272-4.363 5.09h.18c2.365 3.09 4.91 6 7.456 9.09a33.774 33.774 0 0 0-2 3.456c-.726 1.454-1.272 3.09-1.635 4.545-.364.73-.546 1.456-.546 2-4 .365-8 .73-11.82 1.274A28.23 28.23 0 0 0 94.047 46c0 2.728.18 5.455.727 8 3.818.364 7.636.728 11.636 1.09 0 .728.18 1.456.545 2 .363 1.638.91 3.092 1.636 4.728.728 1.273 1.274 2.546 2.183 3.637-2.546 3.09-5.09 6-7.455 9.09 2.727 3.82 6 7.09 9.818 9.82v-.183c2.91-2.364 6-4.91 8.91-7.455h.18c.91.546 2 1.09 2.91 1.637 1.637.727 3.455 1.454 5.09 1.818.728.182 1.274.364 1.82.545.363 3.82.726 7.818 1.272 11.818 1.636.182 3.273.364 5.09.364h2.728c2 0 4-.183 6-.546.364-3.82.727-7.818 1.09-11.818l1.637-.546c1.637-.364 3.09-.91 4.546-1.636 1.27-.546 2.544-1.273 3.817-2.182 0 .182 0 .182.182.182 2.908 2.545 6 5.09 9.09 7.454.545-.363 1.09-.727 1.818-1.272 1.09-.91 2.18-2 3.09-3.09 1.637-1.638 3.273-3.456 4.728-5.456-2.546-3.09-5.09-6.182-7.637-9.09v-.183c.545-.91 1.09-2 1.636-3.09.545-1.455 1.273-2.91 1.636-4.364 0-.182 0-.364.182-.364 0-.728.182-1.273.364-1.637 4-.364 8-.727 11.818-1.09.363-1.82.363-3.637.545-5.455V47.09v-1.453c-.18-1.818-.18-3.637-.544-5.455-3.818-.363-7.818-.727-11.818-1.09-.182-.546-.364-1.092-.364-1.637-.545-1.636-1.09-3.273-1.818-4.91-.546-1.09-1.273-2.363-1.818-3.454 2.363-2.908 4.91-6 7.454-9.09zm-48.545 15.09c3.273-3.453 7.273-5.09 11.818-4.908 4.727-.18 8.546 1.455 12 4.91 3.273 3.272 4.91 7.272 4.91 11.817 0 4.727-1.637 8.545-4.91 12-3.454 3.272-7.273 4.908-12 4.908-4.545 0-8.545-1.636-11.818-4.91-3.273-3.453-4.91-7.27-4.91-12 0-4.544 1.637-8.544 4.91-11.817z"
     id="path4"
     style="fill:#ffffff" />
  <path
     d="M140.227 32.546c-4 0-7.273 1.454-10.182 4.182-2.727 2.91-4.182 6.18-4.182 10.18s1.455 7.274 4.182 10.183c2.91 2.91 6.182 4.365 10.182 4.365S147.5 60 150.41 57.09c2.908-2.908 4.18-6.18 4.18-10.18s-1.272-7.273-4.18-10.182c-2.91-2.728-6.183-4.182-10.183-4.182zm-7.636 6.727c2.182-2 4.728-3.09 7.637-3.09 2.91 0 5.454 1.09 7.636 3.09 2.182 2.182 3.09 4.546 3.09 7.636s-.908 5.636-3.09 7.636c-2.182 2.182-4.727 3.272-7.636 3.272-2.91 0-5.455-1.09-7.636-3.272-2-2-3.09-4.546-3.09-7.637 0-2.91 1.09-5.455 3.09-7.637zM93.5 62.364c-.727-.364-1.273-.546-1.818-.546-2.182-.545-4.364-.91-6.545-1.272-2 4.91-3.637 9.636-5.273 14.363H76.59c-2.18.18-4.18.363-6.18.726-1.637.182-3.273.728-4.91 1.273-2.91-4.183-6-8.364-8.91-12.364l-.18-.182c-1.09.363-2.182.727-3.09 1.273-1.82.727-3.456 1.636-5.092 2.727-2.546 1.273-4.91 2.91-7.09 4.91v.18c2.18 4.546 4.18 9.092 6.362 13.637-1.272 1.274-2.363 2.365-3.454 3.82-1.455 1.454-2.727 3.272-3.818 5.09-.546.727-.91 1.454-1.273 2.364-5.09-.91-10.182-1.82-15.273-2.546-.91 2.182-1.818 4.364-2.545 6.727-.727 3.637-1.454 7.09-1.818 10.546 4.726 1.82 9.453 3.637 14.18 5.455v2.546c0 2 .182 4.182.728 6.364.182 1.818.727 3.637 1.273 5.455-4.18 2.908-8.18 5.817-12.363 8.908 2.182 5.454 5.273 10.545 8.91 15.272h.18c4.546-2.18 9.092-4.18 13.82-6.363 1.09 1.09 2.18 2 3.272 3.09 1.635 1.455 3.635 2.728 5.817 4 .545.364 1.272.728 2 1.273-.91 4.91-1.637 10-2.364 15.09 2 .91 4 1.637 6.182 2.183.545.182 1.636.545 3.454.91 2.545.726 5.09 1.09 7.454 1.454 2-4.91 3.818-9.637 5.454-14.546h2.364c2.182 0 4.182-.18 6.182-.544 1.818-.364 3.636-.91 5.454-1.455 0 0 0 .183.182.183 2.91 4.182 6 8.364 8.91 12.545.908-.545 1.817-.91 2.545-1.272 1.818-.728 3.454-1.637 5.09-2.546a57.962 57.962 0 0 0 7.637-5.454c-2-4.728-4.182-9.273-6.364-14 1.09-1.09 2-2.182 3.09-3.273 1.274-1.636 2.546-3.454 3.637-5.09 0-.183.182-.364.182-.546.364-.546.727-1.273 1.09-1.818 5.092.908 10.183 1.635 15.274 2.544.91-2.182 1.637-4.364 2.364-6.727.182-.546.364-1.09.546-1.818.182-.547.182-1.092.545-1.82.364-2.363.91-4.727 1.09-6.908-4.726-2-9.635-3.637-14.362-5.455v-2.182c0-2.182-.182-4.545-.728-6.727-.182-1.636-.727-3.273-1.09-4.91 4.18-2.908 8.363-6 12.363-9.09h.182c-2.182-5.454-5.09-10.545-9.09-15.272-4.728 2-9.274 4.18-13.82 6.363-1.272-1.274-2.545-2.546-3.817-3.637-1.637-1.273-3.273-2.546-5.09-3.455-.547-.545-1.274-.91-1.82-1.272.728-5.09 1.637-10.182 2.364-15.273-2.182-.91-4.545-1.818-6.91-2.545-.544-.182-1.27-.364-1.817-.364zm-33.818 68c-3.09-5.273-3.818-10.728-2.182-16.546 1.455-5.818 4.91-10.182 10.182-13.273 5.09-2.91 10.727-3.636 16.364-2.18 5.818 1.635 10.363 4.908 13.272 10.18 3.09 5.273 3.818 10.727 2.182 16.546-1.455 5.82-4.91 10.182-10 13.09-5.454 3.092-10.91 3.82-16.545 2.183-5.818-1.454-10.364-4.91-13.273-10z"
     id="path6"
     style="fill:#ffffff" />
  <path
     d="M60.773 114.727c-1.454 4.91-.91 9.636 1.636 14h.18c2.547 4.545 6.365 7.273 11.274 8.727 4.91 1.273 9.636.727 14.182-1.818 4.545-2.727 7.272-6.364 8.727-11.273v-.18c1.272-4.91.545-9.638-2-14-2.546-4.547-6.364-7.456-11.273-8.73-4.91-1.453-9.818-.726-14.182 1.82-4.545 2.545-7.272 6.363-8.545 11.454zm10.91-7.273c3.454-2 6.908-2.545 10.544-1.454 3.637.91 6.546 3.09 8.546 6.545 2 3.273 2.363 6.91 1.454 10.546-1.09 3.637-3.272 6.546-6.545 8.364v.182c-3.455 1.818-6.91 2.364-10.545 1.273-3.82-.91-6.546-3.092-8.546-6.547-1.817-3.272-2.362-6.727-1.453-10.545 1.09-3.636 3.272-6.364 6.545-8.364z"
     id="path8"
     style="fill:#ffffff" />
</svg>
