<svg xmlns="http://www.w3.org/2000/svg" viewBox="0 0 231.84672 195.43407" height="208.463" width="247.303"><path d="M33.894 105.298s9.155 2.774 14.368 4.52l16.994 5.693c7.574 3.84 13.884 10.455 22.215 11.01 15.543 3.266 20.303 2.355 30.148 4.963 10.093 2.674 10.065 8.474 29.373 10.883 6.858.855 11.816 5.41 23.418 6.06 15.006.838 28.044 11.224 28.044 11.224l-165.057-2.473z" fill="#241c1c" fill-rule="evenodd"/><path d="M67.462 103.823c-.248 2.794.453 6.25 1.498 9.333 1.045 3.084 2.434 5.796 3.56 7.103 2.414 2.8 6.744 4.765 12.84 6.062 4.732 1.006 15.48-4.595 18-9.38 1.813-3.44 2.486-3.792 5.176-2.7 3.355 1.36 5.952-.495 16.61-11.86 2.905-3.1 5.846-5.806 6.533-6.012 3.065-.918 11.862 2.148 12.89 4.493.923 2.102.352 2.75-4.376 4.972-9.902 4.65-14.053 11.563-12.375 20.604 1.65 8.89 9.057 16.158 17.457 17.128 4.202.485 12.112-2.68 16.278-6.515 4.46-4.105 6.064-10.274 4.42-16.99-1.807-7.377-5.253-11.532-11.81-14.238-4.74-1.958-5.51-2.775-5.695-6.042-.117-2.078-.975-3.997-1.907-4.264-1.4-.402-1.31-.838.52-2.5 1.985-1.807 1.795-2.71-1.838-8.768-2.625-4.377-4.207-12.536-4.207-12.536-2.88-13.977-10.642-12.506-19.085-1.495-7.342 9.577-6.317 8.924-6.646 10.073-.677 2.36 2.223 7.79 5.225 9.785 2.807 1.866 1.49 5.1-4.338 10.655-2.766 2.635-5.656 5.636-6.423 6.668-2.196 2.96-3.162 1.737-4.318-5.466-1.123-6.997-.136-9.304 4.933-11.528 1.272-.558 2.527-1.76 2.788-2.67.843-2.94-2.44-2.536-6.74.83-4.143 3.24-4.272 3.248-11.213.557-5.58-2.164-15.933-1.508-19.12 1.237 0 0-4.738 4.1-6.164 6.225-1.655 2.466-2.474 7.238-2.474 7.238zm65.662 26.742c-3.023-6.836-.773-15.068 5.22-19.098 2.293-1.543 4.647-2.668 5.23-2.5.584.167 1.056 3.667 1.05 7.777-.014 8.333.732 10.807 2.875 9.537.836-.494 1.305-3.943 1.158-8.526-.343-10.73 1.64-11.788 9.08-4.844 9.075 8.47 4.78 23.665-7.442 26.322-1.973.43-5.708-.177-9.153-1.485-4.863-1.847-6.182-3.027-8.02-7.182zM71.352 103.49c.868-1.608 2.945-6.62 5.808-8.898 2.864-2.278 6.957-3.368 6.957-3.368 5.214-.61 9.54.315 11.43 2.447.908 1.022-.517 2.724-5.38 6.425-3.637 2.768-6.46 5.58-6.272 6.247.187.668 4.094 2.29 8.68 3.605 5.023 1.44 8.197 2.894 7.98 3.653-.8 2.79-6.237 7.302-9.833 8.16-4.41 1.05-14.125-2.084-16.29-5.256l-2.813-5.65m19.812-6.11c.163-.49 2.157-2.086 4.432-3.545 4.135-2.655 4.135-2.655 5.59.77 2.396 5.646 1.163 6.955-4.91 5.214-2.975-.853-5.275-1.95-5.112-2.44zm37.94-16.038c-1.625-2.17-1.56-2.43 1.206-4.814 1.608-1.387 3.1-2.47 3.314-2.41.214.062 2.268 2.992 4.564 6.51 4.175 6.4 4.175 6.4-1.594 4.704-3.174-.933-6.543-2.728-7.49-3.99zm16.778-28.1c3.25-1.722 4.684-7.56 2.75-10.69-1.392-2.255-5.482-3.012-7.772-1.678-2.866 1.67-4.447 6.53-2.97 9.5 1.26 2.535 5.49 4.194 7.992 2.87z" fill="#0fa200"/><path d="M134.472 44.998c-1.715-.325-2.69 1.58-2.925 3-.54 1.653-.323 3.376-.358 5.08M128.007 42.26c-.165 1.085-1.582 1.445-1.69 2.63-.725 1.686-1.24 3.517-1.095 5.37.013.532.03 1.065.008 1.597M66.79 85.15c-3.482-.432-5.532 3.256-6.305 6.14-1.36 4.77-3.494 9.432-3.466 14.48-.086.707-.156 1.418-.33 2.11M53.66 81.868c-1.936.51-2.164 2.765-3.147 4.18-.758 2.115-1.95 4.092-2.17 6.37-.443 1.94-.074 3.97-.744 5.865M108.208 51.31c-2.742 3.59-1.79 9.24-6.09 11.807-2.96 2.33-2.89 6.44-5.313 9.085-3.513 3.762-8.435 5.7-12.515 8.738-.53.77-2.75.523-2.346 1.686M96.086 45.25c-5.86 4.523-10.37 10.634-15.96 15.066C74.438 65.64 69.988 72.7 62.668 75.97c-2.213.833-4.667 1.118-6.988.595" fill="none" stroke="#0fa200" stroke-width=".5"/><g style="line-height:125%;-inkscape-font-specification:monospace" font-weight="700" font-size="45" font-family="monospace" letter-spacing="-.88" word-spacing="0" fill="#0fa200"><path style="-inkscape-font-specification:'monospace Bold'" d="M14.81 18.7q.966.196 1.67.922.725.703 1.757 2.768l5.933 11.8h-7.12l-3.954-8.284q-.176-.352-.462-.967-1.736-3.714-4.087-3.714H6.482V34.19H0V1.383h9.36q6.328 0 9.075 2.24 2.77 2.243 2.77 7.296 0 3.384-1.65 5.384-1.647 2-4.745 2.395zM6.482 6.832v8.943h3.054q2.66 0 3.8-1.032 1.166-1.055 1.166-3.45 0-2.395-1.143-3.428T9.535 6.833H6.482zM38.65 22.632q-3.605 0-5.033.923-1.428.923-1.428 3.164 0 1.67.988 2.657.988.99 2.68.99 2.55 0 3.955-1.912 1.407-1.934 1.407-5.384v-.438h-2.57zm8.964-2.483v14.04H41.22v-2.747q-1.165 1.626-2.99 2.505-1.822.88-4.02.88-4.196 0-6.548-2.22-2.33-2.22-2.33-6.197 0-4.306 2.792-6.35 2.79-2.064 8.635-2.064h4.46V16.92q0-1.56-1.143-2.352-1.12-.813-3.318-.813-2.308 0-4.483.593-2.154.57-4.505 1.846V10.7q2.132-.878 4.33-1.296 2.196-.417 4.657-.417 5.998 0 8.415 2.44 2.44 2.438 2.44 8.722zM66.84 13.074V0h6.415v34.19H66.84V30.54q-1.034 2.13-2.682 3.208-1.626 1.077-3.845 1.077-4.22 0-6.548-3.384-2.33-3.384-2.33-9.536 0-6.24 2.352-9.58 2.373-3.34 6.745-3.34 1.978 0 3.538 1.033 1.582 1.01 2.77 3.054zm-8.966 8.877q0 3.56 1.186 5.582 1.187 2.02 3.274 2.02 2.088 0 3.296-2.02 1.21-2.022 1.21-5.58 0-3.56-1.21-5.582-1.208-2.022-3.296-2.022-2.087 0-3.274 2.022-1.186 2.02-1.186 5.58zM97.423 10.35v5.624q-1.78-1.142-3.713-1.714-1.912-.593-3.845-.593-2.153 0-3.252.637-1.1.615-1.1 1.846 0 1.758 4.703 2.856l.242.066 1.846.44q3.515.835 5.14 2.702 1.65 1.846 1.65 5.01 0 3.8-2.505 5.713-2.484 1.89-7.494 1.89-2.22 0-4.55-.396-2.328-.372-4.723-1.14v-5.626q2.132 1.208 4.33 1.845 2.218.636 4.284.636 2.263 0 3.427-.66 1.165-.658 1.165-1.91 0-1.23-.836-1.89-.813-.66-3.91-1.406l-1.78-.396q-3.692-.835-5.384-2.614-1.692-1.78-1.692-4.77 0-3.558 2.57-5.536 2.57-1.977 7.23-1.977 2.087 0 4.153.35 2.088.33 4.043 1.012zM117 2.593V9.58h8.416v4.944H117V26.17q0 1.647.79 2.372.814.704 2.682.704h4.944v4.943h-5.406q-5.537 0-7.492-1.758-1.956-1.78-1.956-6.57V14.524h-6.284V9.58h6.284V2.593H117zM152.243 32.98q-2.24.924-4.57 1.385-2.33.462-4.922.462-6.173 0-9.447-3.296-3.252-3.317-3.252-9.535 0-6.02 3.143-9.515 3.142-3.493 8.57-3.493 5.47 0 8.48 3.252 3.033 3.23 3.033 9.117v2.615H136.6q.02 2.9 1.712 4.33 1.692 1.427 5.054 1.427 2.22 0 4.373-.638 2.152-.637 4.503-2.022v5.91zm-5.45-13.842q-.043-2.55-1.318-3.845-1.252-1.318-3.713-1.318-2.22 0-3.537 1.362-1.32 1.34-1.56 3.823l10.13-.022zM162.723 23.928V4.944h-6.526V0h12.964v23.928q0 2.9.902 4.11.9 1.208 3.054 1.208h5.142v4.943h-6.944q-4.592 0-6.592-2.374-2-2.373-2-7.888zM188.913 23.928V4.944h-6.526V0h12.964v23.928q0 2.9.902 4.11.9 1.208 3.054 1.208h5.142v4.943h-6.943q-4.593 0-6.592-2.374-2-2.373-2-7.888zM230.814 32.98q-2.24.924-4.57 1.385-2.33.462-4.922.462-6.174 0-9.448-3.296-3.252-3.317-3.252-9.535 0-6.02 3.142-9.515 3.142-3.493 8.57-3.493 5.47 0 8.48 3.252 3.033 3.23 3.033 9.117v2.615H215.17q.02 2.9 1.713 4.33 1.692 1.427 5.054 1.427 2.22 0 4.373-.638 2.153-.637 4.504-2.022v5.91zm-5.45-13.842q-.043-2.55-1.318-3.845-1.252-1.318-3.713-1.318-2.22 0-3.538 1.362-1.318 1.34-1.56 3.823l10.13-.022z"/></g><g style="line-height:125%;-inkscape-font-specification:monospace" font-weight="700" font-size="35" font-family="monospace" letter-spacing="-.88" word-spacing="0" fill="#0fa200"><path style="-inkscape-font-specification:'monospace Bold'" d="M49.03 178.31q0-2.563-.975-4.102-.974-1.555-2.564-1.555-1.57 0-2.545 1.538-.957 1.54-.957 4.12 0 2.598.957 4.136.974 1.538 2.546 1.538 1.59 0 2.565-1.538.974-1.555.974-4.136zm5.006 8.442q0 4.598-2.085 6.63-2.067 2.052-6.732 2.052-1.572 0-3.11-.24-1.538-.22-3.128-.7v-4.597q1.42.786 2.888 1.162 1.47.375 3.025.375 2.12 0 3.128-1.008 1.01-.99 1.01-3.11v-2.068q-.736 1.366-1.95 2.032-1.213.667-2.956.667-3.28 0-5.212-2.565-1.93-2.563-1.93-6.955 0-4.546 1.93-7.212 1.93-2.666 5.178-2.666 1.64 0 2.922.77 1.282.768 2.017 2.17v-2.445h5.006v17.705zM74.314 187.248q-1.744.718-3.555 1.077-1.813.36-3.83.36-4.802 0-7.348-2.565-2.53-2.58-2.53-7.417 0-4.683 2.445-7.4 2.444-2.717 6.665-2.717 4.255 0 6.596 2.53 2.36 2.51 2.36 7.092v2.033H62.145q.017 2.257 1.333 3.368 1.315 1.11 3.93 1.11 1.725 0 3.4-.495 1.675-.495 3.504-1.572v4.598zm-4.24-10.767q-.033-1.98-1.024-2.99-.974-1.025-2.888-1.025-1.726 0-2.752 1.06-1.025 1.042-1.213 2.974l7.878-.02zM87.55 161.51h4.033v4.205H87.55v-4.204zm-6.75 0h4.032v4.205H80.8v-4.204zm5.383 11.143q-1.795 0-2.82 1.59-1.026 1.572-1.026 4.392 0 2.82 1.026 4.41 1.025 1.57 2.82 1.57 1.81 0 2.836-1.57 1.025-1.59 1.025-4.41 0-2.82-1.026-4.392-1.026-1.59-2.837-1.59zm-8.853 5.982q0-4.632 2.393-7.332 2.41-2.717 6.46-2.717 4.067 0 6.46 2.717 2.41 2.7 2.41 7.332 0 4.63-2.41 7.348-2.393 2.7-6.46 2.7-4.05 0-6.46-2.7-2.393-2.717-2.393-7.348zM108.46 167.373v1.674h5.878v3.846h-5.88v15.295h-5.006v-15.295h-4.648v-3.846h4.648v-1.333q0-3.452 1.436-4.785 1.435-1.334 5.332-1.334h4.118v3.845h-3.913q-1.128 0-1.538.412-.394.41-.428 1.52zM128.634 167.373v1.674h5.88v3.846h-5.88v15.295h-5.007v-15.295h-4.65v-3.846h4.65v-1.333q0-3.452 1.435-4.785 1.436-1.334 5.332-1.334h4.12v3.845h-3.915q-1.13 0-1.54.412-.392.41-.426 1.52zM154.483 175.764v12.424h-4.974v-11.655q0-2.085-.6-2.974-.58-.907-1.913-.907-1.35 0-2.136 1.214-.768 1.213-.768 3.366v10.955h-4.973v-19.14h4.972v2.87q.53-1.59 1.81-2.46 1.283-.872 3.095-.872 2.717 0 4.1 1.81 1.386 1.796 1.386 5.368zM175.187 187.248q-1.743.718-3.555 1.077-1.81.36-3.828.36-4.802 0-7.348-2.565-2.53-2.58-2.53-7.417 0-4.683 2.444-7.4 2.444-2.717 6.665-2.717 4.256 0 6.597 2.53 2.358 2.51 2.358 7.092v2.033h-12.97q.016 2.257 1.332 3.368 1.316 1.11 3.93 1.11 1.727 0 3.402-.495 1.674-.495 3.503-1.572v4.598zm-4.238-10.767q-.035-1.98-1.027-2.99-.974-1.025-2.888-1.025-1.726 0-2.75 1.06-1.027 1.042-1.215 2.974l7.88-.02zM188.32 163.613v5.434h6.546v3.846h-6.545v9.057q0 1.282.616 1.846.632.547 2.085.547h3.846v3.845h-4.204q-4.307 0-5.828-1.367-1.52-1.383-1.52-5.11v-8.817h-4.888v-3.846h4.887v-5.434h5.008z"/></g></svg>