<?xml version="1.0" encoding="UTF-8" standalone="no"?>
<svg
   xmlns:dc="http://purl.org/dc/elements/1.1/"
   xmlns:cc="http://creativecommons.org/ns#"
   xmlns:rdf="http://www.w3.org/1999/02/22-rdf-syntax-ns#"
   xmlns:svg="http://www.w3.org/2000/svg"
   xmlns="http://www.w3.org/2000/svg"
   xmlns:sodipodi="http://sodipodi.sourceforge.net/DTD/sodipodi-0.dtd"
   xmlns:inkscape="http://www.inkscape.org/namespaces/inkscape"
   viewBox="0 0 231.84672 195.43407"
   height="208.463"
   width="247.303"
   id="svg2"
   version="1.1"
   inkscape:version="0.91 r13725"
   sodipodi:docname="Radstelle_closed.dark.svg">
  <metadata
     id="metadata20">
    <rdf:RDF>
      <cc:Work
         rdf:about="">
        <dc:format>image/svg+xml</dc:format>
        <dc:type
           rdf:resource="http://purl.org/dc/dcmitype/StillImage" />
        <dc:title></dc:title>
      </cc:Work>
    </rdf:RDF>
  </metadata>
  <defs
     id="defs18" />
  <sodipodi:namedview
     pagecolor="#ffffff"
     bordercolor="#666666"
     borderopacity="1"
     objecttolerance="10"
     gridtolerance="10"
     guidetolerance="10"
     inkscape:pageopacity="0"
     inkscape:pageshadow="2"
     inkscape:window-width="968"
     inkscape:window-height="870"
     id="namedview16"
     showgrid="false"
     inkscape:zoom="1.1320954"
     inkscape:cx="125.41813"
     inkscape:cy="95.83998"
     inkscape:window-x="0"
     inkscape:window-y="0"
     inkscape:window-maximized="0"
     inkscape:current-layer="svg2" />
  <path
     d="M33.894 105.298s9.155 2.774 14.368 4.52l16.994 5.693c7.574 3.84 10.096 11.213 22.215 11.01 15.543 3.266 20.303 2.355 30.148 4.963 10.093 2.674 10.065 8.474 29.373 10.883 6.858.855 11.816 5.41 23.418 6.06 15.006.838 28.044 11.224 28.044 11.224l-165.057-2.473z"
     fill="#241c1c"
     fill-rule="evenodd"
     id="path4"
     style="fill:#ffffff" />
  <path
     d="M164.975 132.496c-1.27 2.5-3.696 5.06-6.216 7.12-2.52 2.062-5.136 3.626-6.785 4.138-3.53 1.095-8.243.468-14.102-1.664-4.544-1.653-10.69-12.098-10.293-17.493.286-3.877-.1-4.532-2.958-5.032-3.566-.624-4.786-3.574-7.8-18.86-.823-4.17-1.883-8.02-2.357-8.56-2.113-2.403-11.198-4.465-13.314-3.02-1.894 1.293-1.754 2.145 1.08 6.534 5.93 9.192 5.79 17.253-.426 24.03-6.112 6.667-16.244 8.905-23.88 5.276-3.822-1.816-8.852-8.692-10.353-14.15-1.606-5.846.302-11.928 5.256-16.752 5.442-5.3 10.565-6.996 17.56-5.817 5.058.853 6.144.568 8.03-2.105 1.2-1.7 2.946-2.873 3.878-2.606 1.4.402 1.554-.016.885-2.395-.728-2.583.234-2.684 6.202-6.46l5.225-3.306c5.38-3.406 11.916-4.653 17.197 5.404 3.31 6.306 4.945 7.62 5.066 10.41.136 3.153-6.014 5.427-9.618 5.528-3.37.095-3.966 3.537-1.966 11.335.95 3.702 1.81 7.778 1.913 9.06.295 3.673 1.76 3.148 6.56-2.348 4.66-5.338 5.044-7.818 1.924-12.39-.783-1.148-1.21-2.832-.95-3.742.844-2.94 3.413-.86 5.277 4.275 1.797 4.945 1.903 5.02 9.215 6.415 5.88 1.122 14.31 7.164 15.558 11.18 0 0 1.847 5.988 1.93 8.546.097 2.97-1.738 7.45-1.738 7.45zM95.12 120.38c6.186-4.197 8.64-12.37 5.694-18.963-1.128-2.524-2.528-4.726-3.112-4.893-.583-.167-2.838 2.55-5.01 6.04-4.405 7.074-6.348 8.777-7.493 6.564-.448-.864.982-4.036 3.535-7.846 5.976-8.917 4.855-10.866-5.134-8.92-12.183 2.375-16.592 17.538-7.636 26.267 1.446 1.408 4.934 2.873 8.55 3.59 5.102 1.01 6.846.708 10.605-1.84zm66.733 9.772c.116-1.824 1.01-7.175-.21-10.624-1.222-3.45-4.115-6.543-4.115-6.543-4.1-3.28-8.258-4.788-10.99-3.983-1.312.386-1.005 2.585 1.158 8.3 1.618 4.275 2.522 8.156 2.01 8.622-.514.467-4.687-.228-9.274-1.543-5.022-1.44-8.484-1.89-8.702-1.13-.8 2.792 1.42 9.497 4.015 12.13 3.184 3.23 13.083 5.72 16.6 4.176l5.378-3.3m-13.563-15.683c.12-.5-.725-2.91-1.88-5.354-2.1-4.443-2.1-4.443-5.15-2.308-5.023 3.518-4.672 5.28 1.402 7.023 2.974.853 5.507 1.14 5.628.638zm-23.678-33.705c2.53-.98 2.612-1.233 1.53-4.722-.63-2.028-1.32-3.737-1.534-3.798-.214-.062-3.508 1.334-7.32 3.102-6.932 3.214-6.932 3.214-1.14 4.833 3.185.89 6.994 1.154 8.464.585zm-17.205-21.2c-1.844-3.183.034-8.892 3.333-10.523 2.376-1.174 6.245.35 7.48 2.696 1.546 2.937.31 7.896-2.516 9.632-2.412 1.48-6.878.646-8.297-1.803z"
     fill="red"
     id="path6" />
  <g
     style="line-height:125%;-inkscape-font-specification:monospace"
     font-weight="700"
     font-size="45"
     font-family="monospace"
     letter-spacing="-.88"
     word-spacing="0"
     fill="red"
     id="g8">
    <path
       style="-inkscape-font-specification:'monospace Bold'"
       d="M14.81 18.7q.966.196 1.67.922.725.703 1.757 2.768l5.933 11.8h-7.12l-3.954-8.284q-.176-.352-.462-.967-1.736-3.714-4.087-3.714H6.482V34.19H0V1.383h9.36q6.328 0 9.075 2.24 2.77 2.243 2.77 7.296 0 3.384-1.65 5.384-1.647 2-4.745 2.395zM6.482 6.832v8.943h3.054q2.66 0 3.8-1.032 1.166-1.055 1.166-3.45 0-2.395-1.143-3.428T9.535 6.833H6.482zM38.65 22.632q-3.605 0-5.033.923-1.428.923-1.428 3.164 0 1.67.988 2.657.988.99 2.68.99 2.55 0 3.955-1.912 1.407-1.934 1.407-5.384v-.438h-2.57zm8.964-2.483v14.04H41.22v-2.747q-1.165 1.626-2.99 2.505-1.822.88-4.02.88-4.196 0-6.548-2.22-2.33-2.22-2.33-6.197 0-4.306 2.792-6.35 2.79-2.064 8.635-2.064h4.46V16.92q0-1.56-1.143-2.352-1.12-.813-3.318-.813-2.308 0-4.483.593-2.154.57-4.505 1.846V10.7q2.132-.878 4.33-1.296 2.196-.417 4.657-.417 5.998 0 8.415 2.44 2.44 2.438 2.44 8.722zM66.84 13.074V0h6.415v34.19H66.84V30.54q-1.034 2.13-2.682 3.208-1.626 1.077-3.845 1.077-4.22 0-6.548-3.384-2.33-3.384-2.33-9.536 0-6.24 2.352-9.58 2.373-3.34 6.745-3.34 1.978 0 3.538 1.033 1.582 1.01 2.77 3.054zm-8.966 8.877q0 3.56 1.186 5.582 1.187 2.02 3.274 2.02 2.088 0 3.296-2.02 1.21-2.022 1.21-5.58 0-3.56-1.21-5.582-1.208-2.022-3.296-2.022-2.087 0-3.274 2.022-1.186 2.02-1.186 5.58zM97.423 10.35v5.624q-1.78-1.142-3.713-1.714-1.912-.593-3.845-.593-2.153 0-3.252.637-1.1.615-1.1 1.846 0 1.758 4.703 2.856l.242.066 1.846.44q3.515.835 5.14 2.702 1.65 1.846 1.65 5.01 0 3.8-2.505 5.713-2.484 1.89-7.494 1.89-2.22 0-4.55-.396-2.328-.372-4.723-1.14v-5.626q2.132 1.208 4.33 1.845 2.218.636 4.284.636 2.263 0 3.427-.66 1.165-.658 1.165-1.91 0-1.23-.836-1.89-.813-.66-3.91-1.406l-1.78-.396q-3.692-.835-5.384-2.614-1.692-1.78-1.692-4.77 0-3.558 2.57-5.536 2.57-1.977 7.23-1.977 2.087 0 4.153.35 2.088.33 4.043 1.012zM117 2.593V9.58h8.416v4.944H117V26.17q0 1.647.79 2.372.814.704 2.682.704h4.944v4.943h-5.406q-5.537 0-7.492-1.758-1.956-1.78-1.956-6.57V14.524h-6.284V9.58h6.284V2.593H117zM152.243 32.98q-2.24.924-4.57 1.385-2.33.462-4.922.462-6.173 0-9.447-3.296-3.252-3.317-3.252-9.535 0-6.02 3.143-9.515 3.142-3.493 8.57-3.493 5.47 0 8.48 3.252 3.033 3.23 3.033 9.117v2.615H136.6q.02 2.9 1.712 4.33 1.692 1.427 5.054 1.427 2.22 0 4.373-.638 2.152-.637 4.503-2.022v5.91zm-5.45-13.842q-.043-2.55-1.318-3.845-1.252-1.318-3.713-1.318-2.22 0-3.537 1.362-1.32 1.34-1.56 3.823l10.13-.022zM162.723 23.928V4.944h-6.526V0h12.964v23.928q0 2.9.902 4.11.9 1.208 3.054 1.208h5.142v4.943h-6.944q-4.592 0-6.592-2.374-2-2.373-2-7.888zM188.913 23.928V4.944h-6.526V0h12.964v23.928q0 2.9.902 4.11.9 1.208 3.054 1.208h5.142v4.943h-6.943q-4.593 0-6.592-2.374-2-2.373-2-7.888zM230.814 32.98q-2.24.924-4.57 1.385-2.33.462-4.922.462-6.174 0-9.448-3.296-3.252-3.317-3.252-9.535 0-6.02 3.142-9.515 3.142-3.493 8.57-3.493 5.47 0 8.48 3.252 3.033 3.23 3.033 9.117v2.615H215.17q.02 2.9 1.713 4.33 1.692 1.427 5.054 1.427 2.22 0 4.373-.638 2.153-.637 4.504-2.022v5.91zm-5.45-13.842q-.043-2.55-1.318-3.845-1.252-1.318-3.713-1.318-2.22 0-3.538 1.362-1.318 1.34-1.56 3.823l10.13-.022z"
       id="path10" />
  </g>
  <g
     style="line-height:125%;-inkscape-font-specification:monospace"
     font-weight="700"
     font-size="35"
     font-family="monospace"
     letter-spacing="-.88"
     word-spacing="0"
     fill="red"
     id="g12">
    <path
       style="-inkscape-font-specification:'monospace Bold'"
       d="M18.784 178.31q0-2.563-.974-4.102-.974-1.555-2.564-1.555-1.572 0-2.546 1.538-.957 1.54-.957 4.12 0 2.598.957 4.136.974 1.538 2.546 1.538 1.59 0 2.564-1.538.974-1.555.974-4.136zm5.007 8.442q0 4.598-2.084 6.63-2.067 2.052-6.733 2.052-1.572 0-3.11-.24-1.538-.22-3.128-.7v-4.597q1.42.786 2.888 1.162 1.47.375 3.025.375 2.12 0 3.128-1.008 1.008-.99 1.008-3.11v-2.068q-.735 1.366-1.948 2.032-1.214.667-2.957.667-3.282 0-5.213-2.565-1.93-2.563-1.93-6.955 0-4.546 1.93-7.212 1.93-2.666 5.178-2.666 1.64 0 2.922.77 1.282.768 2.017 2.17v-2.445h5.007v17.705zM44.07 187.248q-1.745.718-3.556 1.077-1.812.36-3.828.36-4.802 0-7.35-2.565-2.528-2.58-2.528-7.417 0-4.683 2.444-7.4 2.444-2.717 6.665-2.717 4.255 0 6.596 2.53 2.36 2.51 2.36 7.092v2.033H31.9q.018 2.257 1.334 3.368 1.316 1.11 3.93 1.11 1.726 0 3.4-.495 1.676-.495 3.505-1.572v4.598zm-4.24-10.767q-.034-1.98-1.025-2.99-.974-1.025-2.888-1.025-1.726 0-2.752 1.06-1.025 1.042-1.213 2.974l7.878-.02zM62.346 169.645v4.375q-1.384-.888-2.888-1.333-1.487-.46-2.99-.46-1.675 0-2.53.495-.854.478-.854 1.435 0 1.367 3.657 2.222l.19.05 1.434.342q2.735.65 4 2.102 1.28 1.436 1.28 3.897 0 2.957-1.947 4.444-1.93 1.47-5.828 1.47-1.727 0-3.538-.308-1.812-.29-3.675-.89v-4.374q1.658.94 3.367 1.436 1.726.495 3.333.495 1.76 0 2.666-.512.905-.512.905-1.486 0-.957-.65-1.47-.63-.512-3.04-1.094l-1.385-.307q-2.87-.65-4.187-2.034-1.316-1.385-1.316-3.71 0-2.768 2-4.306 2-1.538 5.622-1.538 1.623 0 3.23.273 1.623.256 3.144.786zM83.717 187.214q-1.264.735-2.717 1.094-1.453.376-3.127.376-4.427 0-6.922-2.666-2.494-2.666-2.494-7.383 0-4.734 2.512-7.4 2.512-2.683 6.94-2.683 1.537 0 2.955.36 1.436.358 2.854 1.11v4.58q-1.093-.94-2.41-1.436-1.298-.513-2.7-.513-2.443 0-3.76 1.555-1.315 1.556-1.315 4.427 0 2.87 1.316 4.41 1.316 1.537 3.76 1.537 1.452 0 2.717-.478 1.264-.496 2.392-1.487v4.597zM104.063 175.764v12.424H99.09v-11.655q0-2.068-.598-2.957-.58-.89-1.915-.89-1.367 0-2.136 1.215-.768 1.197-.768 3.333v10.955H88.7v-26.592h4.972v10.322q.53-1.59 1.812-2.46 1.28-.872 3.093-.872 2.717 0 4.102 1.81 1.383 1.796 1.383 5.368zM112.548 180.207V165.44h-5.076v-3.844h10.083v18.61q0 2.257.7 3.197.702.94 2.377.94h4v3.845h-5.402q-3.572 0-5.127-1.846-1.555-1.845-1.555-6.135zM136.636 172.653q-1.794 0-2.82 1.59-1.025 1.572-1.025 4.392 0 2.82 1.027 4.41 1.025 1.57 2.82 1.57 1.81 0 2.836-1.57 1.026-1.59 1.026-4.41 0-2.82-1.027-4.392-1.025-1.59-2.837-1.59zm-8.852 5.982q0-4.632 2.392-7.332 2.41-2.717 6.46-2.717 4.068 0 6.46 2.717 2.41 2.7 2.41 7.332 0 4.63-2.41 7.348-2.392 2.7-6.46 2.7-4.05 0-6.46-2.7-2.392-2.717-2.392-7.348zM163.22 169.645v4.375q-1.385-.888-2.888-1.333-1.487-.46-2.99-.46-1.676 0-2.53.495-.855.478-.855 1.435 0 1.367 3.657 2.222l.188.05 1.436.342q2.734.65 4 2.102 1.28 1.436 1.28 3.897 0 2.957-1.948 4.444-1.93 1.47-5.827 1.47-1.726 0-3.538-.308-1.81-.29-3.674-.89v-4.374q1.658.94 3.367 1.436 1.727.495 3.333.495 1.76 0 2.666-.512.906-.512.906-1.486 0-.957-.65-1.47-.632-.512-3.042-1.094l-1.384-.307q-2.87-.65-4.187-2.034-1.317-1.385-1.317-3.71 0-2.768 2-4.306 2-1.538 5.622-1.538 1.624 0 3.23.273 1.624.256 3.145.786zM183.394 169.645v4.375q-1.384-.888-2.888-1.333-1.487-.46-2.99-.46-1.675 0-2.53.495-.854.478-.854 1.435 0 1.367 3.657 2.222l.187.05 1.435.342q2.735.65 4 2.102 1.28 1.436 1.28 3.897 0 2.957-1.947 4.444-1.93 1.47-5.828 1.47-1.726 0-3.537-.308-1.812-.29-3.675-.89v-4.374q1.658.94 3.367 1.436 1.726.495 3.333.495 1.76 0 2.666-.512.906-.512.906-1.486 0-.957-.65-1.47-.63-.512-3.04-1.094l-1.385-.307q-2.87-.65-4.186-2.034-1.316-1.385-1.316-3.71 0-2.768 2-4.306 2-1.538 5.622-1.538 1.623 0 3.23.273 1.623.256 3.144.786zM205.466 187.248q-1.743.718-3.555 1.077-1.81.36-3.827.36-4.802 0-7.348-2.565-2.53-2.58-2.53-7.417 0-4.683 2.444-7.4 2.443-2.717 6.664-2.717 4.256 0 6.597 2.53 2.36 2.51 2.36 7.092v2.033h-12.972q.017 2.257 1.333 3.368 1.317 1.11 3.932 1.11 1.726 0 3.4-.495 1.675-.495 3.504-1.572v4.598zm-4.238-10.767q-.034-1.98-1.026-2.99-.974-1.025-2.888-1.025-1.726 0-2.75 1.06-1.027 1.042-1.215 2.974l7.878-.02zM225.11 175.764v12.424h-4.972v-11.655q0-2.085-.598-2.974-.58-.907-1.914-.907-1.35 0-2.137 1.214-.77 1.213-.77 3.366v10.955h-4.973v-19.14h4.973v2.87q.53-1.59 1.812-2.46 1.282-.872 3.093-.872 2.717 0 4.102 1.81 1.384 1.796 1.384 5.368z"
       id="path14" />
  </g>
</svg>
