<svg xmlns="http://www.w3.org/2000/svg" width="205" height="180" viewBox="0 0 205 180"><path d="M154.43 111.497V23.084H50.4L39.664 29.43v127.486h109.878v-11.373h15.794c0 .002-10.907-8.755-10.907-34.046zM147.202 92.4h-18.81V72.27h18.81V92.4zm-46.036-43.355v20.13H80.134v-20.13h21.033zm3.097 0h21.034v20.13h-21.034v-20.13zm-46.637 0h19.41v20.13h-19.41v-20.13zm0 23.227h19.41v20.13h-19.41V72.27zm0 23.225h19.41V111.5c0 1.444.03 2.817.086 4.127H57.627v-20.13zM80.134 111.5V95.497h21.033V111.5c0 1.444.03 2.817.086 4.127h-21.03a91.258 91.258 0 0 1-.09-4.127zm0-19.1V72.27h21.033V92.4H80.134zm24.13-20.128h21.034v20.13h-21.034V72.27zm42.94-3.098h-18.81v-20.13h18.81v20.13zm-69.894 49.55c.817 10.235 3.342 16.167 5.86 19.595H62.98c-.493-.437-1.315-1.36-2.178-3.15-1.3-2.705-2.823-7.704-3.118-16.446H77.31zm9.99 19.595c-2.43-2.233-5.886-7.49-6.884-19.596h21.025c.818 10.235 3.345 16.167 5.86 19.595h-20zm24.128 0c-2.428-2.233-5.885-7.49-6.88-19.596h21.023c.818 10.235 3.345 16.167 5.86 19.595H111.43zm-7.075-22.693a97.33 97.33 0 0 1-.09-4.127V95.497H125.3V111.5c0 1.444.03 2.817.086 4.127h-21.03zm24.04-4.127V95.497h18.81v19.1c0 .35.003.688.008 1.03h-18.727a91.17 91.17 0 0 1-.09-4.127zm13.924 38.193H46.89V33.555l3.512-2.076v84.15c0 27.875 10.908 29.917 10.908 29.917h81.01l-.003 4.146zm7.225-11.374h-13.985c-2.43-2.233-5.886-7.49-6.882-19.596h18.616c.33 7.616 1.58 14.175 3.745 19.595h-1.493z" fill="#010101"/><path d="M182.713 120.272c-4.014-22.33-25.368-37.173-47.694-33.16-22.327 4.013-37.172 25.364-33.16 47.69 4.015 22.33 25.366 37.173 47.69 33.16 22.33-4.01 37.176-25.363 33.163-47.69zm-56.37 16.804l-5.773 3.773c-10.205-17.426 2.722-29.758 2.722-29.758 6.9-7.676 16.364-7.758 20.478-7.362l1.606-7.565 8.51 13.096-13.096 8.512 1.552-7.31c-7.832-.715-13.44 4.787-13.44 4.787-10.42 11.19-2.56 21.826-2.56 21.826zm34.93 6.915c-6.903 7.675-16.364 7.75-20.478 7.352l-1.61 7.568-8.507-13.1 13.1-8.508-1.554 7.314c7.83.717 13.44-4.782 13.44-4.782 10.428-11.19 2.57-21.827 2.57-21.827l5.776-3.768c10.198 17.424-2.736 29.75-2.736 29.75z"/><path d="M136.667 154.834a5646.434 5646.434 0 0 1-4.032-6.198l-1.836-2.828 3.34-2.154c1.838-1.185 4.63-2.99 6.207-4.01 1.576-1.022 2.933-1.79 3.016-1.708.082.082-.15 1.542-.514 3.244-.366 1.702-.665 3.196-.665 3.32 0 .406 3.435.237 5.4-.265 3.32-.85 7.115-3.064 8.893-5.19 2.523-3.02 3.816-5.728 4.45-9.322.59-3.332-.028-6.863-1.817-10.393-.376-.745-.65-1.384-.604-1.42.306-.25 5.34-3.443 5.43-3.443.255 0 1.968 3.74 2.668 5.83 2.86 8.538.45 17.93-6.28 24.464-4.443 4.315-9.19 6.243-16.02 6.507l-3.605.14-.4 1.762c-.218.97-.533 2.498-.698 3.398-.166.9-.4 1.635-.52 1.635s-1.207-1.516-2.415-3.37zM120.15 139.85c-2.467-4.612-3.247-7.605-3.236-12.415.01-4.427.47-6.425 2.372-10.298 2.378-4.845 6.25-8.77 10.82-10.973 3.393-1.635 5.677-2.16 10.072-2.31l3.713-.128.69-3.335c.38-1.833.733-3.376.784-3.427.05-.05.198-.028.327.052.456.28 8 12.133 7.832 12.302-.265.266-12.467 8.172-12.524 8.115-.028-.027.285-1.587.695-3.465s.747-3.45.747-3.492c0-.042-.83-.075-1.844-.073-3.286.007-6.643 1.122-9.77 3.245-3.952 2.684-6.992 8.04-7.374 12.993-.202 2.622.412 5.654 1.692 8.353l.992 2.092-2.193 1.43c-1.207.786-2.45 1.598-2.766 1.804-.542.354-.598.33-1.026-.47z" fill="#fff" stroke="#000" stroke-width=".9997666"/><path d="M128.72 59.1v-9.888h17.98v19.775h-17.98V59.1zM104.752 59.1v-9.888H125.125v19.775H104.75V59.1zM80.183 59.1v-9.888h20.972v19.775H80.182V59.1zM58.01 59.1v-9.888H76.588v19.775H58.01V59.1zM58.01 82.47v-9.887H76.588v19.775H58.01V82.47zM80.183 82.47v-9.887h20.972v19.775H80.182V82.47zM104.752 82.47v-9.887H125.125v17.354l-2.373 1.21c-2.022 1.032-3.53 1.21-10.187 1.21h-7.814V82.47zM128.72 80.373v-7.79h17.98v13.783l-4.646.01c-2.554.006-6.53.41-8.838.9-2.307.487-4.262.887-4.345.887-.08 0-.15-3.505-.15-7.79zM58.01 105.54v-9.587H76.588V115.13H58.01v-9.59zM80.183 105.54v-9.587h20.972V115.13H80.182v-9.59zM104.752 101.946v-5.993h10.753l-2.63 2.632c-1.448 1.447-3.637 4.144-4.864 5.992-1.227 1.85-2.463 3.36-2.746 3.36-.283 0-.514-2.695-.514-5.99zM61.59 135.953c-1.8-2.93-3.567-10.48-3.576-15.28l-.003-1.948H77.05l.422 3.372c.603 4.826 1.926 9.564 3.605 12.906l1.455 2.897H62.788l-1.198-1.947zM85.232 135.182c-1.954-3.334-3.588-8.448-4.16-13.02l-.428-3.437h20.38l.27 8.54c.148 4.695.477 9.01.73 9.587.424.968-.138 1.048-7.37 1.048h-7.83l-1.592-2.718z" fill="#fff" stroke="#000"/><path d="M47.224 91.493V33.7l1.348-.945 1.35-.944.317 47.802c.313 47.06.338 47.875 1.648 52.544 1.714 6.11 4.203 10.376 7.305 12.513 1.33.916 3.746 1.02 23.69 1.02h22.21l1.06 1.798 1.063 1.798H47.224V91.493z" fill="#fff" stroke="#000"/></svg>