<?xml version="1.0" encoding="UTF-8" standalone="no"?>
<!-- Generator: Adobe Illustrator 15.0.0, SVG Export Plug-In . SVG Version: 6.00 Build 0)  -->

<svg
   xmlns:dc="http://purl.org/dc/elements/1.1/"
   xmlns:cc="http://creativecommons.org/ns#"
   xmlns:rdf="http://www.w3.org/1999/02/22-rdf-syntax-ns#"
   xmlns:svg="http://www.w3.org/2000/svg"
   xmlns="http://www.w3.org/2000/svg"
   xmlns:sodipodi="http://sodipodi.sourceforge.net/DTD/sodipodi-0.dtd"
   xmlns:inkscape="http://www.inkscape.org/namespaces/inkscape"
   version="1.1"
   id="Layer_1"
   x="0px"
   y="0px"
   width="205"
   height="180"
   viewBox="0 0 205 180"
   enable-background="new 0 0 100 100"
   xml:space="preserve"
   inkscape:version="0.91pre0 r13343"
   sodipodi:docname="event.svg"><metadata
     id="metadata9"><rdf:RDF><cc:Work
         rdf:about=""><dc:format>image/svg+xml</dc:format><dc:type
           rdf:resource="http://purl.org/dc/dcmitype/StillImage" /></cc:Work></rdf:RDF></metadata><defs
     id="defs7" /><sodipodi:namedview
     pagecolor="#ffffff"
     bordercolor="#666666"
     borderopacity="1"
     objecttolerance="10"
     gridtolerance="10"
     guidetolerance="10"
     inkscape:pageopacity="0"
     inkscape:pageshadow="2"
     inkscape:window-width="1280"
     inkscape:window-height="755"
     id="namedview5"
     showgrid="false"
     inkscape:zoom="1.668772"
     inkscape:cx="-24.325425"
     inkscape:cy="58.039444"
     inkscape:window-x="0"
     inkscape:window-y="0"
     inkscape:window-maximized="1"
     inkscape:current-layer="Layer_1" /><path
     d="m 154.42899,111.49663 c 0,-18.090493 0,-88.412787 0,-88.412787 H 149.54404 50.401514 L 39.664152,29.431418 V 156.91616 H 149.54213 V 145.5427 h 15.79372 c 0,0.002 -10.90686,-8.75481 -10.90686,-34.04607 z M 147.20346,92.400577 H 128.39308 V 72.270406 h 18.81038 V 92.400577 z M 101.16688,49.045481 V 69.175654 H 80.133989 V 49.045481 h 21.032891 z m 3.09666,0 h 21.03479 V 69.175654 H 104.26354 V 49.045481 z m -46.636494,0 H 77.037332 V 69.175654 H 57.627046 V 49.045481 z m 0,23.226829 H 77.037332 V 92.400577 H 57.627046 V 72.27231 z m 0,23.224927 h 19.410286 v 16.003193 c 0,1.44358 0.03047,2.8167 0.0857,4.12698 H 57.627046 V 95.497237 z M 80.133989,111.50043 V 95.497237 h 21.032891 v 16.003193 c 0,1.44358 0.0305,2.8167 0.0857,4.12698 H 80.223499 c -0.05904,-1.30457 -0.0895,-2.67577 -0.0895,-4.12698 z m 0,-19.099853 V 72.270406 H 101.16688 V 92.400577 H 80.133989 z M 104.26354,72.27231 h 21.03479 V 92.400577 H 104.26354 V 72.27231 z m 42.93992,-3.09856 H 128.39308 V 49.045481 h 18.81038 V 69.17375 z m -69.89379,49.55032 c 0.817015,10.23458 3.342333,16.16698 5.860033,19.59501 H 62.978588 c -0.491353,-0.43612 -1.314081,-1.35788 -2.176801,-3.14998 -1.300749,-2.70434 -2.822414,-7.70355 -3.117606,-16.44503 h 19.62549 z m 9.988908,19.59501 c -2.42819,-2.23202 -5.88479,-7.48835 -6.882729,-19.59501 h 21.025281 c 0.81701,10.23458 3.34424,16.16698 5.86003,19.59501 H 87.298578 z m 24.129552,0 c -2.42819,-2.23202 -5.88479,-7.48835 -6.88082,-19.59501 h 21.02335 c 0.81702,10.23458 3.34424,16.16698 5.86004,19.59501 h -20.00257 z m -7.07509,-22.69167 c -0.0552,-1.30647 -0.0895,-2.67577 -0.0895,-4.12698 V 95.497237 h 21.0348 v 16.003193 c 0,1.44358 0.0305,2.8167 0.0856,4.12698 h -21.031 z m 24.04004,-4.12698 V 95.497237 h 18.81038 v 15.999393 3.10047 c 0,0.3485 0.003,0.68751 0.008,1.03031 h -18.72889 c -0.0591,-1.30457 -0.0895,-2.67577 -0.0895,-4.12698 z m 13.92353,38.19211 H 46.889684 V 33.554579 l 3.51183,-2.075864 c 0,19.473133 0,67.360862 0,84.152495 0,27.87372 10.908764,29.91531 10.908764,29.91531 h 81.010132 l -0.003,4.14602 0,0 z m 7.22552,-11.37346 h -7.22552 -6.76085 c -2.42818,-2.23202 -5.88478,-7.48835 -6.88082,-19.59501 h 18.61613 c 0.32756,7.61595 1.57879,14.17491 3.74417,19.59501 h -1.49311 z"
     id="path3"
     inkscape:connector-curvature="0"
     style="fill:#010101" /><g
     id="g4668"
     transform="matrix(1.2002033,0,0,1.2002033,-218.05607,-38.915361)"><path
       style="fill:#000000"
       inkscape:connector-curvature="0"
       id="path10"
       d="m 333.9175,132.63329 c -3.344,-18.604 -21.136,-30.972 -39.738,-27.629 -18.602,3.344 -30.971,21.134 -27.627,39.736 3.344,18.604 21.134,30.972 39.735,27.628 18.604,-3.342 30.974,-21.132 27.63,-39.735 z m -46.968,14.001 -4.809,3.144 c -8.503,-14.518 2.268,-24.793 2.268,-24.793 5.75,-6.396 13.634,-6.464 17.062,-6.134 l 1.338,-6.303 7.09,10.911 -10.911,7.091 1.293,-6.089 c -6.525,-0.597 -11.198,3.987 -11.198,3.987 -8.681,9.325 -2.133,18.186 -2.133,18.186 z m 29.105,5.762 c -5.752,6.394 -13.635,6.457 -17.063,6.125 l -1.34,6.305 -7.089,-10.914 10.915,-7.089 -1.295,6.094 c 6.523,0.597 11.199,-3.985 11.199,-3.985 8.688,-9.323 2.141,-18.186 2.141,-18.186 l 4.812,-3.139 c 8.497,14.518 -2.28,24.789 -2.28,24.789 z" /><path
       inkscape:connector-curvature="0"
       id="path4664"
       d="m 295.5525,161.43009 c -1.00608,-1.54397 -2.51774,-3.86754 -3.35926,-5.16349 l -1.53001,-2.35628 2.78375,-1.79477 c 1.53107,-0.98712 3.8583,-2.49102 5.17164,-3.342 1.31333,-0.85098 2.44401,-1.4911 2.51262,-1.42249 0.0686,0.0686 -0.12406,1.28498 -0.42814,2.70305 -0.30408,1.41808 -0.55287,2.66293 -0.55287,2.76634 0,0.33812 2.86183,0.19736 4.49864,-0.22127 2.76758,-0.70782 5.92865,-2.55273 7.40969,-4.32453 2.1021,-2.51479 3.18006,-4.77207 3.70868,-7.76618 0.49025,-2.77669 -0.0243,-5.71891 -1.51427,-8.6593 -0.31455,-0.62072 -0.54166,-1.15338 -0.50469,-1.18369 0.25489,-0.20895 4.44879,-2.86887 4.52336,-2.86887 0.21374,0 1.64049,3.11662 2.22386,4.85786 2.38339,7.11396 0.375,14.93833 -5.23199,20.38299 -3.70205,3.59488 -7.65639,5.20066 -13.34888,5.42072 l -3.00255,0.11607 -0.33176,1.46909 c -0.18247,0.80799 -0.44473,2.08218 -0.5828,2.83151 -0.13807,0.74934 -0.33311,1.36244 -0.43341,1.36244 -0.10031,0 -1.00553,-1.26324 -2.01161,-2.8072 z"
       style="opacity:1;fill:#ffffff;fill-opacity:1;stroke:#000000;stroke-width:0.83319205;stroke-linecap:butt;stroke-miterlimit:4;stroke-dasharray:none;stroke-dashoffset:0;stroke-opacity:1" /><path
       inkscape:connector-curvature="0"
       id="path4666"
       d="m 281.79185,148.94562 c -2.05648,-3.84219 -2.70685,-6.33608 -2.69758,-10.34392 0.009,-3.68837 0.39209,-5.35345 1.97653,-8.58051 1.98167,-4.03613 5.20626,-7.30589 9.01587,-9.14219 2.82585,-1.36211 4.72929,-1.79875 8.39077,-1.92483 l 3.09415,-0.10655 0.57492,-2.77862 c 0.31621,-1.52824 0.60976,-2.81346 0.65235,-2.85604 0.0426,-0.0426 0.16514,-0.0232 0.27235,0.0431 0.37915,0.23433 6.66554,10.10945 6.52501,10.24998 -0.22148,0.22148 -10.3881,6.80896 -10.43542,6.76165 -0.0231,-0.0231 0.2378,-1.32228 0.57969,-2.88715 0.34188,-1.56487 0.62161,-2.87413 0.62161,-2.90947 0,-0.0353 -0.69121,-0.0628 -1.53602,-0.0611 -2.73777,0.006 -5.53511,0.9348 -8.14052,2.70409 -3.2923,2.23576 -5.82511,6.69877 -6.1433,10.82497 -0.16852,2.18534 0.34296,4.71096 1.40959,6.96037 l 0.82629,1.74256 -1.82745,1.19119 c -1.00509,0.65515 -2.04221,1.33191 -2.30471,1.50391 -0.45138,0.29576 -0.49771,0.27453 -0.85413,-0.39138 z"
       style="opacity:1;fill:#ffffff;fill-opacity:1;stroke:#000000;stroke-width:0.83319205;stroke-linecap:butt;stroke-miterlimit:4;stroke-dasharray:none;stroke-dashoffset:0;stroke-opacity:1" /></g><path
     style="opacity:1;fill:#ffffff;fill-opacity:1;stroke:#000000;stroke-width:1;stroke-linecap:butt;stroke-miterlimit:4;stroke-dasharray:none;stroke-dashoffset:0;stroke-opacity:1"
     d="m 128.72125,59.099961 0,-9.88751 8.98864,0 8.98865,0 0,9.88751 0,9.88751 -8.98865,0 -8.98864,0 0,-9.88751 z"
     id="path4102"
     inkscape:connector-curvature="0" /><path
     style="opacity:1;fill:#ffffff;fill-opacity:1;stroke:#000000;stroke-width:1;stroke-linecap:butt;stroke-miterlimit:4;stroke-dasharray:none;stroke-dashoffset:0;stroke-opacity:1"
     d="m 104.75153,59.099961 0,-9.88751 10.18713,0 10.18713,0 0,9.88751 0,9.88751 -10.18713,0 -10.18713,0 0,-9.88751 z"
     id="path4104"
     inkscape:connector-curvature="0" /><path
     style="opacity:1;fill:#ffffff;fill-opacity:1;stroke:#000000;stroke-width:1;stroke-linecap:butt;stroke-miterlimit:4;stroke-dasharray:none;stroke-dashoffset:0;stroke-opacity:1"
     d="m 80.182561,59.099961 0,-9.88751 10.486753,0 10.486756,0 0,9.88751 0,9.88751 -10.486756,0 -10.486753,0 0,-9.88751 z"
     id="path4106"
     inkscape:connector-curvature="0" /><path
     style="opacity:1;fill:#ffffff;fill-opacity:1;stroke:#000000;stroke-width:1;stroke-linecap:butt;stroke-miterlimit:4;stroke-dasharray:none;stroke-dashoffset:0;stroke-opacity:1"
     d="m 58.010569,59.099961 0,-9.88751 9.288267,0 9.288267,0 0,9.88751 0,9.88751 -9.288267,0 -9.288267,0 0,-9.88751 z"
     id="path4108"
     inkscape:connector-curvature="0" /><path
     style="opacity:1;fill:#ffffff;fill-opacity:1;stroke:#000000;stroke-width:1;stroke-linecap:butt;stroke-miterlimit:4;stroke-dasharray:none;stroke-dashoffset:0;stroke-opacity:1"
     d="m 58.010569,82.47044 0,-9.88751 9.288267,0 9.288267,0 0,9.88751 0,9.88751 -9.288267,0 -9.288267,0 0,-9.88751 z"
     id="path4110"
     inkscape:connector-curvature="0" /><path
     style="opacity:1;fill:#ffffff;fill-opacity:1;stroke:#000000;stroke-width:1;stroke-linecap:butt;stroke-miterlimit:4;stroke-dasharray:none;stroke-dashoffset:0;stroke-opacity:1"
     d="m 80.182561,82.47044 0,-9.88751 10.486753,0 10.486756,0 0,9.88751 0,9.88751 -10.486756,0 -10.486753,0 0,-9.88751 z"
     id="path4112"
     inkscape:connector-curvature="0" /><path
     style="opacity:1;fill:#ffffff;fill-opacity:1;stroke:#000000;stroke-width:1;stroke-linecap:butt;stroke-miterlimit:4;stroke-dasharray:none;stroke-dashoffset:0;stroke-opacity:1"
     d="m 104.75153,82.47044 0,-9.88751 10.18713,0 10.18713,0 0,8.676845 0,8.676845 -2.3731,1.210665 c -2.02191,1.031503 -3.52947,1.210665 -10.18713,1.210665 l -7.81403,0 0,-9.88751 z"
     id="path4114"
     inkscape:connector-curvature="0" /><path
     style="opacity:1;fill:#ffffff;fill-opacity:1;stroke:#000000;stroke-width:1;stroke-linecap:butt;stroke-miterlimit:4;stroke-dasharray:none;stroke-dashoffset:0;stroke-opacity:1"
     d="m 128.72125,80.373089 0,-7.790159 8.98864,0 8.98865,0 0,6.891295 0,6.891294 -4.64414,0.0104 c -2.55427,0.0058 -6.53164,0.410212 -8.83861,0.898865 -2.30696,0.488655 -4.26199,0.888462 -4.34451,0.888462 -0.0825,0 -0.15003,-3.505572 -0.15003,-7.79016 z"
     id="path4116"
     inkscape:connector-curvature="0" /><path
     style="opacity:1;fill:#ffffff;fill-opacity:1;stroke:#000000;stroke-width:1;stroke-linecap:butt;stroke-miterlimit:4;stroke-dasharray:none;stroke-dashoffset:0;stroke-opacity:1"
     d="m 58.010569,105.5413 0,-9.587892 9.288267,0 9.288267,0 0,9.587892 0,9.58789 -9.288267,0 -9.288267,0 0,-9.58789 z"
     id="path4118"
     inkscape:connector-curvature="0" /><path
     style="opacity:1;fill:#ffffff;fill-opacity:1;stroke:#000000;stroke-width:1;stroke-linecap:butt;stroke-miterlimit:4;stroke-dasharray:none;stroke-dashoffset:0;stroke-opacity:1"
     d="m 80.182561,105.5413 0,-9.587892 10.486753,0 10.486756,0 0,9.587892 0,9.58789 -10.486756,0 -10.486753,0 0,-9.58789 z"
     id="path4120"
     inkscape:connector-curvature="0" /><path
     style="opacity:1;fill:#ffffff;fill-opacity:1;stroke:#000000;stroke-width:1;stroke-linecap:butt;stroke-miterlimit:4;stroke-dasharray:none;stroke-dashoffset:0;stroke-opacity:1"
     d="m 104.75153,101.94584 0,-5.992432 5.37741,0 5.37742,0 -2.63145,2.631451 c -1.4473,1.447301 -3.63565,4.143891 -4.86302,5.992431 -1.22736,1.84854 -2.46304,3.36098 -2.74596,3.36098 -0.28292,0 -0.5144,-2.69659 -0.5144,-5.99243 z"
     id="path4122"
     inkscape:connector-curvature="0" /><path
     style="opacity:1;fill:#ffffff;fill-opacity:1;stroke:#000000;stroke-width:1;stroke-linecap:butt;stroke-miterlimit:4;stroke-dasharray:none;stroke-dashoffset:0;stroke-opacity:1"
     d="m 61.589879,135.95288 c -1.800221,-2.92895 -3.567284,-10.48017 -3.57584,-15.2807 l -0.0035,-1.94754 9.518842,0 9.518841,0 0.421308,3.37204 c 0.602992,4.82618 1.926432,9.56392 3.605286,12.90645 l 1.455229,2.89729 -9.871589,0 -9.871589,0 -1.197018,-1.94754 z"
     id="path4124"
     inkscape:connector-curvature="0" /><path
     style="opacity:1;fill:#ffffff;fill-opacity:1;stroke:#000000;stroke-width:1;stroke-linecap:butt;stroke-miterlimit:4;stroke-dasharray:none;stroke-dashoffset:0;stroke-opacity:1"
     d="m 85.231873,135.18237 c -1.953916,-3.3341 -3.587456,-8.44835 -4.1586,-13.01963 l -0.429563,-3.4381 10.189541,0 10.189539,0 0.27055,8.53922 c 0.1488,4.69656 0.4773,9.01111 0.72999,9.58789 0.4244,0.96867 -0.13783,1.04867 -7.369563,1.04867 l -7.829012,0 -1.592882,-2.71805 z"
     id="path4126"
     inkscape:connector-curvature="0" /><path
     style="opacity:1;fill:#ffffff;fill-opacity:1;stroke:#000000;stroke-width:1;stroke-linecap:butt;stroke-miterlimit:4;stroke-dasharray:none;stroke-dashoffset:0;stroke-opacity:1"
     d="m 47.224194,91.493062 0,-57.792971 1.348297,-0.944718 1.348297,-0.944719 0.318509,47.801507 c 0.313577,47.061329 0.339103,47.874939 1.648511,52.543809 1.71384,6.11094 4.203614,10.37605 7.304771,12.51343 1.330558,0.91706 3.746177,1.02118 23.69071,1.02118 l 22.209081,0 1.06194,1.79773 1.06194,1.79773 -29.996025,0 -29.996031,0 0,-57.792978 z"
     id="path4128"
     inkscape:connector-curvature="0" /></svg>