<?xml version="1.0" encoding="UTF-8" standalone="no"?>
<svg
   xmlns:dc="http://purl.org/dc/elements/1.1/"
   xmlns:cc="http://creativecommons.org/ns#"
   xmlns:rdf="http://www.w3.org/1999/02/22-rdf-syntax-ns#"
   xmlns:svg="http://www.w3.org/2000/svg"
   xmlns="http://www.w3.org/2000/svg"
   xmlns:sodipodi="http://sodipodi.sourceforge.net/DTD/sodipodi-0.dtd"
   xmlns:inkscape="http://www.inkscape.org/namespaces/inkscape"
   version="1.1"
   id="Layer_1"
   x="0px"
   y="0px"
   width="205"
   height="180"
   viewBox="37.374 -119.249 205 180"
   enable-background="new 37.374 -119.249 93.306 100"
   xml:space="preserve"
   inkscape:version="0.48.4 r9939"
   sodipodi:docname="presentation.svg"><metadata
     id="metadata41"><rdf:RDF><cc:Work
         rdf:about=""><dc:format>image/svg+xml</dc:format><dc:type
           rdf:resource="http://purl.org/dc/dcmitype/StillImage" /></cc:Work></rdf:RDF></metadata><defs
     id="defs39" /><sodipodi:namedview
     pagecolor="#ffffff"
     bordercolor="#666666"
     borderopacity="1"
     objecttolerance="10"
     gridtolerance="10"
     guidetolerance="10"
     inkscape:pageopacity="0"
     inkscape:pageshadow="2"
     inkscape:window-width="875"
     inkscape:window-height="544"
     id="namedview37"
     showgrid="false"
     inkscape:zoom="1.18"
     inkscape:cx="32.457627"
     inkscape:cy="45.974576"
     inkscape:window-x="0"
     inkscape:window-y="0"
     inkscape:window-maximized="0"
     inkscape:current-layer="Layer_1" /><g
     id="g3034"
     transform="matrix(1.799982,0,0,1.799982,-11.373856,95.397054)"><path
       d="m 126.76,-71.161 c 0.431,1.857 1.607,3.979 2.669,3.723 1.726,-0.417 1.252,-4.104 0.974,-5.59 -1.23,-6.582 -4.298,-11.348 -9.023,-13.778 -2.01,-1.033 -7.11,-0.841 -9.092,0 -2.734,1.162 -4.825,6.832 -5.674,6.221 -0.663,-0.478 -1.427,-2.774 -2.461,-5.059 -0.623,-1.376 -1.768,-3.19 -3.108,-2.494 -1.339,0.698 -1.213,2.59 -0.515,3.93 0,0 2.299,4.583 3.453,6.458 1.697,2.755 4.194,2.284 4.887,1.062 0.452,-0.797 1.85,-3.643 2.119,-3.076 0.684,1.438 -0.843,24.269 -0.615,31.879 0.045,1.509 0.949,2.779 2.188,2.779 1.511,0 2.261,-1.316 2.324,-2.826 0.552,-13.288 -0.07,-16.453 1.847,-16.453 1.822,0 1.195,3.146 1.39,16.682 0.021,1.502 0.768,2.597 2.267,2.597 0.008,0 0.017,0 0.023,0 1.511,-0.013 2.454,-1.223 2.449,-2.734 -0.023,-6.587 -1.607,-30.853 -0.9,-31.911 1.345,-2.021 4.202,6.018 4.798,8.59 z"
       id="path9"
       inkscape:connector-curvature="0" /><path
       d="m 102.674,-76.092 v 9.394 H 46.755 v -38.233 h 55.918 v 14.795 c 1.289,0.42 2.405,1.637 3.319,3.659 0.258,0.569 0.496,1.132 0.723,1.676 v -22.152 -5.053 c 0,-1.116 -0.904,-2.021 -2.021,-2.021 H 81.406 v -3.201 c 0,-1.116 -0.905,-2.021 -2.021,-2.021 h -9.172 c -1.116,0 -2.021,0.905 -2.021,2.021 v 3.201 H 44.734 c -1.116,0 -2.021,0.905 -2.021,2.021 v 5.053 42.275 c 0,1.116 0.905,2.021 2.021,2.021 h 59.961 c 1.116,0 2.021,-0.905 2.021,-2.021 v -9.043 c -1.531,-0.097 -2.965,-0.936 -4.042,-2.371 z"
       id="path11"
       inkscape:connector-curvature="0" /><path
       d="m 121.168,-94.668 c 0,-1.902 -1.902,-4.279 -5.23,-4.279 -2.89,0 -4.277,2.338 -4.277,5.229 0,2.854 2.853,4.278 4.277,4.278 1.426,0.001 5.23,0.476 5.23,-5.228 z"
       id="path13"
       inkscape:connector-curvature="0" /><path
       d="m 51.596,-35.787 c 0,-2.171 -2.171,-4.885 -5.97,-4.885 -3.299,0 -4.882,2.668 -4.882,5.969 0,3.257 3.254,4.884 4.882,4.884 1.628,0 5.97,0.544 5.97,-5.968 z"
       id="path15"
       inkscape:connector-curvature="0" /><path
       d="m 73.998,-35.787 c 0,-2.171 -2.171,-4.885 -5.971,-4.885 -3.298,0 -4.881,2.668 -4.881,5.969 0,3.257 3.254,4.884 4.881,4.884 1.629,0 5.971,0.544 5.971,-5.968 z"
       id="path17"
       inkscape:connector-curvature="0" /><path
       d="m 94.788,-35.787 c 0,-2.171 -2.171,-4.885 -5.97,-4.885 -3.299,0 -4.882,2.668 -4.882,5.969 0,3.257 3.254,4.884 4.882,4.884 1.628,0 5.97,0.544 5.97,-5.968 z"
       id="path19"
       inkscape:connector-curvature="0" /><path
       d="m 61.666,-42.229 c 0,-2.014 -2.014,-4.533 -5.538,-4.533 -3.061,0 -4.53,2.476 -4.53,5.539 0,3.023 3.021,4.532 4.53,4.532 1.509,0 5.538,0.503 5.538,-5.538 z"
       id="path21"
       inkscape:connector-curvature="0" /><path
       d="m 84.067,-43.918 c 0,-2.014 -2.014,-4.533 -5.539,-4.533 -3.061,0 -4.53,2.476 -4.53,5.539 0,3.022 3.021,4.532 4.53,4.532 1.509,0 5.539,0.504 5.539,-5.538 z"
       id="path23"
       inkscape:connector-curvature="0" /><path
       d="m 105.597,-43.366 c 0,-2.014 -2.014,-4.533 -5.538,-4.533 -3.061,0 -4.53,2.476 -4.53,5.538 0,3.023 3.02,4.532 4.53,4.532 1.509,0 5.538,0.504 5.538,-5.537 z"
       id="path25"
       inkscape:connector-curvature="0" /><path
       d="m 116.45,-35.787 c 0,-2.171 -2.172,-4.885 -5.97,-4.885 -3.299,0 -4.884,2.668 -4.884,5.969 0,3.257 3.255,4.884 4.884,4.884 1.628,0 5.97,0.544 5.97,-5.968 z"
       id="path27"
       inkscape:connector-curvature="0" /><path
       d="m 54.965,-22.654 c 0,-3.36 -3.938,-6.084 -8.795,-6.084 -4.857,0 -8.795,2.724 -8.795,6.084 v 3.406 h 17.591 v -3.406 z"
       id="path29"
       inkscape:connector-curvature="0" /><path
       d="m 77.368,-22.654 c 0,-3.36 -3.938,-6.084 -8.796,-6.084 -4.858,0 -8.796,2.724 -8.796,6.084 v 3.406 h 17.592 v -3.406 z"
       id="path31"
       inkscape:connector-curvature="0" /><path
       d="m 98.157,-22.654 c 0,-3.36 -3.938,-6.084 -8.795,-6.084 -4.857,0 -8.795,2.724 -8.795,6.084 v 3.406 h 17.59 v -3.406 z"
       id="path33"
       inkscape:connector-curvature="0" /><path
       d="m 119.82,-22.654 c 0,-3.36 -3.938,-6.084 -8.797,-6.084 -4.858,0 -8.796,2.724 -8.796,6.084 v 3.406 h 17.593 v -3.406 z"
       id="path35"
       inkscape:connector-curvature="0" /></g></svg>