<?xml version="1.0" encoding="UTF-8" standalone="no"?>
<svg
   xmlns:dc="http://purl.org/dc/elements/1.1/"
   xmlns:cc="http://creativecommons.org/ns#"
   xmlns:rdf="http://www.w3.org/1999/02/22-rdf-syntax-ns#"
   xmlns:svg="http://www.w3.org/2000/svg"
   xmlns="http://www.w3.org/2000/svg"
   xmlns:sodipodi="http://sodipodi.sourceforge.net/DTD/sodipodi-0.dtd"
   xmlns:inkscape="http://www.inkscape.org/namespaces/inkscape"
   width="205"
   height="180"
   viewBox="37.374 -119.249 205 180"
   id="svg2"
   version="1.1"
   inkscape:version="0.91 r13725"
   sodipodi:docname="talk.dark.svg">
  <metadata
     id="metadata12">
    <rdf:RDF>
      <cc:Work
         rdf:about="">
        <dc:format>image/svg+xml</dc:format>
        <dc:type
           rdf:resource="http://purl.org/dc/dcmitype/StillImage" />
        <dc:title></dc:title>
      </cc:Work>
    </rdf:RDF>
  </metadata>
  <defs
     id="defs10" />
  <sodipodi:namedview
     pagecolor="#ffffff"
     bordercolor="#666666"
     borderopacity="1"
     objecttolerance="10"
     gridtolerance="10"
     guidetolerance="10"
     inkscape:pageopacity="0"
     inkscape:pageshadow="2"
     inkscape:window-width="730"
     inkscape:window-height="480"
     id="namedview8"
     showgrid="false"
     inkscape:zoom="1.3111111"
     inkscape:cx="102.5"
     inkscape:cy="82.754237"
     inkscape:window-x="0"
     inkscape:window-y="0"
     inkscape:window-maximized="0"
     inkscape:current-layer="svg2" />
  <path
     d="M216.792-32.69c.776 3.34 2.892 7.16 4.804 6.7 3.107-.75 2.254-7.387 1.753-10.062-2.215-11.848-7.737-20.426-16.242-24.8-3.618-1.86-12.798-1.514-16.365 0-4.922 2.09-8.685 12.297-10.214 11.198-1.194-.86-2.57-4.994-4.43-9.107-1.122-2.477-3.183-5.743-5.595-4.49-2.41 1.257-2.183 4.662-.927 7.074 0 0 4.138 8.25 6.216 11.624 3.054 4.96 7.55 4.112 8.796 1.912.814-1.435 3.33-6.557 3.814-5.537 1.232 2.59-1.517 43.684-1.107 57.382.08 2.716 1.71 5.002 3.94 5.002 2.718 0 4.068-2.37 4.182-5.087.992-23.918-.127-29.615 3.323-29.615 3.28 0 2.15 5.663 2.502 30.028.038 2.703 1.383 4.674 4.08 4.674h.042c2.72-.023 4.418-2.2 4.41-4.92-.043-11.858-2.894-55.536-1.62-57.44 2.42-3.638 7.562 10.832 8.635 15.462z"
     id="path4"
     style="fill:#ffffff" />
  <path
     d="M173.437-41.567v16.91H72.784v-68.82h100.652v26.63c2.32.757 4.33 2.947 5.974 6.587.464 1.024.893 2.038 1.3 3.017V-106.212a3.637 3.637 0 0 0-3.637-3.637h-41.918v-5.76c0-2.01-1.63-3.64-3.637-3.64h-16.51a3.638 3.638 0 0 0-3.637 3.64v5.76H69.148a3.638 3.638 0 0 0-3.638 3.638v85.19c0 2.01 1.628 3.638 3.637 3.638h107.928c2.01 0 3.638-1.63 3.638-3.638V-37.3c-2.756-.174-5.337-1.684-7.276-4.267zM206.726-75.004c0-3.423-3.423-7.702-9.414-7.702-5.2 0-7.698 4.21-7.698 9.412 0 5.137 5.135 7.7 7.698 7.7 2.567.002 9.414.857 9.414-9.41zM81.498 30.98c0-3.907-3.908-8.792-10.746-8.792-5.938 0-8.787 4.803-8.787 10.744 0 5.863 5.857 8.79 8.787 8.79 2.93 0 10.746.98 10.746-10.74zM121.82 30.98c0-3.907-3.907-8.792-10.746-8.792-5.937 0-8.786 4.803-8.786 10.744 0 5.863 5.857 8.79 8.786 8.79 2.932 0 10.747.98 10.747-10.74zM159.243 30.98c0-3.907-3.908-8.792-10.746-8.792-5.938 0-8.788 4.803-8.788 10.744 0 5.863 5.857 8.79 8.787 8.79 2.93 0 10.746.98 10.746-10.74zM99.624 19.386c0-3.626-3.625-8.16-9.968-8.16-5.51 0-8.154 4.457-8.154 9.97 0 5.442 5.437 8.158 8.154 8.158 2.716 0 9.968.905 9.968-9.968zM139.945 16.345c0-3.625-3.625-8.16-9.97-8.16-5.51 0-8.154 4.458-8.154 9.97 0 5.44 5.44 8.16 8.155 8.16 2.716 0 9.97.906 9.97-9.97zM178.7 17.34c0-3.626-3.626-8.16-9.97-8.16-5.51 0-8.153 4.456-8.153 9.968 0 5.44 5.436 8.158 8.154 8.158 2.717 0 9.97.907 9.97-9.967zM198.234 30.98c0-3.907-3.91-8.792-10.746-8.792-5.938 0-8.79 4.803-8.79 10.744 0 5.863 5.858 8.79 8.79 8.79 2.93 0 10.746.98 10.746-10.74zM87.562 54.62c0-6.048-7.088-10.95-15.83-10.95-8.743 0-15.832 4.902-15.832 10.95v6.13h31.664v-6.13zM127.887 54.62c0-6.048-7.088-10.95-15.832-10.95-8.745 0-15.833 4.902-15.833 10.95v6.13h31.665v-6.13zM165.307 54.62c0-6.048-7.088-10.95-15.83-10.95-8.743 0-15.832 4.902-15.832 10.95v6.13h31.662v-6.13zM204.3 54.62c0-6.048-7.088-10.95-15.834-10.95-8.745 0-15.833 4.902-15.833 10.95v6.13H204.3v-6.13z"
     id="path6"
     style="fill:#ffffff" />
</svg>
